<svg width="16" height="16" viewBox="0 0 16 16" fill="none" xmlns="http://www.w3.org/2000/svg">
<mask id="mask0_197_2067" style="mask-type:alpha" maskUnits="userSpaceOnUse" x="0" y="0" width="16" height="16">
<rect x="0.304199" y="0.163818" width="15.48" height="15.48" fill="#D9D9D9"/>
</mask>
<g mask="url(#mask0_197_2067)">
<path d="M8.04424 13.7088L7.10899 12.8703C6.02324 11.892 5.12561 11.0482 4.41611 10.3387C3.70661 9.62917 3.14224 8.99223 2.72299 8.42786C2.30374 7.86348 2.0108 7.3448 1.84418 6.8718C1.67755 6.3988 1.59424 5.91505 1.59424 5.42055C1.59424 4.41005 1.93286 3.56617 2.61011 2.88892C3.28736 2.21167 4.13124 1.87305 5.14174 1.87305C5.70074 1.87305 6.23286 1.9913 6.73811 2.2278C7.24336 2.4643 7.67874 2.79755 8.04424 3.22755C8.40974 2.79755 8.84511 2.4643 9.35036 2.2278C9.85561 1.9913 10.3877 1.87305 10.9467 1.87305C11.9572 1.87305 12.8011 2.21167 13.4784 2.88892C14.1556 3.56617 14.4942 4.41005 14.4942 5.42055C14.4942 5.91505 14.4109 6.3988 14.2443 6.8718C14.0777 7.3448 13.7847 7.86348 13.3655 8.42786C12.9462 8.99223 12.3819 9.62917 11.6724 10.3387C10.9629 11.0482 10.0652 11.892 8.97949 12.8703L8.04424 13.7088Z" fill="#125B48"/>
</g>
</svg>
