<svg width="333" height="506" viewBox="0 0 333 506" fill="none" xmlns="http://www.w3.org/2000/svg">
<g clip-path="url(#clip0_197_2149)">
<path d="M341.936 287.551C355.44 302.193 369.353 316.588 385.604 328.241C391.671 332.595 399.937 339.744 407.578 335.583C413.246 332.498 414.346 326.575 414.572 320.576C415.165 304.321 409.539 287.701 406.252 271.963C402.157 252.333 400.465 233.197 408.246 214.19C412.352 204.182 428.011 210.438 423.894 220.501C411.263 251.344 429.584 283.218 431.222 314.459C431.933 327.897 429.455 342.066 416.975 349.505C400.519 359.309 384.85 348.925 371.454 338.723C355.763 326.779 342.033 312.449 328.703 298C321.342 290.013 334.608 279.606 341.926 287.54L341.936 287.551Z" fill="#060606"/>
<path d="M222.142 295.323C209.005 310.299 195.448 325.027 179.487 337.067C173.528 341.561 165.434 348.914 157.697 344.947C151.953 342.001 150.702 336.11 150.336 330.122C149.345 313.889 154.561 297.129 157.449 281.326C161.059 261.599 162.277 242.432 154.032 223.629C149.689 213.717 134.182 220.361 138.546 230.327C151.931 260.847 134.408 293.162 133.535 324.446C133.158 337.895 135.981 351.999 148.644 359.127C165.337 368.523 180.748 357.761 193.885 347.237C209.274 334.906 222.648 320.253 235.624 305.472C242.79 297.301 229.265 287.228 222.142 295.345V295.323Z" fill="#060606"/>
<path d="M130.636 192.743C130.55 192.743 129.806 190.593 128.093 188.873C125.528 186.282 120.721 183.831 117.111 182.95C113.964 182.176 110.591 182.563 108.059 184.767C105.257 187.196 105.44 191.314 107.617 194.098C107.261 193.969 106.744 193.808 106.097 193.722C105.677 193.668 105.386 193.657 105.311 193.657C104.179 193.679 103.037 193.872 101.97 194.248C99.4804 195.13 97.6591 197.205 96.9155 199.677C96.0749 202.494 96.8508 205.246 97.7022 207.966C97.6268 207.987 96.7646 208.17 96.6892 208.192C91.3978 209.707 89.0808 215.158 90.8158 220.297C94.9541 232.584 111.076 233.433 111.076 233.433C116.928 251.612 131.843 242.872 131.843 242.872C137.856 252.687 147.728 246.828 157.395 229.477C167.072 212.115 149.97 213.803 149.97 213.803C157.686 190.346 135.442 192.335 130.625 192.733L130.636 192.743Z" fill="white"/>
<path d="M138.848 248.161C136.057 248.161 133.643 246.624 131.66 243.593C130.086 244.399 124.773 246.732 119.514 244.732C115.538 243.216 112.574 239.593 110.688 233.95C108.22 233.713 94.1673 231.907 90.32 220.469C89.3716 217.673 89.5656 214.674 90.8481 212.245C92.0227 210.008 94.0488 208.385 96.5597 207.665C96.5921 207.665 96.8076 207.611 97.0339 207.557C96.2041 204.87 95.6006 202.214 96.4089 199.516C97.2171 196.796 99.2324 194.635 101.797 193.732C102.875 193.345 104.06 193.141 105.3 193.109C105.386 193.109 105.709 193.109 106.173 193.173C106.248 193.173 106.324 193.195 106.399 193.206C104.718 190.142 105.192 186.519 107.703 184.337C110.182 182.186 113.566 181.498 117.24 182.401C121.163 183.369 125.991 185.981 128.481 188.475C129.838 189.852 130.614 191.464 130.948 192.163C134.677 191.851 144.894 191.163 149.679 197.216C152.545 200.838 152.901 206.214 150.735 213.223C152.685 213.158 157.653 213.384 159.863 216.738C161.749 219.609 161.08 223.984 157.88 229.735C151.327 241.496 144.624 248.043 139.01 248.161C138.956 248.161 138.902 248.161 138.859 248.161H138.848ZM132.037 242.152L132.317 242.604C134.171 245.635 136.412 247.129 138.988 247.097C144.204 246.99 150.573 240.647 156.931 229.23C159.927 223.855 160.606 219.867 158.957 217.351C156.597 213.76 150.099 214.352 150.034 214.352L149.215 214.427L149.474 213.642C151.78 206.633 151.564 201.333 148.838 197.893C144.29 192.141 134.117 192.991 130.776 193.27H130.69C130.291 193.302 130.173 193.023 129.989 192.636C129.688 191.991 128.966 190.486 127.737 189.239C125.377 186.863 120.764 184.38 117.003 183.455C113.684 182.638 110.634 183.24 108.436 185.154C105.688 187.54 106.194 191.357 108.069 193.754L109.233 195.237L107.466 194.592C107.164 194.485 106.668 194.334 106.054 194.248C105.688 194.195 105.429 194.195 105.354 194.195C104.222 194.216 103.155 194.41 102.174 194.754C99.9329 195.538 98.1763 197.441 97.4542 199.828C96.6783 202.429 97.3465 204.977 98.2409 207.794L98.4134 208.321L97.8745 208.471C97.8745 208.471 97.5943 208.536 97.3572 208.589C97.1417 208.632 96.9154 208.686 96.8615 208.697C94.6091 209.342 92.8633 210.739 91.8072 212.739C90.6648 214.911 90.5032 217.598 91.3546 220.125C95.3312 231.928 110.968 232.896 111.13 232.896L111.496 232.917L111.615 233.272C113.393 238.787 116.173 242.303 119.902 243.722C125.549 245.872 131.53 242.453 131.595 242.41L132.048 242.141L132.037 242.152ZM130.636 192.743V192.679V192.733V192.743Z" fill="#060606"/>
<path d="M132.177 243.378L131.703 242.41C134.43 241.088 137.253 238.389 140.087 234.38L140.971 235.003C138.029 239.163 135.065 241.98 132.177 243.378Z" fill="#060606"/>
<path d="M146.349 228.703L145.519 228.015C149.269 223.5 150.164 216.77 150.595 213.535L151.662 213.664C151.22 217.007 150.293 223.941 146.349 228.703Z" fill="#060606"/>
<path d="M31.2853 133.831C27.9876 149.226 24.1726 165.233 19.7433 181.778C15.562 197.409 11.1542 212.352 6.60645 226.596C30.1861 232.659 53.7764 238.733 77.356 244.797C80.7723 229.499 84.792 213.492 89.523 196.871C93.9631 181.262 98.6618 166.426 103.49 152.397C79.4252 146.205 55.3498 140.013 31.2853 133.821V133.831Z" fill="#FF6600"/>
<path d="M77.7653 245.452L5.9165 226.973L6.08893 226.435C10.7984 211.675 15.2169 196.603 19.2151 181.638C23.4396 165.835 27.3192 149.71 30.757 133.713L30.8755 133.165L104.19 152.021L103.996 152.569C98.9633 167.2 94.2646 182.154 90.0401 197.011C85.5462 212.793 81.4618 228.897 77.8839 244.904L77.7653 245.442V245.452ZM7.28516 226.22L76.9463 244.141C80.5026 228.295 84.5547 212.352 88.9948 196.732C93.1761 182.047 97.8102 167.254 102.778 152.784L31.6838 134.498C28.2783 150.333 24.431 166.287 20.2496 181.928C16.2945 196.721 11.93 211.621 7.27438 226.231L7.28516 226.22Z" fill="#060606"/>
<path d="M0.657261 231.337C0.86202 230.617 1.53018 228.467 2.95272 226.747C4.93565 224.36 6.81081 224.64 7.091 224.736C33.257 233.186 53.6467 238.432 77.8406 242.937C78.1639 243.001 79.8343 243.722 80.4163 246.678C80.8904 249.108 80.3193 251.569 80.1361 252.29C66.7836 249.677 52.8492 246.506 38.4515 242.679C25.2068 239.153 12.5979 235.336 0.646484 231.348L0.657261 231.337Z" fill="#FFBF00"/>
<path d="M80.5457 252.902L80.0499 252.806C66.0832 250.075 52.0411 246.839 38.333 243.184C25.6703 239.808 12.9429 236.003 0.495698 231.853L0.0107422 231.692L0.15084 231.197C0.45259 230.122 1.16386 228.08 2.55406 226.414C4.94651 223.532 7.25274 224.22 7.2743 224.231C33.3649 232.659 53.8516 237.916 77.9592 242.41C78.5951 242.528 80.3625 243.507 80.966 246.57C81.4186 248.893 80.9875 251.225 80.6858 252.408L80.5564 252.902H80.5457ZM1.32551 230.993C13.5895 235.068 26.1229 238.819 38.6024 242.141C52.1273 245.743 65.9647 248.946 79.7482 251.645C79.9745 250.559 80.2655 248.635 79.8991 246.764C79.3494 243.926 77.7653 243.453 77.7545 243.453C53.5929 238.948 33.0739 233.67 6.94022 225.242C6.92944 225.242 5.26981 224.812 3.38388 227.08C2.3062 228.37 1.67037 229.94 1.33629 230.982L1.32551 230.993Z" fill="#060606"/>
<path d="M29.2484 142.829L101.291 160.094C102.401 160.363 103.511 159.697 103.781 158.611L106.432 147.914C106.701 146.829 106.022 145.732 104.912 145.463L32.8694 128.198C31.7594 127.929 30.6494 128.596 30.38 129.682L27.7289 140.378C27.4595 141.464 28.1384 142.561 29.2484 142.829Z" fill="#FFBF00"/>
<path d="M101.776 160.686C101.571 160.686 101.367 160.664 101.162 160.61L29.119 143.345C28.4401 143.184 27.8582 142.765 27.5025 142.174C27.1469 141.593 27.0391 140.905 27.2008 140.249L29.8519 129.553C30.1967 128.187 31.5977 127.338 32.9879 127.671L105.031 144.936C105.71 145.098 106.292 145.517 106.647 146.108C107.003 146.689 107.111 147.377 106.938 148.033L104.287 158.729C103.996 159.901 102.929 160.686 101.765 160.686H101.776ZM29.3669 142.313L101.41 159.578C102.229 159.783 103.059 159.288 103.253 158.482L105.904 147.785C106.001 147.409 105.936 147.011 105.731 146.678C105.516 146.334 105.182 146.087 104.783 145.99L32.74 128.725C31.921 128.531 31.0912 129.015 30.8972 129.821L28.2461 140.518C28.1491 140.894 28.2138 141.292 28.4186 141.625C28.6341 141.969 28.9682 142.217 29.3669 142.313Z" fill="#060606"/>
<path d="M82.8378 163.075L64.4976 232.173L65.5393 232.448L83.8795 163.35L82.8378 163.075Z" fill="#060606"/>
<path d="M61.2577 158.255L42.9175 227.353L43.9593 227.628L62.2995 158.53L61.2577 158.255Z" fill="#060606"/>
<path d="M39.68 153.435L21.3398 222.533L22.3816 222.808L40.7218 153.71L39.68 153.435Z" fill="#060606"/>
<path d="M83.1107 220.716C82.4533 223.328 81.7959 225.919 81.1816 228.488C83.1107 229.445 85.1583 230.198 87.3352 230.724C103.91 234.734 120.862 223.93 125.205 206.579C129.537 189.228 119.612 171.92 103.037 167.921C101.55 167.566 100.052 167.319 98.5646 167.19C97.6593 169.942 96.7864 172.726 95.892 175.543C97.7348 175.51 99.6099 175.715 101.474 176.166C113.954 179.187 121.422 192.217 118.157 205.278C114.891 218.329 102.132 226.478 89.6522 223.457C87.2705 222.887 85.0828 221.941 83.1107 220.716Z" fill="#FFBF00"/>
<path d="M94.2971 232.09C91.9477 232.09 89.5768 231.821 87.206 231.24C85.0183 230.714 82.906 229.94 80.9339 228.961L80.5459 228.768L80.6429 228.349C81.2679 225.768 81.9146 223.178 82.5719 220.565L82.7551 219.856L83.3802 220.243C85.3631 221.468 87.5185 222.371 89.7708 222.92C101.938 225.865 114.439 217.878 117.629 205.128C119.235 198.721 118.275 192.184 114.956 186.702C111.863 181.606 107.035 178.048 101.356 176.672C99.5669 176.242 97.7349 176.027 95.9028 176.059H95.1592L95.3855 175.36C96.2692 172.543 97.1529 169.748 98.0582 166.996L98.1875 166.588L98.6186 166.62C100.138 166.749 101.668 167.007 103.177 167.362C111.055 169.265 117.758 174.21 122.037 181.262C126.627 188.83 127.942 197.85 125.733 206.676C121.95 221.802 108.652 232.068 94.2971 232.068V232.09ZM81.796 228.198C83.585 229.058 85.4817 229.725 87.4538 230.208C103.716 234.143 120.42 223.489 124.677 206.45C126.811 197.904 125.539 189.174 121.099 181.853C116.961 175.037 110.505 170.275 102.908 168.437C101.593 168.114 100.267 167.888 98.9419 167.759C98.1659 170.146 97.4008 172.565 96.6249 175.005C98.2953 175.037 99.9657 175.253 101.604 175.64C107.563 177.08 112.639 180.821 115.872 186.164C119.353 191.894 120.345 198.731 118.674 205.407C115.344 218.727 102.261 227.059 89.523 223.984C87.3892 223.468 85.3523 222.651 83.4449 221.554C82.8845 223.78 82.3241 225.994 81.796 228.209V228.198Z" fill="#060606"/>
<path d="M53.3878 110.299C56.7394 111.073 59.6384 112.761 61.9123 115.072C65.7273 111.385 71.1264 109.686 76.4286 110.901C82.6468 112.341 87.033 117.405 88.1322 123.511C90.7941 122.608 93.7038 122.35 96.6135 123.016C105.149 124.984 110.257 133.864 108.058 142.808C107.617 144.614 106.884 146.302 105.957 147.807C105.116 147.011 104.071 146.442 102.853 146.162L59.4013 136.433L54.347 156.966C53.8081 159.159 51.5019 160.514 49.1957 159.976C46.8894 159.449 45.4669 157.235 46.0057 155.042L51.0385 134.562L48.5383 134.003L46.8787 140.776C46.3398 142.969 44.0336 144.324 41.7274 143.786C39.4211 143.259 37.9986 141.045 38.5374 138.852L40.1863 132.144L33.4616 130.638C32.2761 130.37 31.0691 130.445 30.013 130.8C29.9375 128.961 30.1208 127.037 30.5949 125.145C33.1814 114.642 43.387 107.987 53.3986 110.299H53.3878Z" fill="white"/>
<path d="M50.2089 160.643C49.8317 160.643 49.4545 160.6 49.0774 160.514C47.7841 160.213 46.7065 159.449 46.0275 158.353C45.3809 157.31 45.1869 156.095 45.4779 154.924L50.3813 134.971L48.9265 134.648L47.3854 140.905C46.7711 143.378 44.1739 144.904 41.5875 144.313C40.2943 144.012 39.2166 143.249 38.5377 142.152C37.9018 141.109 37.7078 139.895 37.988 138.723L39.5076 132.541L33.3217 131.154C32.2763 130.918 31.1556 130.961 30.1641 131.294L29.4852 131.52L29.4528 130.81C29.3666 128.897 29.5714 126.94 30.0455 125.005C32.6966 114.233 43.2148 107.396 53.4958 109.761C56.6642 110.492 59.5632 112.062 61.9125 114.309C65.943 110.643 71.3745 109.17 76.5366 110.363C82.5393 111.75 87.1841 116.598 88.5312 122.801C91.2469 121.984 94.0704 121.866 96.7215 122.479C100.817 123.425 104.319 125.951 106.561 129.606C108.996 133.552 109.708 138.282 108.554 142.926C108.113 144.743 107.38 146.474 106.388 148.086L106.043 148.645L105.558 148.194C104.772 147.452 103.802 146.936 102.703 146.689L59.7679 137.078L54.8429 157.095C54.3256 159.213 52.3535 160.632 50.1766 160.632L50.2089 160.643ZM48.1398 133.369L51.6961 134.165L46.534 155.182C46.3185 156.074 46.4694 156.998 46.9543 157.794C47.4824 158.643 48.323 159.234 49.3252 159.471C51.3405 159.944 53.3557 158.761 53.8299 156.859L59.0028 135.809L102.972 145.657C104.039 145.904 104.998 146.356 105.817 147.001C106.593 145.646 107.164 144.195 107.541 142.69C108.619 138.325 107.951 133.885 105.677 130.187C103.576 126.79 100.321 124.425 96.506 123.543C93.8657 122.93 91.0314 123.092 88.3264 124.016L87.7337 124.22L87.6259 123.608C86.5375 117.545 82.0974 112.761 76.3318 111.428C71.353 110.277 66.1155 111.782 62.3112 115.459L61.9233 115.824L61.5461 115.448C59.283 113.148 56.4271 111.546 53.2803 110.826C43.5704 108.589 33.6342 115.061 31.1232 125.274C30.7245 126.887 30.5305 128.499 30.5413 130.101C31.5435 129.875 32.5781 129.886 33.5911 130.122L40.8439 131.746L39.0657 138.991C38.8502 139.884 38.9903 140.808 39.486 141.604C40.0141 142.453 40.8547 143.055 41.8569 143.281C43.8722 143.754 45.8874 142.571 46.3616 140.669L48.1505 133.391L48.1398 133.369Z" fill="#060606"/>
<path d="M98.5643 223.844C98.5643 223.844 120.29 230.165 120.29 220.34C120.29 210.363 97.7129 207.966 97.7129 207.966" fill="white"/>
<path d="M111.41 226.381C105.462 226.381 98.8231 224.478 98.4136 224.36L98.7153 223.328C98.8554 223.371 113.178 227.467 118.135 223.758C119.224 222.941 119.752 221.823 119.752 220.34C119.752 210.954 97.8855 208.514 97.6592 208.493L97.7777 207.428C98.7153 207.525 120.829 210.008 120.829 220.34C120.829 222.167 120.14 223.608 118.782 224.618C117.025 225.94 114.299 226.381 111.41 226.381Z" fill="#060606"/>
<path d="M102.574 208.772C118.394 212.008 120.528 220.2 120.528 220.2C141.521 206.794 107.165 193.894 107.165 193.894C118.599 198.183 123.75 203.698 123.75 203.698C141.402 192.023 120.603 181.208 111.4 182.928" fill="white"/>
<path d="M120.194 221.049L120 220.34C119.978 220.264 117.704 212.416 102.466 209.31L102.681 208.256C116.163 211.008 119.903 217.286 120.797 219.383C125.076 216.512 127.069 213.481 126.746 210.363C125.819 201.591 107.251 194.506 106.971 194.399L107.348 193.388C117.316 197.129 122.511 201.741 123.815 203.01C129.084 199.409 131.089 195.603 129.613 191.969C127.349 186.379 117.316 182.38 111.486 183.466L111.292 182.412C117.618 181.23 128.125 185.465 130.615 191.572C131.8 194.474 131.66 198.946 124.483 203.87C126.293 205.827 127.576 207.977 127.813 210.266C128.201 213.954 125.841 217.458 120.808 220.673L120.183 221.071L120.194 221.049Z" fill="#060606"/>
<path d="M151.188 213.803C152.513 208.009 151.802 203.214 151.112 200.946C149.345 195.173 143.795 192.657 136.025 192.281C125.851 191.787 120.84 193.335 116.023 194.883C112.596 195.99 110.096 199.194 110.365 202.72C111.152 212.9 132.781 211.728 132.781 211.728C132.781 211.728 120.916 226.177 140.109 229.735" fill="white"/>
<path d="M140.012 230.262C134.009 229.144 130.335 226.854 129.084 223.436C127.489 219.092 130.313 214.276 131.682 212.298C127.112 212.395 110.548 212.083 109.826 202.763C109.546 199.118 112.079 195.581 115.851 194.367C120.409 192.894 125.582 191.227 136.046 191.744C144.668 192.163 149.916 195.205 151.619 200.795C152.47 203.58 152.944 208.503 151.705 213.932L150.66 213.696C151.856 208.471 151.403 203.773 150.595 201.118C149.011 195.947 144.237 193.238 135.992 192.829C125.733 192.335 120.657 193.958 116.185 195.399C112.876 196.463 110.656 199.527 110.904 202.687C111.637 212.234 132.544 211.212 132.759 211.202L133.977 211.137L133.201 212.083C133.147 212.148 128.287 218.157 130.097 223.092C131.207 226.123 134.613 228.187 140.206 229.23L140.012 230.284V230.262Z" fill="#060606"/>
<path d="M366.961 536.723C377.554 535.992 385.561 527.37 384.818 517.501C382.231 483.358 376.595 406.611 372.683 337.046C367.456 244.055 314.963 234.81 314.963 234.81C337.109 206.493 320.771 173.575 307.613 145.452C304.692 139.196 276.457 62.5134 289.357 61.5674L231.141 65.8352C232.509 65.7385 235.548 99.6882 235.548 102.387C235.538 144.023 192.549 203.397 232.078 241.002C232.078 241.002 180.608 257.751 189.047 350.505C195.373 420.038 201.041 496.957 203.477 531.004C204.177 540.873 213.359 548.237 223.942 547.42C258.794 544.743 332.076 539.152 366.961 536.734V536.723Z" fill="#AADC66"/>
<path d="M222.39 548C217.508 548 212.766 546.291 209.178 543.205C205.492 540.045 203.283 535.712 202.949 531.025C200.75 500.29 194.952 421.156 188.518 350.537C184.143 302.451 196.138 275.102 206.968 260.632C217.045 247.162 228.048 242.012 231.098 240.787C205.201 215.47 215.482 181.187 225.429 148.022C230.354 131.606 235.01 116.104 235.01 102.387C235.01 99.3549 232.132 68.0068 230.85 66.2438C230.882 66.2868 231.011 66.3728 231.184 66.3728L231.108 65.2977L231.345 65.2762L289.325 61.0298L289.4 62.1049C288.602 62.1586 287.999 62.5671 287.536 63.3519C281.307 73.941 305.328 139.303 308.098 145.227L309.089 147.334C322.151 175.199 336.947 206.762 315.9 234.476C322.916 236.196 368.361 250.666 373.211 337.024C377.037 405.063 382.457 479.284 385.346 517.469C385.701 522.156 384.149 526.747 380.97 530.412C377.522 534.39 372.435 536.884 366.993 537.26C332.895 539.625 262.76 544.968 223.985 547.946C223.457 547.989 222.918 548.011 222.39 548.011V548ZM232.003 66.3083C233.792 71.92 236.087 102.075 236.087 102.387C236.087 116.265 231.41 131.843 226.464 148.334C216.527 181.445 206.257 215.695 232.455 240.604L233.102 241.228L232.251 241.507C232.121 241.55 219.362 245.85 207.787 261.352C197.086 275.672 185.253 302.763 189.596 350.451C196.019 421.081 201.828 500.215 204.026 530.961C204.339 535.358 206.419 539.421 209.878 542.399C213.65 545.646 218.769 547.29 223.909 546.882C262.684 543.904 332.83 538.561 366.928 536.196C372.079 535.841 376.907 533.476 380.162 529.714C383.147 526.263 384.613 521.941 384.279 517.555C381.391 479.359 375.97 405.128 372.144 337.089C367.036 246.302 316.999 235.756 314.876 235.347L314.596 235.293L314.337 234.745L314.531 234.487C335.923 207.127 321.148 175.607 308.108 147.796L307.117 145.689C304.207 139.475 280.056 73.9518 286.598 62.8144C286.706 62.6209 286.824 62.4489 286.954 62.2876L231.981 66.319L232.003 66.3083Z" fill="#060606"/>
<path d="M223.222 43.2923L289.354 38.4479C291.729 38.2738 293.806 40.062 293.98 42.4315L296.132 71.6583L221.381 77.1342L219.229 47.9074C219.055 45.5379 220.847 43.4663 223.222 43.2923Z" fill="#AADC66"/>
<path d="M220.871 77.7144L218.683 47.9467C218.489 45.2806 220.504 42.9585 223.166 42.7542L289.303 37.9166C291.976 37.7338 294.304 39.7334 294.508 42.3887L296.696 72.1565L296.157 72.1995L220.871 77.7144ZM289.67 38.9808C289.573 38.9808 289.486 38.9808 289.389 38.9808L223.252 43.8185C221.172 43.969 219.61 45.7858 219.761 47.8499L221.873 76.5426L295.543 71.1459L293.431 42.4532C293.291 40.4752 291.62 38.9593 289.659 38.9593L289.67 38.9808Z" fill="#060606"/>
<path d="M235.667 526.553C219.071 527.252 220.741 501.763 218.392 490.948C217.034 484.68 207.399 487.336 208.757 493.592C210.977 503.838 210.331 514.803 215.439 524.274C219.491 531.788 226.97 536.884 235.667 536.508C242.068 536.239 242.111 526.274 235.667 526.542V526.553Z" fill="white"/>
<path d="M352.132 289.744C346.808 276.951 339.383 265.276 330.007 255.063C325.599 250.269 317.517 256.73 322.42 261.503C331.688 270.501 337.799 282.057 343.025 293.851C345.569 299.591 354.578 295.624 352.132 289.733V289.744Z" fill="white"/>
<path d="M223.359 12.5392L284.837 8.03563C286.513 7.91281 287.968 9.17523 288.09 10.8371L289.901 35.4322C290.024 37.1047 288.758 38.5556 287.092 38.6777L225.615 43.1812C223.938 43.3041 222.484 42.0416 222.361 40.3798L220.551 15.7847C220.428 14.1121 221.693 12.6612 223.359 12.5392Z" fill="#FF6600"/>
<path d="M225.396 43.7432C224.534 43.7432 223.715 43.4422 223.058 42.8725C222.336 42.2489 221.894 41.3782 221.829 40.4321L220.019 15.8353C219.954 14.8892 220.256 13.9647 220.881 13.2444C221.506 12.5242 222.379 12.0834 223.327 12.0189L284.809 7.51449C285.768 7.43924 286.684 7.751 287.406 8.37452C288.128 8.99804 288.57 9.86882 288.635 10.8149L290.445 35.4117C290.51 36.3577 290.208 37.2823 289.583 38.0025C288.958 38.7228 288.085 39.1636 287.137 39.2281L225.655 43.7325C225.569 43.7325 225.472 43.7325 225.386 43.7325L225.396 43.7432ZM285.078 8.56803C285.014 8.56803 284.949 8.56803 284.895 8.56803L223.414 13.0724C222.034 13.1692 221 14.3732 221.097 15.7493L222.907 40.3461C222.961 41.0126 223.263 41.6147 223.769 42.0554C224.276 42.4962 224.922 42.7112 225.59 42.6574L287.072 38.153C287.74 38.11 288.344 37.7983 288.786 37.293C289.227 36.7877 289.432 36.1427 289.389 35.4762L287.579 10.8794C287.535 10.2128 287.223 9.61081 286.716 9.17005C286.253 8.77229 285.682 8.56803 285.089 8.56803H285.078Z" fill="#060606"/>
<path d="M277.898 0.574884L229.135 4.14703L229.692 11.7164L278.455 8.14426L277.898 0.574884Z" fill="white"/>
<path d="M229.201 12.2984L228.565 3.65513L278.408 0L279.043 8.6433L229.201 12.2877V12.2984ZM229.718 4.64416L230.192 11.1481L277.88 7.65426L277.405 1.15029L229.718 4.64416Z" fill="#060606"/>
<path d="M280.66 73.124L270.96 8.85829L275.961 8.15952L285.66 72.4252L280.66 73.124Z" fill="#060606"/>
<path d="M238.857 76.1986H233.802L234.567 11.0084H239.611L238.857 76.1986Z" fill="#060606"/>
<path d="M230.934 81.1375L289.553 76.6996L289.192 71.9616L230.573 76.3994L230.934 81.1375Z" fill="#060606"/>
<path d="M230.44 81.7136L229.998 75.8976L289.691 71.3824L290.133 77.1984L230.44 81.7136ZM231.162 76.8974L231.442 80.5633L288.99 76.2094L288.71 72.5435L231.162 76.8974Z" fill="#060606"/>
<path d="M311.376 515.827L277.8 518.286C249.522 520.358 224.868 499.139 222.791 470.92L213.225 340.987L349.282 331.02L358.848 460.954C360.924 489.162 339.653 513.755 311.365 515.828L311.376 515.827Z" fill="white"/>
<path d="M274.011 518.953C247.091 518.953 224.265 498.151 222.261 470.952L212.659 340.486L213.198 340.443L349.793 330.445L349.836 330.982L359.395 460.911C361.486 489.389 339.965 514.265 311.417 516.362L277.847 518.824C276.565 518.92 275.283 518.963 274.011 518.963V518.953ZM213.823 341.475L223.349 470.866C225.408 498.753 249.785 519.78 277.783 517.738L311.352 515.276C324.899 514.287 337.238 508.095 346.118 497.839C354.988 487.583 359.331 474.5 358.339 460.987L348.823 331.595L213.833 341.475H213.823Z" fill="#060606"/>
<path d="M291.264 454.493L321.062 480.262L314.941 440.926L351.151 432.788L319.155 413.782L335.385 380.154L300.737 393.506L284.432 356.719L273.547 395.356L235.365 385.583L258.061 417.953L228.964 441.131L265.95 444.27L265.81 481.692L291.264 454.493Z" fill="#FFBF00"/>
<path d="M325.211 367.147L331.914 372.565L330.459 364.158L338.51 362.287L331.343 358.321L334.889 351.043L327.194 354.031L323.476 346.194L321.138 354.526L312.602 352.558L317.732 359.417L311.298 364.491L319.553 365.039L319.607 373.07L325.211 367.147Z" fill="#FFBF00"/>
<path d="M294.584 497.226L301.287 502.644L299.832 494.227L307.882 492.356L300.716 488.4L304.251 481.122L296.567 484.111L292.849 476.274L290.51 484.605L281.975 482.638L287.105 489.496L280.671 494.571L288.926 495.119L288.969 503.139L294.584 497.226Z" fill="#FFBF00"/>
<path d="M245.571 374.124L252.274 379.552L250.819 371.135L258.88 369.264L251.703 365.297L255.249 358.03L247.554 361.019L243.836 353.182L241.497 361.503L232.973 359.546L238.103 366.405L231.669 371.479L239.913 372.027L239.967 380.047L245.571 374.124Z" fill="#FFBF00"/>
<path d="M260.992 299.946C265.583 306.859 271.661 311.535 279.722 311.051C287.557 310.589 292.687 305.461 295.995 298.28V298.258C304.67 279.467 300.952 246.635 300.952 246.635L283.774 247.968L262.285 249.645L247.349 250.817C247.349 250.817 249.429 282.541 261.003 299.946H260.992Z" fill="#060606"/>
<path d="M278.58 311.632C271.618 311.632 265.561 307.805 260.539 300.247C249.008 282.917 246.81 251.172 246.788 250.849L246.756 250.322L301.416 246.065L301.47 246.581C301.502 246.914 305.091 279.606 296.534 298.344L296.469 298.505C292.665 306.762 287.039 311.159 279.744 311.589C279.356 311.61 278.957 311.621 278.569 311.621L278.58 311.632ZM247.909 251.311C248.254 255.526 250.883 283.788 261.445 299.656C266.51 307.289 272.652 310.954 279.69 310.524C286.511 310.127 291.814 305.977 295.435 298.204L295.499 298.043C303.431 280.875 300.877 251.473 300.457 247.226L247.909 251.322V251.311Z" fill="#060606"/>
<path d="M260.852 298.699C265.518 306.267 271.65 311.417 279.711 310.976C287.546 310.557 292.633 305.031 295.877 297.258V297.237C294.616 286.153 285.779 278.155 276.144 279.338C267.361 280.413 260.927 288.809 260.852 298.699Z" fill="#FF6600"/>
<path d="M278.752 311.535C271.704 311.535 265.529 307.31 260.388 298.968L260.302 298.839V298.688C260.388 288.443 267.167 279.886 276.069 278.789C280.423 278.252 284.83 279.542 288.473 282.412C292.837 285.842 295.726 291.227 296.394 297.172V297.312L296.361 297.463C292.633 306.396 287.039 311.126 279.733 311.513C279.399 311.535 279.075 311.546 278.752 311.546V311.535ZM261.391 298.548C266.531 306.826 272.663 310.825 279.679 310.438C286.501 310.073 291.77 305.611 295.316 297.183C294.637 291.55 291.911 286.487 287.805 283.261C284.388 280.574 280.272 279.37 276.198 279.864C267.868 280.886 261.52 288.905 261.38 298.548H261.391Z" fill="#060606"/>
<path d="M301.352 236.39C299.476 240.013 295.306 249.258 296.243 261.567C297.235 274.661 303.421 283.466 305.878 286.626" fill="#AADC66"/>
<path d="M305.458 286.96C302.225 282.799 296.653 273.973 295.705 261.61C294.853 250.473 298.043 241.615 300.867 236.143L301.826 236.637C299.067 241.98 295.952 250.634 296.782 261.524C297.698 273.608 303.141 282.229 306.309 286.293L305.458 286.949V286.96Z" fill="#060606"/>
<path d="M245.043 239.55C247.123 243.044 251.811 251.999 251.584 264.352C251.347 277.488 245.679 286.68 243.405 289.991" fill="#AADC66"/>
<path d="M243.857 290.292L242.963 289.69C245.883 285.422 250.819 276.467 251.045 264.341C251.25 253.418 247.64 244.979 244.579 239.83L245.506 239.282C248.642 244.56 252.328 253.193 252.123 264.362C251.897 276.757 246.843 285.928 243.857 290.292Z" fill="#060606"/>
<path d="M262.415 229.531C262.253 234.433 266.1 238.529 271.014 238.69C275.929 238.852 280.035 235.014 280.196 230.112C280.358 225.209 276.511 221.114 271.596 220.952C266.682 220.791 262.576 224.629 262.415 229.531Z" fill="#FFBF00"/>
<path d="M271.306 239.228C271.198 239.228 271.09 239.228 270.993 239.228C265.799 239.056 261.703 234.702 261.876 229.51C262.048 224.328 266.391 220.264 271.618 220.415C276.812 220.587 280.908 224.941 280.735 230.133C280.649 232.649 279.593 234.971 277.75 236.691C275.993 238.336 273.709 239.228 271.306 239.228ZM271.295 221.49C269.172 221.49 267.146 222.285 265.594 223.737C263.967 225.263 263.029 227.317 262.954 229.553C262.803 234.143 266.424 238.002 271.036 238.153C275.616 238.282 279.507 234.691 279.658 230.101C279.733 227.876 278.936 225.758 277.405 224.134C275.875 222.511 273.806 221.576 271.575 221.501C271.478 221.501 271.392 221.501 271.295 221.501V221.49Z" fill="#060606"/>
<path d="M198.562 185.186C183.259 185.186 176.491 173.296 176.416 173.145L177.364 172.629C177.364 172.629 179.757 176.897 184.833 180.187C189.499 183.208 197.485 186.046 209.027 182.369L209.35 183.391C205.362 184.659 201.774 185.186 198.562 185.186Z" fill="#060606"/>
<path d="M198.595 170.264C183.292 170.264 176.524 158.374 176.448 158.224L177.397 157.708C177.397 157.708 179.789 161.976 184.865 165.265C189.531 168.297 197.517 171.124 209.059 167.448L209.382 168.469C205.395 169.738 201.806 170.264 198.595 170.264Z" fill="#060606"/>
<path d="M205.449 156.289C190.146 156.289 183.378 144.399 183.302 144.248L184.251 143.732C184.251 143.732 186.643 148 191.719 151.29C196.385 154.311 204.371 157.149 215.913 153.472L216.236 154.494C212.249 155.762 208.66 156.289 205.449 156.289Z" fill="#060606"/>
<path d="M226.366 130.724C237.919 130.692 243.092 138.68 244.687 147.56C246.099 155.429 242.241 161.664 241.691 169.265C241.141 176.973 249.741 181.81 251.789 188.83C254.138 196.893 251.67 203.978 249.149 212.266C246.627 220.598 250.862 225.715 249.838 233.627C248.416 244.614 234.568 257.396 223.273 251.139C210.492 244.066 216.193 231.498 214.393 220.049C212.637 208.944 201.763 203.225 205.966 190.013C207.615 184.831 210.007 180.434 210.643 174.973C211.624 166.491 206.613 159.6 206.666 151.107C206.731 142.077 211.193 130.767 226.366 130.724Z" fill="#060606"/>
<path d="M229.632 253.311C227.304 253.311 225.062 252.741 223.015 251.612C213.65 246.431 213.898 238.508 214.167 230.112C214.275 226.811 214.372 223.403 213.865 220.135C213.208 215.943 211.171 212.47 209.21 209.105C206.063 203.73 202.808 198.183 205.47 189.841C206.009 188.142 206.634 186.519 207.237 184.949C208.509 181.649 209.705 178.521 210.126 174.908C210.643 170.458 209.479 166.502 208.24 162.32C207.194 158.772 206.117 155.106 206.138 151.096C206.214 141.013 211.57 130.219 226.377 130.176H226.442C240.085 130.176 244.062 140.991 245.226 147.452C246.109 152.354 244.967 156.697 243.879 160.901C243.178 163.588 242.456 166.362 242.24 169.297C241.939 173.565 244.557 176.897 247.338 180.434C249.353 182.993 251.422 185.637 252.317 188.68C254.569 196.409 252.511 203.15 250.129 210.954L249.676 212.427C248.297 216.964 248.976 220.479 249.698 224.199C250.258 227.123 250.851 230.133 250.388 233.702C249.493 240.561 243.943 248.011 237.175 251.419C234.654 252.687 232.1 253.322 229.642 253.322L229.632 253.311ZM226.377 131.262C221.915 131.273 207.345 132.746 207.216 151.107C207.184 154.956 208.25 158.546 209.274 162.019C210.481 166.125 211.731 170.372 211.193 175.038C210.761 178.789 209.533 181.971 208.24 185.347C207.636 186.906 207.022 188.518 206.494 190.185C203.983 198.065 206.979 203.171 210.136 208.579C212.152 212.019 214.242 215.588 214.932 219.974C215.46 223.339 215.352 226.801 215.245 230.144C214.997 238.196 214.749 245.807 223.543 250.666C228.543 253.44 233.447 252.075 236.69 250.441C243.157 247.183 248.469 240.077 249.321 233.552C249.763 230.155 249.192 227.231 248.642 224.392C247.931 220.705 247.187 216.899 248.642 212.116L249.095 210.643C251.433 202.999 253.448 196.409 251.282 188.981C250.452 186.132 248.437 183.573 246.487 181.101C243.706 177.564 240.829 173.909 241.163 169.222C241.378 166.19 242.122 163.363 242.833 160.632C243.954 156.353 245.01 152.322 244.17 147.646C243.07 141.518 239.298 131.251 226.442 131.251H226.377V131.262Z" fill="#060606"/>
<path d="M214.383 220.049C216.182 231.498 210.481 244.066 223.273 251.139C226.905 253.16 230.828 253.214 234.524 251.967C232.929 251.784 231.367 251.268 229.826 250.419C217.044 243.356 222.745 230.778 220.935 219.329C219.189 208.235 208.305 202.505 212.518 189.282C214.178 184.122 216.56 179.714 217.185 174.253C218.176 165.781 213.143 158.88 213.219 150.387C213.283 142.7 216.516 133.369 226.83 130.746C226.69 130.714 226.517 130.724 226.377 130.714C211.203 130.746 206.731 142.066 206.666 151.096C206.602 159.6 211.624 166.491 210.632 174.962C210.007 180.423 207.626 184.831 205.966 189.991C201.752 203.214 212.626 208.944 214.383 220.039V220.049Z" fill="white"/>
<path d="M229.664 253.332C227.325 253.332 225.084 252.752 223.015 251.612C213.65 246.431 213.898 238.508 214.156 230.112C214.264 226.811 214.372 223.403 213.854 220.146C213.197 215.953 211.16 212.492 209.199 209.127C206.052 203.752 202.797 198.194 205.459 189.852C205.998 188.185 206.612 186.583 207.205 185.046C208.488 181.713 209.695 178.574 210.104 174.93C210.621 170.479 209.458 166.523 208.229 162.341C207.184 158.794 206.106 155.128 206.138 151.118C206.214 141.023 211.57 130.23 226.388 130.198H226.539C226.657 130.198 226.808 130.198 226.97 130.241L229.017 130.757L226.97 131.284C214.846 134.38 213.801 146.7 213.768 150.408C213.736 154.257 214.792 157.848 215.816 161.32C217.023 165.427 218.273 169.673 217.734 174.339C217.303 178.123 216.074 181.326 214.77 184.713C214.178 186.25 213.574 187.83 213.046 189.465C210.535 197.345 213.52 202.462 216.689 207.869C218.704 211.309 220.784 214.868 221.474 219.265C222.002 222.629 221.894 226.091 221.786 229.434C221.528 237.497 221.29 245.108 230.084 249.968C231.55 250.774 233.069 251.279 234.589 251.451L236.992 251.72L234.697 252.494C232.994 253.064 231.302 253.354 229.664 253.354V253.332ZM214.911 219.963C215.439 223.328 215.331 226.79 215.223 230.133C214.964 238.196 214.727 245.807 223.521 250.666C226.162 252.128 229.114 252.591 232.186 252.021C231.302 251.741 230.418 251.365 229.556 250.892C220.191 245.71 220.439 237.787 220.698 229.391C220.805 226.091 220.913 222.683 220.396 219.426C219.739 215.233 217.702 211.772 215.74 208.407C212.594 203.031 209.339 197.474 212.001 189.131C212.54 187.465 213.154 185.863 213.747 184.315C215.029 180.982 216.236 177.843 216.646 174.199C217.163 169.748 215.999 165.792 214.77 161.61C213.725 158.063 212.647 154.397 212.68 150.387C212.712 146.882 213.617 136.014 223.166 131.488C217.206 132.316 207.313 135.992 207.205 151.118C207.173 154.967 208.229 158.557 209.253 162.03C210.46 166.136 211.71 170.383 211.171 175.048C210.74 178.832 209.511 182.036 208.207 185.422C207.615 186.949 207.011 188.54 206.483 190.174C203.972 198.054 206.957 203.171 210.126 208.579C212.141 212.019 214.221 215.577 214.911 219.974V219.963Z" fill="#060606"/>
<path d="M331.052 177.048C328.854 177.048 326.472 176.833 323.907 176.349L324.112 175.295C346.905 179.617 354.287 161.987 354.362 161.804L355.365 162.202C355.3 162.374 349.168 177.048 331.052 177.048Z" fill="#060606"/>
<path d="M329.209 162.245C327.011 162.245 324.629 162.03 322.064 161.546L322.269 160.492C345.084 164.814 352.444 147.183 352.52 147.001L353.522 147.398C353.457 147.57 347.325 162.245 329.209 162.245Z" fill="#060606"/>
<path d="M320.707 149.194C318.508 149.194 316.126 148.979 313.562 148.495L313.766 147.441C336.581 151.763 343.941 134.132 344.017 133.95L345.019 134.347C344.954 134.519 338.822 149.194 320.707 149.194Z" fill="#060606"/>
<path d="M304.433 122.038C315.975 121.522 321.482 129.273 323.454 138.078C325.2 145.882 321.612 152.268 321.385 159.89C321.159 167.62 329.964 172.092 332.302 179.015C334.996 186.97 332.83 194.152 330.664 202.548C328.498 210.976 332.959 215.91 332.27 223.855C331.311 234.896 318.023 248.247 306.47 242.485C293.409 235.96 298.56 223.167 296.265 211.804C294.044 200.785 282.923 195.528 286.565 182.143C287.988 176.897 290.197 172.404 290.596 166.921C291.221 158.407 285.908 151.741 285.606 143.238C285.283 134.208 289.26 122.726 304.423 122.038H304.433Z" fill="#060606"/>
<path d="M312.311 244.399C310.199 244.399 308.141 243.926 306.233 242.969C296.663 238.185 296.566 230.262 296.48 221.866C296.437 218.566 296.405 215.158 295.747 211.911C294.907 207.751 292.73 204.364 290.618 201.096C287.245 195.861 283.764 190.454 286.059 182.014C286.522 180.294 287.083 178.639 287.622 177.048C288.743 173.694 289.809 170.522 290.079 166.899C290.402 162.427 289.077 158.525 287.665 154.397C286.469 150.903 285.24 147.28 285.089 143.281C284.734 133.197 289.626 122.189 304.423 121.522C318.142 120.888 322.56 131.574 323.993 137.981C325.082 142.84 324.133 147.237 323.217 151.473C322.636 154.182 322.021 156.988 321.935 159.922C321.806 164.201 324.575 167.415 327.496 170.834C329.608 173.307 331.807 175.855 332.82 178.865C335.406 186.497 333.628 193.324 331.58 201.215L331.192 202.698C330.007 207.289 330.837 210.772 331.72 214.448C332.41 217.34 333.121 220.329 332.809 223.919C332.216 230.81 326.979 238.486 320.362 242.174C317.7 243.657 314.962 244.41 312.311 244.41V244.399ZM304.433 122.038L304.455 122.576C299.993 122.78 285.499 124.855 286.156 143.216C286.296 147.065 287.503 150.602 288.667 154.031C290.046 158.084 291.48 162.266 291.135 166.953C290.855 170.716 289.777 173.952 288.624 177.37C288.096 178.951 287.546 180.595 287.083 182.283C284.917 190.26 288.117 195.237 291.512 200.505C293.667 203.859 295.909 207.332 296.793 211.696C297.472 215.04 297.504 218.501 297.547 221.845C297.633 229.907 297.72 237.519 306.707 242.002C311.826 244.56 316.665 242.991 319.834 241.217C326.16 237.691 331.16 230.359 331.731 223.801C332.022 220.393 331.332 217.48 330.664 214.674C329.791 211.03 328.897 207.246 330.147 202.408L330.535 200.924C332.539 193.195 334.274 186.519 331.796 179.187C330.847 176.381 328.724 173.909 326.677 171.511C323.746 168.093 320.717 164.567 320.857 159.869C320.944 156.826 321.569 153.978 322.161 151.215C323.099 146.893 323.983 142.819 322.937 138.185C321.579 132.101 317.376 121.984 304.466 122.565L304.444 122.027L304.433 122.038Z" fill="#060606"/>
<path d="M296.265 211.793C298.549 223.156 293.398 235.96 306.47 242.475C310.188 244.334 314.111 244.227 317.754 242.819C316.148 242.7 314.564 242.26 312.99 241.475C299.918 234.96 305.08 222.156 302.785 210.793C300.565 199.785 289.443 194.528 293.096 181.133C294.53 175.898 296.728 171.404 297.116 165.921C297.741 157.418 292.428 150.731 292.137 142.238C291.879 134.552 294.713 125.102 304.897 122.038C304.757 122.006 304.584 122.038 304.444 122.038C289.281 122.715 285.305 134.218 285.617 143.238C285.908 151.731 291.232 158.407 290.596 166.921C290.208 172.404 288.01 176.908 286.576 182.133C282.923 195.528 294.045 200.785 296.265 211.793Z" fill="white"/>
<path d="M312.344 244.41C310.221 244.41 308.152 243.926 306.223 242.959C296.642 238.185 296.556 230.252 296.459 221.856C296.426 218.555 296.383 215.147 295.726 211.912C294.885 207.751 292.708 204.376 290.607 201.107C287.234 195.872 283.742 190.454 286.048 182.004C286.512 180.316 287.061 178.693 287.589 177.123C288.721 173.748 289.799 170.555 290.057 166.889C290.391 162.417 289.055 158.514 287.643 154.386C286.447 150.882 285.208 147.27 285.068 143.26C284.712 133.176 289.615 122.157 304.412 121.501H304.563C304.681 121.501 304.832 121.49 304.994 121.522L307.063 121.952L305.037 122.565C293.053 126.167 292.536 138.53 292.665 142.238C292.795 146.087 294.012 149.624 295.176 153.053C296.556 157.106 297.989 161.288 297.644 165.975C297.375 169.77 296.276 173.017 295.122 176.468C294.594 178.026 294.056 179.628 293.603 181.294C291.426 189.282 294.637 194.259 298.032 199.527C300.187 202.881 302.429 206.343 303.302 210.707C303.97 214.051 304.013 217.512 304.056 220.856C304.143 228.919 304.229 236.53 313.227 241.013C314.725 241.755 316.266 242.195 317.786 242.303L320.2 242.475L317.948 243.346C316.072 244.066 314.187 244.431 312.354 244.431L312.344 244.41ZM296.793 211.697C297.461 215.04 297.504 218.502 297.547 221.845C297.633 229.908 297.72 237.519 306.718 242.002C309.412 243.346 312.387 243.679 315.426 242.98C314.531 242.744 313.637 242.4 312.753 241.959C303.173 237.186 303.086 229.252 302.989 220.856C302.957 217.555 302.914 214.148 302.257 210.912C301.416 206.751 299.239 203.376 297.138 200.108C293.765 194.872 290.273 189.454 292.579 181.004C293.042 179.316 293.592 177.693 294.12 176.124C295.252 172.748 296.329 169.555 296.588 165.9C296.922 161.428 295.586 157.525 294.174 153.397C292.978 149.893 291.738 146.281 291.598 142.271C291.48 138.766 291.922 127.876 301.276 122.941C295.349 124.027 285.628 128.112 286.156 143.227C286.285 147.076 287.503 150.613 288.667 154.042C290.047 158.095 291.48 162.277 291.135 166.964C290.866 170.759 289.766 174.016 288.613 177.457C288.085 179.015 287.546 180.617 287.094 182.273C284.917 190.26 288.128 195.238 291.523 200.505C293.678 203.859 295.92 207.321 296.793 211.686V211.697Z" fill="#060606"/>
</g>
<defs>
<clipPath id="clip0_197_2149">
<rect width="553" height="548" fill="white"/>
</clipPath>
</defs>
</svg>
