<svg width="359" height="548" viewBox="0 0 359 548" fill="none" xmlns="http://www.w3.org/2000/svg">
<g clip-path="url(#clip0_197_195)">
<rect width="359" height="548" rx="8" fill="#E5F4D0"/>
<g clip-path="url(#clip1_197_195)">
<path d="M367.936 329.551C381.44 344.193 395.353 358.588 411.604 370.241C417.671 374.595 425.937 381.744 433.578 377.583C439.246 374.498 440.346 368.575 440.572 362.576C441.165 346.321 435.539 329.701 432.252 313.963C428.157 294.333 426.465 275.197 434.246 256.19C438.352 246.182 454.011 252.438 449.894 262.501C437.263 293.344 455.584 325.218 457.222 356.459C457.933 369.897 455.455 384.066 442.975 391.505C426.519 401.309 410.85 390.925 397.454 380.723C381.763 368.779 368.033 354.449 354.703 340C347.342 332.013 360.608 321.606 367.926 329.54L367.936 329.551Z" fill="#060606"/>
<path d="M248.142 337.323C235.005 352.299 221.448 367.027 205.487 379.067C199.528 383.561 191.434 390.914 183.697 386.947C177.953 384.001 176.702 378.11 176.336 372.122C175.345 355.889 180.561 339.129 183.449 323.326C187.059 303.599 188.277 284.432 180.032 265.629C175.689 255.717 160.182 262.361 164.546 272.327C177.931 302.847 160.408 335.162 159.535 366.446C159.158 379.895 161.981 393.999 174.644 401.127C191.337 410.523 206.748 399.761 219.885 389.237C235.274 376.906 248.648 362.253 261.624 347.472C268.79 339.301 255.265 329.228 248.142 337.345V337.323Z" fill="#060606"/>
<path d="M156.636 234.743C156.55 234.743 155.806 232.593 154.093 230.873C151.528 228.282 146.721 225.831 143.111 224.95C139.964 224.176 136.591 224.563 134.059 226.767C131.257 229.196 131.44 233.314 133.617 236.098C133.261 235.969 132.744 235.808 132.097 235.722C131.677 235.668 131.386 235.657 131.311 235.657C130.179 235.679 129.037 235.872 127.97 236.248C125.48 237.13 123.659 239.205 122.915 241.677C122.075 244.494 122.851 247.246 123.702 249.966C123.627 249.987 122.765 250.17 122.689 250.192C117.398 251.707 115.081 257.158 116.816 262.297C120.954 274.584 137.076 275.433 137.076 275.433C142.928 293.612 157.843 284.872 157.843 284.872C163.856 294.687 173.728 288.828 183.395 271.477C193.072 254.115 175.97 255.803 175.97 255.803C183.686 232.346 161.442 234.335 156.625 234.733L156.636 234.743Z" fill="white"/>
<path d="M164.848 290.161C162.057 290.161 159.643 288.624 157.66 285.593C156.086 286.399 150.773 288.732 145.514 286.732C141.538 285.216 138.574 281.593 136.688 275.95C134.22 275.713 120.167 273.907 116.32 262.469C115.372 259.673 115.566 256.674 116.848 254.245C118.023 252.008 120.049 250.385 122.56 249.665C122.592 249.665 122.808 249.611 123.034 249.557C122.204 246.87 121.601 244.214 122.409 241.516C123.217 238.796 125.232 236.635 127.797 235.732C128.875 235.345 130.06 235.141 131.3 235.109C131.386 235.109 131.709 235.109 132.173 235.173C132.248 235.173 132.324 235.195 132.399 235.206C130.718 232.142 131.192 228.519 133.703 226.337C136.182 224.186 139.566 223.498 143.24 224.401C147.163 225.369 151.991 227.981 154.481 230.475C155.838 231.852 156.614 233.464 156.948 234.163C160.677 233.851 170.894 233.163 175.679 239.216C178.545 242.838 178.901 248.214 176.735 255.223C178.685 255.158 183.653 255.384 185.863 258.738C187.749 261.609 187.08 265.984 183.88 271.735C177.327 283.496 170.624 290.043 165.01 290.161C164.956 290.161 164.902 290.161 164.859 290.161H164.848ZM158.037 284.152L158.317 284.604C160.171 287.635 162.412 289.129 164.988 289.097C170.204 288.99 176.573 282.647 182.931 271.23C185.927 265.855 186.606 261.867 184.957 259.351C182.597 255.76 176.099 256.352 176.034 256.352L175.215 256.427L175.474 255.642C177.78 248.633 177.564 243.333 174.838 239.893C170.29 234.141 160.117 234.991 156.776 235.27H156.69C156.291 235.302 156.173 235.023 155.989 234.636C155.688 233.991 154.966 232.486 153.737 231.239C151.377 228.863 146.764 226.38 143.003 225.455C139.684 224.638 136.634 225.24 134.436 227.154C131.688 229.54 132.194 233.357 134.069 235.754L135.233 237.237L133.466 236.592C133.164 236.485 132.668 236.334 132.054 236.248C131.688 236.195 131.429 236.195 131.354 236.195C130.222 236.216 129.155 236.41 128.174 236.754C125.933 237.538 124.176 239.441 123.454 241.828C122.678 244.429 123.346 246.977 124.241 249.794L124.413 250.321L123.875 250.471C123.875 250.471 123.594 250.536 123.357 250.589C123.142 250.632 122.915 250.686 122.861 250.697C120.609 251.342 118.863 252.739 117.807 254.739C116.665 256.911 116.503 259.598 117.355 262.125C121.331 273.928 136.968 274.896 137.13 274.896L137.496 274.917L137.615 275.272C139.393 280.787 142.173 284.303 145.902 285.722C151.549 287.872 157.53 284.453 157.595 284.41L158.048 284.141L158.037 284.152ZM156.636 234.743V234.679V234.733V234.743Z" fill="#060606"/>
<path d="M158.177 285.378L157.703 284.41C160.43 283.088 163.253 280.389 166.087 276.38L166.971 277.003C164.029 281.163 161.065 283.98 158.177 285.378Z" fill="#060606"/>
<path d="M172.349 270.703L171.519 270.015C175.269 265.5 176.164 258.77 176.595 255.535L177.662 255.664C177.22 259.007 176.293 265.941 172.349 270.703Z" fill="#060606"/>
<path d="M57.2853 175.831C53.9876 191.226 50.1726 207.233 45.7433 223.778C41.562 239.409 37.1542 254.352 32.6064 268.596C56.1861 274.659 79.7764 280.733 103.356 286.797C106.772 271.499 110.792 255.492 115.523 238.871C119.963 223.262 124.662 208.426 129.49 194.397C105.425 188.205 81.3498 182.013 57.2853 175.821V175.831Z" fill="#FF6600"/>
<path d="M103.765 287.452L31.9165 268.973L32.0889 268.435C36.7984 253.675 41.2169 238.603 45.2151 223.638C49.4396 207.835 53.3192 191.71 56.757 175.713L56.8755 175.165L130.19 194.021L129.996 194.569C124.963 209.2 120.265 224.154 116.04 239.011C111.546 254.793 107.462 270.897 103.884 286.904L103.765 287.442V287.452ZM33.2852 268.22L102.946 286.141C106.503 270.295 110.555 254.352 114.995 238.732C119.176 224.047 123.81 209.254 128.778 194.784L57.6838 176.498C54.2783 192.333 50.431 208.287 46.2496 223.928C42.2945 238.721 37.93 253.621 33.2744 268.231L33.2852 268.22Z" fill="#060606"/>
<path d="M26.6573 273.337C26.862 272.617 27.5302 270.467 28.9527 268.747C30.9356 266.36 32.8108 266.64 33.091 266.736C59.257 275.186 79.6467 280.432 103.841 284.937C104.164 285.001 105.834 285.722 106.416 288.678C106.89 291.108 106.319 293.569 106.136 294.29C92.7836 291.677 78.8492 288.506 64.4515 284.679C51.2068 281.153 38.5979 277.336 26.6465 273.348L26.6573 273.337Z" fill="#FFBF00"/>
<path d="M106.546 294.902L106.05 294.806C92.0832 292.075 78.0411 288.839 64.333 285.184C51.6703 281.808 38.9429 278.003 26.4957 273.853L26.0107 273.692L26.1508 273.197C26.4526 272.122 27.1639 270.08 28.5541 268.414C30.9465 265.532 33.2527 266.22 33.2743 266.231C59.3649 274.659 79.8516 279.916 103.959 284.41C104.595 284.528 106.362 285.507 106.966 288.57C107.419 290.893 106.988 293.225 106.686 294.408L106.556 294.902H106.546ZM27.3255 272.993C39.5895 277.068 52.1229 280.819 64.6024 284.141C78.1273 287.743 91.9647 290.946 105.748 293.645C105.974 292.559 106.265 290.635 105.899 288.764C105.349 285.926 103.765 285.453 103.754 285.453C79.5929 280.948 59.0739 275.67 32.9402 267.242C32.9294 267.242 31.2698 266.812 29.3839 269.08C28.3062 270.37 27.6704 271.94 27.3363 272.982L27.3255 272.993Z" fill="#060606"/>
<path d="M55.2484 184.829L127.291 202.094C128.401 202.363 129.511 201.697 129.781 200.611L132.432 189.914C132.701 188.829 132.022 187.732 130.912 187.463L58.8694 170.198C57.7594 169.929 56.6494 170.596 56.38 171.682L53.7289 182.378C53.4595 183.464 54.1384 184.561 55.2484 184.829Z" fill="#FFBF00"/>
<path d="M127.776 202.686C127.571 202.686 127.367 202.664 127.162 202.61L55.119 185.345C54.4401 185.184 53.8582 184.765 53.5025 184.174C53.1469 183.593 53.0391 182.905 53.2008 182.249L55.8519 171.553C56.1967 170.187 57.5977 169.338 58.9879 169.671L131.031 186.936C131.71 187.098 132.292 187.517 132.647 188.108C133.003 188.689 133.111 189.377 132.938 190.033L130.287 200.729C129.996 201.901 128.929 202.686 127.765 202.686H127.776ZM55.3669 184.313L127.41 201.578C128.229 201.783 129.059 201.288 129.253 200.482L131.904 189.785C132.001 189.409 131.936 189.011 131.731 188.678C131.516 188.334 131.182 188.087 130.783 187.99L58.74 170.725C57.921 170.531 57.0912 171.015 56.8972 171.821L54.2461 182.518C54.1491 182.894 54.2138 183.292 54.4186 183.625C54.6341 183.969 54.9682 184.217 55.3669 184.313Z" fill="#060606"/>
<path d="M108.838 205.075L90.4976 274.173L91.5393 274.448L109.88 205.35L108.838 205.075Z" fill="#060606"/>
<path d="M87.2577 200.255L68.9175 269.353L69.9593 269.628L88.2995 200.53L87.2577 200.255Z" fill="#060606"/>
<path d="M65.68 195.435L47.3398 264.533L48.3816 264.808L66.7218 195.71L65.68 195.435Z" fill="#060606"/>
<path d="M109.111 262.716C108.453 265.328 107.796 267.919 107.182 270.488C109.111 271.445 111.158 272.198 113.335 272.724C129.91 276.734 146.862 265.93 151.205 248.579C155.537 231.228 145.612 213.92 129.037 209.921C127.55 209.566 126.052 209.319 124.565 209.19C123.659 211.942 122.786 214.726 121.892 217.543C123.735 217.51 125.61 217.715 127.474 218.166C139.954 221.187 147.422 234.217 144.157 247.278C140.891 260.329 128.132 268.478 115.652 265.457C113.271 264.887 111.083 263.941 109.111 262.716Z" fill="#FFBF00"/>
<path d="M120.297 274.09C117.948 274.09 115.577 273.821 113.206 273.24C111.018 272.714 108.906 271.94 106.934 270.961L106.546 270.768L106.643 270.349C107.268 267.768 107.915 265.178 108.572 262.565L108.755 261.856L109.38 262.243C111.363 263.468 113.518 264.371 115.771 264.92C127.938 267.865 140.439 259.878 143.629 247.128C145.235 240.721 144.275 234.184 140.956 228.702C137.863 223.606 133.035 220.048 127.356 218.672C125.567 218.242 123.735 218.027 121.903 218.059H121.159L121.386 217.36C122.269 214.543 123.153 211.748 124.058 208.996L124.188 208.588L124.619 208.62C126.138 208.749 127.668 209.007 129.177 209.362C137.055 211.265 143.758 216.21 148.037 223.262C152.627 230.83 153.942 239.85 151.733 248.676C147.95 263.802 134.652 274.068 120.297 274.068V274.09ZM107.796 270.198C109.585 271.058 111.482 271.725 113.454 272.208C129.716 276.143 146.42 265.489 150.677 248.45C152.811 239.904 151.539 231.174 147.099 223.853C142.961 217.037 136.505 212.275 128.908 210.437C127.593 210.114 126.267 209.888 124.942 209.759C124.166 212.146 123.401 214.565 122.625 217.005C124.295 217.037 125.966 217.253 127.604 217.64C133.563 219.08 138.639 222.821 141.872 228.164C145.353 233.894 146.345 240.731 144.674 247.407C141.344 260.727 128.261 269.059 115.523 265.984C113.389 265.468 111.352 264.651 109.445 263.554C108.884 265.78 108.324 267.994 107.796 270.209V270.198Z" fill="#060606"/>
<path d="M79.3878 152.299C82.7394 153.073 85.6384 154.761 87.9123 157.072C91.7273 153.385 97.1264 151.686 102.429 152.901C108.647 154.341 113.033 159.405 114.132 165.511C116.794 164.608 119.704 164.35 122.614 165.016C131.149 166.984 136.257 175.864 134.058 184.808C133.617 186.614 132.884 188.302 131.957 189.807C131.116 189.011 130.071 188.442 128.853 188.162L85.4013 178.433L80.347 198.966C79.8081 201.159 77.5019 202.514 75.1957 201.976C72.8894 201.449 71.4669 199.235 72.0057 197.042L77.0385 176.562L74.5383 176.003L72.8787 182.776C72.3398 184.969 70.0336 186.324 67.7274 185.786C65.4211 185.259 63.9986 183.045 64.5374 180.852L66.1863 174.144L59.4616 172.638C58.2761 172.37 57.0691 172.445 56.013 172.8C55.9375 170.961 56.1208 169.037 56.5949 167.145C59.1814 156.642 69.387 149.987 79.3986 152.299H79.3878Z" fill="white"/>
<path d="M76.2089 202.643C75.8317 202.643 75.4545 202.6 75.0774 202.514C73.7841 202.213 72.7065 201.449 72.0275 200.353C71.3809 199.31 71.1869 198.095 71.4779 196.924L76.3813 176.971L74.9265 176.648L73.3854 182.905C72.7711 185.378 70.1739 186.904 67.5875 186.313C66.2943 186.012 65.2166 185.249 64.5377 184.152C63.9018 183.109 63.7078 181.895 63.988 180.723L65.5076 174.541L59.3217 173.154C58.2763 172.918 57.1556 172.961 56.1641 173.294L55.4852 173.52L55.4528 172.81C55.3666 170.897 55.5714 168.94 56.0455 167.005C58.6966 156.233 69.2148 149.396 79.4958 151.761C82.6642 152.492 85.5632 154.062 87.9125 156.309C91.943 152.643 97.3745 151.17 102.537 152.363C108.539 153.75 113.184 158.598 114.531 164.801C117.247 163.984 120.07 163.866 122.722 164.479C126.817 165.425 130.319 167.951 132.561 171.606C134.996 175.552 135.708 180.282 134.554 184.926C134.113 186.743 133.38 188.474 132.388 190.086L132.043 190.645L131.558 190.194C130.772 189.452 129.802 188.936 128.703 188.689L85.7679 179.078L80.8429 199.095C80.3256 201.213 78.3535 202.632 76.1766 202.632L76.2089 202.643ZM74.1398 175.369L77.6961 176.165L72.534 197.182C72.3185 198.074 72.4694 198.998 72.9543 199.794C73.4824 200.643 74.323 201.234 75.3252 201.471C77.3405 201.944 79.3557 200.761 79.8299 198.859L85.0028 177.809L128.972 187.657C130.039 187.904 130.998 188.356 131.817 189.001C132.593 187.646 133.164 186.195 133.541 184.69C134.619 180.325 133.951 175.885 131.677 172.187C129.576 168.79 126.321 166.425 122.506 165.543C119.866 164.93 117.031 165.092 114.326 166.016L113.734 166.22L113.626 165.608C112.537 159.545 108.097 154.761 102.332 153.428C97.353 152.277 92.1155 153.782 88.3112 157.459L87.9233 157.824L87.5461 157.448C85.283 155.148 82.4271 153.546 79.2803 152.826C69.5704 150.589 59.6342 157.061 57.1232 167.274C56.7245 168.887 56.5305 170.499 56.5413 172.101C57.5435 171.875 58.5781 171.886 59.5911 172.122L66.8439 173.746L65.0657 180.991C64.8502 181.884 64.9903 182.808 65.486 183.604C66.0141 184.453 66.8547 185.055 67.8569 185.281C69.8722 185.754 71.8874 184.571 72.3616 182.669L74.1505 175.391L74.1398 175.369Z" fill="#060606"/>
<path d="M124.564 265.844C124.564 265.844 146.29 272.165 146.29 262.34C146.29 252.363 123.713 249.966 123.713 249.966" fill="white"/>
<path d="M137.41 268.381C131.462 268.381 124.823 266.478 124.414 266.36L124.715 265.328C124.855 265.371 139.178 269.467 144.135 265.758C145.224 264.941 145.752 263.823 145.752 262.34C145.752 252.954 123.885 250.514 123.659 250.493L123.778 249.428C124.715 249.525 146.829 252.008 146.829 262.34C146.829 264.167 146.14 265.608 144.782 266.618C143.025 267.94 140.299 268.381 137.41 268.381Z" fill="#060606"/>
<path d="M128.574 250.772C144.394 254.008 146.528 262.2 146.528 262.2C167.521 248.794 133.165 235.894 133.165 235.894C144.599 240.183 149.75 245.698 149.75 245.698C167.402 234.023 146.603 223.208 137.4 224.928" fill="white"/>
<path d="M146.194 263.049L146 262.34C145.978 262.264 143.704 254.416 128.466 251.31L128.681 250.256C142.163 253.008 145.903 259.286 146.797 261.383C151.076 258.512 153.069 255.481 152.746 252.363C151.819 243.591 133.251 236.506 132.971 236.399L133.348 235.388C143.316 239.129 148.511 243.741 149.815 245.01C155.084 241.409 157.089 237.603 155.613 233.969C153.349 228.379 143.316 224.38 137.486 225.466L137.292 224.412C143.618 223.23 154.125 227.465 156.615 233.572C157.8 236.474 157.66 240.946 150.483 245.87C152.293 247.827 153.576 249.977 153.813 252.266C154.201 255.954 151.841 259.458 146.808 262.673L146.183 263.071L146.194 263.049Z" fill="#060606"/>
<path d="M177.188 255.803C178.513 250.009 177.802 245.214 177.112 242.946C175.345 237.173 169.795 234.657 162.025 234.281C151.851 233.787 146.84 235.335 142.023 236.883C138.596 237.99 136.096 241.194 136.365 244.72C137.152 254.9 158.781 253.728 158.781 253.728C158.781 253.728 146.916 268.177 166.109 271.735" fill="white"/>
<path d="M166.012 272.262C160.009 271.144 156.335 268.854 155.084 265.436C153.489 261.092 156.313 256.276 157.682 254.298C153.112 254.395 136.548 254.083 135.826 244.763C135.546 241.118 138.079 237.581 141.851 236.367C146.409 234.894 151.582 233.227 162.046 233.744C170.668 234.163 175.916 237.205 177.619 242.795C178.47 245.58 178.944 250.503 177.705 255.932L176.66 255.696C177.856 250.471 177.403 245.773 176.595 243.118C175.011 237.947 170.237 235.238 161.992 234.829C151.733 234.335 146.657 235.958 142.185 237.399C138.876 238.463 136.656 241.527 136.904 244.687C137.637 254.234 158.544 253.212 158.759 253.202L159.977 253.137L159.201 254.083C159.147 254.148 154.287 260.157 156.097 265.092C157.207 268.123 160.613 270.187 166.206 271.23L166.012 272.284V272.262Z" fill="#060606"/>
<path d="M392.961 578.723C403.554 577.992 411.561 569.37 410.818 559.501C408.231 525.358 402.595 448.611 398.683 379.046C393.456 286.055 340.963 276.81 340.963 276.81C363.109 248.493 346.771 215.575 333.613 187.452C330.692 181.196 302.457 104.513 315.357 103.567L257.141 107.835C258.509 107.738 261.548 141.688 261.548 144.387C261.538 186.023 218.549 245.397 258.078 283.002C258.078 283.002 206.608 299.751 215.047 392.505C221.373 462.038 227.041 538.957 229.477 573.004C230.177 582.873 239.359 590.237 249.942 589.42C284.794 586.743 358.076 581.152 392.961 578.734V578.723Z" fill="#AADC66"/>
<path d="M248.39 590C243.508 590 238.766 588.291 235.178 585.205C231.492 582.045 229.283 577.712 228.949 573.025C226.75 542.29 220.952 463.156 214.518 392.537C210.143 344.451 222.138 317.102 232.968 302.632C243.045 289.162 254.048 284.012 257.098 282.787C231.201 257.47 241.482 223.187 251.429 190.022C256.354 173.606 261.01 158.104 261.01 144.387C261.01 141.355 258.132 110.007 256.85 108.244C256.882 108.287 257.011 108.373 257.184 108.373L257.108 107.298L257.345 107.276L315.325 103.03L315.4 104.105C314.602 104.159 313.999 104.567 313.536 105.352C307.307 115.941 331.328 181.303 334.098 187.227L335.089 189.334C348.151 217.199 362.947 248.762 341.9 276.476C348.916 278.196 394.361 292.666 399.211 379.024C403.037 447.063 408.457 521.284 411.346 559.469C411.701 564.156 410.149 568.747 406.97 572.412C403.522 576.39 398.435 578.884 392.993 579.26C358.895 581.625 288.76 586.968 249.985 589.946C249.457 589.989 248.918 590.011 248.39 590.011V590ZM258.003 108.308C259.792 113.92 262.087 144.075 262.087 144.387C262.087 158.265 257.41 173.843 252.464 190.334C242.527 223.445 232.257 257.695 258.455 282.604L259.102 283.228L258.251 283.507C258.121 283.55 245.362 287.85 233.787 303.352C223.086 317.672 211.253 344.763 215.596 392.451C222.019 463.081 227.828 542.215 230.026 572.961C230.339 577.358 232.419 581.421 235.878 584.399C239.65 587.646 244.769 589.29 249.909 588.882C288.684 585.904 358.83 580.561 392.928 578.196C398.079 577.841 402.907 575.476 406.162 571.714C409.147 568.263 410.613 563.941 410.279 559.555C407.391 521.359 401.97 447.128 398.144 379.089C393.036 288.302 342.999 277.756 340.876 277.347L340.596 277.293L340.337 276.745L340.531 276.487C361.923 249.127 347.148 217.607 334.108 189.796L333.117 187.689C330.207 181.475 306.056 115.952 312.598 104.814C312.706 104.621 312.824 104.449 312.954 104.288L257.981 108.319L258.003 108.308Z" fill="#060606"/>
<path d="M249.222 85.2923L315.354 80.4479C317.729 80.2738 319.806 82.062 319.98 84.4315L322.132 113.658L247.381 119.134L245.229 89.9074C245.055 87.5379 246.847 85.4663 249.222 85.2923Z" fill="#AADC66"/>
<path d="M246.871 119.714L244.683 89.9467C244.489 87.2806 246.504 84.9585 249.166 84.7542L315.303 79.9166C317.976 79.7338 320.304 81.7334 320.508 84.3887L322.696 114.156L322.157 114.199L246.871 119.714ZM315.67 80.9808C315.573 80.9808 315.486 80.9808 315.389 80.9808L249.252 85.8185C247.172 85.969 245.61 87.7858 245.761 89.8499L247.873 118.543L321.543 113.146L319.431 84.4532C319.291 82.4752 317.62 80.9593 315.659 80.9593L315.67 80.9808Z" fill="#060606"/>
<path d="M261.667 568.553C245.071 569.252 246.741 543.763 244.392 532.948C243.034 526.68 233.399 529.336 234.757 535.592C236.977 545.838 236.331 556.803 241.439 566.274C245.491 573.788 252.97 578.884 261.667 578.508C268.068 578.239 268.111 568.274 261.667 568.542V568.553Z" fill="white"/>
<path d="M378.132 331.744C372.808 318.951 365.383 307.276 356.007 297.063C351.599 292.269 343.517 298.73 348.42 303.503C357.688 312.501 363.799 324.057 369.025 335.851C371.569 341.591 380.578 337.624 378.132 331.733V331.744Z" fill="white"/>
<path d="M249.359 54.5392L310.837 50.0356C312.513 49.9128 313.968 51.1752 314.09 52.8371L315.901 77.4322C316.024 79.1047 314.758 80.5556 313.092 80.6777L251.615 85.1812C249.938 85.3041 248.484 84.0416 248.361 82.3798L246.551 57.7847C246.428 56.1121 247.693 54.6612 249.359 54.5392Z" fill="#FF6600"/>
<path d="M251.396 85.7432C250.534 85.7432 249.715 85.4422 249.058 84.8725C248.336 84.2489 247.894 83.3782 247.829 82.4321L246.019 57.8353C245.954 56.8892 246.256 55.9647 246.881 55.2444C247.506 54.5242 248.379 54.0834 249.327 54.0189L310.809 49.5145C311.768 49.4392 312.684 49.751 313.406 50.3745C314.128 50.998 314.57 51.8688 314.635 52.8149L316.445 77.4117C316.51 78.3577 316.208 79.2823 315.583 80.0025C314.958 80.7228 314.085 81.1636 313.137 81.2281L251.655 85.7325C251.569 85.7325 251.472 85.7325 251.386 85.7325L251.396 85.7432ZM311.078 50.568C311.014 50.568 310.949 50.568 310.895 50.568L249.414 55.0724C248.034 55.1692 247 56.3732 247.097 57.7493L248.907 82.3461C248.961 83.0126 249.263 83.6147 249.769 84.0554C250.276 84.4962 250.922 84.7112 251.59 84.6574L313.072 80.153C313.74 80.11 314.344 79.7983 314.786 79.293C315.227 78.7877 315.432 78.1427 315.389 77.4762L313.579 52.8794C313.535 52.2128 313.223 51.6108 312.716 51.17C312.253 50.7723 311.682 50.568 311.089 50.568H311.078Z" fill="#060606"/>
<path d="M303.898 42.5749L255.135 46.147L255.692 53.7164L304.455 50.1443L303.898 42.5749Z" fill="white"/>
<path d="M255.201 54.2984L254.565 45.6551L304.408 42L305.043 50.6433L255.201 54.2877V54.2984ZM255.718 46.6442L256.192 53.1481L303.88 49.6543L303.405 43.1503L255.718 46.6442Z" fill="#060606"/>
<path d="M306.66 115.124L296.96 50.8583L301.961 50.1595L311.66 114.425L306.66 115.124Z" fill="#060606"/>
<path d="M264.857 118.199H259.802L260.567 53.0084H265.611L264.857 118.199Z" fill="#060606"/>
<path d="M256.934 123.137L315.553 118.7L315.192 113.962L256.573 118.399L256.934 123.137Z" fill="#060606"/>
<path d="M256.44 123.714L255.998 117.898L315.691 113.382L316.133 119.198L256.44 123.714ZM257.162 118.897L257.442 122.563L314.99 118.209L314.71 114.543L257.162 118.897Z" fill="#060606"/>
<path d="M337.376 557.827L303.8 560.286C275.522 562.358 250.868 541.139 248.791 512.92L239.225 382.987L375.282 373.02L384.848 502.954C386.924 531.162 365.653 555.755 337.365 557.828L337.376 557.827Z" fill="white"/>
<path d="M300.011 560.953C273.091 560.953 250.265 540.151 248.261 512.952L238.659 382.486L239.198 382.443L375.793 372.445L375.836 372.982L385.395 502.911C387.486 531.389 365.965 556.265 337.417 558.362L303.847 560.824C302.565 560.92 301.283 560.963 300.011 560.963V560.953ZM239.823 383.475L249.349 512.866C251.408 540.753 275.785 561.78 303.783 559.738L337.352 557.276C350.899 556.287 363.238 550.095 372.118 539.839C380.988 529.583 385.331 516.5 384.339 502.987L374.823 373.595L239.833 383.475H239.823Z" fill="#060606"/>
<path d="M317.264 496.493L347.062 522.262L340.941 482.926L377.151 474.788L345.155 455.782L361.385 422.154L326.737 435.506L310.432 398.719L299.547 437.356L261.365 427.583L284.061 459.953L254.964 483.131L291.95 486.27L291.81 523.692L317.264 496.493Z" fill="#FFBF00"/>
<path d="M351.211 409.147L357.914 414.565L356.459 406.158L364.51 404.287L357.343 400.321L360.889 393.043L353.194 396.031L349.476 388.194L347.138 396.526L338.602 394.558L343.732 401.417L337.298 406.491L345.553 407.039L345.607 415.07L351.211 409.147Z" fill="#FFBF00"/>
<path d="M320.584 539.226L327.287 544.644L325.832 536.227L333.882 534.356L326.716 530.4L330.251 523.122L322.567 526.111L318.849 518.274L316.51 526.605L307.975 524.638L313.105 531.496L306.671 536.571L314.926 537.119L314.969 545.139L320.584 539.226Z" fill="#FFBF00"/>
<path d="M271.571 416.124L278.274 421.552L276.819 413.135L284.88 411.264L277.703 407.297L281.249 400.03L273.554 403.019L269.836 395.182L267.497 403.503L258.973 401.546L264.103 408.405L257.669 413.479L265.913 414.027L265.967 422.047L271.571 416.124Z" fill="#FFBF00"/>
<path d="M286.992 341.946C291.583 348.859 297.661 353.535 305.722 353.051C313.557 352.589 318.687 347.461 321.995 340.28V340.258C330.67 321.467 326.952 288.635 326.952 288.635L309.774 289.968L288.285 291.645L273.349 292.817C273.349 292.817 275.429 324.541 287.003 341.946H286.992Z" fill="#060606"/>
<path d="M304.58 353.632C297.618 353.632 291.561 349.805 286.539 342.247C275.008 324.917 272.81 293.172 272.788 292.849L272.756 292.322L327.416 288.065L327.47 288.581C327.502 288.914 331.091 321.606 322.534 340.344L322.469 340.505C318.665 348.762 313.039 353.159 305.744 353.589C305.356 353.61 304.957 353.621 304.569 353.621L304.58 353.632ZM273.909 293.311C274.254 297.526 276.883 325.788 287.445 341.656C292.51 349.289 298.652 352.954 305.69 352.524C312.511 352.127 317.814 347.977 321.435 340.204L321.499 340.043C329.431 322.875 326.877 293.473 326.457 289.226L273.909 293.322V293.311Z" fill="#060606"/>
<path d="M286.852 340.699C291.518 348.267 297.65 353.417 305.711 352.976C313.546 352.557 318.633 347.031 321.877 339.258V339.237C320.616 328.153 311.779 320.155 302.144 321.338C293.361 322.413 286.927 330.809 286.852 340.699Z" fill="#FF6600"/>
<path d="M304.752 353.535C297.704 353.535 291.529 349.31 286.388 340.968L286.302 340.839V340.688C286.388 330.443 293.167 321.886 302.069 320.789C306.423 320.252 310.83 321.542 314.473 324.412C318.837 327.842 321.726 333.227 322.394 339.172V339.312L322.361 339.463C318.633 348.396 313.039 353.126 305.733 353.513C305.399 353.535 305.075 353.546 304.752 353.546V353.535ZM287.391 340.548C292.531 348.826 298.663 352.825 305.679 352.438C312.501 352.073 317.77 347.611 321.316 339.183C320.637 333.55 317.911 328.487 313.805 325.261C310.388 322.574 306.272 321.37 302.198 321.864C293.868 322.886 287.52 330.905 287.38 340.548H287.391Z" fill="#060606"/>
<path d="M327.352 278.39C325.476 282.013 321.306 291.258 322.243 303.567C323.235 316.661 329.421 325.466 331.878 328.626" fill="#AADC66"/>
<path d="M331.458 328.96C328.225 324.799 322.653 315.973 321.705 303.61C320.853 292.473 324.043 283.615 326.867 278.143L327.826 278.637C325.067 283.98 321.952 292.634 322.782 303.524C323.698 315.608 329.141 324.229 332.309 328.293L331.458 328.949V328.96Z" fill="#060606"/>
<path d="M271.043 281.55C273.123 285.044 277.811 293.999 277.584 306.352C277.347 319.488 271.679 328.68 269.405 331.991" fill="#AADC66"/>
<path d="M269.857 332.292L268.963 331.69C271.883 327.422 276.819 318.467 277.045 306.341C277.25 295.418 273.64 286.979 270.579 281.83L271.506 281.282C274.642 286.56 278.328 295.193 278.123 306.362C277.897 318.757 272.843 327.928 269.857 332.292Z" fill="#060606"/>
<path d="M288.415 271.531C288.253 276.433 292.1 280.529 297.014 280.69C301.929 280.852 306.035 277.014 306.196 272.112C306.358 267.209 302.511 263.114 297.596 262.952C292.682 262.791 288.576 266.629 288.415 271.531Z" fill="#FFBF00"/>
<path d="M297.306 281.228C297.198 281.228 297.09 281.228 296.993 281.228C291.799 281.056 287.703 276.702 287.876 271.51C288.048 266.328 292.391 262.264 297.618 262.415C302.812 262.587 306.908 266.941 306.735 272.133C306.649 274.649 305.593 276.971 303.75 278.691C301.993 280.336 299.709 281.228 297.306 281.228ZM297.295 263.49C295.172 263.49 293.146 264.285 291.594 265.737C289.967 267.263 289.029 269.317 288.954 271.553C288.803 276.143 292.424 280.002 297.036 280.153C301.616 280.282 305.507 276.691 305.658 272.101C305.733 269.876 304.936 267.758 303.405 266.134C301.875 264.511 299.806 263.576 297.575 263.501C297.478 263.501 297.392 263.501 297.295 263.501V263.49Z" fill="#060606"/>
<path d="M224.562 227.186C209.259 227.186 202.491 215.296 202.416 215.145L203.364 214.629C203.364 214.629 205.757 218.897 210.833 222.187C215.499 225.208 223.485 228.046 235.027 224.369L235.35 225.391C231.362 226.659 227.774 227.186 224.562 227.186Z" fill="#060606"/>
<path d="M224.595 212.264C209.292 212.264 202.524 200.374 202.448 200.224L203.397 199.708C203.397 199.708 205.789 203.976 210.865 207.265C215.531 210.297 223.517 213.124 235.059 209.448L235.382 210.469C231.395 211.738 227.806 212.264 224.595 212.264Z" fill="#060606"/>
<path d="M231.449 198.289C216.146 198.289 209.378 186.399 209.302 186.248L210.251 185.732C210.251 185.732 212.643 190 217.719 193.29C222.385 196.311 230.371 199.149 241.913 195.472L242.236 196.494C238.249 197.762 234.66 198.289 231.449 198.289Z" fill="#060606"/>
<path d="M252.366 172.724C263.919 172.692 269.092 180.68 270.687 189.56C272.099 197.429 268.241 203.664 267.691 211.265C267.141 218.973 275.741 223.81 277.789 230.83C280.138 238.893 277.67 245.978 275.149 254.266C272.627 262.598 276.862 267.715 275.838 275.627C274.416 286.614 260.568 299.396 249.273 293.139C236.492 286.066 242.193 273.498 240.393 262.049C238.637 250.944 227.763 245.225 231.966 232.013C233.615 226.831 236.007 222.434 236.643 216.973C237.624 208.491 232.613 201.6 232.666 193.107C232.731 184.077 237.193 172.767 252.366 172.724Z" fill="#060606"/>
<path d="M255.632 295.311C253.304 295.311 251.062 294.741 249.015 293.612C239.65 288.431 239.898 280.508 240.167 272.112C240.275 268.811 240.372 265.403 239.865 262.135C239.208 257.943 237.171 254.47 235.21 251.105C232.063 245.73 228.808 240.183 231.47 231.841C232.009 230.142 232.634 228.519 233.237 226.949C234.509 223.649 235.705 220.521 236.126 216.908C236.643 212.458 235.479 208.502 234.24 204.32C233.194 200.772 232.117 197.106 232.138 193.096C232.214 183.013 237.57 172.219 252.377 172.176H252.442C266.085 172.176 270.062 182.991 271.226 189.452C272.109 194.354 270.967 198.697 269.879 202.901C269.178 205.588 268.456 208.362 268.24 211.297C267.939 215.565 270.557 218.897 273.338 222.434C275.353 224.993 277.422 227.637 278.317 230.68C280.569 238.409 278.511 245.15 276.129 252.954L275.676 254.427C274.297 258.964 274.976 262.479 275.698 266.199C276.258 269.123 276.851 272.133 276.388 275.702C275.493 282.561 269.943 290.011 263.175 293.419C260.654 294.687 258.1 295.322 255.642 295.322L255.632 295.311ZM252.377 173.262C247.915 173.273 233.345 174.746 233.216 193.107C233.184 196.956 234.25 200.546 235.274 204.019C236.481 208.125 237.731 212.372 237.193 217.038C236.761 220.789 235.533 223.971 234.24 227.347C233.636 228.906 233.022 230.518 232.494 232.185C229.983 240.065 232.979 245.171 236.136 250.579C238.152 254.019 240.242 257.588 240.932 261.974C241.46 265.339 241.352 268.801 241.245 272.144C240.997 280.196 240.749 287.807 249.543 292.666C254.543 295.44 259.447 294.075 262.69 292.441C269.157 289.183 274.469 282.077 275.321 275.552C275.763 272.155 275.192 269.231 274.642 266.392C273.931 262.705 273.187 258.899 274.642 254.116L275.095 252.643C277.433 244.999 279.448 238.409 277.282 230.981C276.452 228.132 274.437 225.573 272.487 223.101C269.706 219.564 266.829 215.909 267.163 211.222C267.378 208.19 268.122 205.363 268.833 202.632C269.954 198.353 271.01 194.322 270.17 189.646C269.07 183.518 265.298 173.251 252.442 173.251H252.377V173.262Z" fill="#060606"/>
<path d="M240.383 262.049C242.182 273.498 236.481 286.066 249.273 293.139C252.905 295.16 256.828 295.214 260.524 293.967C258.929 293.784 257.367 293.268 255.826 292.419C243.044 285.356 248.745 272.778 246.935 261.329C245.189 250.235 234.305 244.505 238.518 231.282C240.178 226.122 242.56 221.714 243.185 216.253C244.176 207.781 239.143 200.88 239.219 192.387C239.283 184.7 242.516 175.369 252.83 172.746C252.69 172.714 252.517 172.724 252.377 172.714C237.203 172.746 232.731 184.066 232.666 193.096C232.602 201.6 237.624 208.491 236.632 216.962C236.007 222.423 233.626 226.831 231.966 231.991C227.752 245.214 238.626 250.944 240.383 262.039V262.049Z" fill="white"/>
<path d="M255.664 295.332C253.325 295.332 251.084 294.752 249.015 293.612C239.65 288.431 239.898 280.508 240.156 272.112C240.264 268.811 240.372 265.403 239.854 262.146C239.197 257.953 237.16 254.492 235.199 251.127C232.052 245.752 228.797 240.194 231.459 231.852C231.998 230.185 232.612 228.583 233.205 227.046C234.488 223.713 235.695 220.574 236.104 216.93C236.621 212.479 235.458 208.523 234.229 204.341C233.184 200.794 232.106 197.128 232.138 193.118C232.214 183.023 237.57 172.23 252.388 172.198H252.539C252.657 172.198 252.808 172.198 252.97 172.241L255.017 172.757L252.97 173.284C240.846 176.38 239.801 188.7 239.768 192.408C239.736 196.257 240.792 199.848 241.816 203.32C243.023 207.427 244.273 211.673 243.734 216.339C243.303 220.123 242.074 223.326 240.77 226.713C240.178 228.25 239.574 229.83 239.046 231.465C236.535 239.345 239.52 244.462 242.689 249.869C244.704 253.309 246.784 256.868 247.474 261.265C248.002 264.629 247.894 268.091 247.786 271.434C247.528 279.497 247.29 287.108 256.084 291.968C257.55 292.774 259.069 293.279 260.589 293.451L262.992 293.72L260.697 294.494C258.994 295.064 257.302 295.354 255.664 295.354V295.332ZM240.911 261.963C241.439 265.328 241.331 268.79 241.223 272.133C240.964 280.196 240.727 287.807 249.521 292.666C252.162 294.128 255.114 294.591 258.186 294.021C257.302 293.741 256.418 293.365 255.556 292.892C246.191 287.71 246.439 279.787 246.698 271.391C246.805 268.091 246.913 264.683 246.396 261.426C245.739 257.233 243.702 253.772 241.74 250.407C238.594 245.031 235.339 239.474 238.001 231.131C238.54 229.465 239.154 227.863 239.747 226.315C241.029 222.982 242.236 219.843 242.646 216.199C243.163 211.748 241.999 207.792 240.77 203.61C239.725 200.063 238.647 196.397 238.68 192.387C238.712 188.882 239.617 178.014 249.166 173.488C243.206 174.316 233.313 177.992 233.205 193.118C233.173 196.967 234.229 200.557 235.253 204.03C236.46 208.136 237.71 212.383 237.171 217.048C236.74 220.832 235.511 224.036 234.207 227.422C233.615 228.949 233.011 230.54 232.483 232.174C229.972 240.054 232.957 245.171 236.126 250.579C238.141 254.019 240.221 257.577 240.911 261.974V261.963Z" fill="#060606"/>
<path d="M357.052 219.048C354.854 219.048 352.472 218.833 349.907 218.349L350.112 217.295C372.905 221.617 380.287 203.987 380.362 203.804L381.365 204.202C381.3 204.374 375.168 219.048 357.052 219.048Z" fill="#060606"/>
<path d="M355.209 204.245C353.011 204.245 350.629 204.03 348.064 203.546L348.269 202.492C371.084 206.814 378.444 189.183 378.52 189.001L379.522 189.398C379.457 189.57 373.325 204.245 355.209 204.245Z" fill="#060606"/>
<path d="M346.707 191.194C344.508 191.194 342.126 190.979 339.562 190.495L339.766 189.441C362.581 193.763 369.941 176.132 370.017 175.95L371.019 176.347C370.954 176.519 364.822 191.194 346.707 191.194Z" fill="#060606"/>
<path d="M330.433 164.038C341.975 163.522 347.482 171.273 349.454 180.078C351.2 187.882 347.612 194.268 347.385 201.89C347.159 209.62 355.964 214.092 358.302 221.015C360.996 228.97 358.83 236.152 356.664 244.548C354.498 252.976 358.959 257.91 358.27 265.855C357.311 276.896 344.023 290.247 332.47 284.485C319.409 277.96 324.56 265.167 322.265 253.804C320.044 242.785 308.923 237.528 312.565 224.143C313.988 218.897 316.197 214.404 316.596 208.921C317.221 200.407 311.908 193.741 311.606 185.238C311.283 176.208 315.26 164.726 330.423 164.038H330.433Z" fill="#060606"/>
<path d="M338.311 286.399C336.199 286.399 334.141 285.926 332.233 284.969C322.663 280.185 322.566 272.262 322.48 263.866C322.437 260.566 322.405 257.158 321.747 253.911C320.907 249.751 318.73 246.364 316.618 243.096C313.245 237.861 309.764 232.454 312.059 224.014C312.522 222.294 313.083 220.639 313.622 219.048C314.743 215.694 315.809 212.522 316.079 208.899C316.402 204.427 315.077 200.525 313.665 196.397C312.469 192.903 311.24 189.28 311.089 185.281C310.734 175.197 315.626 164.189 330.423 163.522C344.142 162.888 348.56 173.574 349.993 179.981C351.082 184.84 350.133 189.237 349.217 193.473C348.636 196.182 348.021 198.988 347.935 201.922C347.806 206.201 350.575 209.415 353.496 212.834C355.608 215.307 357.807 217.855 358.82 220.865C361.406 228.497 359.628 235.324 357.58 243.215L357.192 244.698C356.007 249.289 356.837 252.772 357.72 256.448C358.41 259.34 359.121 262.329 358.809 265.919C358.216 272.81 352.979 280.486 346.362 284.174C343.7 285.657 340.962 286.41 338.311 286.41V286.399ZM330.433 164.038L330.455 164.576C325.993 164.78 311.499 166.855 312.156 185.216C312.296 189.065 313.503 192.602 314.667 196.031C316.046 200.084 317.48 204.266 317.135 208.953C316.855 212.716 315.777 215.952 314.624 219.37C314.096 220.951 313.546 222.595 313.083 224.283C310.917 232.26 314.117 237.237 317.512 242.505C319.667 245.859 321.909 249.332 322.793 253.696C323.472 257.04 323.504 260.501 323.547 263.845C323.633 271.907 323.72 279.519 332.707 284.002C337.826 286.56 342.665 284.991 345.834 283.217C352.16 279.691 357.16 272.359 357.731 265.801C358.022 262.393 357.332 259.48 356.664 256.674C355.791 253.03 354.897 249.246 356.147 244.408L356.535 242.924C358.539 235.195 360.274 228.519 357.796 221.187C356.847 218.381 354.724 215.909 352.677 213.511C349.746 210.093 346.717 206.567 346.857 201.869C346.944 198.826 347.569 195.978 348.161 193.215C349.099 188.893 349.983 184.819 348.937 180.185C347.579 174.101 343.376 163.984 330.466 164.565L330.444 164.027L330.433 164.038Z" fill="#060606"/>
<path d="M322.265 253.793C324.549 265.156 319.398 277.96 332.47 284.475C336.188 286.334 340.111 286.227 343.754 284.819C342.148 284.7 340.564 284.26 338.99 283.475C325.918 276.96 331.08 264.156 328.785 252.793C326.565 241.785 315.443 236.528 319.096 223.133C320.53 217.898 322.728 213.404 323.116 207.921C323.741 199.418 318.428 192.731 318.137 184.238C317.879 176.552 320.713 167.102 330.897 164.038C330.757 164.006 330.584 164.038 330.444 164.038C315.281 164.715 311.305 176.218 311.617 185.238C311.908 193.731 317.232 200.407 316.596 208.921C316.208 214.404 314.01 218.908 312.576 224.133C308.923 237.528 320.045 242.785 322.265 253.793Z" fill="white"/>
<path d="M338.344 286.41C336.221 286.41 334.152 285.926 332.223 284.959C322.642 280.185 322.556 272.252 322.459 263.856C322.426 260.555 322.383 257.147 321.726 253.912C320.885 249.751 318.708 246.376 316.607 243.107C313.234 237.872 309.742 232.454 312.048 224.004C312.512 222.316 313.061 220.693 313.589 219.123C314.721 215.748 315.799 212.555 316.057 208.889C316.391 204.417 315.055 200.514 313.643 196.386C312.447 192.882 311.208 189.27 311.068 185.26C310.712 175.176 315.615 164.157 330.412 163.501H330.563C330.681 163.501 330.832 163.49 330.994 163.522L333.063 163.952L331.037 164.565C319.053 168.167 318.536 180.53 318.665 184.238C318.795 188.087 320.012 191.624 321.176 195.053C322.556 199.106 323.989 203.288 323.644 207.975C323.375 211.77 322.276 215.017 321.122 218.468C320.594 220.026 320.056 221.628 319.603 223.294C317.426 231.282 320.637 236.259 324.032 241.527C326.187 244.881 328.429 248.343 329.302 252.707C329.97 256.051 330.013 259.512 330.056 262.856C330.143 270.919 330.229 278.53 339.227 283.013C340.725 283.755 342.266 284.195 343.786 284.303L346.2 284.475L343.948 285.346C342.072 286.066 340.187 286.431 338.354 286.431L338.344 286.41ZM322.793 253.697C323.461 257.04 323.504 260.502 323.547 263.845C323.633 271.908 323.72 279.519 332.718 284.002C335.412 285.346 338.387 285.679 341.426 284.98C340.531 284.744 339.637 284.4 338.753 283.959C329.173 279.186 329.086 271.252 328.989 262.856C328.957 259.555 328.914 256.148 328.257 252.912C327.416 248.751 325.239 245.376 323.138 242.108C319.765 236.872 316.273 231.454 318.579 223.004C319.042 221.316 319.592 219.693 320.12 218.124C321.252 214.748 322.329 211.555 322.588 207.9C322.922 203.428 321.586 199.525 320.174 195.397C318.978 191.893 317.738 188.281 317.598 184.271C317.48 180.766 317.922 169.876 327.276 164.941C321.349 166.027 311.628 170.112 312.156 185.227C312.285 189.076 313.503 192.613 314.667 196.042C316.047 200.095 317.48 204.277 317.135 208.964C316.866 212.759 315.766 216.016 314.613 219.457C314.085 221.015 313.546 222.617 313.094 224.273C310.917 232.26 314.128 237.238 317.523 242.505C319.678 245.859 321.92 249.321 322.793 253.686V253.697Z" fill="#060606"/>
</g>
</g>
<defs>
<clipPath id="clip0_197_195">
<rect width="359" height="548" rx="8" fill="white"/>
</clipPath>
<clipPath id="clip1_197_195">
<rect width="553" height="548" fill="white" transform="translate(26 42)"/>
</clipPath>
</defs>
</svg>
