<svg width="323" height="292" viewBox="0 0 323 292" fill="none" xmlns="http://www.w3.org/2000/svg">
<g clip-path="url(#clip0_213_21)">
<path d="M200.328 182.736C196.562 181.153 193.189 183.191 191.337 186.426C178.268 209.286 156.065 226.071 130.971 233.491C127.409 234.545 125.834 239.179 127.11 242.414C128.576 246.131 132.457 247.334 136.02 246.28C164.886 237.745 189.118 217.773 204.013 191.733C205.858 188.505 203.443 184.041 200.328 182.729V182.736Z" fill="#060606"/>
<path d="M265.797 151.729C273.648 157.002 281.519 162.289 289.859 166.774C293.923 168.962 298.103 171.068 302.467 172.611C304.59 173.365 308.01 175.03 308.743 172.101C309.693 168.33 308.784 163.641 307.99 159.89C306.986 155.133 305.554 150.471 304.224 145.803C301.354 135.746 298.477 125.682 295.606 115.624C293.17 107.096 306.423 103.461 308.852 111.968C312.218 123.759 315.617 135.542 318.956 147.346C321.752 157.226 326.04 171.53 319.784 180.963C312.17 192.433 297.533 185.869 287.972 181.241C277.746 176.287 268.287 169.934 258.875 163.614C251.574 158.707 258.441 146.788 265.81 151.735L265.797 151.729Z" fill="#060606"/>
<path d="M294.052 95.2381C294.052 95.2381 279.015 74.3149 272.032 80.091C266.536 84.6372 285.109 102.448 285.109 102.448L294.052 95.2381Z" fill="white"/>
<path d="M285.088 102.91L284.871 102.699C284.281 102.135 270.438 88.7756 270.675 82.2724C270.716 81.2395 271.096 80.4172 271.815 79.826C272.881 78.9494 274.177 78.5961 275.676 78.7931C283.283 79.7785 293.883 94.4158 294.33 95.041L294.52 95.306L285.088 102.91ZM274.876 79.4319C273.865 79.4319 273.003 79.7377 272.25 80.3629C271.68 80.8318 271.388 81.4705 271.361 82.3064C271.15 88.0825 283.338 100.246 285.129 102L293.584 95.1837C292.098 93.1791 282.36 80.3561 275.588 79.4795C275.344 79.4455 275.106 79.4319 274.883 79.4319H274.876Z" fill="#060606"/>
<path d="M301.917 91.1948C301.917 91.1948 300.553 65.8886 291.996 68.8718C283.446 71.855 292.858 94.9323 292.858 94.9323L301.917 91.1948Z" fill="white"/>
<path d="M292.668 95.3808L292.539 95.0614C292.261 94.3819 285.78 78.3174 288.915 71.3725C289.553 69.9591 290.551 69.0077 291.888 68.5456C293.218 68.0835 294.473 68.233 295.613 68.9941C301.211 72.752 302.222 90.4269 302.263 91.1744L302.277 91.419L292.675 95.3808H292.668ZM293.36 68.9669C292.96 68.9669 292.539 69.0417 292.112 69.1912C290.965 69.5921 290.096 70.4211 289.54 71.6511C286.764 77.8078 292.139 92.1462 293.048 94.477L301.557 90.9638C301.415 88.796 300.2 72.9015 295.226 69.5581C294.636 69.1572 294.018 68.9601 293.367 68.9601L293.36 68.9669Z" fill="#060606"/>
<path d="M283.147 105.044C283.147 105.044 281.302 118.478 293.177 119.634C293.177 119.634 290.625 125.539 297.397 125.158C304.17 124.778 316.506 118.961 310.725 113.728C310.725 113.728 320.096 102.217 307.875 92.2957L283.147 105.044Z" fill="white"/>
<path d="M296.793 125.519C294.941 125.519 293.645 125.009 292.946 124.003C291.989 122.63 292.43 120.762 292.708 119.926C289.573 119.532 287.124 118.241 285.421 116.08C281.94 111.669 282.774 105.268 282.808 105.003L282.835 104.826L282.991 104.745L307.922 91.8879L308.098 92.0306C311.898 95.1158 314.036 98.6766 314.436 102.604C315.006 108.129 312.007 112.594 311.193 113.694C312.787 115.271 312.72 116.786 312.36 117.799C310.928 121.863 302.439 125.226 297.418 125.505C297.201 125.519 296.997 125.525 296.793 125.525V125.519ZM283.466 105.268C283.358 106.321 282.964 111.867 285.957 115.658C287.619 117.765 290.062 118.988 293.211 119.294L293.679 119.342L293.496 119.776C293.496 119.776 292.491 122.155 293.509 123.616C294.14 124.526 295.45 124.934 297.377 124.819C302.67 124.52 310.48 121.047 311.708 117.568C312.15 116.318 311.742 115.115 310.494 113.987L310.25 113.769L310.453 113.518C310.494 113.47 314.362 108.632 313.744 102.672C313.364 98.996 311.376 95.639 307.827 92.7102L283.46 105.275L283.466 105.268Z" fill="#060606"/>
<path d="M293.679 119.98C293.387 119.98 293.204 119.98 293.17 119.98L293.19 119.294C293.224 119.294 296.922 119.403 299.548 118.519L299.766 119.172C297.587 119.906 294.812 119.987 293.679 119.987V119.98Z" fill="#060606"/>
<path d="M305.595 116.746L305.405 116.086C305.405 116.086 307.841 115.366 310.528 113.45L310.928 114.007C308.139 115.998 305.697 116.712 305.595 116.739V116.746Z" fill="#060606"/>
<path d="M306.307 85.9419C304.665 86.0711 303.003 87.2807 302.148 88.7349C300.872 90.9026 301.001 93.7363 301.483 96.1283C301.903 98.2009 302.935 100.532 305.296 100.81C308.675 101.211 310.202 97.9767 310.691 95.1634C311.145 92.5267 310.989 89.2649 309.157 87.1447C308.343 86.2002 307.332 85.8672 306.314 85.9419H306.307Z" fill="white"/>
<path d="M305.839 101.184C305.649 101.184 305.452 101.17 305.255 101.15C303.199 100.905 301.74 99.1455 301.15 96.1962C300.512 93.016 300.75 90.4473 301.856 88.565C302.826 86.9205 304.604 85.7313 306.287 85.6021C307.501 85.507 308.587 85.9623 309.415 86.9205C311.709 89.5775 311.308 93.614 311.03 95.2245C310.372 99.0095 308.458 101.191 305.846 101.191L305.839 101.184ZM306.334 86.2817C304.889 86.3904 303.287 87.4709 302.439 88.9115C301.421 90.6444 301.211 93.0499 301.815 96.0603C302.188 97.9223 303.104 100.206 305.33 100.471C308.96 100.905 310.039 96.8622 310.345 95.1022C310.609 93.5868 310.989 89.8017 308.886 87.369C308.2 86.5739 307.345 86.2137 306.327 86.2885L306.334 86.2817Z" fill="#060606"/>
<path d="M283.107 105.214C284.79 98.4727 294.846 93.4033 298.612 91.6637C300.77 90.6648 303.118 89.9852 304.909 91.5482C310.799 96.6991 297.479 106.661 297.479 106.661C297.479 106.661 301.286 110.555 297.968 114" fill="white"/>
<path d="M298.212 114.245L297.717 113.769C300.77 110.603 297.377 107.055 297.235 106.906L296.963 106.627L297.275 106.389C297.364 106.328 305.88 99.893 306.07 94.8983C306.117 93.6752 305.663 92.6626 304.685 91.8064C302.989 90.325 300.736 91.0589 298.755 91.9763C293.693 94.3139 284.973 99.1523 283.439 105.295L282.774 105.125C284.376 98.7038 293.299 93.7363 298.47 91.3511C300.526 90.4066 303.138 89.5367 305.14 91.29C306.267 92.2753 306.809 93.4985 306.755 94.9255C306.572 99.7571 299.542 105.499 297.981 106.716C298.802 107.721 301.191 111.16 298.219 114.245H298.212Z" fill="#060606"/>
<path d="M221.445 228.069C221.174 223.984 217.849 221.878 214.13 221.667C187.869 220.186 162.945 207.811 145.092 188.655C142.561 185.937 137.709 186.596 135.395 189.192C132.729 192.168 133.394 196.184 135.932 198.902C156.465 220.94 185.142 233.709 215.06 235.394C218.765 235.605 221.676 231.446 221.452 228.069H221.445Z" fill="#060606"/>
<path d="M57.1968 172.326C49.3458 177.599 41.4743 182.886 33.1347 187.371C29.07 189.559 24.89 191.665 20.5268 193.208C18.4029 193.962 14.9829 195.627 14.25 192.698C13.3 188.927 14.2093 184.238 15.0033 180.487C16.0075 175.73 17.4393 171.068 18.7693 166.4C21.6397 156.343 24.5168 146.279 27.3872 136.221C29.8233 127.693 16.5708 124.058 14.1415 132.565C10.7758 144.356 7.37612 156.139 4.03754 167.942C1.24183 177.823 -3.04674 192.127 3.20969 201.559C10.8233 213.03 25.46 206.466 35.0211 201.838C45.2472 196.884 54.7065 190.53 64.1183 184.211C71.4197 179.304 64.5525 167.385 57.1833 172.332L57.1968 172.326Z" fill="#060606"/>
<path d="M29.3076 142.324C29.3076 142.324 34.0643 152.49 20.2554 148.8C6.44648 145.103 0.902554 141.76 9.34398 137.465C9.34398 137.465 -2.61245 132.722 12.0515 102.217C12.8047 100.64 14.0601 98.894 15.804 98.8668C18.2468 98.8261 20.1536 103.365 17.9822 116.508C17.9822 116.508 22.6847 93.6344 28.7647 96.1826C29.9183 96.6651 30.5154 97.963 30.6579 99.2134C30.9565 101.775 29.2601 112.125 27.0004 119.294C27.0004 119.294 31.8047 105.853 35.0686 102.108C38.3326 98.364 42.7433 98.6358 40.8568 107.592C40.3683 109.903 39.6897 112.172 38.8822 114.388L35.0618 124.866C35.0618 124.866 44.2565 115.808 48.0565 120.13C50.4451 122.841 42.0579 141.916 29.294 142.33L29.3076 142.324Z" fill="white"/>
<path d="M25.3922 149.948C23.9536 149.948 22.2097 149.676 20.174 149.133C9.819 146.36 5.28614 144.111 5.02828 141.597C4.88578 140.217 6.05971 138.858 8.6315 137.458C7.83757 136.942 6.42614 135.732 5.449 133.238C3.67793 128.692 3.32507 119.593 11.7529 102.067C12.5197 100.471 13.8497 98.5542 15.804 98.5203C16.4758 98.4999 17.134 98.8193 17.6497 99.4105C19.0815 101.075 19.5701 104.956 19.0951 110.569C20.6083 105.146 23.214 97.698 26.4236 96.006C27.2515 95.5643 28.0861 95.5167 28.9072 95.8633C30.0336 96.3389 30.8208 97.5689 31.0108 99.1726C31.2415 101.123 30.3594 107.266 28.9954 113.192C30.6783 109.08 32.9719 104.004 34.8244 101.884C36.5683 99.8862 38.5904 99.0435 39.9815 99.7367C40.9586 100.226 42.4244 101.904 41.2097 107.667C40.7415 109.882 40.0901 112.118 39.2215 114.51L35.8829 123.657C37.8508 121.924 42.1597 118.506 45.5594 118.621C46.6858 118.662 47.6222 119.09 48.3347 119.899C49.4272 121.142 48.5247 124.581 47.3169 127.38C44.1819 134.652 37.5861 142.093 29.8165 142.643C30.244 143.764 31.1058 146.632 29.5858 148.453C28.7511 149.452 27.3465 149.948 25.3922 149.948ZM15.8379 99.2066H15.8108C14.2026 99.2338 13.049 100.939 12.3636 102.366C4.04436 119.668 4.3565 128.57 6.08007 132.987C7.36257 136.276 9.45257 137.139 9.47293 137.146L10.1786 137.424L9.50007 137.771C6.86043 139.116 5.57793 140.38 5.70007 141.529C5.99186 144.315 14.1958 146.822 20.3436 148.467C24.7951 149.656 27.8079 149.5 29.0497 148.005C30.6579 146.082 29.009 142.5 28.9954 142.466L28.7715 141.991L29.294 141.977C38.0747 141.692 44.3515 132.491 46.679 127.102C48.2804 123.392 48.389 121 47.8122 120.347C47.2219 119.674 46.4754 119.335 45.5322 119.301C41.4404 119.165 35.374 125.05 35.3129 125.104L34.2272 126.171L38.5701 114.259C39.4319 111.894 40.0765 109.685 40.5311 107.504C41.3454 103.63 41.0333 101.014 39.6694 100.335C38.5904 99.7978 36.8465 100.593 35.3401 102.319C32.1508 105.975 27.3804 119.26 27.3329 119.389L26.6815 119.172C28.8869 112.166 30.6308 101.83 30.3254 99.2338C30.1694 97.8883 29.5383 96.8554 28.6426 96.4816C28.0115 96.2166 27.394 96.2574 26.7426 96.604C21.9586 99.1387 18.3622 116.392 18.3215 116.562L17.6497 116.44C19.6515 104.337 17.9551 100.81 17.1272 99.8522C16.754 99.4173 16.3197 99.1998 15.8379 99.1998V99.2066Z" fill="#060606"/>
<path d="M13.4634 115.606L13.2925 116.271L31.2717 120.907L31.4426 120.242L13.4634 115.606Z" fill="#060606"/>
<path d="M20.6082 132.892L19.95 132.688C23.0782 122.698 33.9692 125.987 34.0846 126.021L33.881 126.681C33.881 126.681 31.2414 125.872 28.3032 126.252C24.4217 126.755 21.8296 128.991 20.6082 132.898V132.892Z" fill="#060606"/>
<path d="M28.2491 142.738C27.2584 142.738 26.2744 142.629 25.3041 142.419C23.9198 142.113 22.5898 141.597 21.3616 140.883L21.7076 140.285C22.8748 140.965 24.1369 141.454 25.4534 141.746C26.5798 141.991 27.7334 142.093 28.8869 142.031L28.9209 142.718C28.6969 142.731 28.473 142.731 28.2491 142.731V142.738Z" fill="#060606"/>
<path d="M9.45264 137.125L9.25317 137.781L13.9923 139.225L14.1918 138.569L9.45264 137.125Z" fill="#060606"/>
<path d="M145.954 246.036C143.735 257.975 141.638 268.671 139.983 277.002C138.171 286.102 130.048 292.374 121.044 291.592C100.632 289.832 66.5815 284.573 48.294 280.278C41.5287 278.681 37.2197 271.845 38.4887 264.839C38.4887 264.839 41.3319 248.699 45.193 227.178C48.8572 206.867 53.4376 181.744 57.414 160.889C60.8951 142.602 63.9419 127.598 65.4687 121.985C71.5962 99.5599 85.819 97.5213 100.028 102.883L105.973 66.2827L107.547 56.538L109.433 44.9654L112.772 24.4228L114.665 12.7618L115.988 4.57329L116.009 4.41699L150.806 10.0232L149.625 17.7089L148.607 24.3616L147.712 30.2125L144.61 50.4153L144.556 50.7823L135.85 107.565C135.85 107.565 162.375 108.346 163.027 132.096C163.366 144.043 159.349 158.871 157.028 176.96C154.131 199.718 149.849 224.834 145.934 246.029L145.954 246.036Z" fill="#125B48"/>
<path d="M122.564 292C122.048 292 121.539 291.98 121.016 291.932C100.347 290.152 66.3303 284.865 48.2193 280.611C41.2639 278.966 36.8396 272.008 38.1561 264.777C38.1832 264.621 41.04 248.394 44.8603 227.117C49.8886 199.256 53.8853 177.572 57.0814 160.821C59.7753 146.686 63.3582 128.454 65.1428 121.89C67.8503 111.975 72.3493 105.35 78.5107 102.203C84.2582 99.2677 91.4036 99.3357 99.7636 102.414L115.676 4.38303L115.717 4.02966L151.206 9.75142L144.909 50.8502L136.257 107.259C139.555 107.483 162.769 109.882 163.386 132.097C163.604 139.646 162.097 148.256 160.36 158.225C159.322 164.164 158.25 170.307 157.395 177.014C154.945 196.286 151.206 219.527 146.293 246.097C143.939 258.77 141.76 269.84 140.322 277.07C138.578 285.816 131.093 292 122.564 292ZM87.9157 100.742C84.5703 100.742 81.5303 101.435 78.8228 102.815C72.8378 105.873 68.4611 112.349 65.8011 122.073C64.0232 128.617 60.4403 146.822 57.7532 160.95C54.5571 177.694 50.5603 199.378 45.5321 227.239C41.7118 248.516 38.855 264.737 38.8278 264.9C37.5793 271.777 41.7728 278.382 48.3753 279.945C66.4593 284.185 100.429 289.472 121.071 291.246C129.879 292.027 137.865 285.864 139.643 276.934C141.082 269.711 143.26 258.634 145.615 245.968C150.527 219.411 154.26 196.177 156.709 176.919C157.571 170.199 158.643 164.049 159.681 158.103C161.419 148.168 162.911 139.592 162.701 132.11C162.436 122.399 157.842 115.38 149.062 111.241C142.486 108.143 135.918 107.918 135.857 107.912L135.47 107.898L150.426 10.3154L116.307 4.81793L100.3 103.352L99.9061 103.202C95.5632 101.565 91.5528 100.742 87.9089 100.742H87.9157Z" fill="#060606"/>
<path d="M150.894 119.905C150.812 119.872 150.731 119.838 150.65 119.81C148.437 119.029 145.336 120.035 145.173 122.76C145.024 125.321 147.582 126.613 148.838 128.454C150.738 131.24 149.944 135.379 149.788 138.559C149.652 141.331 149.903 145.314 153.567 145.572C158.127 145.891 157.639 139.925 157.693 136.765C157.761 132.871 157.544 128.712 155.854 125.145C154.87 123.065 153.058 120.789 150.894 119.905Z" fill="white"/>
<path d="M153.907 145.925C153.785 145.925 153.669 145.925 153.54 145.912C150.588 145.708 149.204 143.227 149.442 138.539C149.469 137.975 149.516 137.377 149.564 136.765C149.788 133.986 150.039 130.839 148.546 128.644C148.166 128.087 147.664 127.584 147.128 127.047C145.94 125.865 144.712 124.642 144.827 122.732C144.895 121.57 145.445 120.619 146.422 119.967C147.63 119.165 149.333 118.968 150.758 119.477C150.846 119.511 150.935 119.545 151.023 119.579C153.377 120.537 155.216 123.004 156.16 124.988C157.924 128.712 158.1 133.034 158.032 136.765C158.032 137.071 158.032 137.404 158.032 137.757C158.032 140.163 158.032 143.465 156.35 145.028C155.718 145.619 154.897 145.918 153.913 145.918L153.907 145.925ZM149.109 119.899C148.275 119.899 147.447 120.123 146.802 120.551C146.252 120.918 145.581 121.598 145.513 122.78C145.418 124.377 146.483 125.437 147.61 126.565C148.146 127.095 148.695 127.645 149.109 128.257C150.738 130.649 150.473 133.924 150.242 136.819C150.195 137.424 150.147 138.015 150.12 138.573C149.91 142.867 151.036 145.042 153.581 145.225C154.551 145.293 155.298 145.069 155.868 144.532C157.327 143.166 157.333 140.047 157.333 137.764C157.333 137.411 157.333 137.071 157.333 136.758C157.401 133.109 157.232 128.889 155.528 125.294C154.64 123.426 152.923 121.108 150.751 120.225C150.677 120.191 150.595 120.164 150.521 120.137C150.073 119.98 149.584 119.899 149.102 119.899H149.109Z" fill="white"/>
<path d="M53.3628 237.684C51.456 237.623 50.0921 239.023 49.7731 241.041C48.701 247.87 47.6221 254.7 46.5499 261.529C46.2513 263.418 47.8596 265.375 49.5424 265.43C51.4492 265.491 52.8131 264.091 53.1321 262.073C54.2042 255.243 55.2831 248.414 56.3553 241.585C56.6538 239.695 55.0456 237.738 53.3628 237.684Z" fill="white"/>
<path d="M144.576 50.7959L109.44 44.9722L112.785 24.4296L147.732 30.2261L144.631 50.429L144.576 50.7959Z" fill="#FFBF00"/>
<path d="M144.861 51.1968L109.046 45.2576L112.5 24.0355L148.119 29.9475L144.861 51.2036V51.1968ZM109.834 44.6868L144.285 50.4018V50.3814L147.338 30.5115L113.064 24.8237L109.834 44.6868Z" fill="#060606"/>
<path d="M150.107 5.80804L117.587 0.399236C115.964 0.129293 114.43 1.22804 114.16 2.85335L113.722 5.49457C113.453 7.11988 114.55 8.65628 116.173 8.92623L148.692 14.335C150.315 14.605 151.85 13.5062 152.119 11.8809L152.557 9.2397C152.827 7.61439 151.73 6.07799 150.107 5.80804Z" fill="#125B48"/>
<path d="M149.184 14.6985C149.001 14.6985 148.824 14.6849 148.641 14.651L116.117 9.2418C115.242 9.0991 114.475 8.61662 113.959 7.8963C113.444 7.17599 113.24 6.29258 113.382 5.41597L113.824 2.77254C114.122 0.964958 115.839 -0.265017 117.644 0.0339826L150.168 5.44315C151.043 5.58586 151.81 6.06833 152.326 6.78865C152.841 7.50896 153.045 8.39237 152.902 9.26898L152.461 11.9124C152.19 13.5365 150.779 14.6917 149.191 14.6917L149.184 14.6985ZM148.75 13.9782C150.181 14.2161 151.539 13.2443 151.776 11.8105L152.217 9.16705C152.332 8.47392 152.17 7.77399 151.762 7.20317C151.355 6.63235 150.745 6.25181 150.052 6.13629L117.529 0.727117C116.097 0.496072 114.74 1.46103 114.502 2.89486L114.061 5.53829C113.946 6.23142 114.109 6.93135 114.516 7.50217C114.923 8.07299 115.534 8.45353 116.226 8.56905L148.75 13.9782Z" fill="#060606"/>
<path d="M115.16 264.458L69.8522 256.704C60.8136 255.155 54.7404 246.566 56.2808 237.514L69.9472 157.396L147.983 170.749L134.316 250.867C132.769 259.919 124.192 266.001 115.154 264.458H115.16Z" fill="#FFBF00"/>
<path d="M117.99 265.049C117.033 265.049 116.063 264.968 115.099 264.805L69.7911 257.051C65.3329 256.29 61.4311 253.83 58.8186 250.133C56.2061 246.437 55.1814 241.938 55.9414 237.467L69.6689 157.015L70.0082 157.077L148.383 170.484L148.329 170.824L134.663 250.942C133.903 255.413 131.446 259.314 127.755 261.93C124.857 263.982 121.471 265.056 117.997 265.056L117.99 265.049ZM70.2254 157.804L56.62 237.582C55.8872 241.87 56.8711 246.185 59.375 249.732C61.8857 253.28 65.6247 255.638 69.9064 256.371L115.215 264.125C119.496 264.859 123.805 263.874 127.348 261.366C130.89 258.852 133.244 255.108 133.977 250.82L147.589 171.041L70.2322 157.81L70.2254 157.804Z" fill="#060606"/>
<path d="M129.614 203.816C130.116 204.074 130.516 204.475 130.917 204.889C131.27 205.331 131.609 205.813 131.819 206.357C132.294 207.431 132.403 208.654 132.247 209.809C132.098 210.978 131.589 212.031 131.025 213.003C130.706 213.465 130.367 213.914 130.014 214.335C129.607 214.715 129.227 215.123 128.8 215.47L128.745 215.429L129.716 214.131C130.001 213.676 130.279 213.214 130.55 212.752L130.89 212.018C131.005 211.773 131.114 211.528 131.188 211.27L131.433 210.502L131.575 209.714C131.731 208.654 131.67 207.56 131.317 206.547C130.978 205.535 130.374 204.597 129.58 203.884L129.621 203.829L129.614 203.816Z" fill="#060606"/>
<path d="M132.247 203.829C133.17 204.121 133.991 204.774 134.534 205.623C135.104 206.466 135.368 207.505 135.389 208.518C135.416 209.544 135.124 210.509 134.764 211.406C134.554 211.841 134.317 212.262 134.065 212.67C133.76 213.044 133.489 213.438 133.163 213.778L133.102 213.744L133.74 212.514C133.923 212.092 134.086 211.657 134.255 211.229C134.507 210.346 134.751 209.442 134.703 208.525C134.703 207.614 134.5 206.69 134.065 205.881C133.638 205.073 133 204.366 132.22 203.884L132.254 203.822L132.247 203.829Z" fill="#060606"/>
<path d="M75.6879 194.886C74.7311 195.41 73.944 196.11 73.3197 196.877C72.7022 197.659 72.2611 198.549 72.0033 199.507L71.8133 200.228C71.7793 200.479 71.7522 200.73 71.7115 200.982C71.6097 201.478 71.6572 202.001 71.5961 202.518C71.6165 203.034 71.6165 203.564 71.6233 204.101C71.6436 204.638 71.7047 205.168 71.6979 205.732L71.63 205.752L71.2636 204.169C71.1822 203.632 71.1143 203.095 71.0533 202.558C71.0261 201.478 71.0125 200.377 71.3382 199.324C71.6368 198.277 72.1661 197.292 72.9261 196.504C73.6793 195.715 74.6225 195.117 75.6743 194.818L75.6879 194.886Z" fill="#060606"/>
<path d="M73.2789 193.772C72.4035 194.098 71.6571 194.594 71.0396 195.158C70.4289 195.736 69.9539 196.415 69.6078 197.176C69.221 197.924 69.0649 198.78 68.8478 199.636C68.7935 200.078 68.7053 200.52 68.6306 200.968C68.5628 201.424 68.5289 201.879 68.4271 202.355H68.3592L68.271 200.975C68.271 200.513 68.2981 200.051 68.3117 199.582C68.4339 198.665 68.5764 197.734 68.9903 196.891C69.3839 196.048 69.9674 195.287 70.7206 194.73C71.4671 194.173 72.356 193.806 73.2856 193.711V193.779L73.2789 193.772Z" fill="#060606"/>
<path d="M102.485 204.264C109.42 205.48 114.746 202.49 121.132 203.517C124.715 204.094 128.087 205.426 127.693 209.802C126.967 217.814 120.786 222.523 113.654 224.97C104.439 228.13 94.4163 226.662 86.2124 221.443C79.3045 217.046 72.3967 210.142 75.1177 200.948C76.3663 196.742 79.7795 196.531 83.3556 197.17C89.7274 198.304 96.1399 203.163 102.485 204.271V204.264Z" fill="white"/>
<path d="M103.679 226.968C97.5785 226.968 91.4646 225.194 86.0224 221.728C79.3317 217.468 71.9556 210.394 74.7853 200.846C76.1696 196.164 80.1256 196.239 83.4099 196.823C86.6331 197.401 89.8971 198.923 93.0524 200.404C96.1739 201.865 99.4039 203.381 102.539 203.931C106.061 204.549 109.202 204.06 112.242 203.585C115.092 203.136 118.037 202.681 121.179 203.184C124.328 203.686 128.467 204.93 128.026 209.843C127.212 218.861 119.815 223.223 113.756 225.303C110.478 226.424 107.079 226.981 103.672 226.981L103.679 226.968ZM80.6685 197.231C78.3885 197.231 76.3392 198.039 75.4503 201.043C72.7428 210.176 79.9085 217.019 86.3956 221.151C94.7014 226.438 104.595 227.715 113.539 224.644C119.408 222.632 126.567 218.419 127.347 209.775C127.646 206.425 125.712 204.604 121.077 203.856C118.037 203.367 115.276 203.802 112.358 204.257C109.264 204.74 106.061 205.243 102.43 204.604C99.2071 204.04 95.9364 202.504 92.7742 201.023C89.6596 199.562 86.4364 198.053 83.3014 197.496C82.426 197.34 81.5371 197.224 80.6753 197.224L80.6685 197.231Z" fill="#060606"/>
<path d="M85.8664 221.457C85.6153 217.454 85.9342 213.438 86.8028 209.524C87.5764 206.051 88.7774 202.688 90.3789 199.528L90.9896 199.84C89.4153 202.953 88.2278 206.262 87.4678 209.673C86.6128 213.526 86.3007 217.474 86.5517 221.416L85.8664 221.457Z" fill="#060606"/>
<path d="M98.8814 226.329C98.4811 222.34 98.61 218.31 99.2546 214.348C99.8246 210.842 100.809 207.41 102.166 204.135L102.797 204.4C101.46 207.628 100.49 211.012 99.9264 214.464C99.2886 218.365 99.1664 222.333 99.5532 226.268L98.8679 226.336L98.8814 226.329Z" fill="#060606"/>
<path d="M113.315 225.017C112.792 221.538 112.704 217.998 113.043 214.491C113.416 210.659 114.298 206.887 115.669 203.292L116.314 203.537C114.963 207.077 114.095 210.781 113.728 214.552C113.396 218.004 113.484 221.491 113.993 224.909L113.315 225.011V225.017Z" fill="#060606"/>
<path d="M113.735 177.843C112.724 183.905 112.568 189.735 113.118 194.961C118.526 193.629 125.21 193.391 132.206 194.567C138.653 195.641 144.353 197.74 148.729 200.384C151.199 195.26 153.113 189.267 154.192 182.777C157.598 162.2 152.156 144.933 140.145 143.051C129.024 141.311 117.142 157.28 113.742 177.837L113.735 177.843Z" fill="white"/>
<path d="M148.872 200.873L148.546 200.676C144.013 197.931 138.34 195.94 132.145 194.907C125.481 193.786 118.75 193.921 113.193 195.294L112.813 195.389L112.772 194.995C112.202 189.572 112.419 183.62 113.396 177.782C116.891 156.676 128.915 140.944 140.193 142.711C144.034 143.309 147.284 145.422 149.856 148.99C155.088 156.241 156.831 168.894 154.524 182.831C153.479 189.124 151.579 195.247 149.035 200.533L148.872 200.873ZM123.283 193.466C126.214 193.466 129.248 193.718 132.267 194.227C138.395 195.247 144.027 197.21 148.58 199.895C151.016 194.744 152.835 188.818 153.853 182.723C156.133 168.955 154.429 156.499 149.306 149.391C146.843 145.98 143.749 143.961 140.091 143.391C129.363 141.712 117.447 157.511 114.075 177.898C113.131 183.538 112.908 189.28 113.416 194.533C116.443 193.826 119.788 193.466 123.276 193.466H123.283Z" fill="#060606"/>
<path d="M139.494 149.71C145.085 150.125 148.722 159.971 148.41 171.367L133.712 174.249L147.582 179.97C147.433 180.888 147.277 181.812 147.087 182.743C146.015 188.057 144.414 193.018 142.493 197.299C138.082 195.491 133.631 194.587 131.249 194.411C123.948 193.881 124.911 193.935 119.266 193.969C119.191 189.763 119.734 185.794 120.541 180.793C123.717 161.099 132.165 149.173 139.501 149.71H139.494Z" fill="#060606"/>
<path d="M142.67 197.747L142.364 197.618C138.164 195.899 133.746 194.941 131.222 194.757L130.462 194.703C126.576 194.417 123.321 194.286 120.698 194.309L118.933 194.322V193.983C118.845 189.572 119.462 185.38 120.209 180.745C123.235 161.969 131.371 148.773 139.528 149.371C145.126 149.792 149.096 159.251 148.763 171.381V171.66L134.907 174.378L147.969 179.767L147.929 180.038C147.759 181.105 147.596 181.989 147.426 182.824C146.381 187.982 144.787 193.038 142.805 197.448L142.67 197.754V197.747ZM122.733 193.609C124.905 193.609 125.868 193.677 130.51 194.017L131.27 194.071C133.78 194.254 138.137 195.185 142.31 196.857C144.21 192.562 145.737 187.67 146.748 182.682C146.897 181.927 147.046 181.126 147.196 180.188L132.525 174.133L148.071 171.082C148.322 159.645 144.563 150.431 139.467 150.05C139.311 150.036 139.155 150.036 138.999 150.036C131.466 150.036 123.738 163.104 120.881 180.847C120.161 185.332 119.564 189.396 119.605 193.622H120.691C121.512 193.609 122.163 193.602 122.733 193.602V193.609Z" fill="#060606"/>
<path d="M156.092 186.113C155.271 186.113 154.416 186.012 153.534 185.787L153.703 185.121C159.715 186.684 164.757 181.588 164.805 181.533L165.3 182.016C165.117 182.206 161.256 186.113 156.085 186.113H156.092Z" fill="#060606"/>
<path d="M155.183 169.471C155.183 169.471 155.142 169.471 155.122 169.471V168.785H155.183C161.636 168.785 164.221 161.609 164.248 161.534L164.893 161.759C164.866 161.833 162.118 169.471 155.183 169.471Z" fill="#060606"/>
<path d="M155.664 177.979C155.413 177.979 155.156 177.973 154.891 177.952L154.938 177.266C161.5 177.741 165.999 171.367 166.047 171.299L166.61 171.694C166.427 171.959 162.192 177.979 155.664 177.979Z" fill="#060606"/>
<path d="M100.204 174.33C99.4376 180.426 97.9176 186.059 95.8955 190.911C91.098 188.077 84.7601 185.93 77.7233 185.053C71.2362 184.231 65.1766 184.605 60.2298 185.882C59.3341 180.269 59.2119 173.97 60.0398 167.446C62.6726 146.754 72.8308 131.777 84.8755 133.422C96.0312 134.951 102.837 153.658 100.211 174.33H100.204Z" fill="white"/>
<path d="M96.0653 191.4L95.726 191.203C90.7928 188.295 84.387 186.229 77.6828 185.386C71.4535 184.598 65.4481 184.883 60.3181 186.209L59.9517 186.304L59.8906 185.93C58.961 180.133 58.8999 173.725 59.7006 167.399C61.4853 153.38 66.7781 141.76 73.8624 136.316C77.3435 133.639 81.0688 132.552 84.9163 133.082C96.2349 134.631 103.245 153.156 100.544 174.378C99.811 180.249 98.3113 186.018 96.2078 191.047L96.0585 191.414L96.0653 191.4ZM70.897 184.265C73.1363 184.265 75.4367 184.415 77.7642 184.707C84.4074 185.536 90.7656 187.561 95.726 190.415C97.721 185.529 99.1528 179.964 99.8585 174.289C102.464 153.794 95.5767 135.236 84.8213 133.761C81.157 133.259 77.6081 134.305 74.2763 136.86C67.3345 142.195 62.1367 153.638 60.3724 167.48C59.5988 173.61 59.6463 179.814 60.5013 185.448C63.6906 184.659 67.2056 184.265 70.8903 184.265H70.897Z" fill="#060606"/>
<path d="M83.5865 139.979C78.1105 138.776 71.8065 147.162 68.8412 158.164L82.0937 165.143L67.1719 166.645C67.0498 167.562 66.9412 168.493 66.853 169.444C66.3576 174.847 66.473 180.059 67.0837 184.707C71.8337 184.238 76.3462 184.652 78.6805 185.169C85.8258 186.759 84.8894 186.528 90.284 188.186C91.5598 184.177 92.1773 180.222 92.8355 175.193C95.4344 155.418 90.759 141.563 83.5798 139.972L83.5865 139.979Z" fill="#060606"/>
<path d="M90.5147 188.621L88.8251 188.105C86.3189 187.334 83.1635 186.526 79.359 185.679L78.6126 185.515C76.1493 184.965 71.6368 184.612 67.1243 185.06L66.7918 185.094L66.7511 184.768C66.1201 179.97 66.0386 174.67 66.5136 169.431C66.5951 168.574 66.6968 167.677 66.8326 166.617L66.8665 166.346L80.9265 164.932L68.4408 158.354L68.5154 158.089C71.6708 146.374 78.1851 138.457 83.6679 139.653C91.6683 141.427 95.6718 156.404 93.1951 175.254C92.5843 179.909 91.9668 184.102 90.6301 188.302L90.5283 188.628L90.5147 188.621ZM71.3247 184.17C74.3308 184.17 77.0315 184.462 78.7551 184.843L79.5015 185.006C83.3241 185.853 86.4976 186.666 89.0218 187.445L90.0601 187.765C91.3086 183.728 91.9058 179.658 92.4961 175.159C93.7108 165.931 93.3715 157.301 91.5461 150.865C89.8361 144.831 86.9793 141.087 83.5051 140.312C78.5176 139.211 72.2747 146.965 69.2347 157.987L83.254 165.374L67.4636 166.957C67.3415 167.895 67.2533 168.704 67.1786 169.471C66.7172 174.541 66.7783 179.671 67.3686 184.326C68.7054 184.204 70.0354 184.156 71.3111 184.156L71.3247 184.17Z" fill="#060606"/>
<path d="M59.8025 170.511C53.1864 170.266 49.7529 163.79 49.6104 163.519L50.2211 163.199C50.255 163.26 53.6207 169.594 59.8296 169.825L59.8025 170.511Z" fill="#060606"/>
<path d="M62.9578 154.42C56.2535 152.456 55.8056 144.308 55.7988 144.226L56.4842 144.192C56.4842 144.267 56.9185 151.932 63.1478 153.76L62.9578 154.42Z" fill="#060606"/>
<path d="M60.7458 162.615C53.933 161.099 51.4155 153.57 51.3069 153.251L51.9583 153.04C51.9855 153.115 54.4622 160.515 60.8883 161.942L60.739 162.615H60.7458Z" fill="#060606"/>
<path d="M110.125 195.308C109.664 198.474 106.726 200.662 103.564 200.2C100.402 199.738 98.2165 196.796 98.678 193.629C99.1394 190.462 102.078 188.274 105.24 188.736C108.402 189.199 110.587 192.141 110.125 195.308Z" fill="#FF6600"/>
<path d="M104.412 200.601C104.113 200.601 103.815 200.581 103.509 200.533C101.887 200.296 100.462 199.439 99.4853 198.128C98.5082 196.816 98.1011 195.199 98.3386 193.575C98.5761 191.951 99.4311 190.524 100.741 189.545C102.05 188.567 103.665 188.159 105.287 188.397C106.909 188.635 108.334 189.491 109.311 190.802C110.288 192.114 110.695 193.731 110.458 195.355C110.22 196.979 109.365 198.406 108.056 199.385C106.99 200.18 105.721 200.601 104.412 200.601ZM104.391 189.022C103.231 189.022 102.105 189.396 101.155 190.102C99.9875 190.972 99.2343 192.243 99.0239 193.684C98.8136 195.124 99.1732 196.558 100.042 197.727C100.91 198.896 102.179 199.65 103.618 199.861C105.056 200.071 106.488 199.711 107.655 198.841C108.822 197.971 109.576 196.701 109.786 195.26C109.996 193.819 109.637 192.386 108.768 191.217C107.9 190.048 106.631 189.294 105.192 189.083C104.927 189.042 104.656 189.022 104.391 189.022Z" fill="#060606"/>
<path d="M210.649 253.198C215.996 264.098 220.889 273.836 224.729 281.413C228.923 289.69 238.43 293.543 246.891 290.355C266.075 283.159 297.452 268.902 313.907 259.844C319.987 256.48 322.308 248.733 319.2 242.332C319.2 242.332 312.122 227.559 302.609 207.872C293.618 189.301 282.449 166.339 273.016 147.325C264.745 130.656 257.782 117.024 254.797 112.03C242.867 92.085 228.617 93.9605 216.376 102.951L200.81 69.3067L196.67 60.3503L191.744 49.7154L183.004 30.8309L178.044 20.1077L174.562 12.5784L174.501 12.4357L142.493 27.2225L145.696 34.3034L148.465 40.4397L150.901 45.8352L159.322 64.4547L159.471 64.7945L183.126 117.126C183.126 117.126 157.788 125.036 163.549 148.079C166.433 159.679 174.291 172.869 181.389 189.667C190.299 210.801 201.176 233.838 210.649 253.191V253.198Z" fill="#AADC66"/>
<path d="M240.798 291.803C234.107 291.803 227.681 287.997 224.424 281.562C221.099 274.998 216.023 264.927 210.344 253.341C198.462 229.074 188.616 207.696 181.077 189.803C178.451 183.579 175.764 177.952 173.165 172.509C168.808 163.376 165.042 155.493 163.224 148.161C157.836 126.599 179.55 118.03 182.665 116.922L142.045 27.0459L174.685 11.9668L174.881 12.4425L216.519 102.414C223.739 97.202 230.599 95.2041 236.93 96.4817C243.709 97.8543 249.823 103.019 255.102 111.839C258.583 117.677 266.936 134.271 273.335 147.155C280.942 162.472 290.619 182.281 302.935 207.703C312.34 227.165 319.451 242.02 319.526 242.169C322.735 248.781 320.347 256.671 314.09 260.129C297.791 269.106 266.455 283.377 247.027 290.661C244.991 291.429 242.888 291.796 240.811 291.796L240.798 291.803ZM210.961 253.042C216.641 264.621 221.716 274.692 225.035 281.25C229.147 289.37 238.491 293.142 246.769 290.023C266.17 282.745 297.465 268.495 313.744 259.531C319.682 256.249 321.941 248.754 318.895 242.475C318.82 242.325 311.709 227.471 302.304 208.008C289.994 182.587 280.311 162.785 272.711 147.468C266.326 134.59 257.979 118.016 254.505 112.2C249.334 103.556 243.37 98.4931 236.788 97.168C230.558 95.9109 223.766 97.9495 216.58 103.23L216.24 103.481L174.325 12.9046L142.948 27.3992L183.601 117.35L183.228 117.466C183.167 117.486 176.883 119.484 171.387 124.248C164.058 130.602 161.527 138.593 163.882 148.011C165.687 155.276 169.439 163.131 173.782 172.23C176.381 177.68 179.068 183.314 181.708 189.552C189.247 207.431 199.086 228.796 210.961 253.055V253.042Z" fill="#060606"/>
<path d="M171.977 133.055C172.045 133 172.12 132.946 172.188 132.898C174.108 131.546 177.365 131.682 178.254 134.264C179.089 136.69 176.972 138.627 176.259 140.734C175.18 143.927 177.053 147.706 178.064 150.723C178.939 153.353 179.767 157.26 176.307 158.497C171.998 160.033 170.871 154.155 169.969 151.131C168.856 147.4 167.947 143.336 168.612 139.442C168.998 137.18 170.132 134.495 171.977 133.055Z" fill="white"/>
<path d="M174.97 159.088C174.44 159.088 173.945 158.966 173.484 158.728C171.448 157.675 170.559 154.494 169.908 152.177C169.813 151.837 169.724 151.518 169.636 151.219C168.571 147.644 167.573 143.438 168.272 139.374C168.645 137.207 169.758 134.332 171.767 132.776C171.841 132.715 171.916 132.661 171.991 132.606C173.233 131.736 174.922 131.458 176.3 131.906C177.413 132.266 178.2 133.041 178.58 134.135C179.197 135.936 178.349 137.451 177.521 138.912C177.148 139.572 176.802 140.19 176.585 140.829C175.736 143.343 176.829 146.306 177.793 148.922C178.003 149.5 178.213 150.057 178.39 150.594C179.876 155.045 179.211 157.804 176.422 158.796C175.913 158.979 175.431 159.068 174.97 159.068V159.088ZM172.188 133.327C170.335 134.767 169.304 137.458 168.951 139.497C168.272 143.425 169.249 147.529 170.294 151.029C170.383 151.328 170.478 151.654 170.573 151.994C171.19 154.189 172.031 157.199 173.803 158.116C174.495 158.476 175.275 158.49 176.191 158.164C178.593 157.308 179.102 154.909 177.738 150.825C177.562 150.295 177.358 149.744 177.148 149.173C176.144 146.449 175.01 143.363 175.933 140.618C176.171 139.918 176.551 139.239 176.924 138.579C177.704 137.193 178.451 135.875 177.928 134.366C177.541 133.245 176.714 132.769 176.089 132.565C174.929 132.185 173.436 132.43 172.384 133.17C172.316 133.218 172.249 133.265 172.181 133.32L172.188 133.327Z" fill="white"/>
<path d="M297.581 220.179C299.406 219.601 301.089 220.587 301.937 222.449C304.808 228.734 307.678 235.027 310.548 241.313C311.342 243.052 310.324 245.37 308.716 245.879C306.891 246.457 305.208 245.472 304.36 243.61C301.489 237.324 298.619 231.031 295.749 224.746C294.955 223.006 295.973 220.689 297.581 220.179Z" fill="white"/>
<path d="M159.478 64.8013L191.744 49.7155L183.004 30.8309L150.907 45.8353L159.322 64.4616L159.478 64.8013Z" fill="#125B48"/>
<path d="M159.301 65.2634L159.01 64.6042L150.453 45.6721L183.167 30.3756L192.199 49.8853L159.301 65.2702V65.2634ZM151.355 46.0051L159.648 64.3392L191.289 49.5455L182.834 31.2862L151.355 46.0051Z" fill="#060606"/>
<path d="M145.693 30.7821L175.558 16.8044C177.048 16.1068 177.692 14.3313 176.995 12.8387L175.863 10.4131C175.166 8.9205 173.393 8.27602 171.903 8.97362L142.039 22.9513C140.548 23.6489 139.905 25.4244 140.601 26.917L141.733 29.3426C142.43 30.8352 144.203 31.4797 145.693 30.7821Z" fill="#AADC66"/>
<path d="M144.441 31.4018C143.192 31.4018 141.991 30.695 141.428 29.4854L140.295 27.0595C139.521 25.4014 140.24 23.4171 141.896 22.6424L171.76 8.66421C172.561 8.29046 173.463 8.24969 174.298 8.54869C175.133 8.85449 175.798 9.45928 176.171 10.2679L177.304 12.6939C178.078 14.352 177.358 16.3363 175.703 17.1109L145.839 31.0892C145.384 31.2998 144.909 31.4018 144.441 31.4018ZM173.172 9.03117C172.792 9.03117 172.412 9.11271 172.059 9.2826L142.195 23.2608C140.878 23.8792 140.308 25.4489 140.926 26.7673L142.059 29.1932C142.677 30.5115 144.244 31.0824 145.56 30.464L175.424 16.4858C176.741 15.8674 177.311 14.2976 176.693 12.9793L175.56 10.5533C175.262 9.91457 174.732 9.4321 174.074 9.19426C173.782 9.08553 173.477 9.03796 173.172 9.03796V9.03117Z" fill="#060606"/>
<path d="M286.813 242.969L245.263 262.656C236.982 266.579 227.073 263.035 223.152 254.736L188.443 181.271L260.007 147.364L294.715 220.829C298.633 229.122 295.094 239.046 286.807 242.972L286.813 242.969Z" fill="#125B48"/>
<path d="M238.192 264.574C231.841 264.574 225.74 260.986 222.85 254.863L187.998 181.085L260.185 146.89L260.334 147.203L295.043 220.675C296.977 224.773 297.208 229.38 295.681 233.648C294.154 237.915 291.067 241.333 286.975 243.27L245.426 262.956C243.092 264.064 240.628 264.587 238.206 264.587L238.192 264.574ZM188.908 181.411L223.467 254.571C227.301 262.684 237.012 266.164 245.114 262.324L286.663 242.638C290.592 240.776 293.557 237.501 295.016 233.403C296.475 229.305 296.258 224.888 294.405 220.954L259.845 147.794L188.908 181.404V181.411Z" fill="#060606"/>
<path d="M216.77 170.695C221.642 181.832 221.893 193.181 218.147 200.207C216.682 202.946 214.612 205.018 211.966 206.18C202.54 210.298 189.41 201.097 182.638 185.624C175.866 170.151 178.017 154.263 187.442 150.145C189.953 149.051 192.714 148.895 195.544 149.547C203.388 151.355 211.796 159.333 216.77 170.701V170.695Z" fill="white"/>
<path d="M207.175 207.492C198.346 207.492 188.039 198.841 182.312 185.753C177.962 175.818 177.107 165.428 180.025 157.967C181.559 154.046 184.069 151.232 187.293 149.819C189.81 148.718 192.613 148.508 195.612 149.201C203.802 151.083 212.223 159.469 217.075 170.552C221.805 181.357 222.341 193.058 218.439 200.364C216.885 203.265 214.748 205.324 212.088 206.486C210.534 207.166 208.878 207.492 207.168 207.492H207.175ZM192.253 149.493C190.604 149.493 189.036 149.812 187.578 150.451C184.524 151.783 182.135 154.474 180.677 158.218C177.827 165.517 178.675 175.703 182.95 185.482C189.634 200.758 202.588 209.898 211.83 205.861C214.347 204.76 216.369 202.803 217.849 200.044C221.649 192.916 221.106 181.452 216.458 170.837C211.687 159.944 203.449 151.715 195.469 149.88C194.37 149.629 193.298 149.5 192.26 149.5L192.253 149.493Z" fill="#060606"/>
<path d="M195.978 154.95C193.82 154.365 191.73 154.426 189.851 155.249C182.8 158.334 181.525 170.994 187.007 183.524C187.272 184.129 187.55 184.714 187.829 185.291L199.799 175.615L191.466 191.366C197.023 199.025 204.277 203.007 209.699 200.635C211.68 199.766 213.2 198.155 214.252 196.001C216.932 190.463 216.485 181.384 212.542 172.36C208.511 163.152 201.963 156.581 195.978 154.956V154.95Z" fill="#060606"/>
<path d="M206.327 201.661C201.482 201.661 195.877 198.012 191.194 191.563L191.065 191.387L198.713 176.933L187.713 185.828L187.523 185.441C187.238 184.856 186.96 184.265 186.695 183.66C183.079 175.397 182.258 166.624 184.551 160.766C185.65 157.946 187.442 155.928 189.715 154.936C191.622 154.1 193.759 153.998 196.073 154.623C202.337 156.322 208.932 163.226 212.861 172.224C216.749 181.119 217.408 190.286 214.564 196.15C213.445 198.454 211.85 200.071 209.842 200.955C208.735 201.437 207.555 201.675 206.327 201.675V201.661ZM191.873 191.332C197.437 198.909 204.528 202.518 209.563 200.316C211.423 199.5 212.895 197.999 213.947 195.845C216.661 190.245 215.989 181.078 212.23 172.495C208.376 163.689 201.963 156.934 195.89 155.283C193.732 154.698 191.751 154.793 189.987 155.561C187.876 156.485 186.22 158.368 185.182 161.011C182.957 166.706 183.778 175.275 187.32 183.382C187.523 183.844 187.734 184.299 187.951 184.748L200.891 174.283L191.873 191.326V191.332Z" fill="#060606"/>
<path d="M234.765 162.778C239.543 173.956 247.631 181.907 255.313 183.973C258.312 184.775 261.23 184.686 263.89 183.545C273.342 179.481 275.622 163.593 268.993 148.059C262.356 132.525 249.321 123.229 239.868 127.292C237.351 128.373 235.349 130.289 233.89 132.796C229.839 139.762 229.893 151.362 234.772 162.778H234.765Z" fill="white"/>
<path d="M259.153 184.85C257.884 184.85 256.575 184.666 255.224 184.306C247.238 182.152 239.081 173.753 234.453 162.914C229.703 151.783 229.364 139.898 233.592 132.627C235.139 129.963 237.208 128.067 239.733 126.98C242.963 125.587 246.736 125.682 250.637 127.245C258.068 130.221 265.05 137.954 269.305 147.93C276.002 163.614 273.634 179.733 264.026 183.864C262.492 184.523 260.863 184.85 259.153 184.85ZM235.078 162.642C239.631 173.297 247.604 181.54 255.401 183.647C258.421 184.455 261.23 184.32 263.754 183.232C273.017 179.25 275.222 163.532 268.674 148.202C264.487 138.389 257.647 130.799 250.379 127.883C246.647 126.388 243.058 126.293 239.997 127.612C237.609 128.638 235.648 130.445 234.175 132.973C230.049 140.061 230.402 151.708 235.071 162.642H235.078Z" fill="#060606"/>
<path d="M237.527 136.819C238.579 134.842 240.051 133.354 241.938 132.545C249.009 129.507 259.099 137.241 264.473 149.819C264.731 150.424 264.969 151.029 265.193 151.627L249.952 153.747L267.126 158.436C268.898 167.732 266.835 175.757 261.399 178.095C259.411 178.951 257.199 178.958 254.905 178.244C249.036 176.416 242.732 169.872 238.864 160.821C234.915 151.579 234.609 142.296 237.527 136.813V136.819Z" fill="#060606"/>
<path d="M258.101 179.114C257.05 179.114 255.944 178.938 254.804 178.584C248.588 176.647 242.359 169.9 238.545 160.97C234.691 151.946 234.168 142.405 237.222 136.67C238.348 134.556 239.882 133.068 241.795 132.246C244.082 131.261 246.769 131.335 249.579 132.464C255.414 134.801 261.236 141.406 264.779 149.697C265.036 150.308 265.281 150.913 265.505 151.518L265.654 151.919L251.648 153.869L267.411 158.171L267.452 158.381C269.325 168.201 266.998 176.063 261.521 178.421C260.443 178.883 259.296 179.114 258.088 179.114H258.101ZM245.229 132.239C244.109 132.239 243.051 132.45 242.074 132.871C240.309 133.632 238.884 135.019 237.833 136.989C234.874 142.555 235.403 151.858 239.183 160.699C242.868 169.315 249.076 176.077 255.014 177.932C257.301 178.639 259.404 178.591 261.27 177.796C266.319 175.628 268.545 167.976 266.835 158.728L248.255 153.652L264.731 151.362C264.555 150.9 264.365 150.431 264.168 149.969C260.694 141.834 255.014 135.372 249.341 133.102C247.923 132.531 246.539 132.253 245.236 132.253L245.229 132.239Z" fill="#060606"/>
<path d="M267.751 205.956C267.751 205.956 267.717 206.011 267.703 206.045C262.051 215.565 251.757 221.824 240.811 223.665C236.91 224.324 232.417 224.508 228.122 223.889C221.425 222.945 215.236 220.023 212.637 213.825C210.248 208.076 214.096 204.454 219.362 202.096C224.01 200.024 229.778 198.923 233.327 198.25C236.394 197.645 239.4 196.857 242.182 195.396C246.688 193.065 249.965 189.124 254.308 186.616C255.163 186.12 256.161 185.617 257.267 185.189C260.429 183.925 264.276 183.124 267.099 184.054C275.52 186.875 270.926 200.595 267.757 205.956H267.751Z" fill="#060606"/>
<path d="M233.605 224.61C231.698 224.61 229.832 224.481 228.068 224.229C222.517 223.448 215.277 221.028 212.318 213.954C210.208 208.871 212.529 204.774 219.212 201.784C223.915 199.684 229.757 198.576 233.252 197.917C235.763 197.428 239.034 196.66 242.012 195.097C244.381 193.874 246.444 192.161 248.445 190.51C250.223 189.036 252.069 187.513 254.125 186.324C255.116 185.753 256.127 185.264 257.131 184.877C258.97 184.143 263.632 182.559 267.194 183.735C269.318 184.449 270.797 185.876 271.578 187.969C273.6 193.405 270.492 201.974 268.056 206.112L268.022 206.18C262.539 215.415 252.401 222.068 240.872 224.005C238.491 224.406 236.021 224.61 233.612 224.61H233.605ZM264.297 183.993C262.281 183.993 259.893 184.51 257.389 185.509C256.412 185.882 255.428 186.358 254.471 186.909C252.462 188.071 250.644 189.572 248.88 191.033C246.851 192.712 244.754 194.445 242.325 195.702C239.264 197.306 235.932 198.087 233.374 198.59C229.914 199.242 224.119 200.343 219.484 202.409C213.112 205.263 210.968 208.953 212.942 213.689C215.779 220.458 222.782 222.788 228.156 223.543C232.078 224.107 236.543 224.032 240.744 223.319C252.076 221.409 262.044 214.885 267.398 205.861L267.445 205.773C269.997 201.451 272.765 193.14 270.926 188.2C270.221 186.304 268.891 185.019 266.97 184.374C266.19 184.116 265.281 183.987 264.276 183.987L264.297 183.993Z" fill="#060606"/>
<path d="M267.751 205.956C267.751 205.956 267.717 206.011 267.703 206.045C262.051 215.565 251.757 221.824 240.811 223.665C236.91 224.324 232.417 224.508 228.122 223.889C229.703 216.815 235.464 209.918 243.906 206.099C252.374 202.253 261.372 202.457 267.757 205.963L267.751 205.956Z" fill="#FF6600"/>
<path d="M233.605 224.61C231.698 224.61 229.832 224.481 228.068 224.229L227.701 224.175L227.783 223.815C229.445 216.401 235.566 209.49 243.756 205.786C251.981 202.049 261.243 202.001 267.914 205.657L268.185 205.807L268.015 206.18C262.532 215.415 252.395 222.068 240.866 224.005C238.484 224.406 236.014 224.61 233.605 224.61ZM228.543 223.597C232.37 224.107 236.692 224.012 240.757 223.325C252.001 221.436 261.895 215.001 267.276 206.092C260.816 202.701 251.954 202.817 244.041 206.411C236.177 209.972 230.266 216.537 228.536 223.604L228.543 223.597Z" fill="#060606"/>
<path d="M241.015 182.994C242.257 185.828 240.784 189.219 237.724 190.564C234.664 191.91 231.176 190.707 229.927 187.867C228.685 185.033 230.158 181.642 233.218 180.297C236.279 178.951 239.766 180.154 241.015 182.994Z" fill="#AADC66"/>
<path d="M235.132 191.468C234.419 191.468 233.714 191.353 233.035 191.115C231.474 190.571 230.26 189.47 229.615 188.016C228.299 185.013 229.853 181.411 233.083 179.991C234.643 179.304 236.353 179.223 237.914 179.76C239.475 180.303 240.689 181.404 241.334 182.858C242.65 185.862 241.097 189.464 237.867 190.884C236.984 191.271 236.062 191.468 235.139 191.468H235.132ZM235.817 180.093C234.989 180.093 234.155 180.269 233.361 180.616C230.477 181.887 229.079 185.074 230.246 187.731C230.809 189.015 231.882 189.98 233.259 190.463C234.65 190.945 236.19 190.87 237.588 190.252C240.472 188.981 241.87 185.787 240.703 183.137C240.14 181.853 239.068 180.888 237.69 180.405C237.086 180.195 236.455 180.093 235.817 180.093Z" fill="#060606"/>
</g>
<defs>
<clipPath id="clip0_213_21">
<rect width="323" height="292" fill="white"/>
</clipPath>
</defs>
</svg>
