<svg width="319" height="512" viewBox="0 0 319 512" fill="none" xmlns="http://www.w3.org/2000/svg">
<g clip-path="url(#clip0_197_2522)">
<path d="M117.78 257.225C63.8199 257.225 18.8599 247.765 10.8699 234.735C10.0499 233.365 9.63989 231.975 9.63989 230.605C9.63989 227.205 12.1099 223.905 16.9899 220.815C33.1599 210.575 72.7299 203.955 117.78 203.955C162.83 203.955 199.87 210.195 216.94 219.845C222.9 223.185 225.92 226.805 225.92 230.605C225.92 232.375 225.24 234.145 223.89 235.845C214.13 248.235 169.5 257.235 117.77 257.235L117.78 257.225ZM117.78 204.945C73.5899 204.945 33.2999 211.655 17.5199 221.645C12.9499 224.545 10.6399 227.555 10.6399 230.595C10.6399 231.785 11.0099 233.005 11.7299 234.215C19.4199 246.765 65.0099 256.225 117.78 256.225C170.55 256.225 213.53 247.395 223.11 235.225C224.31 233.705 224.92 232.145 224.92 230.605C224.92 227.235 221.99 223.815 216.44 220.715C199.51 211.135 160.78 204.955 117.77 204.955L117.78 204.945Z" fill="#060606"/>
<path d="M119.71 511.585C118.94 511.585 118.18 511.585 117.42 511.585C91.01 511.455 64.38 508.865 38.26 503.885L37.76 503.785L57.55 409.545C24.42 386.595 3.03 346.175 0.3 301.365C0.1 298.115 0 294.795 0 291.495C0 272.935 1.56 247.105 9.01 229.415C9.25 228.835 9.42 228.555 10.14 227.355L10.34 227.015L11.21 227.515C10.6 228.625 10.29 229.785 10.29 230.945C10.29 232.105 10.65 233.325 11.4 234.555C19.08 247.125 64.75 256.605 117.61 256.605C170.47 256.605 213.48 247.755 223.09 235.565C224.29 234.025 224.91 232.475 224.91 230.945C224.91 230.335 224.81 229.755 224.62 229.155L225.56 228.815C225.6 228.905 225.63 228.995 225.67 229.045L225.74 229.165C231.92 245.405 233.63 268.325 233.98 284.685C234.03 286.985 234.05 289.285 234.05 291.505C234.05 315.775 228.56 339.615 218.18 360.465C208.16 380.585 193.83 397.505 176.73 409.405L183.76 436.095C186.9 448.005 190.03 459.925 193.16 471.845L201.58 503.795L201.05 503.895C174.34 509.015 146.99 511.605 119.71 511.605V511.585ZM38.94 502.995C64.84 507.905 91.24 510.455 117.42 510.585C145.2 510.715 173.11 508.185 200.33 503.005L192.18 472.085C189.05 460.165 185.91 448.255 182.77 436.345L175.57 408.975L175.86 408.775C211.13 384.395 233.04 339.455 233.04 291.505C233.04 289.295 233.02 287.005 232.97 284.715C232.64 269.335 231.11 248.155 225.78 232.285C225.52 233.595 224.89 234.905 223.88 236.195C214.1 248.605 169.4 257.615 117.61 257.615C65.82 257.615 18.53 248.145 10.55 235.085C9.79 233.835 9.38 232.605 9.31 231.365C2.46 248.845 1 273.585 1 291.515C1 294.795 1.1 298.095 1.29 301.325C4.01 345.965 25.35 386.195 58.38 408.935L58.65 409.125L38.94 503.015V502.995Z" fill="#060606"/>
<path d="M220.24 292.435C204.79 297.195 180.87 303.245 170.97 305.235C157.39 307.945 143.52 306.915 130.36 302.395C124.92 260.385 131.63 208.825 134.02 192.915C134.19 191.755 134.34 190.795 134.46 190.035C134.11 186.235 132.24 179.035 129.43 171.005C125.36 159.415 120.85 150.465 119.35 151.005C119.28 151.025 119.23 151.075 119.18 151.125C119.16 151.175 119.13 151.245 119.11 151.325C119.09 151.345 119.06 151.395 119.04 151.425C93.6402 181.785 88.9102 233.815 92.0702 289.295C66.7102 284.715 37.8602 287.715 16.7102 302.155C18.9102 345.785 51.2302 390.015 76.3602 411.005C73.8302 432.955 66.6602 457.345 64.1302 479.295C77.2502 483.165 97.6802 489.605 122.39 488.875C145.22 488.195 164.29 482.175 175.83 477.105C171.54 457.275 164.28 430.145 159.98 410.345C186.81 387.855 230.77 338.575 220.24 292.435Z" fill="#FFBF00"/>
<path d="M118.49 489.435C96.5902 489.435 78.2502 484.005 65.8802 480.345L63.5802 479.665L63.6302 479.245C64.9002 468.245 67.3602 456.455 69.7502 445.055C72.1102 433.765 74.5502 422.105 75.8202 411.225C62.0302 399.655 48.0702 382.945 37.4902 365.335C24.5502 343.805 17.1902 321.965 16.1902 302.185V301.905L16.4102 301.745C35.5702 288.665 63.6002 283.795 91.5202 288.695C87.8102 222.365 96.6802 177.345 118.64 151.105C118.64 151.105 118.64 151.105 118.64 151.085C118.66 151.015 118.69 150.955 118.71 150.905L118.8 150.775C118.87 150.705 118.98 150.595 119.17 150.535C119.33 150.475 119.61 150.435 119.96 150.605C122.29 151.715 126.74 161.865 129.88 170.835C132.64 178.735 134.58 186.075 134.94 189.985V190.045V190.105C134.82 190.865 134.67 191.825 134.5 192.985C132.26 207.895 125.4 259.755 130.8 302.025C143.83 306.435 157.67 307.375 170.86 304.745C181.14 302.685 204.89 296.645 220.08 291.965L220.59 291.805L220.71 292.335C225.39 312.845 219.95 335.795 204.53 360.535C189.22 385.095 168.82 403.555 160.52 410.545C162.65 420.355 165.55 432.135 168.36 443.525C171.21 455.105 174.16 467.065 176.31 477.015L176.4 477.415L176.03 477.575C166.71 481.665 147.36 488.645 122.41 489.385C121.09 489.425 119.79 489.445 118.5 489.445L118.49 489.435ZM64.6702 478.935L66.1702 479.375C79.2102 483.235 98.9202 489.075 122.38 488.365C146.83 487.635 165.87 480.885 175.26 476.805C173.12 466.955 170.21 455.155 167.4 443.745C164.57 432.235 161.64 420.335 159.49 410.445L159.43 410.145L159.66 409.955C167.78 403.155 188.32 384.655 203.7 359.985C218.85 335.695 224.29 313.185 219.88 293.065C204.64 297.735 181.27 303.675 171.07 305.715C157.61 308.405 143.48 307.415 130.2 302.865L129.91 302.765L129.87 302.455C124.38 260.005 131.28 207.815 133.53 192.835C133.7 191.705 133.84 190.765 133.96 190.005C133.6 186.155 131.69 178.935 128.96 171.155C124.67 158.945 120.76 151.925 119.57 151.495L119.54 151.595L119.45 151.675C119.45 151.675 119.41 151.735 119.38 151.775C97.5502 177.865 88.7702 222.855 92.5602 289.265L92.6002 289.895L91.9802 289.785C64.2302 284.775 36.3102 289.495 17.2202 302.415C18.2602 321.955 25.5702 343.525 38.3602 364.815C48.9402 382.425 62.9102 399.125 76.6802 410.625L76.8902 410.795L76.8602 411.065C75.5902 422.065 73.1302 433.855 70.7402 445.255C68.3902 456.495 65.9602 468.105 64.6802 478.935H64.6702Z" fill="#060606"/>
<path d="M215.73 283.735C213.75 282.955 211.52 282.665 209.35 282.865C202.99 283.455 198.66 288.615 192.92 290.825C188.45 292.545 184.63 289.805 180.33 289.105C175.25 288.275 172.57 290.875 168.58 293.505C162.99 297.185 157.56 293.415 151.6 293.985C145.8 294.535 139.21 298.325 133.65 294.875C129.57 292.335 128.12 287.595 123.21 286.125C118.1 284.605 112.26 286.615 107.84 282.855C103.4 279.075 99.0101 276.925 93.0501 277.605C89.7301 277.985 84.2101 281.535 81.2101 280.985C82.9701 281.305 76.0601 275.635 74.5601 275.065C70.6701 273.585 66.8101 274.175 63.0401 275.555C61.4801 276.125 60.1001 277.185 58.5601 277.725C53.9901 279.325 54.9601 278.425 50.0401 277.505C46.3501 276.815 42.8601 277.175 39.3601 278.495C37.6901 279.125 30.0801 284.825 28.6901 284.265C17.3501 279.645 7.26011 306.565 23.3201 307.315C30.5101 307.655 35.7901 299.785 42.2901 297.365C47.3601 295.475 52.2201 297.735 57.3401 297.455C61.3801 297.245 64.2501 293.905 68.1501 293.715C70.7101 293.595 73.1701 296.125 75.3301 297.155C78.0001 298.435 80.7601 299.095 83.7701 298.915C86.7701 298.745 89.5101 296.735 92.5101 296.745C96.3501 296.745 96.6901 299.325 99.4201 301.415C102.61 303.855 106.7 305.485 110.77 305.555C118.18 305.685 120.66 311.555 127.67 313.665C136.46 316.305 143.8 311.895 152.33 312.255C160.3 312.585 166.03 317.445 173.77 312.445C175.74 311.165 176.47 308.855 178.96 308.255C183.45 307.175 188.47 310.935 193.45 310.105C198.61 309.235 202.99 305.935 207.33 303.265C212.61 300.015 218.78 304.015 221.28 296.325C222.88 291.405 220.73 285.695 215.75 283.725L215.73 283.735Z" fill="white"/>
<path d="M166.47 315.215C164.11 315.215 161.83 314.635 159.48 314.045C157.21 313.475 154.86 312.875 152.29 312.775C148.89 312.635 145.62 313.275 142.45 313.895C137.73 314.815 132.85 315.765 127.51 314.165C124.41 313.235 122.2 311.605 120.06 310.025C117.35 308.035 114.8 306.145 110.74 306.075C106.78 306.005 102.53 304.455 99.1001 301.835C98.1601 301.115 97.4901 300.345 96.9001 299.655C95.7101 298.275 94.8401 297.275 92.5001 297.275H92.4901C91.0201 297.275 89.6001 297.785 88.1101 298.335C86.7301 298.835 85.2901 299.355 83.7901 299.445C80.8401 299.615 78.0101 299.025 75.1101 297.635C74.3801 297.285 73.6501 296.795 72.8701 296.275C71.3301 295.245 69.7601 294.175 68.1701 294.245C66.3401 294.335 64.7501 295.155 63.0501 296.035C61.3001 296.935 59.5001 297.875 57.3601 297.985C55.3601 298.085 53.4101 297.825 51.5101 297.565C48.4101 297.135 45.4801 296.735 42.4601 297.865C39.9501 298.805 37.5501 300.635 35.2301 302.405C31.5801 305.185 27.8201 308.055 23.3001 307.845C18.1401 307.605 16.0201 304.825 15.1501 302.535C13.3301 297.745 15.3601 290.415 19.6701 286.195C22.5201 283.415 25.7901 282.575 28.8801 283.835C29.6401 284.045 33.5201 281.545 35.6101 280.195C37.2501 279.135 38.5401 278.305 39.1901 278.065C42.8401 276.685 46.4201 276.355 50.1301 277.055C51.5701 277.325 52.5301 277.595 53.2401 277.795C54.9401 278.275 55.3001 278.375 58.4001 277.295C59.1401 277.035 59.8401 276.645 60.5901 276.235C61.3201 275.835 62.0701 275.415 62.8801 275.125C67.4501 273.455 71.2301 273.295 74.7501 274.635C75.4201 274.885 81.0001 278.815 81.8801 280.575C83.4901 280.545 85.6601 279.685 87.8001 278.815C89.7101 278.035 91.5201 277.305 93.0001 277.135C98.4801 276.515 103.02 278.115 108.17 282.505C110.78 284.725 113.91 284.835 117.22 284.945C119.26 285.015 121.36 285.085 123.36 285.675C126.36 286.565 128.14 288.635 129.85 290.635C131.04 292.025 132.28 293.455 133.92 294.485C137.61 296.785 141.9 295.695 146.04 294.645C147.87 294.185 149.76 293.705 151.55 293.525C153.84 293.305 156.03 293.705 158.16 294.095C161.66 294.735 164.96 295.335 168.31 293.135C168.9 292.745 169.46 292.365 170 291.985C173.16 289.805 175.88 287.915 180.41 288.655C181.82 288.885 183.18 289.325 184.5 289.755C187.26 290.655 189.87 291.505 192.74 290.395C194.96 289.535 197.02 288.195 199.02 286.895C202.13 284.865 205.35 282.775 209.31 282.405C211.61 282.195 213.89 282.505 215.92 283.305C220.95 285.295 223.51 291.105 221.74 296.525C220.08 301.615 216.73 301.915 213.49 302.205C211.51 302.385 209.47 302.565 207.57 303.735C206.84 304.185 206.1 304.655 205.36 305.135C201.69 307.485 197.9 309.905 193.51 310.645C190.93 311.075 188.39 310.345 185.94 309.645C183.5 308.945 181.2 308.285 179.05 308.795C177.71 309.115 176.91 310.025 176.07 310.985C175.47 311.665 174.86 312.375 174.01 312.925C171.31 314.675 168.84 315.255 166.46 315.255L166.47 315.215ZM151.31 311.755C151.65 311.755 151.99 311.755 152.33 311.775C155 311.885 157.4 312.495 159.72 313.075C164.41 314.255 168.46 315.285 173.47 312.045C174.2 311.575 174.74 310.955 175.32 310.295C176.22 309.255 177.16 308.185 178.81 307.785C181.21 307.205 183.75 307.935 186.21 308.645C188.56 309.325 190.99 310.015 193.34 309.625C197.53 308.925 201.23 306.555 204.82 304.255C205.57 303.775 206.31 303.305 207.05 302.845C209.15 301.555 211.41 301.345 213.4 301.175C216.71 300.875 219.33 300.645 220.79 296.185C222.39 291.265 220.09 285.995 215.55 284.205C213.66 283.455 211.53 283.165 209.4 283.365C205.68 283.715 202.71 285.645 199.57 287.695C197.53 289.025 195.43 290.395 193.11 291.295C189.9 292.535 187 291.585 184.2 290.675C182.92 290.255 181.6 289.825 180.26 289.605C176.13 288.935 173.68 290.625 170.58 292.775C170.03 293.155 169.46 293.545 168.87 293.935C165.2 296.355 161.54 295.685 158 295.045C155.94 294.675 153.81 294.285 151.66 294.485C149.94 294.645 148.17 295.095 146.3 295.575C141.95 296.675 137.46 297.825 133.4 295.295C131.63 294.195 130.34 292.695 129.1 291.255C127.4 289.275 125.8 287.415 123.08 286.605C121.2 286.045 119.16 285.975 117.19 285.915C113.85 285.805 110.4 285.685 107.53 283.245C102.61 279.055 98.3001 277.525 93.1201 278.105C91.7801 278.255 90.0301 278.965 88.1801 279.715C85.6301 280.745 83.0001 281.815 81.1301 281.475L81.3101 280.495C81.3101 280.495 81.1701 280.535 81.0801 280.655C80.9901 280.775 81.0001 280.915 81.0201 280.955C80.7201 280.165 75.6501 276.005 74.4001 275.535C71.1101 274.285 67.5601 274.445 63.2201 276.035C62.4901 276.305 61.7701 276.695 61.0701 277.085C60.3201 277.495 59.5501 277.925 58.7301 278.205C55.4501 279.355 54.8801 279.265 52.9701 278.725C52.2501 278.515 51.3501 278.265 49.9501 278.005C46.4201 277.345 43.0201 277.655 39.5401 278.975C38.9901 279.185 37.6101 280.075 36.1501 281.015C31.5601 283.965 29.4801 285.145 28.5001 284.735C25.8001 283.635 22.9101 284.405 20.3601 286.885C16.3001 290.855 14.3801 297.705 16.0701 302.155C17.1701 305.035 19.6801 306.655 23.3301 306.825C27.4701 307.015 30.9401 304.385 34.6101 301.585C36.9901 299.775 39.4501 297.895 42.1001 296.905C45.3601 295.685 48.5501 296.125 51.6301 296.555C53.4801 296.805 55.3901 297.075 57.2901 296.975C59.2101 296.875 60.8501 296.025 62.5701 295.135C64.2801 294.255 66.0501 293.335 68.1001 293.235C69.9901 293.145 71.8101 294.365 73.4101 295.435C74.1601 295.935 74.8601 296.405 75.5201 296.725C78.2601 298.035 80.9501 298.595 83.7101 298.445C85.0701 298.365 86.3701 297.895 87.7501 297.395C89.2601 296.845 90.8201 296.275 92.4701 296.275H92.4801C95.2801 296.275 96.4301 297.605 97.6401 299.005C98.2301 299.685 98.8401 300.385 99.6901 301.045C102.96 303.545 106.99 305.015 110.74 305.085C115.12 305.165 117.8 307.135 120.63 309.225C122.7 310.745 124.84 312.325 127.78 313.205C132.89 314.735 137.43 313.855 142.24 312.915C145.15 312.345 148.16 311.755 151.3 311.755H151.31Z" fill="#060606"/>
<path d="M140.26 287.275C138.69 287.275 137.42 286.005 137.42 284.435C137.42 282.865 138.69 281.595 140.26 281.595C141.83 281.595 143.1 282.865 143.1 284.435C143.1 286.005 141.83 287.275 140.26 287.275ZM140.26 282.215C139.03 282.215 138.04 283.215 138.04 284.435C138.04 285.655 139.04 286.655 140.26 286.655C141.48 286.655 142.48 285.655 142.48 284.435C142.48 283.215 141.48 282.215 140.26 282.215Z" fill="white"/>
<path d="M212.95 262.505C211.38 262.505 210.11 261.235 210.11 259.665C210.11 258.095 211.38 256.825 212.95 256.825C214.52 256.825 215.79 258.095 215.79 259.665C215.79 261.235 214.52 262.505 212.95 262.505ZM212.95 257.445C211.72 257.445 210.73 258.445 210.73 259.665C210.73 260.885 211.73 261.885 212.95 261.885C214.17 261.885 215.17 260.885 215.17 259.665C215.17 258.445 214.17 257.445 212.95 257.445Z" fill="white"/>
<path d="M49.8303 317.595C47.4803 317.595 45.5603 315.685 45.5603 313.325C45.5603 310.965 47.4703 309.055 49.8303 309.055C52.1903 309.055 54.1003 310.965 54.1003 313.325C54.1003 315.685 52.1903 317.595 49.8303 317.595ZM49.8303 309.685C47.8203 309.685 46.1803 311.325 46.1803 313.335C46.1803 315.345 47.8203 316.985 49.8303 316.985C51.8403 316.985 53.4803 315.345 53.4803 313.335C53.4803 311.325 51.8403 309.685 49.8303 309.685Z" fill="white"/>
<path d="M180.05 335.825C177.7 335.825 175.78 333.915 175.78 331.555C175.78 329.195 177.69 327.285 180.05 327.285C182.41 327.285 184.32 329.195 184.32 331.555C184.32 333.915 182.41 335.825 180.05 335.825ZM180.05 327.905C178.04 327.905 176.4 329.545 176.4 331.555C176.4 333.565 178.04 335.205 180.05 335.205C182.06 335.205 183.7 333.565 183.7 331.555C183.7 329.545 182.06 327.905 180.05 327.905Z" fill="white"/>
<path d="M89.1802 408.735C86.8302 408.735 84.9102 406.825 84.9102 404.465C84.9102 402.105 86.8202 400.195 89.1802 400.195C91.5402 400.195 93.4501 402.105 93.4501 404.465C93.4501 406.825 91.5402 408.735 89.1802 408.735ZM89.1802 400.825C87.1702 400.825 85.5302 402.465 85.5302 404.475C85.5302 406.485 87.1702 408.125 89.1802 408.125C91.1902 408.125 92.8302 406.485 92.8302 404.475C92.8302 402.465 91.1902 400.825 89.1802 400.825Z" fill="white"/>
<path d="M119.01 324.945C116.66 324.945 114.74 323.035 114.74 320.675C114.74 318.315 116.65 316.405 119.01 316.405C121.37 316.405 123.28 318.315 123.28 320.675C123.28 323.035 121.37 324.945 119.01 324.945ZM119.01 317.025C117 317.025 115.36 318.665 115.36 320.675C115.36 322.685 117 324.325 119.01 324.325C121.02 324.325 122.66 322.685 122.66 320.675C122.66 318.665 121.02 317.025 119.01 317.025Z" fill="white"/>
<path d="M83.5102 454.805C81.1602 454.805 79.2402 452.895 79.2402 450.535C79.2402 448.175 81.1502 446.265 83.5102 446.265C85.8702 446.265 87.7802 448.175 87.7802 450.535C87.7802 452.895 85.8702 454.805 83.5102 454.805ZM83.5102 446.895C81.5002 446.895 79.8602 448.535 79.8602 450.545C79.8602 452.555 81.5002 454.195 83.5102 454.195C85.5202 454.195 87.1602 452.555 87.1602 450.545C87.1602 448.535 85.5202 446.895 83.5102 446.895Z" fill="white"/>
<path d="M75.5903 359.005C73.2403 359.005 71.3203 357.095 71.3203 354.735C71.3203 352.375 73.2303 350.465 75.5903 350.465C77.9503 350.465 79.8603 352.375 79.8603 354.735C79.8603 357.095 77.9503 359.005 75.5903 359.005ZM75.5903 351.085C73.5803 351.085 71.9403 352.725 71.9403 354.735C71.9403 356.745 73.5803 358.385 75.5903 358.385C77.6003 358.385 79.2403 356.745 79.2403 354.735C79.2403 352.725 77.6003 351.085 75.5903 351.085Z" fill="white"/>
<path d="M89.0802 313.885C87.3302 313.885 85.9102 312.465 85.9102 310.705C85.9102 308.945 87.3302 307.535 89.0802 307.535C90.8302 307.535 92.2602 308.955 92.2602 310.705C92.2602 312.455 90.8402 313.885 89.0802 313.885ZM89.0802 308.155C87.6702 308.155 86.5201 309.305 86.5201 310.715C86.5201 312.125 87.6702 313.275 89.0802 313.275C90.4902 313.275 91.6402 312.125 91.6402 310.715C91.6402 309.305 90.4902 308.155 89.0802 308.155Z" fill="white"/>
<path d="M163.69 395.415C161.94 395.415 160.52 393.995 160.52 392.245C160.52 390.495 161.94 389.065 163.69 389.065C165.44 389.065 166.87 390.485 166.87 392.245C166.87 394.005 165.45 395.415 163.69 395.415ZM163.69 389.685C162.28 389.685 161.13 390.835 161.13 392.245C161.13 393.655 162.28 394.805 163.69 394.805C165.1 394.805 166.25 393.655 166.25 392.245C166.25 390.835 165.1 389.685 163.69 389.685Z" fill="white"/>
<path d="M148.1 457.005C146.35 457.005 144.93 455.585 144.93 453.825C144.93 452.065 146.35 450.655 148.1 450.655C149.85 450.655 151.28 452.075 151.28 453.825C151.28 455.575 149.86 457.005 148.1 457.005ZM148.1 451.275C146.69 451.275 145.54 452.425 145.54 453.835C145.54 455.245 146.69 456.395 148.1 456.395C149.51 456.395 150.66 455.245 150.66 453.835C150.66 452.425 149.51 451.275 148.1 451.275Z" fill="white"/>
<path d="M206.18 320.925C204.43 320.925 203 319.505 203 317.755C203 316.005 204.42 314.575 206.18 314.575C207.94 314.575 209.35 315.995 209.35 317.755C209.35 319.515 207.93 320.925 206.18 320.925ZM206.18 315.185C204.77 315.185 203.62 316.335 203.62 317.745C203.62 319.155 204.77 320.305 206.18 320.305C207.59 320.305 208.74 319.155 208.74 317.745C208.74 316.335 207.59 315.185 206.18 315.185Z" fill="white"/>
<path d="M156.86 322.495C155.61 322.495 154.59 321.475 154.59 320.225C154.59 318.975 155.61 317.955 156.86 317.955C158.11 317.955 159.13 318.975 159.13 320.225C159.13 321.475 158.11 322.495 156.86 322.495ZM156.86 318.565C155.95 318.565 155.2 319.305 155.2 320.225C155.2 321.145 155.94 321.885 156.86 321.885C157.78 321.885 158.52 321.145 158.52 320.225C158.52 319.305 157.78 318.565 156.86 318.565Z" fill="white"/>
<path d="M114.9 351.245C113.65 351.245 112.63 350.225 112.63 348.975C112.63 347.725 113.65 346.705 114.9 346.705C116.15 346.705 117.17 347.725 117.17 348.975C117.17 350.225 116.15 351.245 114.9 351.245ZM114.9 347.315C113.99 347.315 113.24 348.055 113.24 348.975C113.24 349.895 113.98 350.635 114.9 350.635C115.82 350.635 116.56 349.895 116.56 348.975C116.56 348.055 115.82 347.315 114.9 347.315Z" fill="white"/>
<path d="M199.93 339.665C198.68 339.665 197.66 338.645 197.66 337.395C197.66 336.145 198.68 335.125 199.93 335.125C201.18 335.125 202.2 336.145 202.2 337.395C202.2 338.645 201.18 339.665 199.93 339.665ZM199.93 335.735C199.02 335.735 198.27 336.475 198.27 337.395C198.27 338.315 199.01 339.055 199.93 339.055C200.85 339.055 201.59 338.315 201.59 337.395C201.59 336.475 200.85 335.735 199.93 335.735Z" fill="white"/>
<path d="M170.34 373.325C169.09 373.325 168.07 372.305 168.07 371.055C168.07 369.805 169.09 368.785 170.34 368.785C171.59 368.785 172.61 369.805 172.61 371.055C172.61 372.305 171.59 373.325 170.34 373.325ZM170.34 369.395C169.43 369.395 168.68 370.135 168.68 371.055C168.68 371.975 169.42 372.715 170.34 372.715C171.26 372.715 172 371.975 172 371.055C172 370.135 171.26 369.395 170.34 369.395Z" fill="white"/>
<path d="M149.74 425.655C148.49 425.655 147.47 424.635 147.47 423.385C147.47 422.135 148.49 421.115 149.74 421.115C150.99 421.115 152.01 422.135 152.01 423.385C152.01 424.635 150.99 425.655 149.74 425.655ZM149.74 421.725C148.83 421.725 148.08 422.465 148.08 423.385C148.08 424.305 148.82 425.045 149.74 425.045C150.66 425.045 151.4 424.305 151.4 423.385C151.4 422.465 150.66 421.725 149.74 421.725Z" fill="white"/>
<path d="M120.91 478.185C119.66 478.185 118.64 477.165 118.64 475.915C118.64 474.665 119.66 473.645 120.91 473.645C122.16 473.645 123.18 474.665 123.18 475.915C123.18 477.165 122.16 478.185 120.91 478.185ZM120.91 474.255C120 474.255 119.25 474.995 119.25 475.915C119.25 476.835 119.99 477.575 120.91 477.575C121.83 477.575 122.57 476.835 122.57 475.915C122.57 474.995 121.83 474.255 120.91 474.255Z" fill="white"/>
<path d="M67.4802 381.965C66.2302 381.965 65.2102 380.945 65.2102 379.695C65.2102 378.445 66.2302 377.425 67.4802 377.425C68.7302 377.425 69.7502 378.445 69.7502 379.695C69.7502 380.945 68.7302 381.965 67.4802 381.965ZM67.4802 378.035C66.5702 378.035 65.8202 378.775 65.8202 379.695C65.8202 380.615 66.5602 381.355 67.4802 381.355C68.4002 381.355 69.1402 380.615 69.1402 379.695C69.1402 378.775 68.4002 378.035 67.4802 378.035Z" fill="white"/>
<path d="M31.4201 325.655C30.1701 325.655 29.1501 324.635 29.1501 323.385C29.1501 322.135 30.1701 321.115 31.4201 321.115C32.6701 321.115 33.6901 322.135 33.6901 323.385C33.6901 324.635 32.6701 325.655 31.4201 325.655ZM31.4201 321.725C30.5101 321.725 29.7601 322.465 29.7601 323.385C29.7601 324.305 30.5001 325.045 31.4201 325.045C32.3401 325.045 33.0801 324.305 33.0801 323.385C33.0801 322.465 32.3401 321.725 31.4201 321.725Z" fill="white"/>
<path d="M16.4702 272.555C15.5002 272.555 14.7102 271.765 14.7102 270.795C14.7102 269.825 15.5002 269.035 16.4702 269.035C17.4402 269.035 18.2302 269.825 18.2302 270.795C18.2302 271.765 17.4402 272.555 16.4702 272.555ZM16.4702 269.655C15.8402 269.655 15.3302 270.165 15.3302 270.795C15.3302 271.425 15.8402 271.935 16.4702 271.935C17.1002 271.935 17.6102 271.425 17.6102 270.795C17.6102 270.165 17.1002 269.655 16.4702 269.655Z" fill="white"/>
<path d="M145.59 265.865C144.62 265.865 143.83 265.075 143.83 264.105C143.83 263.135 144.62 262.345 145.59 262.345C146.56 262.345 147.35 263.135 147.35 264.105C147.35 265.075 146.56 265.865 145.59 265.865ZM145.59 262.965C144.96 262.965 144.45 263.475 144.45 264.105C144.45 264.735 144.96 265.245 145.59 265.245C146.22 265.245 146.73 264.735 146.73 264.105C146.73 263.475 146.22 262.965 145.59 262.965Z" fill="white"/>
<path d="M185.7 266.485C184.73 266.485 183.94 265.695 183.94 264.725C183.94 263.755 184.73 262.965 185.7 262.965C186.67 262.965 187.46 263.755 187.46 264.725C187.46 265.695 186.67 266.485 185.7 266.485ZM185.7 263.585C185.07 263.585 184.56 264.095 184.56 264.725C184.56 265.355 185.07 265.865 185.7 265.865C186.33 265.865 186.84 265.355 186.84 264.725C186.84 264.095 186.33 263.585 185.7 263.585Z" fill="white"/>
<path d="M64.6501 266.565C63.6801 266.565 62.8901 265.775 62.8901 264.805C62.8901 263.835 63.6801 263.045 64.6501 263.045C65.6201 263.045 66.4101 263.835 66.4101 264.805C66.4101 265.775 65.6201 266.565 64.6501 266.565ZM64.6501 263.665C64.0201 263.665 63.5101 264.175 63.5101 264.805C63.5101 265.435 64.0201 265.945 64.6501 265.945C65.2801 265.945 65.7901 265.435 65.7901 264.805C65.7901 264.175 65.2801 263.665 64.6501 263.665Z" fill="white"/>
<path d="M36.0602 261.975C34.4902 261.975 33.2202 260.705 33.2202 259.135C33.2202 257.565 34.4902 256.295 36.0602 256.295C37.6302 256.295 38.9002 257.565 38.9002 259.135C38.9002 260.705 37.6302 261.975 36.0602 261.975ZM36.0602 256.915C34.8302 256.915 33.8402 257.915 33.8402 259.135C33.8402 260.355 34.8402 261.355 36.0602 261.355C37.2802 261.355 38.2802 260.355 38.2802 259.135C38.2802 257.915 37.2802 256.915 36.0602 256.915Z" fill="white"/>
<path d="M120.29 279.255C118.72 279.255 117.45 277.985 117.45 276.415C117.45 274.845 118.72 273.575 120.29 273.575C121.86 273.575 123.13 274.845 123.13 276.415C123.13 277.985 121.86 279.255 120.29 279.255ZM120.29 274.195C119.06 274.195 118.07 275.195 118.07 276.415C118.07 277.635 119.07 278.635 120.29 278.635C121.51 278.635 122.51 277.635 122.51 276.415C122.51 275.195 121.51 274.195 120.29 274.195Z" fill="white"/>
<path d="M109.74 198.675C108.17 198.675 106.9 197.405 106.9 195.835C106.9 194.265 108.17 192.995 109.74 192.995C111.31 192.995 112.58 194.265 112.58 195.835C112.58 197.405 111.31 198.675 109.74 198.675ZM109.74 193.615C108.51 193.615 107.52 194.615 107.52 195.835C107.52 197.055 108.52 198.055 109.74 198.055C110.96 198.055 111.96 197.055 111.96 195.835C111.96 194.615 110.96 193.615 109.74 193.615Z" fill="white"/>
<path d="M119.96 241.025C118.39 241.025 117.12 239.755 117.12 238.185C117.12 236.615 118.39 235.345 119.96 235.345C121.53 235.345 122.8 236.615 122.8 238.185C122.8 239.755 121.53 241.025 119.96 241.025ZM119.96 235.965C118.73 235.965 117.74 236.965 117.74 238.185C117.74 239.405 118.74 240.405 119.96 240.405C121.18 240.405 122.18 239.405 122.18 238.185C122.18 236.965 121.18 235.965 119.96 235.965Z" fill="white"/>
<path d="M100.03 259.805C99.0603 259.805 98.2703 259.015 98.2703 258.045C98.2703 257.075 99.0603 256.285 100.03 256.285C101 256.285 101.79 257.075 101.79 258.045C101.79 259.015 101 259.805 100.03 259.805ZM100.03 256.905C99.4003 256.905 98.8903 257.415 98.8903 258.045C98.8903 258.675 99.4003 259.185 100.03 259.185C100.66 259.185 101.17 258.675 101.17 258.045C101.17 257.415 100.66 256.905 100.03 256.905Z" fill="white"/>
<path d="M103.63 227.505C102.66 227.505 101.87 226.715 101.87 225.745C101.87 224.775 102.66 223.985 103.63 223.985C104.6 223.985 105.39 224.775 105.39 225.745C105.39 226.715 104.6 227.505 103.63 227.505ZM103.63 224.605C103 224.605 102.49 225.115 102.49 225.745C102.49 226.375 103 226.885 103.63 226.885C104.26 226.885 104.77 226.375 104.77 225.745C104.77 225.115 104.26 224.605 103.63 224.605Z" fill="white"/>
<path d="M117.32 172.615C116.35 172.615 115.56 171.825 115.56 170.855C115.56 169.885 116.35 169.095 117.32 169.095C118.29 169.095 119.08 169.885 119.08 170.855C119.08 171.825 118.29 172.615 117.32 172.615ZM117.32 169.715C116.69 169.715 116.18 170.225 116.18 170.855C116.18 171.485 116.69 171.995 117.32 171.995C117.95 171.995 118.46 171.485 118.46 170.855C118.46 170.225 117.95 169.715 117.32 169.715Z" fill="white"/>
<path d="M125.56 206.235C124.59 206.235 123.8 205.445 123.8 204.475C123.8 203.505 124.59 202.715 125.56 202.715C126.53 202.715 127.32 203.505 127.32 204.475C127.32 205.445 126.53 206.235 125.56 206.235ZM125.56 203.335C124.93 203.335 124.42 203.845 124.42 204.475C124.42 205.105 124.93 205.615 125.56 205.615C126.19 205.615 126.7 205.105 126.7 204.475C126.7 203.845 126.19 203.335 125.56 203.335Z" fill="white"/>
<path d="M61.4099 423.835C56.2199 446.835 51.7299 469.995 47.9399 493.265C47.1799 497.915 54.2799 500.025 55.0399 495.335C58.8299 472.055 63.3199 448.905 68.5099 425.905C69.5499 421.275 62.4599 419.185 61.4099 423.835Z" fill="white"/>
<path d="M187.24 471.775C186.9 469.805 184.48 468.695 182.69 469.195C180.61 469.765 179.77 471.765 180.11 473.745C180.52 476.105 181.23 478.395 181.9 480.695C182.24 481.845 182.56 482.995 182.82 484.165C182.94 484.695 183.04 485.235 183.13 485.775C183.13 485.875 183.2 486.465 183.21 486.555C183.27 487.415 183.23 488.255 183.18 489.105C183.18 489.155 183.18 489.175 183.17 489.215C183.14 489.415 183.1 489.605 183.06 489.805C182.97 490.245 182.85 490.675 182.71 491.105C182.66 491.255 182.61 491.395 182.55 491.545C182.53 491.595 182.5 491.655 182.45 491.745C182.27 492.055 182.09 492.355 181.91 492.665C181.91 492.615 181.44 493.245 181.33 493.355C181.22 493.455 181.11 493.555 181 493.655C180.96 493.675 180.93 493.705 180.8 493.795C179.13 494.895 178.43 497.065 179.47 498.855C180.44 500.515 182.85 501.285 184.53 500.185C188.76 497.395 190.66 492.555 190.64 487.605C190.62 482.135 188.16 477.125 187.24 471.815V471.775Z" fill="white"/>
<path d="M218 319.985C211.76 345.605 197.82 368.755 178.13 386.285C174.57 389.455 179.81 394.675 183.36 391.515C203.93 373.205 218.62 348.705 225.14 321.955C226.27 317.335 219.14 315.355 218.01 319.985H218Z" fill="white"/>
<path d="M102.49 317.105C102.68 337.795 95.4902 355.725 84.9102 364.215C80.7802 367.515 76.1602 369.375 71.2302 369.415C53.7002 369.555 39.2702 346.345 39.0102 317.595C38.7402 288.845 52.7402 265.415 70.2702 265.285C74.9402 265.245 79.3802 266.855 83.3702 269.775C94.4602 277.855 102.3 295.975 102.49 317.105Z" fill="white"/>
<path d="M71.0701 369.915C53.3601 369.915 38.7701 346.505 38.5001 317.605C38.3301 299.165 43.9301 282.355 53.4801 272.645C58.4901 267.555 64.2901 264.835 70.2601 264.795C74.9301 264.725 79.4401 266.305 83.6601 269.375C95.2101 277.795 102.8 296.525 102.99 317.105C103.18 337.155 96.2001 355.795 85.2301 364.605C80.8701 368.095 76.1601 369.875 71.2401 369.915C71.1901 369.915 71.1301 369.915 71.0801 369.915H71.0701ZM70.4201 265.785C70.3701 265.785 70.3201 265.785 70.2701 265.785C64.5701 265.825 59.0101 268.445 54.1901 273.345C44.8201 282.875 39.3301 299.415 39.5001 317.595C39.7601 346.025 54.0001 369.095 71.2201 368.915C75.9201 368.875 80.4201 367.165 84.6001 363.825C95.3501 355.205 102.17 336.865 101.99 317.115C101.8 296.845 94.3801 278.425 83.0701 270.185C79.0701 267.265 74.8201 265.795 70.4201 265.795V265.785Z" fill="#060606"/>
<path d="M80.4302 278.545C77.4402 276.185 74.1202 274.875 70.6302 274.905C57.5202 275.005 47.0503 293.975 47.2703 317.255C47.2703 318.375 47.3203 319.475 47.3803 320.575L72.6203 313.445L49.0203 332.515C52.6102 348.225 61.3203 359.315 71.4003 359.235C75.0903 359.205 78.5502 357.705 81.6302 355.025C89.5402 348.155 94.9103 333.645 94.7603 316.885C94.6102 299.775 88.7302 285.105 80.4302 278.555V278.545Z" fill="#060606"/>
<path d="M71.2802 359.725C61.2102 359.725 52.2902 349.105 48.5202 332.615L48.4502 332.315L70.3902 314.585L46.9002 321.225L46.8702 320.605C46.8002 319.365 46.7702 318.275 46.7602 317.265C46.6202 301.935 51.1902 287.675 58.6802 280.055C62.2802 276.395 66.4002 274.445 70.6202 274.415C74.1202 274.395 77.5502 275.645 80.7402 278.165C89.4102 285.005 95.1002 300.205 95.2602 316.885C95.4102 333.395 90.3102 348.155 81.9602 355.405C78.6702 358.245 75.1202 359.705 71.4002 359.735C71.3602 359.735 71.3202 359.735 71.2902 359.735L71.2802 359.725ZM49.5702 332.705C53.2102 348.305 61.9102 358.735 71.2902 358.735C71.3202 358.735 71.3602 358.735 71.3902 358.735C74.8702 358.705 78.2002 357.335 81.3002 354.645C89.3202 347.685 94.4002 332.865 94.2602 316.885C94.1102 300.495 88.5602 285.595 80.1202 278.935C77.1202 276.565 73.9402 275.355 70.6302 275.405C66.6902 275.435 62.8002 277.285 59.4002 280.745C52.0902 288.185 47.6302 302.165 47.7702 317.245C47.7702 318.065 47.8002 318.945 47.8502 319.915L74.8302 312.295L49.5802 332.695L49.5702 332.705Z" fill="#060606"/>
<path d="M135.99 316.775C135.99 337.465 143.36 355.325 154.02 363.715C158.18 366.975 162.82 368.795 167.75 368.785C185.28 368.755 199.49 345.415 199.48 316.665C199.48 287.915 185.25 264.625 167.72 264.655C163.05 264.655 158.63 266.315 154.66 269.265C143.65 277.455 135.98 295.645 135.99 316.775Z" fill="white"/>
<path d="M167.71 369.285C162.8 369.285 158.09 367.545 153.7 364.105C142.64 355.405 135.49 336.825 135.48 316.775C135.48 296.205 142.88 277.395 154.35 268.865C158.54 265.745 163.03 264.165 167.7 264.155H167.74C173.7 264.155 179.51 266.815 184.56 271.845C194.2 281.465 199.96 298.215 199.96 316.665C199.96 345.645 185.51 369.255 167.74 369.285H167.7H167.71ZM136.49 316.775C136.49 336.525 143.5 354.795 154.33 363.325C158.54 366.625 163.05 368.325 167.75 368.285C184.98 368.255 198.99 345.095 198.98 316.665C198.98 298.485 193.33 281.995 183.87 272.555C179.01 267.705 173.44 265.145 167.72 265.155C163.27 265.155 158.98 266.685 154.96 269.665C143.74 278.015 136.49 296.505 136.49 316.775Z" fill="#060606"/>
<path d="M157.68 278.005C160.65 275.615 163.96 274.275 167.45 274.275C180.56 274.255 191.21 293.115 191.22 316.395C191.22 317.515 191.19 318.615 191.14 319.715L165.84 312.825L189.62 331.665C186.18 347.405 177.58 358.585 167.5 358.595C163.81 358.595 160.34 357.125 157.23 354.485C149.26 347.695 143.74 333.225 143.74 316.475C143.74 299.365 149.46 284.635 157.7 278.005H157.68Z" fill="#060606"/>
<path d="M167.46 359.095C163.75 359.095 160.19 357.675 156.89 354.865C148.47 347.685 143.23 332.975 143.22 316.465C143.22 299.785 148.76 284.525 157.37 277.605C160.53 275.065 163.92 273.765 167.45 273.765H167.47C171.68 273.765 175.82 275.675 179.44 279.295C187 286.845 191.71 301.055 191.72 316.395C191.72 317.415 191.7 318.475 191.64 319.735L191.61 320.365L168.06 313.955L190.17 331.475L190.1 331.785C186.48 348.365 177.6 359.095 167.49 359.105H167.46V359.095ZM167.47 274.765H167.45C164.15 274.765 160.97 275.985 158 278.385C149.63 285.125 144.22 300.075 144.23 316.465C144.23 332.445 149.47 347.215 157.55 354.095C160.67 356.745 164.01 358.085 167.48 358.085H167.5C176.92 358.065 185.56 347.545 189.07 331.855L163.62 311.695L190.67 319.065C190.71 318.085 190.72 317.225 190.72 316.395C190.72 301.315 186.12 287.375 178.74 280.005C175.31 276.585 171.41 274.775 167.48 274.775L167.47 274.765Z" fill="#060606"/>
<path d="M131.42 350.735C131.47 356.045 126.86 360.405 121.11 360.455C115.36 360.515 110.66 356.255 110.61 350.945C110.56 345.635 115.17 341.275 120.92 341.225C126.67 341.175 131.37 345.425 131.42 350.735Z" fill="#FF6600"/>
<path d="M121 360.965C118.14 360.965 115.44 359.945 113.4 358.095C111.31 356.205 110.15 353.665 110.12 350.955C110.06 345.375 114.91 340.785 120.92 340.725C123.79 340.695 126.57 341.715 128.64 343.595C130.73 345.485 131.89 348.025 131.92 350.735C131.98 356.315 127.13 360.905 121.12 360.965C121.08 360.965 121.04 360.965 121 360.965ZM121.04 341.725C121.04 341.725 120.97 341.725 120.93 341.725C115.47 341.775 111.07 345.915 111.12 350.945C111.14 353.375 112.19 355.645 114.07 357.355C115.93 359.045 118.39 359.965 121 359.965C121.04 359.965 121.07 359.965 121.11 359.965C126.57 359.915 130.97 355.775 130.92 350.745C130.9 348.315 129.85 346.045 127.97 344.335C126.11 342.645 123.65 341.725 121.04 341.725Z" fill="#060606"/>
<path d="M142.39 365.795C142.39 365.795 148.15 437.815 122.35 438.085C92.9902 438.395 98.9302 366.255 98.9302 366.255C102.72 368.165 110.64 371.505 121.15 371.295C131.17 371.095 138.67 367.765 142.39 365.785V365.795Z" fill="white"/>
<path d="M122.16 438.595C117.44 438.595 113.33 436.745 109.94 433.105C103.44 426.115 99.5201 412.725 98.3101 393.305C97.4101 378.885 98.4201 366.345 98.4301 366.225L98.4901 365.485L99.1501 365.815C103.89 368.195 111.54 371.015 121.13 370.805C128.42 370.665 135.69 368.775 142.15 365.355L142.82 364.995L142.88 365.755C142.89 365.885 143.91 378.925 143.14 393.735C142.1 413.695 138.49 427.195 132.39 433.865C129.56 436.965 126.18 438.555 122.34 438.595C122.28 438.595 122.21 438.595 122.15 438.595H122.16ZM99.3801 367.035C98.9601 373.275 96.5401 417.225 110.68 432.425C113.92 435.905 117.81 437.635 122.35 437.595C125.9 437.555 129.03 436.075 131.67 433.195C144.92 418.695 142.38 373.035 141.95 366.595C135.53 369.865 128.36 371.665 121.16 371.805C111.81 371.995 104.25 369.395 99.3801 367.035Z" fill="#060606"/>
<path d="M130 435.425L129.5 435.395L128.64 370.445L129.64 370.435L130.5 435.385L130 435.425Z" fill="#060606"/>
<path d="M113.567 370.783L112.567 370.804L113.923 436.06L114.923 436.039L113.567 370.783Z" fill="#060606"/>
<path d="M141.962 402.158L99.7239 402.571L99.7337 403.571L141.972 403.158L141.962 402.158Z" fill="#060606"/>
<path d="M8.56998 219.505C8.74998 218.265 9.21998 217.005 10.03 215.755C12.16 212.485 15.8 210.085 19.48 208.905C26.21 206.755 33.84 206.865 40.7 208.315C52.35 210.775 62.6 217.515 71.25 225.475C73.93 227.945 76.54 230.485 79.08 233.105C79.87 233.915 81.04 235.285 82.15 236.355C74.48 233.015 66.68 229.755 58.44 228.095C48.58 226.105 39.71 228.305 30.1 230.205C22.41 231.725 6.81998 231.455 8.56998 219.505Z" fill="#FFBF00"/>
<path d="M84.51 237.945L81.95 236.835C74.14 233.435 66.46 230.245 58.34 228.605C49.49 226.815 41.41 228.455 32.86 230.175C31.98 230.355 31.09 230.535 30.2 230.705C25.14 231.705 15.31 232.175 10.53 227.625C8.40996 225.605 7.57996 222.855 8.07996 219.445C8.27996 218.095 8.79996 216.765 9.61996 215.495C11.68 212.335 15.22 209.765 19.34 208.445C25.57 206.455 33.2 206.235 40.81 207.845C51.15 210.025 61.51 215.845 71.6 225.125C74.23 227.545 76.87 230.125 79.45 232.775C79.74 233.075 80.09 233.455 80.46 233.865C81.09 234.555 81.81 235.345 82.51 236.015L84.52 237.945H84.51ZM50.37 226.815C53.04 226.815 55.75 227.045 58.55 227.615C65.97 229.115 72.99 231.875 80.07 234.925C79.95 234.795 79.83 234.665 79.72 234.535C79.35 234.135 79.01 233.765 78.73 233.465C76.17 230.825 73.54 228.265 70.92 225.855C60.97 216.695 50.77 210.955 40.61 208.815C33.16 207.245 25.72 207.445 19.65 209.385C15.8 210.615 12.37 213.105 10.46 216.025C9.71996 217.165 9.24996 218.365 9.06996 219.575C8.61996 222.645 9.34997 225.105 11.22 226.885C15.72 231.165 25.48 230.605 30.01 229.705C30.9 229.525 31.79 229.355 32.67 229.175C38.65 227.965 44.4 226.805 50.37 226.805V226.815Z" fill="#060606"/>
<path d="M10.9199 221.705C10.6399 220.385 10.8999 219.135 11.4799 217.945C11.8499 217.205 13.0199 217.015 13.6699 217.465C14.4399 218.005 14.5399 218.855 14.1499 219.655C14.3299 219.285 14.1799 219.595 14.1499 219.685C14.1099 219.805 14.0699 219.915 14.0299 220.035C14.0199 220.085 14.0099 220.125 13.9899 220.175C13.9899 220.175 13.9899 220.175 13.9899 220.195C13.9899 220.245 13.9799 220.295 13.9799 220.345C13.9799 220.465 13.9799 220.575 13.9699 220.695C13.9999 220.885 14.0299 221.075 14.0799 221.255C14.0799 221.275 14.0899 221.305 14.0999 221.325C14.1299 221.405 14.1699 221.505 14.1799 221.525C14.2599 221.715 14.3499 221.895 14.4499 222.075C14.4599 222.095 14.5999 222.285 14.6099 222.325C14.7499 222.505 14.8899 222.685 15.0499 222.855C15.1899 223.015 15.3499 223.165 15.4999 223.315C15.5399 223.355 15.8099 223.625 15.6199 223.435C15.4299 223.245 15.7499 223.535 15.7999 223.575C16.1399 223.835 16.5099 224.075 16.8799 224.295C16.9699 224.345 17.0699 224.395 17.1599 224.445C17.2099 224.465 17.2499 224.495 17.2999 224.515C17.4099 224.565 17.3599 224.545 17.1699 224.455C17.1999 224.535 17.6599 224.655 17.7399 224.685C17.9299 224.755 18.1199 224.815 18.3099 224.865C18.3999 224.885 18.4999 224.905 18.5899 224.935C18.6099 224.935 18.6399 224.935 18.6599 224.945C19.4799 225.055 20.2399 225.715 20.1499 226.615C20.0699 227.405 19.3599 228.235 18.4799 228.105C16.2099 227.785 14.0299 226.565 12.5399 224.815C11.7699 223.915 11.1699 222.855 10.9199 221.695V221.705Z" fill="white"/>
<path d="M206.76 208.895C206.37 207.705 205.7 206.545 204.69 205.445C202.04 202.575 198.05 200.825 194.22 200.275C187.22 199.285 179.72 200.675 173.2 203.255C162.13 207.635 153.16 215.995 145.96 225.295C143.73 228.175 141.59 231.125 139.52 234.125C138.88 235.055 137.96 236.595 137.04 237.845C144.04 233.265 151.19 228.745 159.03 225.725C168.42 222.105 177.53 222.785 187.32 223.045C195.16 223.255 210.48 220.365 206.75 208.885L206.76 208.895Z" fill="#FFBF00"/>
<path d="M134.99 239.805L136.65 237.565C137.22 236.795 137.8 235.895 138.31 235.105C138.61 234.635 138.89 234.205 139.13 233.855C141.23 230.805 143.4 227.825 145.58 224.995C153.97 214.145 163.2 206.675 173.03 202.795C180.27 199.935 187.82 198.865 194.3 199.785C198.58 200.395 202.51 202.335 205.06 205.105C206.08 206.215 206.82 207.435 207.24 208.735C208.3 212.015 207.95 214.865 206.2 217.215C202.24 222.505 192.46 223.675 187.32 223.555C186.41 223.535 185.51 223.505 184.61 223.475C175.88 223.205 167.64 222.955 159.22 226.195C151.49 229.175 144.45 233.605 137.33 238.275L135 239.805H134.99ZM189.58 200.465C184.42 200.465 178.82 201.585 173.39 203.725C163.73 207.545 154.64 214.905 146.36 225.605C144.19 228.415 142.02 231.385 139.94 234.415C139.71 234.755 139.43 235.175 139.14 235.635C139.05 235.775 138.95 235.925 138.86 236.075C145.33 231.885 151.79 227.985 158.85 225.265C167.46 221.945 175.8 222.205 184.63 222.475C185.53 222.505 186.43 222.535 187.34 222.555C191.96 222.675 201.67 221.595 205.39 216.625C206.94 214.555 207.24 212.005 206.28 209.055C205.9 207.895 205.24 206.795 204.32 205.785C201.95 203.215 198.15 201.345 194.15 200.775C192.68 200.565 191.15 200.465 189.58 200.465Z" fill="#060606"/>
<path d="M204.81 211.455C204.87 210.105 204.4 208.915 203.62 207.845C203.13 207.175 201.94 207.185 201.38 207.745C200.72 208.405 200.75 209.265 201.28 209.985C201.04 209.655 201.24 209.925 201.29 210.015C201.35 210.125 201.41 210.235 201.46 210.345C201.48 210.385 201.5 210.435 201.52 210.475C201.52 210.475 201.52 210.475 201.52 210.495C201.53 210.545 201.55 210.595 201.56 210.645C201.59 210.755 201.61 210.875 201.63 210.985C201.63 211.175 201.63 211.365 201.62 211.555C201.62 211.575 201.62 211.605 201.62 211.625C201.6 211.705 201.59 211.815 201.58 211.835C201.53 212.035 201.47 212.225 201.4 212.425C201.4 212.445 201.29 212.655 201.29 212.695C201.19 212.905 201.07 213.105 200.95 213.295C200.83 213.475 200.71 213.655 200.58 213.825C200.55 213.865 200.32 214.175 200.48 213.955C200.64 213.735 200.37 214.085 200.33 214.125C200.04 214.445 199.72 214.745 199.38 215.015C199.3 215.085 199.21 215.145 199.13 215.215C199.09 215.245 199.04 215.275 199 215.305C198.9 215.375 198.94 215.345 199.12 215.225C199.1 215.315 198.67 215.505 198.59 215.555C198.42 215.655 198.24 215.745 198.06 215.825C197.97 215.865 197.88 215.895 197.8 215.935C197.78 215.935 197.76 215.945 197.73 215.955C196.94 216.205 196.3 216.975 196.54 217.845C196.75 218.615 197.59 219.305 198.43 219.035C200.62 218.345 202.56 216.775 203.74 214.795C204.34 213.785 204.76 212.635 204.81 211.445V211.455Z" fill="white"/>
<path d="M44.8401 174.225C45.4801 173.545 46.3101 172.975 47.3401 172.555C50.0501 171.465 53.3101 171.555 56.0601 172.405C61.1101 173.965 65.7301 177.305 69.3101 181.125C75.4001 187.625 78.7901 196.135 80.6801 204.725C81.2701 207.385 81.7701 210.065 82.2101 212.755C82.3501 213.585 82.4801 214.925 82.7001 216.065C79.4301 210.735 76.0401 205.395 71.7101 200.845C66.5201 195.405 60.1501 192.955 53.4401 190.005C48.0701 187.645 38.6401 180.805 44.8301 174.225H44.8401Z" fill="#FFBF00"/>
<path d="M83.74 218.705L82.28 216.325C78.96 210.905 75.62 205.665 71.36 201.195C66.72 196.335 61.08 193.875 55.11 191.275L53.25 190.465C49.7 188.905 43.43 184.955 42.44 180.065C42 177.875 42.68 175.795 44.47 173.885C45.18 173.125 46.09 172.525 47.15 172.095C49.79 171.025 53.09 170.965 56.21 171.935C60.9 173.385 65.69 176.535 69.68 180.795C75.1 186.575 78.96 194.595 81.17 204.625C81.75 207.235 82.26 209.945 82.71 212.675C82.76 212.985 82.81 213.365 82.86 213.785C82.95 214.475 83.05 215.265 83.19 215.965L83.73 218.695L83.74 218.705ZM44.84 174.225L45.2 174.565C43.64 176.225 43.04 178.005 43.42 179.855C44.33 184.355 50.51 188.155 53.65 189.545L55.5 190.355C61.57 192.995 67.3 195.495 72.07 200.505C75.85 204.465 78.9 208.995 81.84 213.725C81.8 213.395 81.76 213.095 81.71 212.845C81.27 210.135 80.76 207.445 80.19 204.845C78.02 194.995 74.23 187.125 68.94 181.485C65.06 177.345 60.43 174.295 55.9 172.895C53.04 172.015 49.91 172.065 47.51 173.025C46.58 173.405 45.8 173.925 45.19 174.575L44.83 174.235L44.84 174.225Z" fill="#060606"/>
<path d="M45.34 176.585C45.73 175.655 46.43 174.995 47.3 174.525C47.84 174.225 48.64 174.615 48.84 175.165C49.08 175.825 48.78 176.395 48.2 176.705C48.47 176.555 48.24 176.685 48.18 176.725C48.1 176.775 48.03 176.835 47.96 176.895C47.93 176.915 47.91 176.945 47.88 176.965C47.85 176.995 47.83 177.025 47.81 177.055C47.75 177.125 47.71 177.195 47.65 177.265C47.59 177.395 47.52 177.525 47.47 177.655C47.47 177.675 47.46 177.685 47.45 177.705C47.44 177.765 47.41 177.845 47.41 177.865C47.38 178.015 47.36 178.165 47.34 178.315C47.34 178.335 47.34 178.505 47.33 178.535C47.33 178.705 47.35 178.875 47.37 179.055C47.39 179.215 47.42 179.375 47.45 179.535C47.45 179.575 47.51 179.855 47.48 179.655C47.44 179.455 47.52 179.775 47.53 179.815C47.63 180.125 47.75 180.425 47.89 180.715C47.92 180.785 47.96 180.855 48 180.925C48.02 180.965 48.04 180.995 48.06 181.025C48.1 181.105 48.09 181.075 48 180.925C47.98 180.985 48.21 181.265 48.25 181.315C48.34 181.435 48.43 181.555 48.52 181.665C48.57 181.715 48.62 181.765 48.66 181.825C48.67 181.835 48.68 181.845 48.7 181.865C49.15 182.285 49.34 183.015 48.9 183.525C48.51 183.975 47.72 184.175 47.24 183.725C45.98 182.555 45.17 180.875 45.01 179.165C44.92 178.285 45.01 177.375 45.35 176.555L45.34 176.585Z" fill="white"/>
<path d="M380.85 14.145C395.31 9.37498 408.34 5.21498 418.49 2.00498C429.58 -1.49502 441.39 3.64498 445.98 14.035C456.4 37.565 471.22 78.215 477.57 100.925C479.9 109.335 475.01 118.205 466.54 121.045C466.54 121.045 447.09 127.665 421.1 136.425C396.56 144.665 366.18 154.805 340.86 163.035C318.66 170.255 300.33 175.965 293.24 177.675C264.9 184.485 254.04 170.055 251.34 151.185L207.53 166.755L195.87 170.905L182.01 175.825L157.41 184.565L143.45 189.525L134.35 192.765C133.96 192.905 133.54 192.705 133.4 192.315L119.08 152.805C118.8 152.025 119.2 151.165 119.98 150.885L127.73 148.055L135.66 145.155L142.63 142.605L166.71 133.805L167.15 133.645L234.81 108.925C234.81 108.925 219.62 79.265 245.32 64.195C258.24 56.605 276.97 52.065 298.24 43.685C325 33.125 355.19 22.655 380.85 14.165V14.145Z" fill="#AADC66"/>
<path d="M134.1 193.295C133.59 193.295 133.11 192.975 132.92 192.475L118.6 152.965C118.23 151.925 118.77 150.785 119.8 150.405L234.12 108.625C232.27 104.595 221.11 77.785 245.06 63.745C253.23 58.945 263.6 55.395 275.62 51.285C282.78 48.835 290.18 46.305 298.06 43.205C320.71 34.265 348.51 24.325 380.69 13.675C396.08 8.59499 409.55 4.31499 418.34 1.53499C429.68 -2.04501 441.76 3.24499 446.44 13.835C456.99 37.655 471.76 78.285 478.05 100.795C480.46 109.485 475.47 118.585 466.7 121.515C466.51 121.585 446.95 128.235 421.26 136.885C387.66 148.165 361.42 156.865 341.02 163.495C323.86 169.075 301.65 176.145 293.36 178.145C280.81 181.165 270.78 180.215 263.58 175.315C256.88 170.765 252.62 162.865 250.93 151.845L134.52 193.215C134.38 193.265 134.24 193.285 134.1 193.285V193.295ZM381 14.625C348.83 25.275 321.05 35.195 298.42 44.135C290.52 47.245 283.11 49.785 275.94 52.235C263.98 56.325 253.65 59.855 245.57 64.605C235.09 70.755 230.16 80.025 230.93 92.155C231.5 101.245 235.22 108.595 235.26 108.675L235.52 109.175L120.15 151.345C119.63 151.535 119.36 152.105 119.55 152.625L133.87 192.125C133.92 192.255 134.06 192.315 134.19 192.275L251.75 150.495L251.84 151.095C253.42 162.145 257.57 170.015 264.15 174.485C271.11 179.215 280.86 180.115 293.13 177.165C301.39 175.175 323.57 168.105 340.71 162.535C361.1 155.915 387.35 147.205 420.94 135.935C446.64 127.285 466.19 120.625 466.38 120.565C474.66 117.795 479.36 109.225 477.09 101.055C470.81 78.595 456.06 38.025 445.53 14.235C441.06 4.10499 429.51 -0.945013 418.65 2.47499C409.86 5.25499 396.4 9.53499 381.01 14.615L381 14.625Z" fill="#060606"/>
<path d="M239.26 84.925C239.27 85.035 239.29 85.145 239.31 85.255C239.79 88.165 242.77 90.965 245.87 89.495C248.78 88.115 248.65 84.515 249.91 82.025C251.82 78.255 256.85 76.615 260.44 74.875C263.57 73.355 267.79 70.665 265.85 66.475C263.44 61.265 257.18 65.405 253.68 67.255C249.36 69.535 244.92 72.285 242.02 76.295C240.33 78.635 238.92 82.005 239.26 84.915V84.925Z" fill="#FF6600"/>
<path d="M311.13 70.125C296.3 77.825 289.01 95.455 294.72 111.665C300.43 127.875 317.15 137.055 333.54 133.765L339.42 150.475L416.44 123.355L382.26 26.285L305.24 53.405L311.12 70.115L311.13 70.125Z" fill="#FFBF00"/>
<path d="M339.12 151.125L333.21 134.345C316.58 137.465 299.89 127.855 294.25 111.835C288.61 95.825 295.6 77.865 310.51 69.885L304.6 53.105L382.56 25.655L417.07 123.665L339.11 151.115L339.12 151.125ZM333.87 133.195L339.73 149.845L415.81 123.055L381.96 26.935L305.88 53.725L311.74 70.375L311.35 70.575C296.61 78.225 289.66 95.825 295.19 111.505C300.71 127.185 317.16 136.545 333.43 133.285L333.86 133.195H333.87Z" fill="#060606"/>
<path d="M167.15 133.625L182 175.815L157.4 184.545L142.63 142.585L166.71 133.795L167.15 133.625Z" fill="#FFBF00"/>
<path d="M157.1 185.185L142 142.285L167.45 132.975L182.64 176.105L157.1 185.175V185.185ZM143.27 142.885L157.71 183.905L181.36 175.505L166.84 134.275L143.26 142.885H143.27Z" fill="#060606"/>
<path d="M120.92 149.405C125.83 146.575 129.94 150.835 135.58 167.745C141.02 184.055 142.61 191.235 136.36 193.365C132.35 194.735 128.67 185.015 124.41 172.875C120.15 160.735 117.13 151.595 120.93 149.405H120.92Z" fill="#AADC66"/>
<path d="M135.59 193.995C131.62 193.995 128.21 185.215 123.93 173.035C119.21 159.605 116.64 151.285 120.67 148.965C122.29 148.035 123.78 147.845 125.23 148.405C128.78 149.755 132.01 155.485 136.05 167.585C141.55 184.065 143.26 191.535 136.51 193.835C136.2 193.945 135.89 193.995 135.58 193.995H135.59ZM121.17 149.835C117.57 151.905 121.28 162.475 124.87 172.705C128.23 182.275 132.41 194.165 136.19 192.885C141.76 190.985 140.8 184.975 135.1 167.895C131.22 156.275 128.07 150.545 124.87 149.335C123.72 148.895 122.5 149.055 121.16 149.835H121.17Z" fill="#060606"/>
<path d="M119.33 150.995C120.84 150.465 125.36 159.415 129.43 170.995C133.49 182.565 135.56 192.385 134.05 192.915C132.54 193.445 128.02 184.495 123.95 172.915C119.89 161.345 117.82 151.525 119.33 150.995Z" fill="#FFBF00"/>
<path d="M133.96 193.425C130.67 193.425 123.79 173.935 123.49 173.075C123.18 172.195 116 151.635 119.17 150.515C122.34 149.395 129.59 169.945 129.9 170.815C130.21 171.695 137.39 192.255 134.22 193.375C134.14 193.405 134.05 193.415 133.96 193.415V193.425ZM119.5 151.475C118.76 152.375 120.07 160.345 124.43 172.745C128.83 185.275 132.84 192.345 133.92 192.435C134.65 191.705 133.36 183.695 128.96 171.155C124.61 158.755 120.64 151.715 119.51 151.475H119.5Z" fill="#060606"/>
<path d="M364.63 118.225C365.69 124.935 361.21 129.325 355.86 131.805C351.11 133.995 346.92 132.835 342.16 133.845C337.34 134.865 335.12 140.705 330.96 143.125C326.18 145.895 321.58 145.695 316.22 145.675C310.84 145.655 308.05 149.015 303.07 149.795C296.14 150.885 286.99 145.065 289.85 137.405C293.08 128.745 301.37 129.865 308.29 126.825C315.01 123.875 317.57 116.555 326.12 116.695C329.47 116.755 332.41 117.375 335.85 116.795C341.18 115.885 345 111.775 350.26 110.325C355.86 108.785 363.26 109.415 364.64 118.225H364.63Z" fill="#060606"/>
<path d="M301.34 150.435C297.41 150.435 293.2 148.575 290.81 145.645C288.78 143.165 288.27 140.185 289.36 137.245C291.75 130.855 296.7 129.605 301.94 128.295C303.98 127.785 306.1 127.255 308.07 126.385C310.59 125.275 312.55 123.495 314.45 121.775C317.51 118.995 320.65 116.095 326.11 116.215C327.21 116.235 328.28 116.315 329.31 116.385C331.46 116.545 333.49 116.695 335.75 116.315C338.53 115.845 340.87 114.485 343.34 113.045C345.45 111.815 347.63 110.545 350.12 109.865C352.56 109.195 357.18 108.425 360.83 110.775C363.15 112.275 364.6 114.755 365.13 118.165C366.4 126.215 360 130.455 356.07 132.275C353.09 133.655 350.29 133.745 347.58 133.845C345.86 133.905 344.09 133.965 342.26 134.355C339.63 134.915 337.81 137.005 335.88 139.225C334.47 140.845 333.02 142.515 331.2 143.575C326.59 146.245 322.22 146.225 317.16 146.195H316.21C316.21 146.195 316.18 146.195 316.17 146.195C313.29 146.195 311.2 147.195 308.99 148.245C307.23 149.085 305.4 149.955 303.14 150.315C302.56 150.405 301.95 150.455 301.35 150.455L301.34 150.435ZM325.87 117.205C320.97 117.205 318.13 119.785 315.13 122.505C313.17 124.285 311.15 126.115 308.48 127.295C306.43 128.195 304.28 128.735 302.19 129.255C297.21 130.505 292.51 131.685 290.3 137.585C289.06 140.895 290.32 143.445 291.58 144.995C294.13 148.125 298.92 149.925 302.97 149.295C305.09 148.965 306.85 148.125 308.55 147.315C310.77 146.255 313.06 145.165 316.17 145.165H317.16C322.08 145.195 326.32 145.215 330.7 142.675C332.38 141.705 333.77 140.095 335.13 138.535C337.08 136.295 339.09 133.965 342.05 133.345C343.96 132.945 345.78 132.875 347.54 132.815C350.27 132.715 352.85 132.625 355.65 131.335C359.32 129.635 365.3 125.685 364.14 118.285C363.65 115.175 362.35 112.915 360.28 111.575C357.86 110.015 354.25 109.725 350.38 110.785C348.01 111.435 345.89 112.675 343.84 113.865C341.4 115.285 338.88 116.755 335.92 117.265C333.54 117.665 331.45 117.515 329.24 117.345C328.22 117.265 327.17 117.195 326.1 117.175C326.02 117.175 325.94 117.175 325.86 117.175L325.87 117.205Z" fill="#060606"/>
<path d="M308.28 126.825C301.36 129.865 293.07 128.745 289.84 137.405C288.92 139.875 289.24 142.155 290.34 144.085C290.31 143.125 290.49 142.125 290.87 141.085C294.1 132.425 302.39 133.545 309.31 130.505C316.02 127.555 318.59 120.235 327.15 120.385C330.49 120.445 333.44 121.065 336.87 120.475C342.2 119.575 346.02 115.445 351.29 114.005C356.05 112.705 362.11 112.955 364.67 118.485C364.67 118.395 364.65 118.305 364.65 118.225C363.27 109.415 355.86 108.785 350.27 110.325C345 111.765 341.19 115.895 335.85 116.795C332.42 117.385 329.48 116.765 326.13 116.705C317.57 116.555 315 123.885 308.29 126.825H308.28Z" fill="white"/>
<path d="M290.9 146.095L289.9 144.345C288.64 142.135 288.46 139.675 289.37 137.235C291.75 130.835 296.94 129.535 301.95 128.275C303.99 127.765 306.11 127.235 308.07 126.365C310.59 125.255 312.55 123.475 314.44 121.755C317.5 118.975 320.67 116.105 326.11 116.195C327.19 116.215 328.24 116.295 329.25 116.375C331.41 116.535 333.46 116.695 335.73 116.305C338.51 115.835 340.85 114.475 343.32 113.035C345.43 111.805 347.61 110.535 350.1 109.855C352.54 109.185 357.17 108.415 360.81 110.775C363.13 112.275 364.58 114.765 365.11 118.165C365.13 118.335 365.15 118.435 365.14 118.555L364.96 120.375L364.19 118.715C361.26 112.365 353.66 113.885 351.4 114.505C349.03 115.155 346.91 116.395 344.86 117.585C342.42 119.005 339.9 120.485 336.94 120.975C334.55 121.385 332.44 121.225 330.22 121.065C329.22 120.985 328.19 120.915 327.13 120.895C322.09 120.795 319.2 123.425 316.15 126.195C314.19 127.975 312.17 129.805 309.51 130.975C307.47 131.875 305.31 132.415 303.23 132.935C298.25 134.185 293.54 135.365 291.34 141.275C290.98 142.255 290.81 143.195 290.84 144.085L290.91 146.105L290.9 146.095ZM308.48 127.285C306.44 128.185 304.28 128.725 302.2 129.245C297.22 130.495 292.51 131.675 290.31 137.585C289.74 139.115 289.65 140.645 290.05 142.105C290.14 141.715 290.26 141.325 290.41 140.925C292.79 134.525 297.98 133.225 302.99 131.965C305.03 131.455 307.15 130.925 309.11 130.055C311.63 128.945 313.59 127.165 315.48 125.445C318.54 122.665 321.74 119.805 327.15 119.885C328.23 119.905 329.28 119.985 330.29 120.065C332.45 120.225 334.5 120.385 336.77 119.995C339.55 119.525 341.89 118.165 344.36 116.725C346.47 115.495 348.65 114.225 351.14 113.545C353.26 112.965 359.71 111.665 363.52 115.875C362.85 114.005 361.76 112.575 360.27 111.615C357.85 110.055 354.24 109.765 350.37 110.825C348 111.475 345.88 112.715 343.83 113.905C341.39 115.325 338.87 116.795 335.91 117.295C333.52 117.705 331.41 117.545 329.18 117.385C328.18 117.305 327.15 117.235 326.1 117.215C321.06 117.125 318.17 119.745 315.12 122.515C313.17 124.285 311.14 126.125 308.48 127.295V127.285Z" fill="#060606"/>
<path d="M344.78 65.445C345.83 72.155 341.36 76.545 336.01 79.025C331.26 81.215 327.07 80.055 322.31 81.065C317.49 82.085 315.27 87.925 311.11 90.345C306.33 93.115 301.73 92.915 296.37 92.895C290.99 92.875 288.2 96.235 283.22 97.015C276.29 98.105 267.14 92.285 270 84.625C273.23 75.965 281.52 77.085 288.44 74.045C295.16 71.095 297.72 63.775 306.27 63.915C309.62 63.975 312.56 64.595 316 64.015C321.33 63.105 325.15 58.995 330.41 57.545C336.01 56.005 343.41 56.635 344.79 65.445H344.78Z" fill="#060606"/>
<path d="M281.49 97.645C277.56 97.645 273.35 95.785 270.96 92.845C268.93 90.365 268.42 87.385 269.51 84.445C271.9 78.055 276.85 76.805 282.09 75.495C284.13 74.985 286.25 74.455 288.22 73.585C290.74 72.475 292.7 70.695 294.6 68.975C297.61 66.245 300.72 63.415 306.01 63.415C306.09 63.415 306.18 63.415 306.26 63.415C307.36 63.435 308.43 63.515 309.46 63.585C311.61 63.745 313.64 63.895 315.89 63.515C318.67 63.045 321.01 61.685 323.48 60.245C325.59 59.015 327.76 57.745 330.26 57.065C332.7 56.395 337.32 55.625 340.97 57.975C343.29 59.475 344.74 61.955 345.27 65.365C346.53 73.415 340.14 77.665 336.21 79.475C333.23 80.855 330.43 80.945 327.72 81.045C326 81.105 324.23 81.165 322.4 81.555C319.77 82.115 317.95 84.205 316.02 86.425C314.61 88.045 313.16 89.715 311.34 90.775C306.73 93.445 302.36 93.425 297.29 93.395H296.34C296.34 93.395 296.31 93.395 296.3 93.395C293.42 93.395 291.33 94.395 289.12 95.445C287.36 96.285 285.53 97.155 283.27 97.505C282.69 97.595 282.08 97.645 281.48 97.645H281.49ZM306.01 64.425C301.11 64.425 298.27 67.005 295.27 69.725C293.31 71.505 291.29 73.335 288.62 74.515C286.58 75.415 284.42 75.955 282.33 76.475C277.35 77.725 272.64 78.905 270.44 84.805C269.2 88.115 270.46 90.665 271.72 92.215C274.27 95.345 279.06 97.155 283.11 96.515C285.23 96.185 286.99 95.345 288.69 94.535C290.91 93.475 293.2 92.385 296.31 92.385H297.3C302.21 92.415 306.47 92.435 310.84 89.895C312.51 88.925 313.91 87.315 315.27 85.755C317.22 83.515 319.23 81.185 322.19 80.565C324.1 80.165 325.92 80.095 327.68 80.035C330.41 79.935 332.99 79.845 335.79 78.555C339.46 76.855 345.44 72.905 344.28 65.505C343.79 62.395 342.49 60.135 340.42 58.795C338 57.235 334.39 56.945 330.52 58.005C328.15 58.655 326.03 59.895 323.98 61.085C321.54 62.505 319.02 63.975 316.06 64.485C313.68 64.885 311.59 64.735 309.38 64.565C308.36 64.485 307.31 64.415 306.24 64.395C306.16 64.395 306.08 64.395 306 64.395L306.01 64.425Z" fill="#060606"/>
<path d="M288.42 74.045C281.5 77.085 273.21 75.965 269.98 84.625C269.06 87.095 269.38 89.375 270.48 91.305C270.45 90.345 270.63 89.345 271.01 88.305C274.24 79.645 282.53 80.765 289.45 77.725C296.16 74.775 298.73 67.455 307.29 67.605C310.64 67.665 313.58 68.285 317.01 67.695C322.34 66.795 326.16 62.665 331.43 61.225C336.19 59.925 342.25 60.175 344.81 65.705C344.81 65.615 344.79 65.525 344.79 65.435C343.41 56.625 336 55.995 330.4 57.535C325.13 58.975 321.32 63.105 315.98 64.005C312.55 64.595 309.61 63.975 306.26 63.915C297.7 63.765 295.13 71.095 288.42 74.035V74.045Z" fill="white"/>
<path d="M271.04 93.315L270.04 91.565C268.78 89.355 268.6 86.895 269.51 84.455C271.89 78.055 277.08 76.755 282.09 75.495C284.13 74.985 286.25 74.455 288.22 73.585C290.74 72.475 292.7 70.695 294.59 68.975C297.65 66.195 300.83 63.325 306.26 63.415C307.34 63.435 308.39 63.515 309.4 63.595C311.57 63.755 313.61 63.915 315.88 63.525C318.66 63.055 320.99 61.695 323.46 60.255C325.57 59.025 327.75 57.755 330.24 57.075C332.68 56.405 337.31 55.635 340.95 57.995C343.27 59.495 344.72 61.985 345.25 65.385C345.27 65.555 345.29 65.655 345.28 65.785L345.08 67.565L344.33 65.935C341.4 59.585 333.8 61.105 331.54 61.725C329.17 62.375 327.05 63.615 325 64.805C322.56 66.225 320.04 67.705 317.08 68.195C314.69 68.605 312.58 68.445 310.35 68.285C309.35 68.205 308.32 68.135 307.26 68.115C302.22 68.035 299.33 70.645 296.28 73.415C294.32 75.185 292.3 77.025 289.64 78.195C287.6 79.095 285.44 79.635 283.36 80.155C278.38 81.405 273.67 82.585 271.47 88.495C271.11 89.465 270.94 90.415 270.97 91.305L271.03 93.315H271.04ZM288.62 74.505C286.58 75.405 284.42 75.945 282.34 76.465C277.36 77.715 272.65 78.895 270.45 84.805C269.88 86.335 269.79 87.865 270.19 89.325C270.28 88.935 270.4 88.545 270.55 88.145C272.93 81.745 278.12 80.445 283.13 79.185C285.17 78.675 287.29 78.145 289.25 77.275C291.77 76.165 293.73 74.385 295.62 72.665C298.68 69.885 301.84 67.005 307.29 67.105C308.37 67.125 309.42 67.205 310.43 67.285C312.59 67.445 314.64 67.605 316.91 67.215C319.69 66.745 322.02 65.385 324.5 63.945C326.61 62.715 328.79 61.445 331.28 60.765C333.4 60.185 339.85 58.885 343.66 63.095C342.99 61.225 341.9 59.795 340.41 58.835C337.99 57.265 334.38 56.985 330.51 58.045C328.14 58.695 326.02 59.935 323.97 61.125C321.53 62.545 319.01 64.025 316.05 64.515C313.66 64.925 311.55 64.765 309.32 64.595C308.32 64.515 307.29 64.445 306.23 64.425C301.19 64.325 298.3 66.955 295.25 69.725C293.3 71.505 291.27 73.335 288.61 74.505H288.62Z" fill="#060606"/>
</g>
<defs>
<clipPath id="clip0_197_2522">
<rect width="478.65" height="511.17" fill="white" transform="translate(0 0.414978)"/>
</clipPath>
</defs>
</svg>
