<svg width="324" height="510" viewBox="0 0 324 510" fill="none" xmlns="http://www.w3.org/2000/svg">
<path d="M258.038 64.3833C273.048 67.6116 274.687 69.6372 275.902 86.4437C278.996 69.8778 280.85 68.0484 296.132 66.5292C281.122 63.3008 279.483 61.2752 278.268 44.4688C275.174 61.0346 273.32 62.864 258.038 64.3833Z" fill="#125B48"/>
<path d="M275.762 88.9124L275.585 86.469C274.377 69.7385 272.896 67.9028 257.974 64.6934L256 64.2693L258.006 64.0667C273.193 62.5538 274.876 60.9017 277.958 44.4118L278.407 42L278.585 44.4434C279.793 61.1739 281.274 63.0096 296.195 66.219L298.17 66.6431L296.164 66.8457C280.977 68.3586 279.293 70.0107 276.218 86.5006L275.769 88.9124H275.762ZM260.012 64.4972C272.769 67.4027 274.851 69.9031 276.034 84.0762C278.8 70.131 281.154 67.8775 294.158 66.4279C281.401 63.5224 279.319 61.022 278.135 46.8489C275.37 60.7941 273.016 63.0476 260.012 64.4972Z" fill="#060606"/>
<path d="M7.04395 340.846C22.3451 342.093 24.2371 343.884 27.6289 360.393C28.5402 343.561 30.1412 341.51 45.0942 338.016C29.7931 336.769 27.901 334.978 24.5092 318.469C23.598 335.3 21.997 337.351 7.04395 340.846Z" fill="#125B48"/>
<path d="M27.8061 362.855L27.3125 360.456C23.9334 344.023 22.2311 342.403 7.0123 341.162L5 340.998L6.96801 340.535C21.8325 337.06 23.2816 335.199 24.1865 318.45L24.3194 316L24.813 318.399C28.1921 334.832 29.8944 336.453 45.1132 337.693L47.1255 337.858L45.1575 338.32C30.293 341.795 28.8439 343.656 27.939 360.406L27.8061 362.855ZM9.01195 340.7C22.0413 341.915 24.4333 344.131 27.4517 358.019C28.382 343.833 30.4196 341.289 43.1199 338.155C30.0905 336.94 27.6985 334.724 24.6864 320.836C23.7562 335.022 21.7186 337.567 9.01828 340.7H9.01195Z" fill="#060606"/>
<path d="M276.038 238.857C288.39 241.516 289.738 243.181 290.738 257.012C293.281 243.377 294.813 241.877 307.38 240.63C295.028 237.971 293.68 236.306 292.68 222.475C290.13 236.11 288.605 237.61 276.031 238.857H276.038Z" fill="#125B48"/>
<path d="M290.598 259.481L290.421 257.037C289.428 243.307 288.213 241.801 275.974 239.168L274 238.743L276.006 238.541C288.466 237.3 289.845 235.946 292.37 222.412L292.819 220L292.997 222.443C293.99 236.173 295.205 237.68 307.443 240.313L309.418 240.737L307.412 240.94C294.952 242.181 293.573 243.535 291.048 257.069L290.598 259.481ZM277.993 238.971C288.124 241.313 289.896 243.434 290.87 254.664C293.098 243.611 295.098 241.706 305.425 240.522C295.294 238.18 293.522 236.059 292.547 224.83C290.32 235.882 288.32 237.788 277.993 238.971Z" fill="#060606"/>
<path d="M224.038 93.94C236.637 94.9085 238.193 96.3771 241.047 109.949C241.737 96.0985 243.047 94.4021 255.336 91.4712C242.737 90.5027 241.18 89.0341 238.326 75.4624C237.636 89.3127 236.327 91.0091 224.038 93.94Z" fill="#125B48"/>
<path d="M241.237 112.418L240.731 110.018C237.902 96.548 236.497 95.2187 224.012 94.2565L222 94.1046L223.962 93.6361C236.143 90.7306 237.326 89.1987 238.01 75.4498L238.13 73L238.636 75.3991C241.465 88.8696 242.87 90.1989 255.355 91.1611L257.367 91.313L255.406 91.7814C243.224 94.6869 242.041 96.2188 241.357 109.968L241.237 112.418ZM225.993 93.7881C236.346 94.7439 238.39 96.605 240.864 107.607C241.585 96.3581 243.313 94.1932 253.387 91.6295C243.034 90.6736 240.99 88.8126 238.516 77.8109C237.795 89.0595 236.067 91.2244 225.993 93.7881Z" fill="#060606"/>
<path d="M232.159 208.673C232.159 208.673 226.001 258.456 189.678 311.574C153.357 364.686 141.488 424.784 146.376 462.728C137.083 464.293 117.663 466.275 95.2427 458.423C75.882 451.645 63.1184 440.63 56.6039 434.129C76.8056 409.608 86.751 387.224 92.5201 372.175C114.346 315.243 108.257 219.234 133.576 177.273C148.035 179.393 164.476 184.185 182.86 189.982C201.974 196.009 218.751 201.843 232.151 208.677L232.159 208.673Z" fill="#B6CCC6"/>
<path d="M99.0248 459.99C97.7419 459.598 96.4484 459.175 95.1459 458.717C80.6921 453.66 67.2898 445.23 56.3912 434.349L56.1881 434.148L56.3687 433.925C76.7412 409.191 86.5977 386.773 92.237 372.062C102.314 345.766 106.455 310.949 110.458 277.274C115.196 237.39 119.675 199.717 133.316 177.107L133.423 176.928L133.632 176.959C147.585 179.004 163.447 183.526 182.96 189.675C200.16 195.103 218.044 201.124 232.306 208.387L232.501 208.486L232.473 208.709C232.413 209.207 225.885 259.182 189.942 311.748C173.152 336.301 160.343 364.368 152.886 392.915C146.333 418.011 144.131 442.79 146.695 462.68L146.735 462.983L146.434 463.036C135.193 464.933 118.122 465.833 99.0248 459.99ZM57.0399 434.11C67.8364 444.828 81.0793 453.129 95.3534 458.125C115.718 465.256 134.1 464.439 146.032 462.47C143.523 442.551 145.733 417.808 152.276 392.768C159.749 364.147 172.599 336.012 189.425 311.404C224.062 260.749 231.312 212.525 231.824 208.862C217.641 201.663 199.87 195.683 182.779 190.288C163.389 184.17 147.618 179.676 133.755 177.619C120.268 200.137 115.805 237.649 111.088 277.355C107.08 311.068 102.94 345.925 92.8334 372.297C87.1941 387.009 77.3589 409.399 57.0441 434.118L57.0399 434.11Z" fill="#060606"/>
<path d="M222.514 213.163C222.514 213.163 213.418 258.399 183.059 310.714C152.909 362.669 131.667 415.94 135.031 451.425C124.581 455.43 83.8322 445.862 71.8534 431.612C90.0369 408.128 96.9334 382.905 102.314 368.651C122.679 314.721 114.274 226 137.33 186.028C149.884 187.671 164.104 191.783 179.984 196.787C196.503 201.994 210.985 207.067 222.508 213.161L222.514 213.163Z" fill="#FFBF00"/>
<path d="M101.551 447.927C89.2308 444.158 77.1725 438.43 71.6079 431.809L71.4429 431.613L71.598 431.408C86.7692 411.822 93.9492 391.339 99.1922 376.387C100.185 373.553 101.124 370.875 102.012 368.532C111.575 343.205 114.791 310.11 117.903 278.116C121.454 241.595 124.802 207.098 137.054 185.87L137.163 185.685L137.374 185.71C149.494 187.3 163.214 191.167 180.084 196.48C194.955 201.169 210.404 206.393 222.661 212.877L222.872 212.988L222.828 213.219C222.735 213.674 213.368 259.106 183.335 310.871C149.351 369.432 132.313 419.342 135.352 451.391L135.378 451.631L135.154 451.714C129.441 453.905 115.337 452.139 101.565 447.925L101.551 447.927ZM72.2552 431.596C84.0499 445.28 123.719 455.067 134.687 451.207C131.745 419.016 148.815 369.083 182.777 310.555C211.656 260.786 221.389 216.903 222.152 213.33C209.971 206.922 194.643 201.736 179.891 197.09C163.148 191.815 149.521 187.97 137.496 186.37C125.402 207.494 122.07 241.83 118.533 278.176C115.421 310.217 112.199 343.349 102.605 368.76C101.724 371.098 100.787 373.771 99.788 376.603C94.5469 391.549 87.3799 411.989 72.2534 431.602L72.2552 431.596Z" fill="#060606"/>
<path d="M111.68 389.429C109.7 388.89 108.533 386.845 109.072 384.865C109.612 382.885 111.657 381.717 113.636 382.256C115.615 382.796 116.783 384.841 116.243 386.821C115.704 388.8 113.659 389.969 111.68 389.429ZM113.554 382.569C111.746 382.075 109.877 383.145 109.383 384.953C108.889 386.762 109.958 388.631 111.766 389.125C113.574 389.618 115.443 388.549 115.937 386.74C116.431 384.932 115.361 383.062 113.554 382.569Z" fill="white"/>
<path d="M101.221 407.823C99.9694 407.48 99.2287 406.181 99.566 404.927C99.9033 403.673 101.208 402.934 102.462 403.271C103.713 403.614 104.454 404.913 104.117 406.167C103.779 407.421 102.474 408.16 101.221 407.823ZM102.381 403.577C101.295 403.278 100.172 403.921 99.8783 405.009C99.5789 406.096 100.221 407.219 101.309 407.513C102.398 407.806 103.519 407.169 103.812 406.081C104.112 404.994 103.469 403.871 102.381 403.577Z" fill="white"/>
<path d="M152.603 353.977C151.352 353.634 150.611 352.335 150.948 351.081C151.292 349.829 152.59 349.088 153.844 349.425C155.095 349.768 155.836 351.067 155.499 352.321C155.156 353.573 153.857 354.314 152.603 353.977ZM153.761 349.737C152.675 349.438 151.552 350.081 151.259 351.169C150.959 352.256 151.602 353.379 152.69 353.672C153.776 353.972 154.899 353.329 155.193 352.24C155.492 351.154 154.85 350.03 153.761 349.737Z" fill="white"/>
<path d="M120.493 321.559C119.242 321.216 118.501 319.917 118.838 318.663C119.182 317.411 120.481 316.67 121.734 317.007C122.986 317.35 123.726 318.65 123.389 319.903C123.046 321.155 121.747 321.897 120.493 321.559ZM121.653 317.314C120.567 317.014 119.444 317.657 119.151 318.746C118.857 319.834 119.494 320.956 120.582 321.249C121.668 321.548 122.791 320.905 123.085 319.817C123.378 318.728 122.742 317.607 121.653 317.314Z" fill="white"/>
<path d="M208.014 240.051C206.762 239.708 206.021 238.409 206.359 237.155C206.702 235.903 208.001 235.162 209.254 235.499C210.506 235.842 211.247 237.141 210.909 238.395C210.566 239.647 209.267 240.388 208.014 240.051ZM209.174 235.805C208.087 235.506 206.964 236.149 206.671 237.237C206.372 238.324 207.014 239.447 208.102 239.74C209.188 240.04 210.312 239.397 210.605 238.308C210.904 237.222 210.262 236.098 209.174 235.805Z" fill="white"/>
<path d="M182.843 299.957C181.591 299.614 180.85 298.315 181.187 297.061C181.531 295.809 182.83 295.068 184.083 295.405C185.335 295.748 186.075 297.047 185.738 298.301C185.395 299.553 184.096 300.294 182.843 299.957ZM183.995 295.716C182.908 295.416 181.785 296.059 181.492 297.148C181.199 298.236 181.835 299.358 182.923 299.651C184.009 299.95 185.132 299.307 185.426 298.219C185.719 297.13 185.083 296.009 183.995 295.716Z" fill="white"/>
<path d="M162.502 257.947C161.25 257.604 160.51 256.305 160.847 255.051C161.19 253.799 162.489 253.058 163.743 253.395C164.994 253.738 165.735 255.038 165.398 256.291C165.054 257.543 163.755 258.285 162.502 257.947ZM163.66 253.708C162.574 253.408 161.451 254.051 161.157 255.14C160.864 256.228 161.5 257.35 162.588 257.643C163.675 257.942 164.798 257.299 165.091 256.211C165.385 255.122 164.748 254.001 163.66 253.708Z" fill="white"/>
<path d="M127.67 413.817C125.691 413.278 124.524 411.233 125.063 409.253C125.603 407.273 127.648 406.105 129.627 406.644C131.606 407.183 132.774 409.229 132.234 411.208C131.694 413.188 129.65 414.356 127.67 413.817ZM129.54 406.949C127.733 406.455 125.863 407.525 125.37 409.333C124.876 411.142 125.945 413.011 127.753 413.505C129.561 413.998 131.43 412.928 131.924 411.12C132.417 409.312 131.348 407.442 129.54 406.949Z" fill="white"/>
<path d="M136.637 375.167C134.658 374.628 133.49 372.583 134.03 370.603C134.569 368.623 136.614 367.455 138.593 367.994C140.573 368.533 141.74 370.579 141.201 372.558C140.661 374.538 138.616 375.706 136.637 375.167ZM138.511 368.307C136.703 367.813 134.834 368.883 134.34 370.691C133.847 372.5 134.916 374.369 136.724 374.863C138.531 375.356 140.401 374.286 140.894 372.478C141.388 370.67 140.319 368.8 138.511 368.307Z" fill="white"/>
<path d="M131.595 222.919C129.615 222.38 128.448 220.334 128.987 218.355C129.527 216.375 131.572 215.207 133.551 215.746C135.53 216.285 136.698 218.331 136.158 220.31C135.619 222.29 133.574 223.458 131.595 222.919ZM133.47 216.052C131.663 215.559 129.793 216.629 129.3 218.437C128.806 220.245 129.875 222.115 131.683 222.609C133.491 223.102 135.36 222.032 135.854 220.224C136.347 218.415 135.278 216.546 133.47 216.052Z" fill="white"/>
<path d="M117.576 350.476C115.597 349.936 114.429 347.891 114.969 345.911C115.508 343.931 117.553 342.763 119.532 343.303C121.511 343.842 122.679 345.887 122.139 347.867C121.6 349.847 119.555 351.015 117.576 350.476ZM119.446 343.607C117.638 343.113 115.769 344.183 115.275 345.992C114.781 347.8 115.85 349.67 117.658 350.163C119.466 350.657 121.335 349.587 121.829 347.778C122.323 345.97 121.253 344.101 119.446 343.607Z" fill="white"/>
<path d="M158.641 331.841C156.662 331.302 155.495 329.256 156.034 327.277C156.574 325.297 158.619 324.129 160.598 324.668C162.577 325.207 163.744 327.252 163.205 329.232C162.665 331.212 160.62 332.38 158.641 331.841ZM160.515 324.98C158.707 324.487 156.838 325.557 156.345 327.365C155.851 329.173 156.92 331.043 158.728 331.536C160.536 332.03 162.405 330.96 162.898 329.152C163.392 327.343 162.323 325.474 160.515 324.98Z" fill="white"/>
<path d="M128.094 281.36C126.115 280.82 124.948 278.775 125.487 276.795C126.027 274.816 128.072 273.647 130.051 274.187C132.03 274.726 133.197 276.771 132.658 278.751C132.118 280.731 130.073 281.899 128.094 281.36ZM129.962 274.497C128.155 274.004 126.285 275.074 125.792 276.882C125.298 278.69 126.367 280.56 128.175 281.053C129.983 281.547 131.852 280.477 132.346 278.669C132.839 276.86 131.77 274.991 129.962 274.497Z" fill="white"/>
<path d="M91.0484 417.153L84.7185 435.928L85.3181 436.13L91.648 417.355L91.0484 417.153Z" fill="#060606"/>
<path d="M108.176 422.634L101.843 441.408L102.442 441.61L108.776 422.836L108.176 422.634Z" fill="#060606"/>
<path d="M125.678 428.208L119.345 446.982L119.945 447.184L126.278 428.41L125.678 428.208Z" fill="#060606"/>
<path d="M131.303 456.494C115.703 456.07 100.203 452.202 86.2328 445.24C82.2198 443.237 78.3367 440.984 74.596 438.502C72.8845 437.369 71.2727 440.107 72.9721 441.236C86.3658 450.126 101.738 456.054 117.637 458.443C122.166 459.127 126.73 459.543 131.305 459.665C133.346 459.721 133.346 456.543 131.299 456.486L131.303 456.494Z" fill="white"/>
<path d="M148.521 280.089C147.578 283.409 149.506 286.865 152.824 287.807C156.142 288.749 159.597 286.821 160.54 283.502C161.483 280.182 159.556 276.727 156.238 275.784C152.919 274.842 149.464 276.77 148.521 280.089Z" fill="#FF6600"/>
<path d="M152.61 288.073C149.209 287.032 147.243 283.445 148.217 280.003C149.203 276.518 152.841 274.493 156.324 275.48C159.786 276.472 161.831 280.104 160.845 283.588C159.858 287.073 156.221 289.098 152.737 288.112C152.695 288.099 152.652 288.086 152.61 288.073ZM156.266 276.124C156.23 276.113 156.187 276.1 156.151 276.089C153.002 275.198 149.723 277.028 148.826 280.176C147.942 283.281 149.721 286.527 152.795 287.467C152.832 287.478 152.874 287.491 152.91 287.502C156.059 288.393 159.339 286.563 160.236 283.415C161.12 280.31 159.34 277.064 156.266 276.124Z" fill="#060606"/>
<path d="M196.171 236.063C203.253 238.548 205.542 250.813 201.946 264.554L189.794 266.575L197.848 275.547C192.027 287.33 183.206 294.508 176.502 292.152C168.649 289.399 166.682 274.611 172.116 259.121C177.55 243.632 188.318 233.31 196.171 236.063Z" fill="#060606"/>
<path d="M176.704 292.552C176.601 292.52 176.498 292.489 176.391 292.449C172.476 291.079 169.85 286.814 169.004 280.451C168.168 274.165 169.167 266.553 171.805 259.013C174.449 251.474 178.424 244.906 183.001 240.521C187.636 236.08 192.35 234.385 196.263 235.761C203.446 238.283 205.96 250.418 202.24 264.631L202.181 264.825L190.405 266.782L198.219 275.482L198.128 275.672C192.177 287.727 183.419 294.593 176.708 292.539L176.704 292.552ZM195.778 236.267C192.153 235.158 187.792 236.823 183.457 240.978C178.952 245.299 175.031 251.778 172.416 259.22C169.808 266.664 168.821 274.173 169.641 280.361C170.45 286.474 172.927 290.555 176.609 291.847C183.007 294.076 191.57 287.415 197.471 275.591L189.173 266.353L201.689 264.27C205.188 250.692 202.784 238.716 196.062 236.354C195.965 236.325 195.868 236.295 195.772 236.266L195.778 236.267Z" fill="#060606"/>
<path d="M147.668 221.084C140.427 219.121 131.585 227.927 126.769 241.288L135.636 249.833L123.918 252.663C122.037 265.664 125.242 276.581 132.098 278.441C140.133 280.621 150.13 269.553 154.428 253.71C158.731 237.874 155.703 223.265 147.676 221.08L147.668 221.084Z" fill="#060606"/>
<path d="M131.761 278.675C125.021 276.613 121.674 265.964 123.6 252.619L123.631 252.409L134.999 249.665L126.399 241.374L126.47 241.184C131.457 227.372 140.409 218.791 147.752 220.786C151.733 221.858 154.682 225.931 155.98 232.22C157.263 238.431 156.824 246.095 154.731 253.802C150.39 269.785 140.196 280.978 132.01 278.751C131.931 278.727 131.846 278.701 131.761 278.675ZM124.196 252.92C122.356 266.007 125.615 276.358 132.171 278.138C140.022 280.269 149.865 269.273 154.114 253.633C156.18 246.017 156.625 238.461 155.359 232.348C154.111 226.306 151.358 222.432 147.585 221.397C140.711 219.532 131.942 228.036 127.131 241.207L136.269 250.014L124.2 252.928L124.196 252.92Z" fill="#060606"/>
<path d="M122.36 295.757C122.36 295.757 122.358 295.763 122.356 295.769C122.172 297.646 122.265 299.634 122.536 301.604C123.208 306.502 124.987 311.264 126.421 313.887C126.436 313.925 126.457 313.944 126.466 313.98C126.872 314.727 127.309 315.443 127.768 316.126C133.342 324.511 142.242 328.472 151.545 327.763C154.396 327.55 157.59 326.865 160.744 325.639C161.555 325.325 162.365 324.97 163.166 324.58C166.839 322.804 170.321 320.229 173 316.686C174.591 314.578 175.896 312.13 176.785 309.311C176.883 308.99 176.983 308.663 177.071 308.333C179.102 300.805 175.488 297.522 170.607 296.128L170.51 296.098C166.221 294.911 160.971 295.159 157.732 295.319C156.674 295.36 155.625 295.37 154.593 295.306C154.254 295.288 153.919 295.258 153.584 295.229C152.454 295.115 151.342 294.9 150.262 294.557C150.02 294.483 149.782 294.396 149.546 294.304C149.289 294.213 149.036 294.109 148.787 293.993C144.976 292.284 142.005 288.8 138.213 287.09C137.418 286.728 136.487 286.396 135.465 286.19C132.542 285.534 128.995 285.62 126.435 287.498C123.858 289.411 122.669 292.41 122.347 295.754L122.36 295.757Z" fill="#060606"/>
<path d="M141.62 327.023C135.944 325.287 131.045 321.617 127.508 316.305C127.04 315.606 126.596 314.874 126.193 314.135C126.162 314.066 126.143 314.04 126.132 314.01C124.782 311.545 122.931 306.802 122.225 301.647C121.934 299.526 121.871 297.547 122.041 295.759L122.046 295.701C122.418 291.889 123.835 289.053 126.253 287.25C129.497 284.867 133.828 285.504 135.543 285.889C136.479 286.076 137.429 286.387 138.352 286.808C140.278 287.675 142.01 289 143.681 290.286C145.338 291.554 147.048 292.865 148.926 293.711C149.169 293.825 149.418 293.921 149.661 294.015C149.897 294.107 150.131 294.186 150.361 294.256C151.368 294.577 152.432 294.797 153.62 294.915C153.947 294.949 154.278 294.971 154.609 294.993C155.531 295.05 156.522 295.055 157.722 295.005C160.895 294.844 166.209 294.583 170.597 295.793L170.7 295.825C170.809 295.858 170.918 295.892 171.021 295.923C176.987 297.749 179.123 301.95 177.375 308.419C177.285 308.756 177.184 309.089 177.085 309.41C176.224 312.138 174.933 314.649 173.253 316.876C170.739 320.204 167.39 322.887 163.303 324.867C162.486 325.266 161.663 325.622 160.86 325.933C157.854 327.105 154.643 327.844 151.568 328.075C148.086 328.34 144.732 327.969 141.609 327.014L141.62 327.023ZM122.67 295.826C122.504 297.556 122.568 299.488 122.849 301.554C123.503 306.295 125.253 311.087 126.7 313.734C126.738 313.805 126.754 313.837 126.769 313.874C127.146 314.546 127.576 315.26 128.034 315.949C133.377 323.985 141.94 328.181 151.523 327.445C154.53 327.22 157.685 326.491 160.631 325.34C161.42 325.032 162.228 324.683 163.029 324.293C167.029 322.359 170.299 319.739 172.749 316.49C174.392 314.318 175.645 311.868 176.484 309.212C176.58 308.898 176.68 308.571 176.766 308.246C178.459 301.979 176.411 298.095 170.523 296.426L170.42 296.395C166.137 295.21 160.889 295.471 157.744 295.628C156.518 295.676 155.513 295.673 154.571 295.617C154.232 295.599 153.889 295.573 153.556 295.538C152.317 295.41 151.209 295.184 150.166 294.851C149.918 294.776 149.679 294.689 149.431 294.593C149.174 294.502 148.911 294.388 148.654 294.276C146.711 293.404 144.968 292.07 143.285 290.78C141.638 289.522 139.941 288.215 138.078 287.38C137.196 286.977 136.3 286.683 135.402 286.502C133.768 286.134 129.651 285.53 126.621 287.754C124.351 289.442 123.017 292.139 122.668 295.766L122.663 295.824L122.67 295.826Z" fill="#060606"/>
<path d="M127.774 316.128C133.348 324.513 142.248 328.473 151.551 327.765C154.402 327.552 157.596 326.867 160.75 325.641C158.4 319.262 153.483 314.183 146.867 312.252C140.187 310.294 133.235 311.947 127.774 316.128Z" fill="#FF6600"/>
<path d="M141.62 327.023C135.944 325.287 131.045 321.617 127.508 316.305L127.346 316.056L127.58 315.876C133.344 311.464 140.406 310.03 146.954 311.947C153.41 313.816 158.561 318.782 161.05 325.528L161.159 325.819L160.868 325.929C157.862 327.101 154.651 327.84 151.576 328.071C148.094 328.336 144.74 327.965 141.617 327.01L141.62 327.023ZM128.202 316.199C133.556 324.073 142.042 328.172 151.529 327.447C154.442 327.226 157.484 326.542 160.343 325.457C157.889 319.053 152.975 314.372 146.781 312.556C140.52 310.72 133.767 312.05 128.202 316.199Z" fill="#060606"/>
<path d="M153.588 295.237L151.409 302.619C150.48 305.764 151.534 308.894 153.81 309.716L172.939 316.667C174.567 314.57 175.889 312.128 176.785 309.311C176.883 308.99 176.983 308.663 177.071 308.333C179.056 300.957 175.474 297.61 170.559 296.113L170.523 296.102C166.233 294.915 160.983 295.162 157.744 295.323C156.686 295.364 155.637 295.374 154.605 295.309C154.266 295.292 153.931 295.262 153.596 295.232L153.588 295.237Z" fill="white"/>
<path d="M173.042 317.043L153.7 310.013C151.27 309.13 150.125 305.841 151.106 302.527L153.362 294.896L153.618 294.921C153.947 294.949 154.282 294.979 154.615 294.995C155.537 295.052 156.528 295.057 157.728 295.007C160.901 294.846 166.215 294.585 170.603 295.795L170.627 295.803C176.86 297.71 179.111 301.946 177.371 308.411C177.281 308.748 177.187 309.077 177.081 309.402C176.22 312.13 174.905 314.634 173.186 316.855L173.044 317.037L173.042 317.043ZM153.823 295.573L151.713 302.706C150.83 305.699 151.796 308.643 153.915 309.417L172.822 316.294C174.429 314.177 175.659 311.8 176.474 309.223C176.57 308.908 176.669 308.587 176.757 308.256C178.416 302.098 176.364 298.227 170.489 296.429L170.464 296.421C166.145 295.226 160.891 295.485 157.752 295.643C156.526 295.692 155.521 295.689 154.579 295.632C154.324 295.621 154.072 295.603 153.821 295.579L153.823 295.573Z" fill="#060606"/>
<path d="M122.359 295.757C122.359 295.757 122.358 295.763 122.356 295.769C122.172 297.646 122.265 299.634 122.536 301.604L142.444 306.311C144.685 306.838 147.163 304.902 148.06 301.906L150.267 294.565C150.025 294.49 149.786 294.404 149.55 294.312C149.293 294.22 149.04 294.117 148.791 294.001C144.98 292.292 142.009 288.808 138.217 287.098C137.422 286.736 136.491 286.404 135.469 286.198C132.546 285.542 128.999 285.628 126.439 287.506C123.862 289.418 122.673 292.418 122.352 295.761L122.359 295.757Z" fill="white"/>
<path d="M122.258 301.863L122.231 301.649C121.94 299.528 121.877 297.549 122.047 295.761L122.052 295.703C122.424 291.891 123.841 289.055 126.259 287.252C129.503 284.869 133.834 285.506 135.549 285.891C136.485 286.078 137.435 286.389 138.358 286.81C140.284 287.677 142.016 289.002 143.687 290.288C145.344 291.556 147.054 292.867 148.932 293.713C149.175 293.827 149.424 293.923 149.667 294.017C149.903 294.109 150.137 294.187 150.367 294.258L150.664 294.348L148.371 301.994C147.422 305.16 144.79 307.188 142.376 306.621L122.258 301.863ZM122.669 295.826C122.509 297.498 122.563 299.354 122.822 301.34L142.52 305.997C144.606 306.489 146.909 304.652 147.76 301.807L149.875 294.763C149.724 294.716 149.582 294.66 149.435 294.601C149.178 294.51 148.915 294.396 148.658 294.284C146.715 293.412 144.973 292.078 143.289 290.788C141.643 289.53 139.945 288.222 138.082 287.388C137.2 286.985 136.304 286.691 135.406 286.509C133.772 286.142 129.655 285.538 126.626 287.762C124.355 289.45 123.021 292.147 122.672 295.773L122.668 295.832L122.669 295.826Z" fill="#060606"/>
<path d="M239.536 198.299C245.699 188.925 237.704 178.31 227.795 182.428C233.43 161.956 199.362 142.708 182.746 160.721C174.428 140.693 138.536 146.095 142.083 170.687C140.428 169.155 138.448 167.881 136.194 166.986C127.261 163.438 117.464 167.167 114.305 175.309C111.151 183.453 115.829 192.927 124.763 196.475C125.099 196.611 125.44 196.728 125.775 196.844L125.308 198.608C124.592 201.295 126.385 204.173 129.315 205.043C132.241 205.905 135.195 204.426 135.911 201.739L136.389 199.939L140.403 201.267L137.971 210.406C137.255 213.093 139.048 215.971 141.978 216.841C144.904 217.703 147.858 216.224 148.574 213.537L150.198 207.428C150.568 206.045 152.111 205.352 153.396 205.996C153.595 206.686 155.153 211.823 160.437 214.128C164.98 216.107 169.074 214.6 169.887 214.279C169.653 219.132 172.698 223.281 176.973 224.04C180.531 224.672 184.183 222.817 186.254 219.551C187.61 217.411 190.726 218.907 189.996 221.358C189.99 221.376 189.985 221.395 189.977 221.419L188.579 225.837C187.742 228.487 189.404 231.425 192.301 232.404C195.192 233.381 198.221 232.024 199.058 229.374L201.554 221.498C202.406 222.713 205.145 226.284 210.244 228.003C215.462 229.765 219.86 228.476 221.24 228.011L221.336 228.021L214.891 248.675C213.825 252.096 215.473 255.665 218.575 256.641L219.332 256.872C222.433 257.854 225.811 255.876 226.877 252.455L234.034 229.516C235.393 229.336 236.755 229.449 238.101 229.245C240.718 228.847 243.297 228.054 245.585 226.715C248.405 225.069 250.701 222.561 251.676 219.397C253.94 212.04 252.872 201.731 239.542 198.321L239.536 198.299Z" fill="white"/>
<path d="M219.277 257.18C219.277 257.18 219.247 257.171 219.229 257.165L218.473 256.934C215.216 255.898 213.472 252.147 214.588 248.563L220.864 228.439C218.653 229.113 214.699 229.817 210.139 228.282C205.785 226.811 203.057 224.004 201.66 222.167L199.352 229.45C198.947 230.73 198.045 231.778 196.807 232.405C195.427 233.108 193.752 233.198 192.188 232.687C189.136 231.654 187.377 228.534 188.27 225.722L189.668 221.304C190.018 220.14 189.445 219.31 188.724 218.983C188.096 218.698 187.138 218.716 186.512 219.703C184.321 223.164 180.549 224.982 176.908 224.338C172.609 223.572 169.524 219.49 169.546 214.724C167.823 215.316 164.234 216.124 160.294 214.402C155.243 212.202 153.496 207.464 153.113 206.208C152.609 205.994 152.051 206.002 151.56 206.222C151.029 206.464 150.636 206.926 150.484 207.489L148.86 213.598C148.515 214.896 147.66 215.985 146.453 216.662C145.111 217.416 143.437 217.586 141.871 217.126C141.853 217.121 141.828 217.113 141.81 217.108C138.76 216.175 136.904 213.137 137.65 210.308L140.002 201.455L136.595 200.326L136.203 201.802C135.859 203.1 135.003 204.189 133.796 204.865C132.454 205.62 130.781 205.79 129.214 205.33C129.196 205.325 129.172 205.317 129.153 205.312C126.104 204.378 124.241 201.339 124.994 198.511L125.385 197.036C125.135 196.946 124.885 196.856 124.636 196.76C115.561 193.156 110.785 183.48 113.997 175.188C115.45 171.436 118.37 168.444 122.204 166.77C126.536 164.878 131.673 164.848 136.293 166.685C138.264 167.467 140.06 168.539 141.647 169.885C140.306 157.871 148.2 151.257 156.179 149.057C165.645 146.452 178.094 149.474 182.83 160.144C191.692 150.927 205.134 152.047 214.618 157.319C223.255 162.119 230.72 171.526 228.24 181.902C232.562 180.344 236.873 181.392 239.618 184.708C242.651 188.376 242.796 193.591 240.021 198.097C245.269 199.524 248.966 202.125 251.048 205.833C253.917 210.948 252.847 216.565 251.954 219.462C251.026 222.495 248.808 225.159 245.722 226.962C243.547 228.23 240.992 229.097 238.126 229.531C237.411 229.642 236.684 229.659 235.982 229.682C235.414 229.7 234.828 229.713 234.251 229.781L227.159 252.528C226.588 254.353 225.339 255.884 223.732 256.723C222.315 257.461 220.73 257.624 219.265 257.176L219.277 257.18ZM221.749 227.73L215.193 248.748C214.179 251.999 215.74 255.396 218.667 256.318L219.424 256.55C219.424 256.55 219.452 256.565 219.464 256.569C220.771 256.969 222.185 256.825 223.454 256.161C224.918 255.397 226.053 254.004 226.576 252.337L233.793 229.204L233.992 229.179C234.661 229.092 235.335 229.074 235.983 229.053C236.671 229.032 237.371 229.015 238.051 228.912C240.841 228.488 243.321 227.651 245.424 226.421C248.372 224.702 250.485 222.164 251.373 219.285C252.228 216.488 253.267 211.06 250.519 206.155C248.473 202.504 244.751 199.961 239.467 198.609L239.038 198.498L239.283 198.129C242.144 193.775 242.092 188.669 239.153 185.122C236.473 181.879 232.168 180.959 227.928 182.727L227.33 182.974L227.501 182.351C230.327 172.075 222.93 162.662 214.338 157.889C204.949 152.672 191.613 151.597 182.99 160.941L182.655 161.302L182.463 160.846C178.025 150.154 165.709 147.108 156.372 149.679C148.473 151.857 140.654 158.507 142.408 170.641L142.534 171.527L141.879 170.923C140.203 169.371 138.249 168.144 136.089 167.285C131.618 165.506 126.658 165.538 122.487 167.36C118.806 168.967 116.01 171.832 114.612 175.429C111.526 183.395 116.134 192.709 124.892 196.183C125.222 196.317 125.557 196.433 125.888 196.541L126.172 196.628L125.622 198.684C124.956 201.187 126.628 203.877 129.357 204.712C129.375 204.717 129.393 204.723 129.411 204.728C130.819 205.146 132.308 204.993 133.507 204.32C134.561 203.729 135.31 202.773 135.61 201.64L136.174 199.516L140.79 201.041L138.283 210.468C137.611 212.99 139.328 215.726 142.072 216.513C143.479 216.93 144.969 216.777 146.167 216.104C147.222 215.513 147.969 214.563 148.271 213.425L149.895 207.315C150.099 206.563 150.616 205.954 151.323 205.634C152.036 205.315 152.845 205.331 153.544 205.684L153.67 205.749L153.709 205.88C153.977 206.823 155.571 211.627 160.573 213.813C164.79 215.646 168.689 214.389 169.785 213.963L170.243 213.786L170.219 214.275C169.996 218.92 172.931 222.975 177.047 223.712C180.436 224.312 183.949 222.606 186.007 219.363C186.799 218.116 188.083 217.986 189.014 218.403C189.949 218.828 190.756 219.956 190.312 221.428L190.293 221.489L188.895 225.907C188.11 228.387 189.684 231.159 192.413 232.08C193.798 232.55 195.307 232.463 196.545 231.835C197.626 231.286 198.416 230.369 198.771 229.253L201.459 220.768L201.829 221.291C203.036 223.011 205.75 226.125 210.364 227.676C215.096 229.276 219.147 228.364 221.156 227.681L221.293 227.664L221.765 227.722L221.749 227.73Z" fill="#060606"/>
<path d="M173.32 179.656C174.203 175.709 177.645 173.048 180.992 173.722C183.294 174.181 185.038 176.158 185.528 178.75C187.057 176.848 189.284 175.908 191.396 176.335C192.792 176.617 194.018 177.475 194.845 178.754C195.879 180.348 196.209 182.449 195.748 184.498L195.128 184.362C195.553 182.473 195.254 180.554 194.315 179.102C193.582 177.971 192.499 177.209 191.271 176.959C189.189 176.541 186.956 177.632 185.585 179.754L185.084 180.528L185.001 179.609C184.766 176.915 183.099 174.796 180.86 174.35C177.848 173.746 174.738 176.19 173.93 179.803L173.31 179.666L173.32 179.656Z" fill="#060606"/>
<path d="M221.607 213.574C222.204 210.89 221.282 208.278 219.325 207.083C218.215 206.406 216.862 206.223 215.517 206.573C213.793 207.019 212.24 208.265 211.248 209.994L210.702 209.681C211.772 207.804 213.476 206.452 215.36 205.963C216.875 205.572 218.4 205.781 219.654 206.548C221.845 207.887 222.883 210.767 222.226 213.716L221.606 213.58L221.607 213.574Z" fill="#060606"/>
<path d="M139.39 185.784L138.815 185.522C139.987 182.988 142.284 181.407 144.68 181.491C146.127 181.543 147.476 182.194 148.485 183.331C149.731 184.731 150.351 186.728 150.186 188.802L149.552 188.754C149.705 186.848 149.137 185.026 148.011 183.755C147.115 182.746 145.922 182.169 144.652 182.125C142.512 182.046 140.444 183.485 139.384 185.782L139.39 185.784Z" fill="#060606"/>
<path d="M118.218 67.6435L98.0954 162.931L98.0511 163.886L97.2221 184.826C86.8062 187.263 71.8721 189.593 53.9639 188.479C36.4606 187.39 22.1973 183.408 12.2687 179.819C12.8192 172.742 13.3571 165.64 13.914 158.563C13.9266 158.36 13.9519 158.177 13.9646 157.974L5.18131 60.9843L3.18799 38.9492C28.2469 37.0818 48.4965 37.7591 62.3675 38.715C89.3184 40.576 122.8 45.6338 122.781 46.0009L118.218 67.6499V67.6435Z" fill="#B6CCC6"/>
<path d="M63.1521 189.08C60.083 189.08 57.0139 188.985 53.9512 188.795C39.7005 187.909 25.6397 184.991 12.1674 180.117L11.9395 180.035L11.9585 179.794C12.237 176.255 12.5091 172.711 12.7812 169.166C13.0533 165.621 13.3254 162.076 13.6038 158.537C13.6038 158.443 13.6165 158.341 13.6291 158.246C13.6355 158.151 13.6481 158.056 13.6544 157.955L4.87117 61.0159L2.85254 38.658L3.17527 38.6327C23.1021 37.1451 43.029 37.0691 62.4054 38.3984C77.7065 39.4556 94.2479 41.4875 102.746 42.6016C108.081 43.3043 113.219 44.0322 117.206 44.6526C123.142 45.5768 123.135 45.6527 123.11 46.0136L118.541 67.7132L98.418 163L97.5448 185.086L97.3106 185.143C86.0721 187.77 74.6247 189.093 63.1647 189.093L63.1521 189.08ZM12.6103 179.598C25.9561 184.402 39.8777 187.283 53.9891 188.162C68.36 189.055 82.8068 187.846 96.9183 184.567L97.7789 162.912L117.908 67.5739L122.414 46.1908C119.376 45.4375 87.7996 40.7722 62.3484 39.0188C43.105 37.6958 23.3173 37.7654 3.52964 39.2277L14.2746 157.93C14.2746 158.082 14.2619 158.189 14.2493 158.291C14.2429 158.386 14.2303 158.474 14.224 158.569C13.9455 162.114 13.6734 165.659 13.4013 169.204C13.1355 172.666 12.8698 176.135 12.5977 179.591L12.6103 179.598Z" fill="#060606"/>
<path d="M98.1017 162.924L98.0574 163.88C85.7557 164.842 71.6886 165.171 56.2229 164.222C40.384 163.247 26.1776 161.101 13.9203 158.556C13.9329 158.354 13.9582 158.17 13.9709 157.968L5.06738 55.2302L120.44 58.1421L98.108 162.924H98.1017Z" fill="#FF6600"/>
<path d="M74.7069 165.108C68.5308 165.108 62.3484 164.918 56.2039 164.538C42.0292 163.665 27.7848 161.759 13.8569 158.867L13.5911 158.81L13.6101 158.537C13.6101 158.436 13.6228 158.335 13.6354 158.24C13.6417 158.145 13.6544 158.05 13.6607 157.949L4.72559 54.9074L120.832 57.8382L120.756 58.2117L98.4243 162.969L98.3673 164.178L98.0889 164.197C90.3434 164.804 82.5347 165.102 74.7133 165.102L74.7069 165.108ZM14.2556 158.303C28.0633 161.158 42.1874 163.038 56.2418 163.905C70.0495 164.754 84.0154 164.646 97.7535 163.589L97.7915 162.861L120.047 58.4522L5.40901 55.5594L14.2809 157.942C14.2809 158.094 14.2682 158.196 14.2556 158.303Z" fill="#060606"/>
<path d="M18.1917 162.025C17.2805 162.025 16.6793 162.753 16.6097 163.608C16.2933 167.615 15.9769 171.628 15.6542 175.635C15.5846 176.49 16.4325 177.218 17.2362 177.218C18.1474 177.218 18.7486 176.49 18.8182 175.635C19.1346 171.628 19.4573 167.615 19.7737 163.608C19.8433 162.753 18.9953 162.025 18.1917 162.025Z" fill="white"/>
<path d="M95.1655 168.096C95.1022 167.241 94.4821 166.513 93.5835 166.513C92.7735 166.513 91.9382 167.241 92.0015 168.096C92.2356 171.286 92.2989 174.578 91.8813 177.762C91.7484 178.775 91.432 179.642 90.5461 180.186C89.5526 180.8 88.3692 181.022 87.2365 181.206C86.3949 181.345 85.9203 182.389 86.1291 183.155C86.3759 184.054 87.2302 184.396 88.0782 184.263C91.0966 183.769 94.1277 182.427 94.8428 179.142C95.2161 177.427 95.2541 175.591 95.3047 173.844C95.3617 171.926 95.3047 170.014 95.1718 168.102L95.1655 168.096Z" fill="white"/>
<path d="M18.7802 98.2369C18.4005 93.521 18.0145 88.8051 17.6348 84.0955C17.5652 83.2409 16.9577 82.5129 16.0528 82.5129C15.2492 82.5129 14.4012 83.2409 14.4708 84.0955C15.8123 100.649 17.1539 117.202 18.4891 133.755C18.8688 138.471 19.2548 143.187 19.6345 147.897C19.7041 148.751 20.3116 149.479 21.2165 149.479C22.0201 149.479 22.8681 148.751 22.7985 147.897C21.4569 131.343 20.1154 114.79 18.7802 98.2369Z" fill="white"/>
<path d="M46.9081 77.7211C45.2754 77.7211 43.9529 76.3917 43.9529 74.7649C43.9529 73.1381 45.2818 71.8087 46.9081 71.8087C48.5344 71.8087 49.8632 73.1381 49.8632 74.7649C49.8632 76.3917 48.5344 77.7211 46.9081 77.7211ZM46.9081 72.1189C45.4526 72.1189 44.2693 73.3027 44.2693 74.7586C44.2693 76.2145 45.4526 77.3982 46.9081 77.3982C48.3635 77.3982 49.5468 76.2145 49.5468 74.7586C49.5468 73.3027 48.3635 72.1189 46.9081 72.1189Z" fill="white"/>
<path d="M88.1729 147.897C86.5403 147.897 85.2178 146.567 85.2178 144.934C85.2178 143.301 86.5467 141.978 88.1729 141.978C89.7992 141.978 91.1281 143.307 91.1281 144.934C91.1281 146.561 89.7992 147.897 88.1729 147.897ZM88.1729 142.294C86.7175 142.294 85.5342 143.478 85.5342 144.934C85.5342 146.39 86.7175 147.58 88.1729 147.58C89.6284 147.58 90.8117 146.396 90.8117 144.934C90.8117 143.472 89.6284 142.294 88.1729 142.294Z" fill="white"/>
<path d="M97.013 81.114C95.3804 81.114 94.0579 79.7847 94.0579 78.1515C94.0579 76.5183 95.3867 75.1953 97.013 75.1953C98.6393 75.1953 99.9682 76.5247 99.9682 78.1515C99.9682 79.7783 98.6393 81.114 97.013 81.114ZM97.013 75.5118C95.5576 75.5118 94.3743 76.6956 94.3743 78.1515C94.3743 79.6074 95.5576 80.7975 97.013 80.7975C98.4685 80.7975 99.6518 79.6138 99.6518 78.1515C99.6518 76.6893 98.4685 75.5118 97.013 75.5118Z" fill="white"/>
<path d="M77.1178 71.8214C76.1496 71.8214 75.3586 71.0302 75.3586 70.0616C75.3586 69.0931 76.1496 68.3019 77.1178 68.3019C78.086 68.3019 78.877 69.0931 78.877 70.0616C78.877 71.0302 78.086 71.8214 77.1178 71.8214ZM77.1178 68.6184C76.3205 68.6184 75.675 69.2641 75.675 70.0616C75.675 70.8592 76.3205 71.5049 77.1178 71.5049C77.9152 71.5049 78.5606 70.8592 78.5606 70.0616C78.5606 69.2641 77.9152 68.6184 77.1178 68.6184Z" fill="white"/>
<path d="M75.9408 95.1162C74.9726 95.1162 74.1816 94.3249 74.1816 93.3564C74.1816 92.3879 74.9726 91.5966 75.9408 91.5966C76.909 91.5966 77.7 92.3879 77.7 93.3564C77.7 94.3249 76.909 95.1162 75.9408 95.1162ZM75.9408 91.9132C75.1435 91.9132 74.498 92.5588 74.498 93.3564C74.498 94.154 75.1435 94.7997 75.9408 94.7997C76.7382 94.7997 77.3836 94.154 77.3836 93.3564C77.3836 92.5588 76.7382 91.9132 75.9408 91.9132Z" fill="white"/>
<path d="M34.0876 141.408C33.1194 141.408 32.3284 140.617 32.3284 139.648C32.3284 138.68 33.1194 137.889 34.0876 137.889C35.0557 137.889 35.8467 138.68 35.8467 139.648C35.8467 140.617 35.0557 141.408 34.0876 141.408ZM34.0876 138.205C33.2902 138.205 32.6448 138.851 32.6448 139.648C32.6448 140.446 33.2902 141.092 34.0876 141.092C34.8849 141.092 35.5303 140.446 35.5303 139.648C35.5303 138.851 34.8849 138.205 34.0876 138.205Z" fill="white"/>
<path d="M14.3378 73.2963C13.3696 73.2963 12.5786 72.5051 12.5786 71.5366C12.5786 70.5681 13.3696 69.7768 14.3378 69.7768C15.306 69.7768 16.097 70.5681 16.097 71.5366C16.097 72.5051 15.306 73.2963 14.3378 73.2963ZM14.3378 70.0933C13.5405 70.0933 12.895 70.739 12.895 71.5366C12.895 72.3342 13.5405 72.9798 14.3378 72.9798C15.1351 72.9798 15.7806 72.3342 15.7806 71.5366C15.7806 70.739 15.1351 70.0933 14.3378 70.0933Z" fill="white"/>
<path d="M52.2048 104.054C54.1222 92.5208 47.1171 81.5634 36.2456 78.2465C35.2901 77.9489 34.2903 77.7147 33.2841 77.5501C20.7483 75.4612 8.88966 83.9435 6.80142 96.4961C4.71318 109.036 13.1927 120.899 25.7285 122.981C26.7346 123.152 27.7534 123.253 28.7596 123.279C40.1184 123.659 50.2938 115.575 52.2112 104.048L52.2048 104.054Z" fill="white"/>
<path d="M29.5252 123.614C29.2658 123.614 29.0064 123.614 28.7406 123.602C27.7661 123.576 26.7346 123.475 25.6715 123.298C19.527 122.272 14.1419 118.917 10.5223 113.847C6.89631 108.777 5.46619 102.592 6.48499 96.4455C7.51013 90.2926 10.864 84.9057 15.9327 81.2786C21.0014 77.6514 27.1839 76.2145 33.3284 77.24C34.3915 77.4172 35.404 77.6578 36.3342 77.9489C47.4715 81.3482 54.4259 92.5968 52.5086 104.111C50.6355 115.36 40.8271 123.621 29.5189 123.621L29.5252 123.614ZM29.4556 77.5501C24.7666 77.5501 20.1978 79.0061 16.3061 81.7913C11.3702 85.3235 8.10496 90.5648 7.11147 96.5531C6.11797 102.535 7.51013 108.549 11.0348 113.48C14.5595 118.417 19.7928 121.684 25.7727 122.677C26.8105 122.848 27.8104 122.95 28.7596 122.975C29.0127 122.981 29.2658 122.988 29.5189 122.988C40.5296 122.988 50.0659 114.948 51.8884 104.01C53.7488 92.8057 46.9842 81.8673 36.1507 78.5566C35.2458 78.2718 34.2649 78.0439 33.2271 77.8666C31.9679 77.6578 30.7086 77.5565 29.4556 77.5565V77.5501Z" fill="#060606"/>
<path d="M14.8758 82.2661C12.8066 81.2913 10.8765 80.0569 9.12367 78.601C6.53552 76.4424 5.83311 75.341 4.77001 73.6635L4.68774 73.5369L5.2193 73.195L5.30156 73.3216C6.33302 74.9422 7.01012 76.0183 9.52867 78.1072C11.2372 79.5315 13.1293 80.7342 15.1479 81.6837L14.8758 82.2534V82.2661Z" fill="#060606"/>
<path d="M21.6531 78.487C20.2483 76.6956 19.0396 74.7522 18.0525 72.7013C17.1476 70.8212 16.4325 68.8399 15.9199 66.8143L16.5337 66.656C17.0336 68.6374 17.7424 70.5807 18.622 72.4228C19.5838 74.4294 20.7735 76.3348 22.1467 78.0882L21.6468 78.4807L21.6531 78.487Z" fill="#060606"/>
<path d="M29.1138 76.8855C28.5696 74.7269 28.2532 72.5114 28.1773 70.2895C28.114 68.3398 28.2342 66.3775 28.5317 64.4532L29.1581 64.5481C28.8607 66.4345 28.7468 68.3588 28.8101 70.2705C28.8797 72.4417 29.1898 74.6193 29.7276 76.7336L29.1138 76.8918V76.8855Z" fill="#060606"/>
<path d="M28.7531 123.285C26.7472 118.689 25.76 112.727 26.0511 106.188L42.314 102.402L28.152 93.5526C29.9934 87.2732 32.86 81.9559 36.2392 78.2464C47.1107 81.5634 54.1158 92.5208 52.1984 104.054C50.281 115.588 40.1056 123.665 28.7468 123.285H28.7531Z" fill="#060606"/>
<path d="M29.525 123.614C29.2656 123.614 29.0061 123.614 28.7404 123.602H28.5379L28.4556 123.412C26.4117 118.721 25.4435 112.6 25.7282 106.169L25.7409 105.928L41.4976 102.263L27.7785 93.6919L27.8481 93.464C29.6832 87.2099 32.5055 81.8736 36.0049 78.0312L36.1378 77.8856L36.3276 77.9426C47.4649 81.3419 54.4194 92.5905 52.5083 104.105C50.6353 115.354 40.8269 123.614 29.5187 123.614H29.525ZM28.9619 122.975C29.1517 122.975 29.3352 122.981 29.525 122.981C40.5294 122.981 50.0721 114.942 51.8945 104.004C53.7486 92.869 47.0726 81.9875 36.3466 78.6136C33.0624 82.2724 30.2907 87.5137 28.5315 93.4134L43.1366 102.535L26.361 106.441C26.1206 112.606 27.0381 118.455 28.9682 122.975H28.9619Z" fill="#060606"/>
<path d="M116.276 105.46C117.13 93.7995 109.151 83.5321 98.0196 81.2216C97.0387 81.0127 96.0262 80.8735 95.0074 80.7975C82.3324 79.867 71.3027 89.4001 70.3725 102.092C69.4423 114.771 78.9723 125.805 91.6409 126.735C92.6597 126.811 93.6849 126.824 94.6847 126.754C106.031 126.096 115.422 117.113 116.276 105.453V105.46Z" fill="white"/>
<path d="M93.3558 127.115C92.7926 127.115 92.2104 127.096 91.6219 127.052C85.4078 126.596 79.7442 123.747 75.669 119.025C71.5938 114.309 69.6004 108.283 70.0561 102.067C70.9989 89.2229 82.2058 79.5378 95.0327 80.481C96.1084 80.5569 97.1399 80.7025 98.0891 80.9114C109.492 83.2789 117.446 93.8375 116.592 105.479C115.738 117.113 106.328 126.393 94.7036 127.071C94.267 127.102 93.8177 127.115 93.3558 127.115ZM93.3115 81.0507C81.5414 81.0507 71.5621 90.1787 70.6889 102.111C70.2459 108.156 72.1823 114.018 76.1436 118.607C80.1049 123.197 85.6166 125.969 91.6662 126.412C92.7166 126.488 93.7228 126.495 94.6657 126.431C105.98 125.773 115.13 116.74 115.959 105.428C116.788 94.1034 109.049 83.8233 97.9562 81.5254C97.0323 81.3229 96.0325 81.1836 94.9821 81.1077C94.4189 81.0697 93.862 81.0444 93.3115 81.0444V81.0507Z" fill="#060606"/>
<path d="M113.042 92.1031L112.916 91.4827C115.099 91.0333 117.219 90.3116 119.218 89.3305C122.155 87.8872 123.072 87.0073 124.458 85.6717L124.566 85.5641L125.002 86.0198L124.895 86.1274C123.471 87.5011 122.522 88.4126 119.497 89.9002C117.453 90.9067 115.282 91.6473 113.042 92.1031Z" fill="#060606"/>
<path d="M107.347 86.8364L106.955 86.3363C108.707 84.9564 110.308 83.3865 111.72 81.6647C113.017 80.0822 114.156 78.3604 115.111 76.5563L115.668 76.8538C114.694 78.7022 113.529 80.4557 112.207 82.0698C110.77 83.8296 109.131 85.4311 107.347 86.8427V86.8364Z" fill="#060606"/>
<path d="M100.475 83.5194L99.918 83.2219C100.937 81.2976 101.747 79.2529 102.329 77.1577C102.842 75.3156 103.183 73.4166 103.341 71.5175L103.974 71.5682C103.816 73.5115 103.468 75.4485 102.943 77.3286C102.348 79.4682 101.519 81.5508 100.481 83.5194H100.475Z" fill="#060606"/>
<path d="M94.6848 126.754C92.2675 122.367 90.7361 116.512 90.426 109.973L106.278 104.713L91.3626 97.1988C92.6218 90.7801 94.9885 85.2159 98.0196 81.2153C109.151 83.5258 117.13 93.7932 116.276 105.453C115.422 117.113 106.031 126.089 94.6848 126.754Z" fill="#060606"/>
<path d="M94.5012 127.083L94.4063 126.906C91.9384 122.424 90.4133 116.417 90.1096 109.986L90.0969 109.745L105.449 104.649L91.0018 97.3697L91.0461 97.1355C92.2991 90.7357 94.6214 85.1653 97.7601 81.0254L97.8804 80.8671L98.0765 80.9051C109.48 83.2726 117.434 93.8312 116.586 105.472C115.732 117.107 106.322 126.387 94.6974 127.064L94.4949 127.077L94.5012 127.083ZM90.755 110.201C91.0778 116.36 92.5332 122.108 94.8619 126.431C106.081 125.678 115.13 116.689 115.953 105.441C116.776 94.1793 109.132 83.9625 98.1461 81.5824C95.2099 85.5261 92.9319 91.0016 91.7169 97.0405L107.094 104.789L90.7487 110.213L90.755 110.201Z" fill="#060606"/>
<path d="M66.8413 110.245C66.9172 113.214 64.3797 115.689 61.1714 115.771C57.9631 115.854 55.299 113.518 55.2167 110.549C55.1408 107.58 57.6783 105.105 60.8866 105.023C64.0949 104.94 66.759 107.276 66.8413 110.245Z" fill="#FFBF00"/>
<path d="M61.0069 116.088C59.4376 116.088 57.9568 115.543 56.8178 114.543C55.6281 113.499 54.9447 112.081 54.9067 110.555C54.8688 109.03 55.4699 107.58 56.6026 106.472C57.729 105.371 59.2477 104.744 60.8804 104.7C62.5256 104.668 64.0633 105.206 65.2467 106.245C66.4363 107.289 67.1134 108.707 67.1577 110.232C67.24 113.372 64.5569 115.999 61.1841 116.088C61.1272 116.088 61.0639 116.088 61.0069 116.088ZM61.0639 105.333C61.0069 105.333 60.9563 105.333 60.8993 105.333C59.4249 105.371 58.0581 105.941 57.0456 106.928C56.0394 107.909 55.5016 109.194 55.5395 110.536C55.5775 111.885 56.1787 113.138 57.2354 114.062C58.2985 114.993 59.697 115.493 61.1714 115.448C64.2026 115.366 66.6072 113.037 66.5313 110.245C66.4933 108.897 65.8921 107.643 64.8354 106.719C63.8102 105.82 62.475 105.333 61.0639 105.333Z" fill="#060606"/>
<path d="M52.6097 117.518C49.9519 116.411 46.8385 118.006 46.4019 120.721C44.7123 131.242 43.0987 152.954 58.0897 154.803C73.182 156.664 75.4411 133.242 75.6563 121.899C75.7069 119.095 72.7833 117.183 69.9168 118.101C67.4552 118.892 64.5253 119.531 61.2094 119.436C57.767 119.335 54.9257 118.487 52.6097 117.518Z" fill="#FFBF00"/>
<path d="M59.7414 155.227C59.1909 155.227 58.6277 155.189 58.0519 155.119C54.369 154.663 51.4138 152.992 49.2749 150.137C43.5987 142.586 44.8453 128.432 46.0919 120.671C46.3071 119.341 47.1424 118.177 48.3827 117.487C49.7116 116.746 51.3379 116.651 52.73 117.227C55.5903 118.417 58.3619 119.038 61.2159 119.12C63.9875 119.196 66.8035 118.765 69.8156 117.803C71.3533 117.31 73.0239 117.563 74.2642 118.493C75.3716 119.316 75.9917 120.563 75.9664 121.912C75.8019 130.615 74.4414 146.162 67.1832 152.461C65.057 154.309 62.5574 155.233 59.7351 155.233L59.7414 155.227ZM50.8316 117.487C50.0912 117.487 49.3509 117.67 48.6927 118.044C47.617 118.639 46.9019 119.639 46.7184 120.778C45.4845 128.444 44.2505 142.402 49.7812 149.764C51.8125 152.473 54.6221 154.062 58.1341 154.493C61.469 154.904 64.3799 154.056 66.7782 151.973C73.8465 145.839 75.1818 130.495 75.3463 121.893C75.3653 120.753 74.84 119.696 73.8972 118.993C72.8151 118.189 71.366 117.968 70.0181 118.398C66.9364 119.386 64.0508 119.829 61.2095 119.747C58.2797 119.664 55.4321 119.031 52.4959 117.803C51.9707 117.582 51.4075 117.474 50.8443 117.474L50.8316 117.487Z" fill="#060606"/>
<path d="M50.8634 120.462C50.1547 120.145 49.351 120.645 49.2561 121.449C48.5284 127.919 46.7375 151.169 58.3937 151.979C71.7268 152.91 72.3849 129.362 72.3217 122.969C72.3153 122.184 71.6066 121.627 70.8789 121.836C68.5818 122.5 64.9559 123.222 60.501 122.88C56.3055 122.557 53.0023 121.411 50.8634 120.462Z" fill="white"/>
<path d="M59.153 152.328C58.8999 152.328 58.6404 152.321 58.3747 152.302C56.0966 152.144 54.1665 151.138 52.6541 149.315C47.0602 142.598 48.4017 126.267 48.9459 121.418C49.0029 120.924 49.2876 120.487 49.7053 120.247C50.1103 120.019 50.5786 119.993 50.9962 120.177C53.9957 121.506 57.204 122.31 60.5325 122.564C63.9939 122.836 67.5439 122.475 70.8028 121.532C71.2331 121.411 71.6824 121.487 72.0431 121.76C72.4228 122.044 72.6443 122.481 72.6506 122.969C72.7012 127.666 72.3406 143.466 65.7215 149.707C63.8737 151.448 61.6652 152.334 59.153 152.334V152.328ZM50.4204 120.683C50.2811 120.683 50.1483 120.721 50.0217 120.791C49.7749 120.937 49.6104 121.19 49.5787 121.487C49.0408 126.273 47.712 142.389 53.1414 148.909C54.5462 150.593 56.3244 151.524 58.4253 151.669C61.0767 151.859 63.3801 151.036 65.2848 149.245C71.7141 143.187 72.0621 127.609 72.0115 122.975C72.0115 122.69 71.8786 122.431 71.6635 122.266C71.461 122.114 71.2142 122.07 70.9737 122.139C67.6452 123.102 64.0129 123.469 60.4819 123.197C57.0774 122.931 53.7995 122.114 50.7368 120.753C50.6355 120.709 50.5279 120.683 50.4204 120.683Z" fill="#060606"/>
<path d="M56.0045 122.239L54.1487 150.562L54.7801 150.604L56.6359 122.28L56.0045 122.239Z" fill="#060606"/>
<path d="M64.4527 122.873L62.3088 151.328L62.9398 151.376L65.0837 122.92L64.4527 122.873Z" fill="#060606"/>
<path d="M71.0371 137.756L48.7878 136.186L48.8891 135.863L48.9081 135.566L71.0814 137.123L71.0371 137.756Z" fill="#060606"/>
<path d="M126.862 47.3112C126.843 40.3924 123.262 31.7961 111.207 32.2899C117.813 15.2682 83.5788 -19.1485 53.8498 14.5593C41.6684 -0.54435 13.0089 13.3502 22.3933 33.6066C20.6088 32.714 18.6155 32.1253 16.4956 31.9354C8.09206 31.1821 0.859156 36.9172 0.333931 44.7349C-0.184965 52.5589 6.20632 59.5093 14.6099 60.2626C14.9263 60.2879 15.2427 60.3069 15.5528 60.3196L15.6224 61.9528C15.7236 64.4532 17.9764 66.4725 20.6531 66.4598C23.3299 66.4471 25.4181 64.4152 25.3106 61.9148L25.2409 60.2436L28.9492 60.3512L29.2972 68.8462C29.3984 71.3466 31.6512 73.3659 34.328 73.3533C37.0047 73.3406 39.0929 71.3086 38.9854 68.8083L38.7512 63.1302C38.7006 61.8451 39.808 60.8513 41.0546 61.0792C41.3963 61.6236 44.0414 65.6432 49.0722 66.2699C53.3942 66.8016 56.4317 64.4531 57.0265 63.9657C57.2353 63.9784 58.3301 64.048 59.197 64.9975C59.7475 65.5989 60.0766 66.4028 60.0513 67.2764L59.6083 84.5259C59.545 87.0263 61.1017 89.3684 63.4684 90.0711C66.4805 90.9636 69.1889 88.8747 69.2648 85.8679L69.8154 64.3962C69.8534 62.9149 71.2772 60.7817 72.4415 61.6489C79.8896 67.2194 85.4329 62.0287 85.4329 62.0287C86.4643 62.8516 89.6853 65.2254 94.406 65.39C99.2343 65.5609 102.582 63.3201 103.613 62.5668V63.6429C103.594 66.1433 104.702 75.4739 109.435 74.7839C113.637 74.1699 113.295 66.4914 113.308 63.9911C113.308 63.3327 114.13 60.8513 114.466 60.6804C115.624 60.0917 116.902 59.8512 118.054 59.2878C120.142 58.275 122.097 56.9203 123.66 55.1859C125.59 53.0463 126.862 50.2927 126.85 47.3176L126.862 47.3112Z" fill="white"/>
<path d="M64.8733 90.5838C64.386 90.5838 63.8861 90.5142 63.3926 90.3686C60.9183 89.6343 59.2351 87.2289 59.3047 84.5132L59.7476 67.2637C59.7666 66.5041 59.4945 65.7698 58.9756 65.2064C58.3175 64.4848 57.5075 64.3266 57.1405 64.2886C55.9761 65.2064 53.0463 67.0738 49.047 66.5801C44.244 65.985 41.542 62.3769 40.8775 61.3704C40.4282 61.3261 39.9916 61.4653 39.6499 61.7629C39.2639 62.0983 39.0551 62.5921 39.074 63.1175L39.3082 68.7956C39.3588 70.0363 38.9095 71.2137 38.0426 72.1189C37.106 73.1001 35.7582 73.6634 34.3344 73.6698H34.3154C31.4868 73.6698 29.0948 71.5176 28.9872 68.8589L28.6518 60.6614L25.5827 60.5728L25.6397 61.9085C25.6903 63.1492 25.241 64.3266 24.3741 65.2318C23.4376 66.2129 22.0897 66.7763 20.6659 66.7826H20.6469C17.8183 66.7826 15.4326 64.6304 15.3187 61.9718L15.2618 60.6298C15.0403 60.6171 14.8188 60.6045 14.591 60.5855C6.02923 59.8195 -0.501271 52.7045 0.0302807 44.7222C0.277073 41.0508 1.98563 37.6768 4.84589 35.2271C7.97192 32.5494 12.2307 31.2391 16.5337 31.6252C18.3562 31.7898 20.1154 32.2393 21.7733 32.9609C17.5082 22.7947 22.8554 14.8884 28.867 11.1474C32.8157 8.69127 37.4541 7.55185 41.928 7.94432C46.7246 8.36211 50.8441 10.4827 53.8689 14.0782C66.8413 -0.449394 83.0094 -3.98159 97.1714 4.64001C107.992 11.2233 114.516 23.6177 111.669 31.9671C116.32 31.8658 120.053 33.1128 122.749 35.6955C126.59 39.367 127.172 44.5576 127.179 47.3176C127.185 50.1788 126.027 53.0463 123.907 55.4011C122.414 57.0596 120.496 58.4649 118.206 59.579C117.63 59.8575 117.022 60.0601 116.44 60.2563C115.833 60.4588 115.2 60.6741 114.618 60.9653C114.403 61.1805 113.637 63.3707 113.631 63.9974V64.5798C113.643 67.5486 113.675 74.4927 109.492 75.1004C108.442 75.2523 107.486 74.9611 106.651 74.2395C103.835 71.7897 103.291 65.2634 103.303 63.6492V63.1808C101.588 64.3266 98.4876 65.8584 94.4061 65.7129C90.16 65.5609 87.0403 63.6682 85.452 62.4402C84.3509 63.3201 79.029 66.9599 72.2644 61.9085C72.0429 61.7439 71.8151 61.7249 71.5493 61.8515C70.8533 62.187 70.1698 63.4277 70.1445 64.4089L69.594 85.8805C69.556 87.4441 68.841 88.8367 67.6386 89.7166C66.835 90.299 65.8731 90.6028 64.8733 90.6028V90.5838ZM56.938 63.6366H57.0582C57.3873 63.6556 58.539 63.7885 59.4439 64.776C60.0704 65.466 60.4057 66.3522 60.3804 67.2764L59.9375 84.5259C59.8742 86.9187 61.4056 89.1152 63.5697 89.7609C64.8796 90.147 66.2275 89.9381 67.2653 89.1912C68.3094 88.4316 68.9296 87.2162 68.9612 85.8552L69.5117 64.3835C69.537 63.3011 70.2711 61.7629 71.2709 61.2754C71.7455 61.0476 72.2328 61.0855 72.6441 61.3957C79.8011 66.7447 85.1735 61.8451 85.2305 61.8008L85.433 61.6109L85.6481 61.7818C87.1036 62.9466 90.179 64.9216 94.4377 65.0735C98.7787 65.2318 101.943 63.4087 103.449 62.3073L103.955 61.9401V63.6492C103.936 65.9534 104.708 71.7011 107.081 73.7584C107.777 74.3661 108.543 74.6003 109.41 74.4737C113.048 73.942 113.023 67.384 113.01 64.5798V63.9911C113.01 63.396 113.795 60.6804 114.339 60.4019C114.959 60.0854 115.611 59.8638 116.244 59.6549C116.839 59.4587 117.396 59.2688 117.934 59.0093C120.155 57.9331 122.009 56.5722 123.445 54.977C125.458 52.7425 126.565 50.0205 126.559 47.3239C126.552 44.6589 125.989 39.6645 122.319 36.1513C119.667 33.6129 115.934 32.4228 111.232 32.6127L110.751 32.6317L110.928 32.1823C114.067 24.0987 107.619 11.7297 96.855 5.17807C92.5014 2.52576 85.4963 -0.360776 76.8902 0.949555C68.7777 2.17759 61.1081 6.83022 54.103 14.7745L53.8563 15.053L53.6221 14.7618C48.7432 8.7166 38.7956 5.72246 29.2087 11.6854C23.2667 15.3822 17.9891 23.3138 22.7035 33.4736L23.0832 34.2965L22.2732 33.8914C20.4697 32.9862 18.5207 32.4355 16.4894 32.2519C12.3572 31.8848 8.26934 33.1381 5.26987 35.7081C2.53617 38.044 0.903545 41.2597 0.675737 44.7602C0.169497 52.4006 6.44055 59.2118 14.6606 59.9524C14.9707 59.9778 15.2808 59.9968 15.5845 60.0094H15.8756L15.9515 61.9464C16.0465 64.2696 18.1473 66.1496 20.6469 66.1496H20.6659C21.9188 66.1496 23.1022 65.6495 23.9185 64.795C24.6652 64.0164 25.0512 62.9972 25.0069 61.9338L24.9246 59.9208L29.2656 60.0474L29.6263 68.8336C29.7213 71.1567 31.8222 73.0368 34.3217 73.0368H34.3407C35.5936 73.0368 36.777 72.5367 37.5933 71.6821C38.34 70.9035 38.726 69.8844 38.6817 68.8209L38.4476 63.1428C38.4159 62.4212 38.707 61.7439 39.2386 61.2818C39.7575 60.8323 40.4472 60.6424 41.1243 60.7627L41.2635 60.788L41.3395 60.9083C41.8077 61.6489 44.3832 65.3647 49.1292 65.9534C53.0083 66.4345 55.8179 64.5544 56.8494 63.7188L56.9443 63.6429L56.938 63.6366Z" fill="#060606"/>
<path d="M31.4236 47.7291C31.664 43.5385 35.3153 40.3861 39.5804 40.69C43.8455 40.9875 47.1044 44.6273 46.8576 48.8178" fill="white"/>
<path d="M47.174 48.8368L46.5412 48.7988C46.7753 44.7919 43.6366 41.2913 39.555 41.0065C37.5491 40.8672 35.6317 41.5065 34.1446 42.8105C32.7018 44.0829 31.8475 45.8363 31.7336 47.748L31.1008 47.7101C31.2211 45.6274 32.1513 43.7157 33.7269 42.3358C35.3406 40.9178 37.4288 40.2215 39.5993 40.3735C44.0289 40.6836 47.4271 44.4817 47.174 48.8368Z" fill="#060606"/>
<path d="M75.3525 33.1698C75.5424 28.9792 79.1557 25.7825 83.4207 26.0294C87.6858 26.2763 90.989 29.8781 90.7992 34.0686" fill="white"/>
<path d="M91.1156 34.0876L90.4828 34.0623C90.6663 30.049 87.4896 26.5865 83.4018 26.3523C81.3958 26.2383 79.4847 26.8966 78.0166 28.2196C76.5865 29.5046 75.7512 31.2707 75.6689 33.1888L75.0361 33.1634C75.1311 31.0745 76.036 29.1565 77.5926 27.7512C79.1873 26.3143 81.2629 25.5926 83.4397 25.7192C87.8693 25.9788 91.3118 29.7325 91.1156 34.094V34.0876Z" fill="#060606"/>
<path d="M90.8054 34.3535C90.932 31.5619 93.3366 29.435 96.1716 29.6059C99.0065 29.7768 101.209 32.1696 101.082 34.9549" fill="white"/>
<path d="M101.398 34.9675L100.766 34.9422C100.886 32.3279 98.8166 30.0807 96.1525 29.9224C94.849 29.8465 93.6024 30.2769 92.6468 31.1378C91.7166 31.9734 91.1724 33.1255 91.1155 34.3662L90.4827 34.3409C90.5459 32.9229 91.1661 31.6189 92.2165 30.6694C93.2986 29.6946 94.7098 29.2071 96.1842 29.2894C99.19 29.4667 101.525 32.0114 101.392 34.9675H101.398Z" fill="#060606"/>
<path d="M317.634 497.308C317.894 502.461 296.34 507.74 269.491 509.101C242.628 510.462 220.645 507.392 220.385 502.246C220.214 498.853 229.542 495.403 243.609 493.048C243.767 490.225 243.824 487.218 243.66 484.021C243.584 482.527 243.318 480.856 242.932 479.153C241.299 471.906 237.566 465.354 232.478 459.954C232.326 459.777 232.162 459.606 231.997 459.429C201.389 427.848 198.541 389.728 201.174 364.256C202.933 347.24 207.141 335.865 207.141 335.865L311.945 330.548C311.945 330.548 317.267 341.442 320.754 358.192C325.93 383.164 326.974 421.176 300.049 455.605C299.789 455.928 299.549 456.257 299.302 456.593C294.777 462.746 292.113 470.139 291.835 477.786C291.809 478.596 291.797 479.381 291.835 480.109C291.999 483.819 292.366 487.269 292.879 490.478C307.497 491.352 317.457 493.871 317.628 497.321L317.634 497.308Z" fill="#B6CCC6"/>
<path d="M256.841 509.747C235.661 509.747 220.297 506.803 220.069 502.258C219.987 500.6 222.088 496.359 243.305 492.776C243.47 489.661 243.483 486.8 243.343 484.034C243.274 482.641 243.033 481.027 242.622 479.223C241.065 472.317 237.477 465.727 232.25 460.169C232.098 459.992 231.94 459.828 231.782 459.657C201.325 428.228 198.155 390.412 200.864 364.224C202.604 347.361 206.805 335.865 206.843 335.751L206.913 335.555L207.122 335.542L312.135 330.212L312.224 330.402C312.274 330.51 317.602 341.524 321.058 358.122C326.373 383.765 327.088 421.531 300.295 455.795C300.042 456.118 299.795 456.441 299.561 456.777C294.993 462.993 292.43 470.26 292.158 477.792C292.132 478.539 292.12 479.337 292.158 480.084C292.309 483.49 292.645 486.883 293.164 490.168C299.251 490.541 317.697 492.117 317.957 497.296C318.229 502.701 296.948 508.031 269.51 509.424C265.118 509.646 260.878 509.753 256.847 509.753L256.841 509.747ZM207.362 336.163C206.805 337.739 203.091 348.709 201.484 364.281C198.794 390.336 201.939 427.956 232.219 459.201C232.396 459.391 232.56 459.562 232.712 459.739C238.015 465.366 241.654 472.057 243.236 479.077C243.653 480.913 243.9 482.572 243.97 483.996C244.115 486.857 244.096 489.82 243.919 493.054L243.907 493.308L243.66 493.352C221.569 497.055 220.657 501.391 220.702 502.22C220.949 507.107 243.286 510.108 269.478 508.778C295.663 507.449 317.571 502.201 317.324 497.314C317.166 494.219 307.566 491.649 292.866 490.769L292.613 490.757L292.575 490.503C292.031 487.117 291.677 483.616 291.525 480.103C291.487 479.331 291.499 478.52 291.525 477.761C291.803 470.095 294.404 462.708 299.049 456.39C299.296 456.049 299.542 455.719 299.802 455.39C326.443 421.322 325.734 383.752 320.444 358.242C317.254 342.911 312.464 332.377 311.749 330.858L207.362 336.156V336.163Z" fill="#060606"/>
<path d="M238.56 467.677C245.001 469.639 255.31 471.918 268.01 471.089C279.514 470.342 288.658 467.322 294.6 464.828" fill="#B6CCC6"/>
<path d="M262.612 471.583C254.443 471.583 246.343 470.374 238.465 467.981L238.648 467.373C248.191 470.279 258.062 471.418 267.985 470.772C277.11 470.177 286.02 468.082 294.474 464.537L294.721 465.12C286.203 468.69 277.224 470.804 268.029 471.405C266.219 471.526 264.416 471.583 262.612 471.583Z" fill="#060606"/>
<path d="M243.856 493.099C247.539 495.124 257.037 499.714 269.769 498.783C281.451 497.929 289.658 492.89 293.126 490.459" fill="#B6CCC6"/>
<path d="M266.447 499.226C255.987 499.226 247.836 495.656 243.698 493.384L244.002 492.826C248.507 495.308 257.847 499.34 269.737 498.473C280.242 497.707 288.152 493.554 292.936 490.206L293.297 490.725C288.443 494.118 280.432 498.327 269.782 499.106C268.643 499.188 267.529 499.226 266.441 499.226H266.447Z" fill="#060606"/>
<path d="M201.173 364.249C202.933 347.234 207.141 335.859 207.141 335.859L311.945 330.542C311.945 330.542 317.267 341.436 320.754 358.185L201.173 364.256V364.249Z" fill="white"/>
<path d="M200.819 364.585L200.857 364.218C202.597 347.354 206.799 335.859 206.837 335.745L206.907 335.549L207.115 335.536L312.129 330.206L312.217 330.396C312.268 330.504 317.596 341.518 321.051 358.116L321.127 358.476L320.76 358.495L200.813 364.585H200.819ZM207.362 336.163C206.812 337.726 203.154 348.532 201.521 363.914L320.361 357.881C317.172 342.746 312.451 332.365 311.743 330.864L207.356 336.163H207.362Z" fill="#060606"/>
<path d="M300.049 455.593C300.049 455.593 299.884 455.802 299.669 456.08C299.542 456.245 299.422 456.409 299.302 456.58C290.525 460.625 279.628 463.278 266.187 463.961C252.69 464.645 241.597 463.094 232.478 459.948C232.326 459.771 232.162 459.6 231.997 459.423C201.389 427.842 198.541 389.722 201.174 364.249C205.679 363.857 212.811 363.142 221.505 361.793C243.9 358.324 246.754 359.584 258.182 359.533C274.85 359.458 274.92 361.274 287.728 358.432C293.834 357.077 297.916 354.761 305.744 354.919C312.129 355.045 317.33 356.748 320.754 358.179C323.057 368.699 325.848 388.025 320.627 410.883C320.627 410.883 314.654 437.065 300.049 455.593Z" fill="#060606"/>
<path d="M260.068 464.436C249.728 464.436 240.432 463.031 232.371 460.245L232.288 460.22L232.231 460.157C232.086 459.986 231.928 459.821 231.769 459.657C201.313 428.228 198.142 390.412 200.851 364.224L200.876 363.965L201.136 363.939C207.856 363.357 214.69 362.534 221.448 361.483C238.787 358.799 244.356 358.938 251.399 359.122C253.455 359.173 255.588 359.236 258.176 359.217C263.859 359.192 267.618 359.382 270.623 359.54C276.369 359.837 279.255 359.989 287.652 358.122C289.493 357.71 291.17 357.21 292.79 356.723C296.619 355.577 300.232 354.482 305.737 354.602C310.812 354.704 315.907 355.811 320.868 357.888L321.02 357.951L321.058 358.109C324.88 375.58 324.835 393.855 320.931 410.953C320.615 412.459 314.464 437.812 300.302 455.783L300.283 455.808C300.238 455.865 300.099 456.042 299.922 456.276C299.802 456.441 299.682 456.606 299.561 456.77L299.511 456.84L299.435 456.878C290.177 461.144 278.995 463.638 266.2 464.284C264.118 464.392 262.074 464.442 260.068 464.442V464.436ZM232.655 459.676C242.185 462.955 253.462 464.29 266.162 463.645C278.837 462.999 289.917 460.543 299.087 456.327C299.194 456.181 299.302 456.036 299.409 455.89C299.587 455.65 299.732 455.473 299.776 455.416L300.042 455.593L299.795 455.397C314.211 437.109 320.254 411.08 320.311 410.814C324.184 393.862 324.234 375.739 320.469 358.407C315.628 356.4 310.667 355.33 305.725 355.235C300.302 355.121 296.752 356.198 292.968 357.331C291.335 357.818 289.645 358.324 287.785 358.742C279.305 360.629 276.388 360.477 270.585 360.173C267.586 360.015 263.865 359.825 258.176 359.85C255.575 359.863 253.443 359.806 251.38 359.755C244.368 359.571 238.831 359.432 221.543 362.11C214.861 363.148 208.103 363.965 201.452 364.547C198.807 390.595 202.034 428.063 232.212 459.207C232.371 459.372 232.516 459.524 232.649 459.682L232.655 459.676Z" fill="#060606"/>
<path d="M231.168 441.331C229.877 441.331 228.821 440.28 228.821 438.983C228.821 437.685 229.871 436.634 231.168 436.634C232.465 436.634 233.516 437.685 233.516 438.983C233.516 440.28 232.465 441.331 231.168 441.331ZM231.168 436.957C230.048 436.957 229.137 437.869 229.137 438.989C229.137 440.109 230.048 441.021 231.168 441.021C232.288 441.021 233.2 440.109 233.2 438.989C233.2 437.869 232.288 436.957 231.168 436.957Z" fill="white"/>
<path d="M302.105 370.453C300.814 370.453 299.757 369.402 299.757 368.104C299.757 366.807 300.808 365.756 302.105 365.756C303.402 365.756 304.453 366.807 304.453 368.104C304.453 369.402 303.402 370.453 302.105 370.453ZM302.105 366.079C300.985 366.079 300.074 366.99 300.074 368.111C300.074 369.231 300.985 370.143 302.105 370.143C303.225 370.143 304.136 369.231 304.136 368.111C304.136 366.99 303.225 366.079 302.105 366.079Z" fill="white"/>
<path d="M265.979 454.27C264.688 454.27 263.631 453.219 263.631 451.921C263.631 450.624 264.681 449.573 265.979 449.573C267.276 449.573 268.326 450.624 268.326 451.921C268.326 453.219 267.276 454.27 265.979 454.27ZM265.979 449.889C264.859 449.889 263.947 450.801 263.947 451.921C263.947 453.042 264.859 453.953 265.979 453.953C267.099 453.953 268.01 453.042 268.01 451.921C268.01 450.801 267.099 449.889 265.979 449.889Z" fill="white"/>
<path d="M205.293 381.562C204.002 381.562 202.945 380.511 202.945 379.214C202.945 377.916 203.996 376.865 205.293 376.865C206.59 376.865 207.641 377.916 207.641 379.214C207.641 380.511 206.59 381.562 205.293 381.562ZM205.293 377.182C204.173 377.182 203.262 378.093 203.262 379.214C203.262 380.334 204.173 381.246 205.293 381.246C206.413 381.246 207.324 380.334 207.324 379.214C207.324 378.093 206.413 377.182 205.293 377.182Z" fill="white"/>
<path d="M255.658 394.09C254.367 394.09 253.31 393.039 253.31 391.741C253.31 390.443 254.36 389.393 255.658 389.393C256.955 389.393 258.005 390.443 258.005 391.741C258.005 393.039 256.955 394.09 255.658 394.09ZM255.658 389.715C254.537 389.715 253.626 390.627 253.626 391.747C253.626 392.868 254.537 393.779 255.658 393.779C256.778 393.779 257.689 392.868 257.689 391.747C257.689 390.627 256.778 389.715 255.658 389.715Z" fill="white"/>
<path d="M247.627 372.922C245.59 372.922 243.932 371.263 243.932 369.225C243.932 367.187 245.59 365.528 247.627 365.528C249.665 365.528 251.323 367.187 251.323 369.225C251.323 371.263 249.665 372.922 247.627 372.922ZM247.627 365.838C245.761 365.838 244.248 367.357 244.248 369.219C244.248 371.08 245.767 372.599 247.627 372.599C249.488 372.599 251.007 371.08 251.007 369.219C251.007 367.357 249.488 365.838 247.627 365.838Z" fill="white"/>
<path d="M298.505 431.665C296.467 431.665 294.809 430.006 294.809 427.968C294.809 425.93 296.467 424.271 298.505 424.271C300.542 424.271 302.2 425.93 302.2 427.968C302.2 430.006 300.542 431.665 298.505 431.665ZM298.505 424.582C296.638 424.582 295.125 426.101 295.125 427.962C295.125 429.823 296.644 431.342 298.505 431.342C300.365 431.342 301.884 429.823 301.884 427.962C301.884 426.101 300.365 424.582 298.505 424.582Z" fill="white"/>
<path d="M313.881 496.536C313.483 495.852 312.413 495.466 311.717 495.966C306.56 499.676 300.112 500.511 293.961 501.233C293.113 501.334 292.379 501.891 292.379 502.815C292.379 503.594 293.107 504.499 293.961 504.398C300.643 503.619 307.699 502.739 313.312 498.701C314.002 498.201 314.337 497.321 313.881 496.536Z" fill="white"/>
<path d="M247.741 471.994C247.286 470.013 244.236 470.848 244.691 472.836C246.096 478.951 246.64 485.205 246.337 491.472C246.242 493.51 249.406 493.504 249.501 491.472C249.811 484.933 249.209 478.375 247.741 471.994Z" fill="white"/>
<path d="M317.64 387.177C317.615 381.233 317.09 375.295 316.096 369.434C315.951 368.592 314.964 368.085 314.179 368.275C313.299 368.491 312.882 369.345 313.021 370.193C314.723 380.214 314.913 390.469 313.692 400.553C312.47 410.636 309.787 420.549 305.794 429.886C303.548 435.134 300.852 440.192 297.77 444.996C296.669 446.718 299.359 448.383 300.46 446.667C306.104 437.843 310.445 428.171 313.337 418.1C316.21 408.073 317.685 397.609 317.64 387.171V387.177Z" fill="white"/>
<path d="M322.981 332.548C322.519 326.294 318.393 318.78 306.37 320.103C308.477 311.171 298.561 305.462 291.721 311.494C289.892 294.289 255.835 289.681 247.868 308.247C234.718 295.479 206.932 310.127 217.607 327.763C215.766 327.085 213.735 326.699 211.602 326.687C203.148 326.617 196.269 332.327 196.25 339.442C196.225 346.557 203.059 352.374 211.52 352.444C211.836 352.444 212.153 352.444 212.469 352.425L212.64 353.9C212.899 356.153 215.285 357.812 217.962 357.609C220.638 357.407 222.594 355.413 222.334 353.159L222.157 351.652L225.872 351.482L226.758 359.135C227.017 361.388 229.403 363.047 232.079 362.844C234.756 362.642 236.712 360.648 236.452 358.394L235.857 353.273C235.724 352.115 236.775 351.133 238.034 351.247C238.414 351.716 241.312 355.159 246.387 355.356C250.747 355.527 253.633 353.178 254.202 352.697C254.411 352.697 255.512 352.678 256.436 353.469C257.024 353.969 257.404 354.678 257.436 355.47L258.088 371.099C258.182 373.365 259.891 375.371 262.302 375.833C265.371 376.422 267.947 374.333 267.833 371.605L267.023 352.146C266.966 350.804 268.023 349.608 269.472 349.475C271.275 349.31 272.851 350.564 272.958 352.21L273.205 355.976C273.351 358.236 275.648 359.977 278.331 359.869C281.014 359.761 283.077 357.843 282.925 355.583L282.488 348.867C283.57 349.538 286.95 351.444 291.683 351.254C296.524 351.057 299.732 348.785 300.713 348.025L300.776 349C300.922 351.26 303.219 353.001 305.902 352.893C308.585 352.786 310.648 350.868 310.496 348.608C310.458 348.013 311.116 345.709 311.445 345.531C312.565 344.911 313.825 344.601 314.951 344.012C316.976 342.942 318.843 341.581 320.298 339.891C322.095 337.815 323.19 335.232 322.994 332.542L322.981 332.548Z" fill="white"/>
<path d="M263.314 376.245C262.954 376.245 262.587 376.213 262.22 376.137C259.733 375.663 257.853 373.548 257.752 371.105L257.1 355.476C257.075 354.799 256.759 354.172 256.214 353.703C255.506 353.096 254.664 353.013 254.303 353.007C253.202 353.919 250.412 355.837 246.362 355.666C241.533 355.482 238.597 352.412 237.87 351.551C237.351 351.545 236.908 351.722 236.572 352.064C236.256 352.387 236.11 352.798 236.161 353.229L236.756 358.35C236.876 359.401 236.553 360.445 235.851 361.306C234.978 362.363 233.611 363.034 232.092 363.154C229.251 363.376 226.713 361.584 226.435 359.166L225.581 351.804L222.499 351.944L222.632 353.115C222.752 354.166 222.429 355.21 221.727 356.071C220.854 357.128 219.487 357.799 217.968 357.919C215.139 358.141 212.589 356.349 212.311 353.931L212.172 352.748C211.95 352.754 211.722 352.76 211.501 352.754C202.882 352.684 195.896 346.709 195.921 339.435C195.934 336.321 197.25 333.314 199.629 330.959C202.616 328.003 206.97 326.345 211.596 326.37C213.424 326.383 215.209 326.661 216.905 327.193C212.475 319.116 216.12 312.039 221.132 308.044C224.828 305.101 229.713 303.303 234.528 303.113C239.641 302.917 244.311 304.544 247.748 307.703C252.266 297.828 263.966 294.865 273.686 296.334C283.754 297.853 290.848 303.531 291.955 310.874C295.17 308.329 299.308 307.956 302.649 309.962C306.003 311.975 307.56 315.691 306.769 319.736C311.711 319.268 315.691 320.255 318.596 322.68C322.285 325.75 323.127 330.162 323.298 332.517C323.487 335.118 322.507 337.809 320.526 340.094C319.134 341.702 317.305 343.113 315.084 344.284C314.527 344.582 313.932 344.803 313.363 345.025C312.768 345.253 312.148 345.493 311.584 345.803C311.357 346.038 310.768 348.076 310.8 348.582C310.869 349.633 310.496 350.665 309.749 351.494C308.825 352.52 307.421 353.146 305.902 353.203C303.035 353.317 300.605 351.437 300.447 349.013L300.422 348.614C298.783 349.772 295.783 351.393 291.683 351.558C287.671 351.716 284.57 350.412 282.83 349.431L283.229 355.552C283.298 356.603 282.925 357.634 282.178 358.464C281.254 359.489 279.85 360.116 278.331 360.173C275.477 360.293 273.034 358.407 272.876 355.982L272.629 352.216C272.585 351.545 272.269 350.925 271.731 350.462C271.13 349.95 270.313 349.696 269.491 349.772C268.225 349.886 267.276 350.918 267.326 352.115L268.136 371.573C268.193 372.903 267.636 374.162 266.624 375.042C265.725 375.815 264.561 376.226 263.321 376.226L263.314 376.245ZM254.265 352.374C254.74 352.374 255.746 352.475 256.626 353.222C257.303 353.805 257.702 354.596 257.733 355.451L258.385 371.08C258.474 373.232 260.138 375.093 262.34 375.517C263.783 375.796 265.194 375.454 266.2 374.58C267.086 373.821 267.542 372.763 267.497 371.618L266.687 352.159C266.624 350.621 267.826 349.304 269.427 349.158C270.421 349.07 271.402 349.374 272.136 350C272.806 350.57 273.205 351.349 273.256 352.191L273.503 355.957C273.635 358.04 275.819 359.66 278.299 359.559C279.653 359.502 280.894 358.957 281.704 358.059C282.336 357.356 282.653 356.489 282.596 355.609L282.121 348.279L282.646 348.601C284.178 349.551 287.405 351.114 291.658 350.944C296.018 350.766 299.074 348.886 300.51 347.785L300.979 347.424L301.08 348.994C301.213 351.076 303.364 352.697 305.877 352.596C307.231 352.539 308.471 351.994 309.281 351.095C309.914 350.393 310.23 349.526 310.173 348.646C310.135 348.101 310.755 345.563 311.287 345.272C311.888 344.943 312.527 344.696 313.141 344.461C313.723 344.24 314.268 344.025 314.793 343.753C316.944 342.613 318.716 341.252 320.051 339.708C321.918 337.549 322.848 335.017 322.671 332.593C322.507 330.333 321.703 326.111 318.197 323.192C315.343 320.819 311.376 319.888 306.408 320.439L305.965 320.489L306.066 320.053C307.174 315.349 304.864 312.051 302.333 310.532C299.074 308.576 294.992 309.057 291.93 311.754L291.468 312.159L291.404 311.551C290.626 304.221 283.634 298.505 273.597 296.986C263.992 295.536 252.399 298.499 248.153 308.393L247.969 308.817L247.64 308.494C241.875 302.898 230.535 301.391 221.531 308.557C215.108 313.672 213.741 320.793 217.873 327.617L218.341 328.389L217.493 328.079C215.627 327.389 213.64 327.035 211.596 327.022C207.147 326.984 202.952 328.592 200.079 331.434C197.82 333.669 196.567 336.524 196.56 339.461C196.535 346.386 203.243 352.077 211.513 352.146C211.83 352.146 212.134 352.146 212.444 352.127L212.735 352.115L212.937 353.881C213.178 355.963 215.405 357.502 217.917 357.312C219.259 357.21 220.474 356.622 221.233 355.697C221.828 354.976 222.1 354.096 221.999 353.216L221.784 351.374L226.131 351.171L227.055 359.122C227.295 361.205 229.536 362.743 232.035 362.553C233.383 362.452 234.592 361.863 235.351 360.932C235.946 360.211 236.218 359.331 236.117 358.451L235.522 353.33C235.452 352.716 235.667 352.102 236.11 351.646C236.604 351.14 237.306 350.887 238.04 350.95L238.173 350.963L238.256 351.064C238.774 351.697 241.584 354.868 246.374 355.052C250.298 355.197 252.993 353.292 253.968 352.463L254.05 352.393H254.164C254.164 352.393 254.221 352.393 254.253 352.393L254.265 352.374Z" fill="#060606"/>
<path d="M305.035 338.758L304.415 338.631C304.75 336.986 304.485 335.321 303.675 333.947C302.871 332.58 301.618 331.668 300.15 331.371C297.973 330.928 295.708 331.96 294.372 333.998L293.904 334.713L293.797 333.865C293.461 331.232 291.658 329.149 289.316 328.674C287.798 328.364 286.241 328.738 284.931 329.706C283.608 330.687 282.691 332.162 282.349 333.859L281.729 333.732C282.102 331.877 283.109 330.269 284.558 329.2C286.019 328.117 287.753 327.712 289.443 328.054C291.828 328.535 293.708 330.497 294.296 333.042C295.809 331.194 298.093 330.301 300.283 330.751C301.928 331.086 303.326 332.105 304.225 333.631C305.117 335.144 305.408 336.967 305.041 338.764L305.035 338.758Z" fill="#060606"/>
<path d="M227.928 324.699C227.675 323.11 227.998 321.528 228.833 320.243C229.675 318.945 230.94 318.103 232.396 317.869C234.421 317.546 236.465 318.514 237.699 320.318C238.37 318.438 239.907 317.09 241.761 316.793C244.672 316.33 247.444 318.559 247.95 321.762L247.324 321.863C246.874 319.008 244.419 317.014 241.856 317.419C240.028 317.71 238.553 319.179 238.104 321.167L237.914 322.002L237.515 321.243C236.484 319.28 234.465 318.173 232.491 318.489C231.219 318.692 230.105 319.439 229.359 320.584C228.605 321.743 228.321 323.167 228.549 324.598L227.922 324.699H227.928Z" fill="#060606"/>
<path d="M265.706 398.071C265.833 401.198 266.25 404.186 266.909 406.99C267.32 408.731 267.807 410.39 268.396 411.959C270.484 417.631 273.629 422.107 277.337 424.67C279.837 426.386 282.577 427.253 285.437 427.031C295.612 426.246 303.288 412.016 302.573 395.248C301.858 378.473 293.024 365.509 282.842 366.294C282.115 366.351 281.393 366.478 280.691 366.661C278.793 367.18 277.008 368.168 275.375 369.554C274.211 370.542 273.129 371.725 272.142 373.08C272.123 373.086 272.116 373.105 272.11 373.118C267.839 378.999 265.289 388.089 265.713 398.071H265.706Z" fill="white"/>
<path d="M284.545 427.38C282.007 427.38 279.52 426.557 277.154 424.93C273.414 422.341 270.193 417.777 268.098 412.067C267.522 410.522 267.023 408.839 266.605 407.06C265.928 404.173 265.523 401.154 265.39 398.084C264.979 388.468 267.396 379.068 271.851 372.934L271.901 372.871C272.908 371.497 274.009 370.301 275.173 369.313C276.875 367.87 278.704 366.876 280.615 366.357C281.343 366.161 282.089 366.035 282.824 365.978C286.304 365.712 289.753 367.009 292.815 369.725C298.669 374.916 302.434 384.455 302.896 395.235C303.617 412.149 295.802 426.557 285.469 427.348C285.165 427.373 284.861 427.386 284.551 427.386L284.545 427.38ZM272.338 373.327C267.972 379.397 265.624 388.614 266.023 398.052C266.149 401.084 266.548 404.066 267.219 406.914C267.63 408.668 268.13 410.326 268.693 411.845C270.75 417.435 273.882 421.891 277.514 424.404C280.046 426.145 282.697 426.917 285.412 426.709C295.41 425.943 302.959 411.826 302.25 395.254C301.795 384.645 298.106 375.276 292.379 370.193C289.449 367.592 286.158 366.345 282.861 366.604C282.165 366.661 281.463 366.781 280.767 366.965C278.951 367.459 277.204 368.408 275.572 369.788C274.439 370.744 273.37 371.915 272.389 373.257L272.332 373.32L272.338 373.327Z" fill="#060606"/>
<path d="M265.706 398.071C265.833 401.198 266.25 404.186 266.909 406.99C267.32 408.731 267.807 410.39 268.396 411.959C276.616 417.84 289.405 410.352 289.867 397.071L279.09 389.76L291.904 390.678C291.942 390.424 291.999 390.165 292.031 389.912C293.575 379.828 288.962 370.763 281.128 366.674C278.995 367.256 276.995 368.37 275.16 369.915C274.091 370.826 273.078 371.89 272.135 373.086C272.116 373.093 272.11 373.112 272.104 373.124C267.832 379.005 265.282 388.095 265.706 398.078V398.071Z" fill="#AADC66"/>
<path d="M274.768 414.295C272.408 414.295 270.142 413.599 268.206 412.219L268.13 412.162L268.098 412.073C267.522 410.529 267.023 408.845 266.605 407.066C265.928 404.18 265.523 401.16 265.39 398.09C264.979 388.475 267.396 379.075 271.851 372.941L271.901 372.871C272.863 371.649 273.895 370.573 274.958 369.668C276.875 368.054 278.919 366.946 281.045 366.364L281.166 366.332L281.273 366.389C289.531 370.706 293.872 379.954 292.341 389.956C292.322 390.108 292.29 390.272 292.265 390.431C292.246 390.526 292.227 390.627 292.214 390.722L292.17 391.007L280.242 390.152L290.189 396.9V397.077C289.943 404.034 286.272 410.092 280.602 412.884C278.691 413.827 276.698 414.295 274.768 414.295ZM268.655 411.757C272.009 414.112 276.255 414.321 280.324 412.314C285.734 409.649 289.253 403.882 289.544 397.229L277.938 389.355L291.645 390.336C291.645 390.336 291.645 390.323 291.645 390.317C291.67 390.165 291.702 390.019 291.721 389.867C293.208 380.17 289.038 371.219 281.096 367.003C279.103 367.566 277.179 368.624 275.369 370.149C274.331 371.029 273.325 372.086 272.389 373.276L272.338 373.333C267.972 379.404 265.624 388.62 266.023 398.059C266.149 401.091 266.548 404.072 267.219 406.921C267.624 408.636 268.111 410.269 268.655 411.763V411.757Z" fill="#060606"/>
<path d="M208.805 400.344C209.058 403.458 209.596 406.427 210.362 409.206C210.843 410.928 211.399 412.573 212.045 414.124C214.361 419.72 217.683 424.094 221.505 426.544C224.074 428.183 226.852 428.968 229.713 428.665C239.869 427.595 247.001 413.181 245.615 396.476C244.235 379.771 234.876 367.092 224.707 368.161C223.979 368.237 223.264 368.389 222.568 368.592C220.683 369.162 218.936 370.2 217.354 371.624C216.228 372.643 215.19 373.852 214.253 375.232C214.234 375.238 214.228 375.257 214.222 375.276C210.178 381.265 207.982 390.399 208.799 400.344H208.805Z" fill="white"/>
<path d="M228.491 429.051C226.061 429.051 223.657 428.304 221.328 426.816C217.481 424.341 214.076 419.878 211.747 414.251C211.108 412.725 210.539 411.061 210.052 409.301C209.261 406.446 208.729 403.445 208.482 400.382C207.691 390.804 209.741 381.36 213.956 375.112L214 375.049C214.956 373.65 216.013 372.422 217.139 371.409C218.791 369.921 220.581 368.877 222.473 368.307C223.195 368.092 223.935 367.946 224.669 367.864C228.143 367.497 231.655 368.699 234.838 371.333C240.894 376.346 245.039 385.746 245.925 396.47C247.317 413.32 240.059 427.911 229.738 429C229.32 429.044 228.903 429.063 228.485 429.063L228.491 429.051ZM214.462 375.485C210.33 381.664 208.343 390.918 209.115 400.325C209.362 403.344 209.881 406.307 210.665 409.124C211.146 410.858 211.709 412.497 212.336 414.004C214.614 419.518 217.93 423.879 221.67 426.278C224.271 427.943 226.966 428.639 229.675 428.354C239.654 427.304 246.659 413.017 245.299 396.508C244.425 385.949 240.369 376.72 234.44 371.808C231.396 369.282 228.036 368.136 224.739 368.484C224.043 368.56 223.34 368.699 222.657 368.902C220.86 369.446 219.145 370.447 217.569 371.871C216.474 372.858 215.449 374.055 214.519 375.422L214.469 375.485H214.462Z" fill="#060606"/>
<path d="M208.805 400.344C209.058 403.458 209.596 406.427 210.362 409.206C210.843 410.928 211.399 412.573 212.045 414.124C219.24 419.138 231.896 415.979 232.965 398.66L221.885 391.671L234.756 392.216C234.788 391.963 234.832 391.703 234.851 391.45C236.003 381.347 231.016 372.441 223.011 368.586C220.898 369.225 218.942 370.396 217.164 371.985C216.126 372.922 215.158 374.017 214.26 375.232C214.241 375.238 214.234 375.257 214.228 375.276C210.184 381.265 207.989 390.399 208.805 400.344Z" fill="#AADC66"/>
<path d="M218.942 416.599C216.449 416.599 213.975 415.852 211.868 414.384L211.792 414.333L211.754 414.251C211.115 412.725 210.545 411.054 210.058 409.294C209.267 406.44 208.735 403.439 208.489 400.375C207.698 390.798 209.748 381.353 213.962 375.105L214.013 375.042C214.93 373.795 215.918 372.694 216.949 371.757C218.803 370.092 220.809 368.927 222.916 368.288L223.037 368.25L223.151 368.301C231.592 372.365 236.306 381.467 235.167 391.488C235.155 391.64 235.129 391.804 235.11 391.963C235.098 392.058 235.085 392.159 235.073 392.254L235.041 392.545L223.068 392.039L233.301 398.489L233.288 398.679C232.605 409.756 227.397 413.89 224.347 415.359C222.638 416.188 220.79 416.593 218.949 416.593L218.942 416.599ZM212.304 413.915C215.772 416.289 220.271 416.631 224.068 414.795C226.973 413.39 231.934 409.446 232.636 398.831L220.708 391.311L234.478 391.893C234.478 391.893 234.478 391.88 234.478 391.874C234.497 391.722 234.522 391.576 234.535 391.424C235.642 381.714 231.111 372.896 222.986 368.921C221.012 369.541 219.126 370.649 217.373 372.219C216.373 373.124 215.405 374.207 214.507 375.422L214.462 375.479C210.33 381.657 208.343 390.912 209.115 400.318C209.362 403.338 209.881 406.3 210.665 409.117C211.14 410.82 211.691 412.428 212.298 413.909L212.304 413.915Z" fill="#060606"/>
<path d="M262.525 414.596C264.364 410.896 262.857 406.405 259.158 404.565C255.459 402.725 250.97 404.233 249.13 407.933C247.291 411.633 248.798 416.124 252.497 417.964C256.196 419.804 260.686 418.296 262.525 414.596Z" fill="#FFBF00"/>
<path d="M255.841 419.081C252.582 419.081 249.538 417.024 248.444 413.764C247.779 411.789 247.925 409.674 248.855 407.813C249.785 405.946 251.38 404.56 253.354 403.895C255.329 403.23 257.442 403.376 259.309 404.306C261.176 405.237 262.568 406.832 263.226 408.807C264.593 412.884 262.391 417.315 258.315 418.682C257.493 418.954 256.664 419.087 255.841 419.087V419.081ZM255.841 404.11C255.075 404.11 254.303 404.237 253.557 404.484C251.741 405.091 250.273 406.37 249.425 408.085C248.57 409.801 248.437 411.744 249.045 413.555C250.304 417.302 254.367 419.328 258.113 418.068C261.859 416.808 263.878 412.744 262.625 408.997C262.017 407.18 260.739 405.712 259.024 404.863C258.018 404.363 256.936 404.11 255.841 404.11Z" fill="#060606"/>
<path d="M271.585 435.843C264.877 444.097 250.348 444.718 243.299 438.66C237.654 433.811 237.635 425.943 241.635 423.569C249.513 418.885 256.284 427 256.284 427C256.284 427 265.371 416.454 272.667 422.923C275.085 425.069 275.793 430.665 271.585 435.843Z" fill="white"/>
<path d="M255.632 443.015C250.734 443.015 246.166 441.534 243.096 438.9C239.97 436.21 238.224 432.26 238.547 428.576C238.755 426.202 239.819 424.278 241.476 423.297C244.799 421.322 248.463 421.303 252.07 423.246C254.215 424.404 255.727 425.911 256.29 426.519C257.366 425.348 261.815 420.853 266.801 420.518C269.054 420.366 271.092 421.094 272.876 422.676C275.616 425.107 275.996 430.905 271.826 436.033C268.7 439.882 263.593 442.388 257.815 442.907C257.081 442.971 256.347 443.009 255.626 443.009L255.632 443.015ZM246.71 422.417C245.033 422.417 243.394 422.892 241.799 423.835C240.318 424.715 239.363 426.462 239.173 428.627C238.869 432.108 240.527 435.856 243.508 438.413C246.9 441.331 252.234 442.774 257.765 442.281C263.371 441.781 268.32 439.356 271.338 435.64C274.002 432.355 275.876 426.189 272.458 423.157C270.807 421.689 268.921 421.018 266.845 421.157C261.492 421.518 256.575 427.145 256.531 427.202L256.29 427.487L256.05 427.202C256.05 427.202 254.354 425.196 251.759 423.797C250.051 422.879 248.368 422.423 246.716 422.423L246.71 422.417Z" fill="#060606"/>
<path d="M256.638 426.725L256.006 426.762L256.921 442.592L257.553 442.556L256.638 426.725Z" fill="#060606"/>
<path d="M266.673 420.823L266.043 420.882L267.721 439.117L268.351 439.059L266.673 420.823Z" fill="#060606"/>
<path d="M247.039 422.26L246.406 422.29L247.316 441.1L247.948 441.07L247.039 422.26Z" fill="#060606"/>
</svg>
