<svg width="311" height="388" viewBox="0 0 311 388" fill="none" xmlns="http://www.w3.org/2000/svg">
<g clip-path="url(#clip0_197_2947)">
<path d="M96.067 307.171C110.255 315.835 125.08 326.048 141.756 329.014C145.618 329.704 153.554 330.63 156.422 326.837C157.992 324.758 158.228 318.749 158.357 316.366C158.865 306.837 154.358 297.922 150.709 289.372C146.49 279.501 161.467 272.043 165.708 281.967C172.946 298.916 184.79 333.672 161.331 344.461C137.644 355.356 105.695 332.618 86.697 321.017C77.5167 315.411 86.8943 301.557 96.0822 307.171H96.067Z" fill="#060606"/>
<path d="M147.553 347.693C128.631 347.693 107.402 334.408 92.319 324.97C90.2629 323.688 88.3131 322.466 86.477 321.344C81.7503 318.46 81.8261 313.483 83.905 310.077C86.2873 306.177 91.2948 303.81 96.2567 306.845C97.9789 307.892 99.7088 308.969 101.446 310.046C114.124 317.907 127.227 326.04 141.809 328.635C146.012 329.378 153.448 330.114 156.103 326.601C157.53 324.72 157.818 319.113 157.939 316.723L157.962 316.344C158.41 308.013 154.965 300.138 151.642 292.52C151.202 291.511 150.762 290.51 150.337 289.516C149.04 286.474 149.381 283.386 151.301 280.829C153.326 278.135 156.801 276.58 159.935 276.952C162.674 277.278 164.836 279.008 166.035 281.808C171.512 294.622 174.653 305.957 175.389 315.486C176.52 330.167 171.831 340.03 161.467 344.803C157.074 346.828 152.386 347.693 147.545 347.693H147.553ZM91.6286 306.238C88.6696 306.238 86.0521 308.028 84.5575 310.479C82.6076 313.673 82.5697 318.074 86.8791 320.699C88.7152 321.822 90.665 323.043 92.7287 324.325C111.529 336.093 139.943 353.877 161.164 344.112C171.209 339.492 175.746 329.879 174.646 315.547C173.918 306.101 170.792 294.85 165.352 282.111C164.267 279.569 162.317 278.006 159.859 277.711C156.983 277.362 153.789 278.803 151.923 281.292C150.17 283.621 149.867 286.443 151.05 289.228C151.475 290.222 151.915 291.223 152.348 292.232C155.709 299.925 159.184 307.884 158.728 316.397L158.706 316.776C158.569 319.447 158.281 325.008 156.718 327.079C153.964 330.721 147.022 330.349 141.688 329.401C126.961 326.783 113.79 318.612 101.059 310.714C99.3218 309.637 97.592 308.559 95.8697 307.512C94.4358 306.64 92.9943 306.253 91.6286 306.253V306.238Z" fill="#060606"/>
<path d="M111.939 313.127C111.939 313.127 125.869 309.599 112.849 328.149C98.8969 348.035 100.111 329.651 100.111 329.651L96.3325 331.343C96.3325 331.343 96.8181 364.719 75.0281 360.318C53.2381 355.918 67.2817 331.146 77.3346 317.064C87.3874 302.983 95.3613 285.715 111.939 313.127Z" fill="#FF6600"/>
<path d="M78.8217 361.092C77.5926 361.092 76.3028 360.955 74.9599 360.682C69.2924 359.537 65.6202 356.934 64.0421 352.936C60.2866 343.407 69.0268 328.043 77.0311 316.837C78.0175 315.464 78.9886 314.037 79.9294 312.656C85.0734 305.145 89.9443 298.051 96.1656 298.218C101.059 298.355 106.279 303.089 112.121 312.694C113.145 312.482 116.696 311.943 118.168 314.075C119.814 316.473 118.13 321.275 113.161 328.362C108.191 335.44 104.625 338.475 102.25 337.633C99.7998 336.768 99.6784 331.981 99.7164 330.243L96.7195 331.586C96.7195 332.641 96.636 336.867 95.718 341.745C94.7317 346.95 92.5618 353.983 87.7896 357.943C85.2631 360.037 82.2586 361.092 78.8217 361.092ZM95.938 298.977C90.2022 298.977 85.5134 305.836 80.5515 313.089C79.6031 314.47 78.632 315.896 77.6381 317.284C71.1815 326.336 60.9163 342.967 64.7402 352.663C66.2196 356.403 69.7021 358.854 75.104 359.946C79.9521 360.925 84.0567 360.06 87.2964 357.367C96.1125 350.045 95.9532 331.541 95.9532 331.351V331.1L100.528 329.052L100.49 329.682C100.376 331.457 100.505 336.229 102.501 336.927C103.866 337.405 106.712 336.237 112.538 327.937C118.479 319.47 118.54 315.964 117.546 314.515C116.15 312.489 112.076 313.491 112.03 313.499L111.757 313.567L111.613 313.324C105.854 303.802 100.794 299.114 96.1429 298.985C96.0746 298.985 96.0063 298.985 95.938 298.985V298.977Z" fill="#060606"/>
<path d="M96.3021 331.343C95.9455 330.471 95.7255 329.591 95.5434 328.703C95.3537 327.815 95.2399 326.92 95.1413 326.025C95.0654 325.129 95.0123 324.227 95.0275 323.324C95.0351 322.421 95.0882 321.51 95.2703 320.585H95.3462L95.9 325.956L96.378 331.343H96.3021Z" fill="#060606"/>
<path d="M96.3099 331.366C95.5815 331.07 94.9442 330.683 94.3297 330.266C93.7151 329.849 93.1461 329.378 92.5922 328.893C92.0535 328.392 91.5225 327.876 91.0445 327.307C90.5589 326.745 90.1113 326.146 89.7395 325.456L89.7926 325.403L93.1006 328.331L96.3554 331.313L96.3023 331.366H96.3099Z" fill="#060606"/>
<path d="M86.8034 353.406C86.1812 354.036 85.4529 354.544 84.7017 355.007C84.3224 355.242 83.9127 355.409 83.5106 355.614C83.1009 355.796 82.6836 355.948 82.2663 356.123C80.5668 356.714 78.7004 356.866 76.8871 356.646C76.4319 356.608 75.9918 356.479 75.5518 356.35C75.1117 356.221 74.6641 356.13 74.2544 355.918L73.0101 355.371C72.6156 355.151 72.2438 354.886 71.8721 354.635L71.3182 354.256L70.8175 353.808L69.8312 352.913C69.5201 352.602 69.2697 352.223 68.989 351.889C68.7159 351.548 68.4503 351.191 68.2 350.842L68.2606 350.789C68.8752 351.396 69.4518 352.041 70.0967 352.617L71.1134 353.422L71.6217 353.816L72.1756 354.142C72.5473 354.355 72.9191 354.582 73.2908 354.795L74.482 355.288C74.869 355.478 75.3014 355.553 75.7111 355.66C76.1284 355.774 76.5457 355.88 76.9706 355.91C78.6701 356.168 80.4227 356.031 82.0842 355.569C83.7382 355.098 85.3315 354.362 86.7351 353.361L86.7806 353.422L86.8034 353.406Z" fill="white"/>
<path d="M213.977 266.596C254.272 276.421 264.287 335.911 254.454 369.369C251.518 379.369 236.64 372.768 239.561 362.829C243.696 348.763 242.019 330.645 238.013 316.488C234.591 304.379 225.236 286.003 211.633 282.688C201.557 280.229 203.795 264.115 213.977 266.596Z" fill="#060606"/>
<path d="M248.271 374.711C245.85 374.711 243.233 373.573 241.366 371.608C239.045 369.172 238.248 365.933 239.196 362.723C242.861 350.235 242.284 332.99 237.649 316.586C235.668 309.576 232.269 302.255 228.332 296.496C223.302 289.144 217.497 284.493 211.549 283.044C207.308 282.012 203.575 277.711 205.017 271.785C205.905 268.128 209.046 264.987 214.068 266.216C227.133 269.403 238.157 278.226 245.949 291.739C259.735 315.661 260.85 348.945 254.818 369.468C254.029 372.146 252.299 373.937 249.94 374.513C249.401 374.642 248.847 374.703 248.278 374.703L248.271 374.711ZM211.906 266.709C208.355 266.709 206.383 269.38 205.753 271.975C204.759 276.041 206.519 281.041 211.724 282.316C217.854 283.811 223.817 288.568 228.954 296.071C232.937 301.89 236.374 309.295 238.377 316.382C243.051 332.914 243.627 350.318 239.925 362.936C239.06 365.879 239.788 368.846 241.92 371.084C244.045 373.315 247.201 374.4 249.765 373.778C251.237 373.421 253.187 372.344 254.09 369.256C260.076 348.892 258.976 315.851 245.289 292.118C237.603 278.788 226.746 270.093 213.886 266.952C213.18 266.778 212.52 266.702 211.906 266.702V266.709Z" fill="#060606"/>
<path d="M239.189 359.18C239.189 359.18 225.904 349.218 251.882 349.158C279.726 349.097 262.496 359.324 262.496 359.324L266.753 361.578C266.753 361.578 296.069 340.645 308.034 362.329C319.998 384.012 287.738 386.994 267.898 386.896C248.058 386.797 226.89 390.461 239.189 359.18Z" fill="#FF6600"/>
<path d="M257.261 387.366C248.445 387.366 240.638 386.691 237.11 381.592C234.075 377.199 234.599 369.908 238.726 359.301C237.823 358.573 234.682 355.781 235.555 353.156C236.511 350.273 242.004 348.793 251.867 348.778C262.011 348.725 267.299 350.053 268.042 352.754C268.763 355.371 264.757 358.292 263.232 359.294L266.707 361.13C268.596 359.84 283.823 349.787 296.297 352.617C301.456 353.786 305.507 356.995 308.352 362.139C311.402 367.662 311.804 372.389 309.551 376.183C304.02 385.499 283.861 387.358 267.883 387.275C265.941 387.267 263.961 387.29 262.049 387.32C260.425 387.343 258.824 387.366 257.246 387.366H257.261ZM252.14 349.537C252.057 349.537 251.965 349.537 251.882 349.537C240.046 349.567 236.867 351.654 236.291 353.399C235.471 355.872 239.386 358.846 239.424 358.877L239.652 359.051L239.546 359.317C235.426 369.802 234.834 376.949 237.74 381.16C241.662 386.835 251.571 386.698 262.056 386.562C263.976 386.539 265.956 386.509 267.906 386.516C280.773 386.577 303.284 385.279 308.914 375.796C311.015 372.253 310.613 367.784 307.7 362.511C304.969 357.556 301.076 354.484 296.145 353.361C283.216 350.425 267.132 361.767 266.973 361.881L266.783 362.018L261.722 359.339L262.307 358.99C263.908 358.042 267.929 355.098 267.329 352.944C266.897 351.381 263.907 349.522 252.14 349.522V349.537Z" fill="#060606"/>
<path d="M266.775 361.608C265.637 363.247 264.241 364.59 262.785 365.857C262.041 366.471 261.298 367.086 260.486 367.617L259.264 368.421C258.832 368.656 258.422 368.922 257.959 369.119L257.914 369.058L262.299 365.272L266.73 361.547L266.775 361.608Z" fill="#060606"/>
<path d="M266.791 361.578C267.018 362.367 267.117 363.156 267.178 363.937C267.238 364.719 267.231 365.5 267.2 366.282C267.147 367.063 267.079 367.837 266.942 368.611C266.806 369.385 266.631 370.159 266.32 370.917H266.244L266.442 366.244L266.715 361.578H266.791Z" fill="#060606"/>
<path d="M293.315 356.32C294.286 356.456 295.219 356.783 296.145 357.116C297.055 357.496 297.935 357.943 298.785 358.467C300.477 359.522 301.956 360.94 303.125 362.594C304.21 364.301 304.968 366.244 305.188 368.239C305.264 369.24 305.295 370.234 305.188 371.221C305.059 372.199 304.87 373.163 304.566 374.096L304.49 374.081C304.832 372.184 304.9 370.234 304.612 368.33C304.301 366.433 303.58 364.605 302.503 363.012C301.433 361.411 300.029 360.053 298.451 358.952C296.873 357.852 295.128 356.972 293.292 356.396L293.315 356.32Z" fill="white"/>
<path d="M141.711 282.832C143.274 286.041 144.852 289.258 146.415 292.467C158.554 293.492 175.238 293.643 194.57 289.979C213.446 286.39 228.62 280.351 239.409 275.078L241.002 264.061C228.719 270.875 212.915 277.574 193.849 281.299C174.085 285.169 156.263 284.766 141.711 282.832Z" fill="white"/>
<path d="M161.369 293.484C156.369 293.484 151.369 293.272 146.384 292.854L146.172 292.839L146.081 292.642C145.292 291.026 144.503 289.41 143.714 287.794C142.932 286.193 142.151 284.6 141.377 282.999L141.066 282.361L141.764 282.452C159.244 284.774 176.747 284.266 193.78 280.927C210.199 277.718 226.025 271.929 240.82 263.728L241.488 263.356L239.758 275.328L239.576 275.419C225.358 282.361 210.237 287.384 194.638 290.351C183.652 292.429 172.514 293.476 161.369 293.476V293.484ZM146.665 292.111C162.636 293.438 178.728 292.596 194.501 289.607C209.971 286.663 224.963 281.694 239.067 274.827L240.524 264.767C225.851 272.817 210.176 278.5 193.925 281.679C177.036 284.987 159.699 285.533 142.363 283.302C143.038 284.691 143.714 286.071 144.389 287.46C145.148 289.008 145.906 290.563 146.657 292.111H146.665Z" fill="#060606"/>
<path d="M264.795 247.946C253.551 257.134 229.371 274.349 193.849 281.314C155.102 288.871 123.874 280.085 110.073 275.282C106.894 253.09 103.715 230.921 100.528 208.729C93.5103 159.808 86.5151 110.872 79.4971 61.9276C81.5987 78.6039 117.447 87.807 159.555 82.4657C162.575 82.0863 165.549 81.6387 168.447 81.1304C180.154 79.1122 190.89 76.1154 200.116 72.5115C220.525 64.4465 233.332 53.3011 231.981 42.611L254.651 184.466L264.795 247.946Z" fill="#AADC66"/>
<path d="M163.243 284.653C141.407 284.653 123.024 280.192 109.951 275.639L109.731 275.563L100.157 208.782C96.2947 181.864 92.4405 154.93 88.5787 128.003C85.4453 106.137 82.3194 84.2716 79.1784 62.3982C79.1556 62.2541 79.1328 62.1175 79.1177 61.9733L79.8688 61.8747C79.8916 62.0113 79.9067 62.1478 79.9295 62.2844C81.1738 70.0004 89.914 76.3128 104.618 80.0836C119.693 83.953 139.192 84.6661 159.51 82.0866C162.537 81.7072 165.526 81.2596 168.379 80.7588C179.744 78.8014 190.374 75.9031 199.979 72.1551C221.063 63.8246 232.892 52.8006 231.602 42.6568L232.353 42.5505L265.197 248.106L265.03 248.243C250.698 259.949 226.723 275.26 193.917 281.686C183.128 283.788 172.848 284.653 163.235 284.653H163.243ZM110.414 274.994C129.169 281.496 158.789 287.763 193.773 280.935C226.291 274.562 250.099 259.418 264.385 247.787L232.232 46.5792C230.502 55.8885 218.977 65.471 200.252 72.8607C190.602 76.6315 179.927 79.5373 168.508 81.5024C165.64 82.0031 162.643 82.4507 159.601 82.8377C139.192 85.4248 119.594 84.7117 104.428 80.8119C92.0005 77.6254 83.7382 72.6028 80.5213 66.4117C83.4575 86.9043 86.3936 107.397 89.3298 127.889C93.184 154.823 97.0458 181.75 100.908 208.669L110.414 274.994Z" fill="#060606"/>
<path d="M79.4969 61.9278C81.5758 78.3916 116.506 87.5568 157.871 82.6556C158.44 82.6025 158.986 82.5342 159.555 82.4659C162.567 82.0865 165.541 81.6313 168.447 81.1306C177.453 79.5676 185.875 77.4433 193.477 74.9016C195.768 74.1353 197.984 73.3235 200.108 72.4965C220.532 64.4391 233.339 53.2938 231.981 42.6112C229.879 25.9501 194.023 16.747 151.923 22.0883C109.807 27.4068 77.3802 45.2515 79.4969 61.9278Z" fill="white"/>
<path d="M136.028 84.3626C124.154 84.3626 113.138 83.1184 103.859 80.6754C88.9352 76.7377 80.1495 70.099 79.1252 61.9809C78.0782 53.749 85.119 45.0239 98.9425 37.4217C112.667 29.8726 131.468 24.2961 151.877 21.7165C172.286 19.1294 191.876 19.8501 207.05 23.7423C222.33 27.6648 231.321 34.3489 232.36 42.5733C233.696 53.0813 221.686 64.4012 200.252 72.8607C198.022 73.7256 195.783 74.5374 193.598 75.2658C185.822 77.8757 177.385 79.9773 168.516 81.5099C165.526 82.0258 162.529 82.4811 159.608 82.8452L159.35 82.8756C158.872 82.9363 158.395 82.9894 157.917 83.0349C150.443 83.9226 143.084 84.3551 136.036 84.3551L136.028 84.3626ZM175.427 20.9502C167.886 20.9502 159.995 21.451 151.976 22.4677C131.65 25.0321 112.948 30.5782 99.3067 38.0818C85.7714 45.5246 78.8748 53.9766 79.8763 61.8823C81.9096 77.9744 116.886 87.1319 157.833 82.2838C158.319 82.2383 158.781 82.1852 159.259 82.1245L159.517 82.0941C162.423 81.7299 165.405 81.2747 168.387 80.7588C177.218 79.2262 185.617 77.1322 193.356 74.5374C195.525 73.8091 197.756 73.0049 199.971 72.1399C221.063 63.8246 232.892 52.8006 231.609 42.6567C230.615 34.7662 221.822 28.3021 206.86 24.463C197.733 22.1262 186.99 20.9351 175.427 20.9351V20.9502Z" fill="#060606"/>
<path d="M96.4388 59.9703C98.5025 71.9351 126.764 77.8378 159.54 73.1414C161.892 72.8076 164.199 72.4206 166.46 71.9958C175.564 70.2963 183.879 67.9291 190.996 65.1371C206.762 58.9233 216.488 50.6383 215.168 42.9754C213.105 31.0182 184.843 25.1231 152.067 29.8119C119.276 34.4931 94.3676 47.998 96.4464 59.9627L96.4388 59.9703Z" fill="white"/>
<path d="M137.788 75.1216C114.921 75.1216 97.6756 69.3858 96.0595 60.0386C95.5967 57.368 96.401 54.5911 98.4495 51.7763C105.574 41.9739 127.098 33.006 152.006 29.4477C184.942 24.7286 213.438 30.7754 215.54 42.9223C216.86 50.5245 207.733 58.9689 191.133 65.5089C183.75 68.4071 175.473 70.7212 166.528 72.3903C164.191 72.8228 161.862 73.2097 159.593 73.536C151.999 74.6209 144.639 75.1368 137.788 75.1368V75.1216ZM174.062 28.5752C167.18 28.5752 159.775 29.0911 152.12 30.1912C127.402 33.7192 106.082 42.5733 99.0716 52.2164C97.1521 54.8567 96.3934 57.4439 96.8182 59.9096C98.844 71.662 126.962 77.4281 159.495 72.7697C161.748 72.451 164.07 72.0641 166.399 71.6316C175.299 69.97 183.53 67.6712 190.867 64.7957C207.103 58.3998 216.048 50.2665 214.804 43.0513C213.256 34.0682 196.444 28.5828 174.069 28.5828L174.062 28.5752Z" fill="#060606"/>
<path d="M138.471 57.8005C138.706 58.0205 138.926 58.2481 139.177 58.4681C139.829 58.4074 140.466 58.3316 141.119 58.2481C144.601 57.808 148.023 57.2845 151.384 56.7079C161.771 54.9098 171.49 52.4592 180.268 49.5154C179.949 47.649 178.94 45.7978 177.264 44.0831C170.936 37.6114 157.097 35.4263 146.407 39.2122C135.694 43.0209 132.151 51.3439 138.479 57.8005H138.471Z" fill="#060606"/>
<path d="M139.048 58.8627L138.926 58.7564C138.752 58.6047 138.6 58.453 138.441 58.3012L138.198 58.066C135.52 55.3347 134.45 52.095 135.178 48.9464C136.157 44.6901 140.201 41.018 146.27 38.8557C157.082 35.0242 171.103 37.2472 177.529 43.8176C179.259 45.5778 180.306 47.4745 180.64 49.4547L180.693 49.7734L180.382 49.8796C171.406 52.8841 161.672 55.3119 151.445 57.0873C147.993 57.6867 144.533 58.2026 141.164 58.635L140.891 58.6654C140.33 58.7337 139.776 58.802 139.207 58.8551L139.048 58.8702V58.8627ZM138.737 57.5273L138.972 57.7474C139.086 57.8536 139.192 57.9598 139.306 58.066C139.806 58.0205 140.299 57.9598 140.8 57.8991L141.073 57.8688C144.427 57.4439 147.879 56.928 151.316 56.3286C161.384 54.5836 170.981 52.2012 179.828 49.2575C179.464 47.5504 178.508 45.8964 176.983 44.3411C170.746 37.9604 157.082 35.8208 146.521 39.5612C140.702 41.6325 136.84 45.1074 135.914 49.1057C135.239 52.0343 136.21 54.9477 138.737 57.5198V57.5273Z" fill="#060606"/>
<path d="M144.806 16.2691C146.574 16.7698 148.319 17.5968 149.95 18.7728C156.331 23.3705 158.387 31.428 154.533 36.7844C150.679 42.1333 142.386 42.7478 135.998 38.1501C134.526 37.0955 133.297 35.8436 132.31 34.4931C127.895 34.8725 123.039 33.5903 118.821 30.5555C110.52 24.5769 107.85 14.0916 112.857 7.13429C117.865 0.176978 128.653 -0.61966 136.961 5.35892C140.975 8.24958 143.653 12.1873 144.806 16.2767V16.2691ZM147.363 23.8106C144.381 21.6635 140.345 22.1718 138.35 24.9486C136.354 27.7255 137.151 31.7087 140.133 33.8558C143.114 36.0029 147.151 35.4946 149.146 32.7178C151.141 29.9409 150.345 25.9577 147.363 23.8106ZM131.021 10.207C127.182 7.43777 121.977 8.09784 119.405 11.6713C116.833 15.2448 117.857 20.3888 121.704 23.1505C125.543 25.9198 130.747 25.2597 133.319 21.6862C135.891 18.1127 134.867 12.9687 131.021 10.207Z" fill="#FFBF00"/>
<path d="M145.201 41.6098C141.946 41.6098 138.638 40.5096 135.785 38.4535C134.397 37.4521 133.168 36.2533 132.136 34.8876C127.492 35.2291 122.697 33.8027 118.608 30.8589C114.519 27.9152 111.636 23.8106 110.49 19.3039C109.337 14.7668 110.073 10.3664 112.561 6.90668C115.05 3.44699 118.987 1.35297 123.653 1.01155C128.289 0.670139 133.099 2.10409 137.189 5.04027C141.058 7.82471 143.865 11.6941 145.117 15.958C146.915 16.4967 148.615 17.3313 150.17 18.4541C153.334 20.7302 155.557 23.9016 156.445 27.3917C157.34 30.9045 156.771 34.311 154.836 36.9968C152.909 39.6751 149.851 41.2987 146.24 41.5642C145.891 41.587 145.542 41.6022 145.193 41.6022L145.201 41.6098ZM132.492 34.0986L132.621 34.2731C133.63 35.6464 134.844 36.8527 136.225 37.8466C139.245 40.0165 142.78 41.0787 146.195 40.8207C149.578 40.5703 152.439 39.0605 154.229 36.5644C156.027 34.0682 156.551 30.8817 155.716 27.5889C154.874 24.2734 152.75 21.2538 149.73 19.0839C148.182 17.9686 146.49 17.1492 144.707 16.6408L144.503 16.5801L144.442 16.3753C143.266 12.1948 140.527 8.39374 136.741 5.6624C132.796 2.82486 128.168 1.44402 123.707 1.77026C119.268 2.0965 115.528 4.07671 113.168 7.35431C110.816 10.6243 110.118 14.8048 111.218 19.1142C112.326 23.454 115.103 27.4068 119.048 30.2444C123.054 33.1275 127.75 34.5007 132.28 34.1138L132.492 34.0986ZM144.176 35.5629C142.712 35.5629 141.21 35.1077 139.905 34.1669C136.756 31.8984 135.922 27.6648 138.038 24.7286C140.155 21.7924 144.434 21.2386 147.583 23.5071C150.732 25.7756 151.566 30.0092 149.449 32.9454C148.213 34.66 146.232 35.5629 144.176 35.5629ZM143.304 22.8698C141.483 22.8698 139.738 23.6588 138.653 25.1762C136.779 27.7786 137.545 31.5342 140.352 33.5523C143.16 35.5705 146.968 35.1001 148.835 32.5053C150.709 29.903 149.942 26.1474 147.135 24.1292C145.959 23.2871 144.616 22.8774 143.304 22.8774V22.8698ZM126.923 25.2369C125.057 25.2369 123.145 24.6603 121.484 23.454C117.478 20.5709 116.408 15.1841 119.101 11.4437C120.406 9.63042 122.394 8.46961 124.693 8.1813C126.984 7.89299 129.313 8.49995 131.248 9.89597C133.183 11.292 134.503 13.3025 134.951 15.5635C135.406 17.8396 134.935 20.0854 133.63 21.9062C132.06 24.0913 129.541 25.2369 126.923 25.2369ZM125.808 8.87172C125.467 8.87172 125.125 8.89448 124.784 8.93241C122.697 9.19796 120.892 10.245 119.708 11.8914C117.265 15.2903 118.251 20.2067 121.924 22.847C125.588 25.4873 130.565 24.8652 133.008 21.4662C134.192 19.8198 134.617 17.7789 134.199 15.7152C133.782 13.644 132.576 11.7927 130.793 10.5105C129.298 9.43316 127.561 8.87172 125.801 8.87172H125.808Z" fill="#060606"/>
<path d="M264.795 247.947C253.551 257.135 229.371 274.35 193.849 281.314C155.102 288.871 123.874 280.085 110.073 275.283C106.894 253.091 103.715 230.921 100.528 208.729C117.28 212.857 146.559 217.788 182.165 211.794C215.525 206.18 240.289 193.35 254.651 184.466L264.795 247.947Z" fill="#FFBF00"/>
<path d="M163.243 284.653C141.407 284.653 123.024 280.192 109.951 275.639L109.731 275.563L100.073 208.229L100.619 208.365C127.098 214.882 155.276 215.945 182.104 211.423C207.854 207.083 232.194 197.91 254.454 184.147L254.939 183.851L255.031 184.413L265.205 248.106L265.038 248.243C250.706 259.949 226.731 275.26 193.925 281.686C183.136 283.788 172.855 284.653 163.243 284.653ZM110.414 274.994C129.169 281.497 158.789 287.763 193.773 280.935C226.291 274.562 250.099 259.418 264.385 247.787L254.363 185.088C232.156 198.737 207.892 207.842 182.225 212.166C155.473 216.673 127.394 215.656 100.976 209.23L110.407 275.002L110.414 274.994Z" fill="#060606"/>
<path d="M131.187 234.829C131.233 234.487 131.567 234.146 132.189 233.789C133.494 233.053 135.679 232.636 138.729 232.545C140.315 232.507 142.037 232.613 143.903 232.871C148.342 233.478 151.574 234.798 153.615 236.832C155.405 238.615 156.126 240.731 155.792 243.19C155.671 244.077 155.398 244.927 154.965 245.731C154.54 246.535 154.009 247.12 153.372 247.469C152.643 246.96 151.915 246.657 151.194 246.558C150.853 246.513 150.587 246.543 150.39 246.649C150.193 246.756 150.071 246.991 150.026 247.347C152.188 247.734 153.774 248.751 154.783 250.397C155.678 251.892 155.989 253.637 155.709 255.632C155.284 258.72 153.683 260.792 150.898 261.839C148.288 262.817 144.548 262.977 139.67 262.301C136.255 261.831 133.767 261.376 132.196 260.943C130.626 260.511 129.549 259.843 128.949 258.948C128.35 258.053 128.16 256.793 128.388 255.162L131.187 234.829ZM140.899 253.387C140.952 253.44 141.119 253.485 141.399 253.523C141.68 253.561 141.908 253.493 142.082 253.326C142.257 253.151 142.378 252.825 142.446 252.34L142.507 251.922C142.583 251.376 142.575 250.974 142.477 250.724C142.386 250.473 142.196 250.321 141.908 250.283C141.619 250.246 141.422 250.246 141.308 250.283C141.308 250.359 141.308 250.488 141.278 250.663L140.906 253.394L140.899 253.387ZM142.052 245.026C142.105 245.079 142.272 245.124 142.553 245.162C142.833 245.2 143.061 245.117 143.243 244.919C143.418 244.715 143.547 244.366 143.615 243.865L143.63 243.736C143.706 243.205 143.691 242.818 143.6 242.567C143.509 242.325 143.311 242.181 143.023 242.143C142.735 242.105 142.538 242.105 142.424 242.143C142.424 242.218 142.424 242.347 142.393 242.522L142.052 245.026Z" fill="white"/>
<path d="M145.034 263.083C143.41 263.083 141.604 262.946 139.617 262.673C136.195 262.203 133.668 261.74 132.09 261.307C130.444 260.852 129.275 260.124 128.623 259.16C127.971 258.189 127.766 256.831 128.001 255.116L130.8 234.783C130.861 234.313 131.256 233.888 131.992 233.471C133.365 232.697 135.565 232.272 138.714 232.173C140.307 232.135 142.075 232.249 143.949 232.507C148.448 233.129 151.786 234.495 153.88 236.574C155.747 238.433 156.521 240.678 156.164 243.25C156.035 244.183 155.747 245.079 155.299 245.921C154.836 246.793 154.252 247.431 153.554 247.81L153.349 247.924L153.159 247.787C152.484 247.317 151.809 247.036 151.149 246.945C150.899 246.915 150.701 246.93 150.58 246.991C150.557 247.006 150.527 247.029 150.512 247.067C152.568 247.522 154.115 248.584 155.109 250.208C156.05 251.778 156.376 253.622 156.088 255.693C155.648 258.917 153.949 261.11 151.035 262.203C149.449 262.802 147.446 263.098 145.034 263.098V263.083ZM131.559 234.882L128.76 255.215C128.547 256.74 128.722 257.924 129.26 258.735C129.807 259.547 130.831 260.169 132.295 260.579C133.835 261.004 136.331 261.459 139.723 261.93C144.51 262.59 148.228 262.438 150.762 261.482C153.425 260.473 154.92 258.546 155.329 255.579C155.587 253.682 155.299 252.006 154.449 250.595C153.493 249.032 152.021 248.091 149.95 247.727L149.594 247.666L149.647 247.302C149.715 246.824 149.897 246.498 150.208 246.323C150.481 246.171 150.823 246.126 151.248 246.186C151.961 246.285 152.681 246.566 153.387 247.021C153.873 246.702 154.29 246.209 154.631 245.557C155.033 244.798 155.299 243.979 155.413 243.144C155.739 240.792 155.056 238.819 153.342 237.112C151.369 235.155 148.175 233.858 143.843 233.258C142.007 233.008 140.292 232.894 138.729 232.932C135.755 233.023 133.615 233.425 132.363 234.131C131.673 234.525 131.567 234.791 131.552 234.889L131.559 234.882ZM141.551 253.91C141.491 253.91 141.422 253.91 141.346 253.895C140.952 253.842 140.755 253.773 140.633 253.652L140.497 253.516L140.899 250.602C140.922 250.458 140.929 250.359 140.922 250.291L140.906 250.018L141.157 249.919C141.331 249.851 141.589 249.836 141.946 249.889C142.371 249.95 142.682 250.192 142.818 250.572C142.932 250.883 142.947 251.338 142.864 251.953L142.803 252.377C142.727 252.954 142.568 253.349 142.333 253.584C142.181 253.736 141.923 253.902 141.536 253.902L141.551 253.91ZM141.316 253.129C141.316 253.129 141.4 253.144 141.453 253.151C141.665 253.182 141.756 253.121 141.817 253.06C141.87 253.007 141.991 252.833 142.067 252.286L142.128 251.862C142.211 251.232 142.158 250.951 142.12 250.845C142.082 250.739 142.022 250.67 141.855 250.648C141.779 250.64 141.718 250.632 141.665 250.625C141.665 250.655 141.665 250.678 141.658 250.708L141.324 253.129H141.316ZM142.682 245.549C142.621 245.549 142.56 245.549 142.5 245.534C142.098 245.481 141.908 245.413 141.787 245.291L141.65 245.155L142.022 242.461C142.044 242.317 142.052 242.211 142.052 242.15L142.037 241.877L142.287 241.778C142.469 241.71 142.712 241.695 143.076 241.748C143.615 241.824 143.85 242.15 143.949 242.416C144.07 242.727 144.085 243.174 144.002 243.774L143.987 243.91C143.911 244.495 143.759 244.904 143.524 245.162C143.304 245.413 143.016 245.542 142.682 245.542V245.549ZM142.469 244.768C142.469 244.768 142.553 244.783 142.606 244.79C142.765 244.813 142.864 244.775 142.962 244.669C143.031 244.586 143.167 244.366 143.243 243.812L143.258 243.675C143.342 243.068 143.289 242.795 143.251 242.696C143.213 242.605 143.152 242.537 142.978 242.507C142.902 242.499 142.841 242.492 142.788 242.484C142.788 242.514 142.788 242.537 142.773 242.567L142.469 244.76V244.768Z" fill="#060606"/>
<path d="M171.194 234.7L184.084 233.857C184.562 234.548 184.934 235.299 185.199 236.126C185.465 236.953 185.617 237.704 185.662 238.372C185.761 239.874 185.541 241.027 185.002 241.824C184.463 242.621 183.667 243.053 182.612 243.121L173.606 243.705C173.053 243.743 172.795 243.979 172.825 244.403V244.586C172.84 244.677 172.863 244.737 172.893 244.76L183.568 244.062C183.864 244.51 184.137 245.071 184.372 245.762C184.6 246.505 184.737 247.18 184.775 247.78C184.888 249.555 184.653 250.959 184.061 251.998L179.213 252.317C176.952 252.468 175.42 252.651 174.631 252.871C173.842 253.091 173.348 253.273 173.166 253.402C172.984 253.546 172.893 253.728 172.908 253.933C172.924 254.145 173.037 254.297 173.25 254.403C174.009 254.1 174.805 253.864 175.647 253.705C176.755 253.531 177.969 253.394 179.282 253.311L185.556 252.901C186.55 254.122 187.104 255.632 187.218 257.438C187.286 258.447 187.218 259.426 187.028 260.367C186.838 261.307 186.504 262.074 186.034 262.673L169.305 263.766C167.461 263.887 165.951 263.538 164.775 262.719C163.493 261.846 162.787 260.488 162.674 258.637L161.285 237.393C161.24 236.68 162.021 236.103 163.637 235.671C165.253 235.238 167.772 234.904 171.201 234.684L171.194 234.7Z" fill="white"/>
<path d="M168.614 264.19C166.998 264.19 165.64 263.811 164.548 263.052C163.174 262.119 162.408 260.647 162.279 258.69L160.891 237.446C160.8 236.065 162.848 235.511 163.523 235.329C165.162 234.889 167.727 234.556 171.163 234.328L184.266 233.471L184.388 233.645C184.888 234.358 185.275 235.162 185.548 236.02C185.822 236.877 185.981 237.659 186.026 238.357C186.133 239.942 185.882 241.179 185.298 242.044C184.691 242.939 183.788 243.432 182.612 243.508L173.607 244.092C173.333 244.108 173.242 244.183 173.212 244.214C173.182 244.244 173.174 244.297 173.174 244.373L183.735 243.683L183.857 243.865C184.168 244.335 184.456 244.935 184.706 245.648C184.949 246.437 185.086 247.142 185.124 247.765C185.245 249.601 184.987 251.095 184.365 252.195L184.266 252.37L179.213 252.704C176.99 252.848 175.473 253.03 174.707 253.25C173.69 253.538 173.424 253.682 173.356 253.728C173.258 253.804 173.257 253.872 173.257 253.925C173.257 253.94 173.257 253.971 173.28 253.993C173.993 253.72 174.76 253.508 175.556 253.356C176.694 253.174 177.924 253.045 179.236 252.954L185.708 252.529L185.829 252.681C186.869 253.956 187.453 255.556 187.574 257.43C187.643 258.47 187.574 259.494 187.377 260.458C187.172 261.452 186.816 262.279 186.307 262.923L186.201 263.06L169.297 264.16C169.054 264.175 168.819 264.183 168.584 264.183L168.614 264.19ZM183.887 234.252L171.217 235.079C167.84 235.299 165.314 235.625 163.728 236.05C162.363 236.422 161.619 236.892 161.657 237.385L163.045 258.629C163.159 260.367 163.796 261.611 164.988 262.423C166.088 263.189 167.537 263.523 169.282 263.409L185.837 262.332C186.216 261.801 186.489 261.125 186.656 260.313C186.846 259.411 186.907 258.462 186.838 257.484C186.732 255.845 186.239 254.441 185.382 253.318L179.304 253.713C178.015 253.796 176.808 253.925 175.708 254.1C174.904 254.251 174.115 254.479 173.394 254.775L173.235 254.836L173.083 254.76C172.749 254.593 172.552 254.32 172.529 253.971C172.514 253.736 172.575 253.402 172.931 253.113C173.098 252.992 173.417 252.825 174.532 252.514C175.359 252.279 176.884 252.097 179.198 251.945L183.834 251.642C184.312 250.686 184.509 249.396 184.403 247.81C184.365 247.249 184.236 246.596 184.016 245.883C183.826 245.329 183.606 244.851 183.371 244.472L172.764 245.162L172.651 245.064C172.484 244.919 172.468 244.699 172.461 244.624V244.441C172.423 244.077 172.559 243.842 172.673 243.713C172.871 243.493 173.174 243.364 173.591 243.334L182.597 242.75C183.538 242.689 184.228 242.317 184.699 241.619C185.184 240.898 185.389 239.813 185.298 238.402C185.26 237.765 185.108 237.044 184.858 236.247C184.63 235.534 184.312 234.859 183.91 234.252H183.887Z" fill="#060606"/>
<path d="M198.082 230.595L210.555 227.249C211.162 227.826 211.671 228.501 212.096 229.26C212.513 230.018 212.809 230.724 212.983 231.377C213.378 232.833 213.385 234.002 213.014 234.889C212.642 235.777 211.944 236.361 210.92 236.634L202.21 238.971C201.679 239.115 201.466 239.396 201.58 239.813L201.626 239.988C201.648 240.071 201.679 240.124 201.717 240.147L212.05 237.37C212.429 237.75 212.801 238.25 213.173 238.88C213.545 239.571 213.803 240.2 213.962 240.777C214.425 242.492 214.463 243.918 214.091 245.056L209.402 246.315C207.21 246.907 205.753 247.385 205.017 247.757C204.281 248.129 203.841 248.402 203.682 248.569C203.53 248.751 203.477 248.941 203.537 249.138C203.591 249.343 203.735 249.472 203.97 249.532C204.653 249.085 205.389 248.705 206.185 248.379C207.24 247.985 208.401 247.62 209.668 247.279L215.745 245.648C216.959 246.649 217.794 248.022 218.264 249.768C218.529 250.746 218.658 251.717 218.651 252.673C218.651 253.637 218.469 254.449 218.127 255.132L201.937 259.479C200.146 259.957 198.598 259.911 197.286 259.335C195.859 258.728 194.903 257.537 194.418 255.746L188.895 235.185C188.712 234.495 189.365 233.774 190.867 233.031C192.369 232.287 194.774 231.475 198.09 230.58L198.082 230.595Z" fill="white"/>
<path d="M199.63 260.192C198.72 260.192 197.877 260.025 197.119 259.691C195.586 259.046 194.554 257.749 194.038 255.852L188.515 235.291C188.158 233.956 190.063 233.008 190.685 232.704C192.202 231.953 194.653 231.119 197.976 230.231L210.654 226.824L210.806 226.976C211.435 227.575 211.974 228.281 212.414 229.078C212.847 229.859 213.158 230.603 213.34 231.278C213.75 232.811 213.757 234.078 213.355 235.041C212.938 236.035 212.149 236.703 211.011 237.006L202.301 239.343C202.05 239.411 201.974 239.487 201.944 239.525C201.929 239.54 201.899 239.586 201.929 239.7L212.149 236.953L212.3 237.105C212.703 237.507 213.097 238.038 213.484 238.69C213.871 239.419 214.152 240.086 214.311 240.686C214.789 242.461 214.827 243.979 214.432 245.177L214.372 245.375L209.486 246.687C207.331 247.264 205.882 247.742 205.176 248.106C204.235 248.584 204 248.781 203.947 248.842C203.871 248.933 203.871 249.001 203.886 249.054C203.886 249.07 203.894 249.092 203.917 249.115C204.569 248.705 205.275 248.341 206.026 248.045C207.096 247.651 208.279 247.271 209.554 246.93L215.821 245.246L215.973 245.367C217.24 246.414 218.127 247.871 218.613 249.684C218.886 250.693 219.023 251.71 219.015 252.696C219.015 253.713 218.818 254.593 218.453 255.321L218.378 255.473L202.02 259.866C201.178 260.093 200.381 260.207 199.63 260.207V260.192ZM210.442 227.666L198.181 230.959C194.903 231.839 192.498 232.651 191.026 233.38C189.759 234.009 189.122 234.616 189.251 235.094L194.767 255.655C195.222 257.339 196.087 258.432 197.415 258.993C198.644 259.532 200.123 259.57 201.815 259.115L217.839 254.813C218.104 254.221 218.241 253.5 218.249 252.673C218.249 251.755 218.127 250.807 217.877 249.866C217.452 248.28 216.693 247.006 215.631 246.065L209.751 247.643C208.499 247.977 207.338 248.341 206.299 248.728C205.54 249.032 204.82 249.411 204.16 249.843L204.015 249.934L203.856 249.889C203.393 249.768 203.219 249.464 203.158 249.229C203.067 248.903 203.15 248.584 203.386 248.311C203.53 248.159 203.811 247.931 204.835 247.408C205.601 247.021 207.058 246.535 209.296 245.936L213.787 244.73C214.068 243.698 214.007 242.401 213.598 240.86C213.454 240.314 213.196 239.707 212.839 239.047C212.543 238.546 212.24 238.121 211.929 237.788L201.663 240.542L201.527 240.466C201.337 240.36 201.276 240.147 201.254 240.071L201.208 239.897C201.102 239.487 201.223 239.214 201.345 239.047C201.504 238.835 201.754 238.683 202.111 238.592L210.821 236.255C211.731 236.012 212.338 235.511 212.665 234.73C212.998 233.926 212.983 232.826 212.619 231.46C212.452 230.845 212.164 230.163 211.762 229.434C211.398 228.774 210.95 228.182 210.449 227.666H210.442Z" fill="#060606"/>
<path d="M244.257 231.141L249.499 232.924C250.311 235.125 250.463 237.052 249.962 238.713C249.454 240.375 248.263 241.687 246.374 242.643C244.947 243.364 243.536 243.652 242.14 243.508C240.365 243.341 238.673 242.492 237.064 240.967L235.357 239.373C234.788 239.646 234.052 239.927 233.127 240.223C233.073 240.382 233.096 240.557 233.187 240.747C233.369 241.103 234.014 241.042 235.13 240.564L237.724 242.863L238.582 244.563C237.595 246.414 235.911 247.954 233.514 249.168C231.799 250.041 230.244 250.382 228.863 250.192C227.482 250.003 226.45 249.244 225.767 247.894L216.154 228.926C215.858 228.342 216.109 227.5 216.906 226.399C217.702 225.299 218.886 224.139 220.456 222.917C222.027 221.696 223.688 220.641 225.426 219.753C229.417 217.727 232.952 216.969 236.032 217.462C239.272 217.978 241.685 219.791 243.263 222.909C244.166 224.692 244.439 226.475 244.082 228.258C243.726 230.041 242.899 231.566 241.624 232.833C241.836 233.258 242.201 233.342 242.717 233.084C243.225 232.826 243.741 232.181 244.257 231.149V231.141ZM231.647 231.809C231.723 231.824 231.882 231.763 232.14 231.635C232.391 231.506 232.535 231.308 232.565 231.043C232.595 230.777 232.497 230.413 232.269 229.965L231.905 229.245C231.662 228.767 231.435 228.456 231.215 228.304C230.995 228.152 230.759 228.144 230.501 228.281C230.244 228.41 230.077 228.531 230.016 228.63C230.061 228.691 230.13 228.797 230.206 228.956L231.655 231.809H231.647Z" fill="white"/>
<path d="M229.599 250.617C229.333 250.617 229.068 250.602 228.81 250.564C227.3 250.359 226.162 249.517 225.426 248.068L215.813 229.1C215.441 228.372 215.699 227.416 216.595 226.179C217.414 225.057 218.628 223.858 220.221 222.621C221.807 221.384 223.499 220.307 225.251 219.419C229.295 217.371 232.945 216.582 236.093 217.09C239.447 217.621 241.966 219.526 243.597 222.743C244.538 224.594 244.826 226.475 244.447 228.334C244.098 230.064 243.316 231.574 242.133 232.841C242.224 232.864 242.368 232.826 242.535 232.742C242.838 232.59 243.316 232.158 243.908 230.974L244.06 230.679L249.788 232.628L249.849 232.795C250.691 235.064 250.842 237.09 250.319 238.827C249.788 240.587 248.513 241.983 246.533 242.985C245.046 243.736 243.551 244.039 242.095 243.888C240.243 243.713 238.46 242.818 236.791 241.24L235.274 239.821C234.788 240.041 234.189 240.269 233.491 240.504C233.491 240.527 233.506 240.549 233.521 240.572C233.521 240.572 233.779 240.731 234.97 240.215L235.19 240.117L238.051 242.689L238.999 244.563L238.908 244.737C237.891 246.657 236.131 248.258 233.673 249.502C232.209 250.245 230.835 250.617 229.591 250.617H229.599ZM234.181 217.697C231.624 217.697 228.741 218.501 225.6 220.095C223.886 220.96 222.239 222.014 220.692 223.213C219.159 224.412 217.983 225.557 217.209 226.619C216.519 227.575 216.268 228.311 216.488 228.751L226.101 247.719C226.731 248.956 227.649 249.639 228.908 249.813C230.206 249.988 231.7 249.654 233.339 248.827C235.577 247.689 237.193 246.255 238.149 244.555L237.413 243.099L235.054 241.004C234.409 241.27 233.233 241.672 232.846 240.913C232.702 240.633 232.679 240.36 232.763 240.102L232.823 239.92L233.005 239.859C233.901 239.571 234.637 239.29 235.19 239.024L235.426 238.91L237.322 240.678C238.862 242.143 240.501 242.962 242.178 243.121C243.498 243.258 244.849 242.977 246.199 242.294C247.982 241.391 249.128 240.147 249.598 238.592C250.061 237.059 249.932 235.254 249.204 233.213L244.439 231.597C243.931 232.537 243.422 233.137 242.884 233.41C242.55 233.584 242.239 233.637 241.973 233.577C241.768 233.531 241.488 233.395 241.283 233L241.161 232.757L241.359 232.56C242.58 231.354 243.369 229.874 243.718 228.182C244.06 226.498 243.794 224.783 242.937 223.084C241.427 220.095 239.083 218.334 235.987 217.841C235.41 217.75 234.811 217.705 234.189 217.705L234.181 217.697ZM231.67 232.196C231.67 232.196 231.609 232.196 231.579 232.188L231.397 232.158L229.864 229.138C229.796 229.009 229.75 228.918 229.713 228.873L229.546 228.66L229.697 228.433C229.804 228.273 230.001 228.122 230.327 227.955C230.813 227.704 231.192 227.849 231.427 228.008C231.7 228.198 231.966 228.554 232.247 229.093L232.611 229.814C232.876 230.337 232.99 230.762 232.945 231.111C232.899 231.506 232.679 231.809 232.315 231.999C232.019 232.15 231.829 232.211 231.678 232.211L231.67 232.196ZM230.494 228.713C230.494 228.713 230.517 228.759 230.532 228.789L231.837 231.369C231.837 231.369 231.913 231.331 231.958 231.308C232.095 231.24 232.163 231.149 232.178 231.012C232.193 230.906 232.178 230.648 231.92 230.147L231.556 229.427C231.275 228.88 231.078 228.691 230.987 228.622C230.904 228.569 230.813 228.539 230.661 228.622C230.593 228.66 230.54 228.691 230.494 228.713Z" fill="#060606"/>
<path d="M176.983 116.061C180.92 135.901 178.788 154.004 172.377 163.465C169.874 167.145 166.732 169.512 163.022 170.157C149.844 172.463 134.723 151.978 129.253 124.415C123.782 96.8509 130.034 72.6255 143.213 70.319C146.718 69.7045 150.36 70.6984 153.903 73.0048C163.736 79.3855 172.961 95.8115 176.983 116.069V116.061Z" fill="white"/>
<path d="M160.997 170.703C148.159 170.703 134.093 150.772 128.881 124.475C125.065 105.219 126.923 86.4718 133.615 76.7073C136.255 72.8607 139.465 70.577 143.152 69.9321C146.68 69.3176 150.367 70.2356 154.115 72.671C164.335 79.3021 173.455 96.3046 177.362 115.978C181.224 135.446 179.441 153.723 172.696 163.67C170.048 167.57 166.816 169.868 163.091 170.521C162.4 170.642 161.702 170.703 161.004 170.703H160.997ZM145.284 70.5163C144.609 70.5163 143.941 70.577 143.273 70.6908C139.791 71.2978 136.749 73.4677 134.23 77.1474C127.644 86.7526 125.831 105.28 129.617 124.339C134.761 150.271 148.493 169.952 160.959 169.96C161.626 169.96 162.294 169.906 162.954 169.785C166.467 169.17 169.532 166.97 172.059 163.253C178.591 153.617 180.374 135.12 176.611 116.137C172.741 96.6536 163.751 79.8484 153.698 73.3235C150.83 71.4571 148.008 70.5239 145.284 70.5239V70.5163Z" fill="#060606"/>
<path d="M153.903 72.9973C141.771 76.7301 135.838 98.1179 140.603 122.131C140.762 122.92 140.929 123.701 141.104 124.475L161.315 122.192L144.518 135.863C150.997 152.949 162.051 164.375 172.37 163.457C178.781 153.996 180.913 135.894 176.975 116.054C172.954 95.7963 163.728 79.378 153.895 72.9897L153.903 72.9973Z" fill="#060606"/>
<path d="M171.239 163.89C161.323 163.89 150.572 152.896 144.161 136L144.063 135.742L160.071 122.715L140.808 124.893L140.732 124.559C140.557 123.777 140.39 122.996 140.231 122.207C135.474 98.2166 141.43 76.4418 153.789 72.6331L153.956 72.58L154.108 72.6786C164.328 79.3097 173.447 96.3122 177.354 115.985C181.216 135.454 179.433 153.731 172.688 163.677L172.59 163.829L172.408 163.844C172.021 163.882 171.634 163.897 171.239 163.897V163.89ZM144.973 135.985C151.483 152.972 162.347 163.814 172.157 163.101C178.606 153.427 180.351 135.021 176.603 116.137C172.757 96.7523 163.834 80.0153 153.842 73.4221C141.961 77.2612 136.309 98.5656 140.975 122.07C141.111 122.745 141.248 123.413 141.4 124.073L162.56 121.683L144.973 135.992V135.985Z" fill="#060606"/>
<path d="M253.551 105.197C256.388 125.196 253.263 143.162 246.343 152.282C243.635 155.832 240.365 158.033 236.632 158.488C223.339 160.127 209.356 138.921 205.411 111.122C201.466 83.3308 209.038 59.462 222.338 57.8308C225.873 57.3983 229.455 58.5743 232.869 61.0477C242.345 67.914 250.653 84.7724 253.559 105.197H253.551Z" fill="white"/>
<path d="M235.198 158.966C222.179 158.966 208.856 138.124 205.032 111.19C202.278 91.7979 205.161 73.1794 212.369 63.7639C215.221 60.0462 218.552 57.9218 222.285 57.4666C225.843 57.0266 229.477 58.1343 233.089 60.7518C242.929 67.8836 251.108 85.311 253.93 105.151C256.715 124.779 253.93 142.935 246.647 152.517C243.786 156.273 240.433 158.412 236.677 158.875C236.184 158.936 235.691 158.966 235.198 158.966ZM223.802 58.1267C223.324 58.1267 222.854 58.157 222.383 58.2101C218.863 58.6426 215.699 60.6684 212.975 64.2191C205.882 73.4828 203.059 91.8738 205.783 111.077C209.698 138.625 223.514 159.725 236.579 158.116C240.122 157.684 243.301 155.643 246.04 152.054C253.096 142.768 255.895 124.392 253.179 105.25C250.387 85.6069 242.33 68.3768 232.641 61.3588C229.675 59.2116 226.708 58.1267 223.802 58.1267Z" fill="#060606"/>
<path d="M232.861 61.0553C220.54 64.1736 213.431 85.22 216.875 109.438C216.989 110.234 217.11 111.023 217.247 111.805L237.565 110.545L220.031 123.345C225.57 140.727 235.987 152.691 246.343 152.297C253.27 143.177 256.396 125.211 253.551 105.212C250.653 84.7875 242.337 67.9291 232.861 61.0629V61.0553Z" fill="#060606"/>
<path d="M245.858 152.676C235.737 152.676 225.266 141.03 219.675 123.451L219.591 123.193L236.29 111.001L216.928 112.199L216.868 111.866C216.731 111.077 216.61 110.288 216.496 109.491C213.059 85.3034 220.206 63.8701 232.77 60.6911L232.945 60.6456L233.089 60.7518C242.929 67.8836 251.115 85.311 253.93 105.151C256.715 124.779 253.93 142.935 246.647 152.517L246.541 152.661H246.358C246.191 152.676 246.025 152.676 245.858 152.676ZM220.479 123.481C226.048 140.765 236.344 152.145 246.146 151.918C253.118 142.586 255.88 124.301 253.172 105.257C250.395 85.7132 242.398 68.5513 232.778 61.4726C220.699 64.7122 213.878 85.6904 217.247 109.385C217.346 110.06 217.444 110.735 217.558 111.403L238.832 110.083L220.471 123.481H220.479Z" fill="#060606"/>
<path d="M199.562 186.021C208.127 180.961 211.314 179.716 218.628 179.815C222.937 179.868 226.943 181.302 231.283 180.543C234.811 179.929 238.559 178.449 240.964 175.627C241.123 175.445 241.268 175.255 241.412 175.058C246.677 167.873 244.568 155.46 241.055 148.048C238.749 143.185 234.765 138.321 229.462 137.297C226.852 136.796 223.81 137.965 221.306 138.906C219.553 139.566 218.059 140.666 216.39 141.493C208.514 145.408 201.663 149.269 193.53 146.993L191.466 136.789" fill="#AADC66"/>
<path d="M199.759 186.348L199.372 185.695C207.869 180.68 211.238 179.337 218.635 179.436C220.327 179.458 221.989 179.694 223.597 179.921C226.177 180.285 228.62 180.627 231.222 180.172C235.296 179.458 238.658 177.759 240.683 175.384C240.835 175.21 240.979 175.028 241.116 174.838C244.097 170.764 246.457 160.316 240.721 148.215C239.409 145.453 235.683 138.891 229.401 137.677C226.958 137.206 223.999 138.314 221.625 139.202L221.45 139.27C220.403 139.665 219.462 140.211 218.468 140.795C217.854 141.152 217.224 141.523 216.572 141.85L215.115 142.578C207.96 146.159 201.208 149.55 193.439 147.373L193.219 147.312L191.11 136.88L191.853 136.728L193.871 146.705C201.261 148.67 207.528 145.529 214.781 141.903L216.238 141.174C216.868 140.863 217.49 140.499 218.089 140.15C219.068 139.581 220.077 138.989 221.185 138.572L221.359 138.504C223.825 137.578 226.89 136.44 229.546 136.948C236.169 138.223 240.046 145.036 241.412 147.904C244.636 154.694 247.375 167.6 241.738 175.301C241.586 175.506 241.434 175.695 241.275 175.885C239.136 178.396 235.615 180.187 231.366 180.93C228.643 181.401 226.033 181.037 223.506 180.68C221.921 180.46 220.289 180.225 218.643 180.202C211.382 180.103 208.256 181.355 199.774 186.355L199.759 186.348Z" fill="#060606"/>
<path d="M226.921 158.01C228.878 166.727 233.051 173.176 236.253 172.41C239.454 171.644 240.463 163.951 238.506 155.233C236.549 146.516 232.376 140.067 229.174 140.833C225.972 141.599 224.963 149.292 226.921 158.01Z" fill="#060606"/>
<path d="M235.721 172.85C235.114 172.85 234.485 172.645 233.832 172.243C230.926 170.437 228.074 164.876 226.549 158.093C224.523 149.034 225.631 141.288 229.083 140.461C229.872 140.271 230.714 140.454 231.586 140.992C234.492 142.798 237.345 148.359 238.87 155.142C240.896 164.201 239.788 171.947 236.336 172.774C236.131 172.82 235.926 172.85 235.714 172.85H235.721ZM227.292 157.926C228.749 164.421 231.541 169.922 234.234 171.598C234.932 172.031 235.577 172.183 236.161 172.038C239.105 171.333 240.008 163.67 238.134 155.309C236.677 148.814 233.885 143.314 231.192 141.637C230.494 141.205 229.841 141.053 229.265 141.197C226.321 141.903 225.418 149.566 227.292 157.926Z" fill="#060606"/>
<path d="M222.361 140.749C222.672 140.363 223.15 140.173 223.605 140.454C223.977 140.681 224.197 141.334 223.886 141.713C220.813 145.537 221.306 150.438 222.338 154.922C222.603 156.068 220.843 156.493 220.585 155.339C219.462 150.431 219.007 144.93 222.368 140.749H222.361Z" fill="white"/>
<path d="M220.949 158.336C220.949 158.215 220.987 158.109 221.056 158.002C221.109 157.896 221.185 157.805 221.283 157.737C221.374 157.653 221.473 157.593 221.594 157.562C221.678 157.555 221.754 157.54 221.837 157.524C221.996 157.524 222.141 157.562 222.285 157.646C222.345 157.691 222.406 157.737 222.467 157.782C222.581 157.896 222.664 158.033 222.702 158.192L222.77 158.458C222.808 158.579 222.816 158.7 222.785 158.822C222.785 158.943 222.748 159.049 222.679 159.156C222.626 159.262 222.55 159.353 222.452 159.421C222.361 159.505 222.262 159.565 222.141 159.596C222.057 159.603 221.981 159.618 221.898 159.626C221.738 159.626 221.594 159.588 221.45 159.505C221.389 159.459 221.329 159.414 221.268 159.368C221.154 159.254 221.071 159.118 221.033 158.958L220.965 158.693C220.927 158.571 220.919 158.45 220.949 158.329V158.336Z" fill="white"/>
<path d="M202.369 131.865C204.417 134.748 202.171 138.731 197.354 140.772C192.536 142.806 186.975 142.123 184.926 139.24C182.878 136.357 185.123 132.373 189.941 130.332C194.759 128.299 200.32 128.982 202.369 131.865Z" fill="#FF6600"/>
<path d="M191.671 142.312C188.629 142.312 185.935 141.318 184.615 139.46C183.803 138.314 183.583 136.979 183.978 135.59C184.615 133.352 186.785 131.258 189.797 129.991C194.759 127.889 200.54 128.633 202.68 131.653C203.492 132.798 203.712 134.134 203.317 135.522C202.68 137.76 200.51 139.854 197.498 141.121C195.594 141.925 193.568 142.312 191.671 142.312ZM195.662 129.536C193.864 129.536 191.921 129.908 190.085 130.681C187.286 131.865 185.275 133.777 184.706 135.795C184.38 136.956 184.562 138.071 185.23 139.02C187.18 141.759 192.544 142.388 197.202 140.423C200.002 139.24 202.012 137.328 202.581 135.31C202.907 134.149 202.733 133.033 202.058 132.085C200.874 130.424 198.439 129.536 195.662 129.536Z" fill="#060606"/>
<path d="M96.6968 171.424C96.9168 176.477 97.5996 181.537 98.7377 186.575C98.9122 187.349 99.1019 188.123 99.3067 188.874C84.3072 187.432 69.8311 179.496 59.4672 167.501C48.4812 154.785 43.3979 137.813 39.0353 121.934C37.8366 117.435 36.3116 112.928 34.8701 108.368C32.0022 99.2484 29.3922 89.9998 29.9309 80.516C29.9613 80.3719 29.9613 80.1898 29.9613 80.038C30.5758 74.3629 35.9171 72.8986 40.3176 74.5678C40.6741 74.7044 41.0459 74.8637 41.3797 75.0458C43.0413 75.9031 44.4828 77.2688 45.3174 79.0138C45.9547 80.2732 46.2734 81.7375 46.1823 83.3991C45.7954 90.1516 48.2915 97.5186 50.7573 104.514C51.9636 107.898 53.1548 111.213 54.0046 114.347C57.3808 126.751 60.795 139.619 67.5778 150.681C73.6322 160.529 84.7927 168.564 96.6816 171.439L96.6968 171.424Z" fill="#060606"/>
<path d="M40.0748 32.5812C38.694 32.915 37.6849 33.7799 36.9945 34.9938C33.5348 40.98 35.9095 57.6184 35.9095 57.6184L22.5033 62.1251C22.5033 62.1251 10.3412 37.7631 1.62375 47.8311C-4.37759 54.7505 13.1257 78.9607 13.1257 78.9607C14.5369 98.4897 24.6352 98.5656 24.6352 98.5656C20.7127 100.94 21.0465 104.317 21.5018 105.568C22.3439 107.89 25.8947 108.747 30.6366 108.626C35.1888 108.489 40.8411 107.45 46.2355 105.948C55.4082 103.398 63.845 99.4912 64.8541 96.3653C67.6385 87.7009 56.4856 89.2183 56.4856 89.2183C60.2411 86.8664 63.1242 83.1411 65.1955 78.9076C65.719 77.8833 66.1742 76.8136 66.5915 75.7362C70.6657 65.1675 70.2333 53.0206 66.2349 51.4956C59.8694 49.045 55.4537 58.7792 52.7907 64.3556C52.7376 64.4619 52.6996 64.5226 52.6617 64.5908C52.3051 65.1143 52.032 64.5833 51.8499 63.6197C51.8499 63.6197 51.8347 63.6197 51.8347 63.5969C51.4857 61.9961 51.2885 59.2192 51.076 57.8156C49.1868 45.8433 46.9563 30.9348 40.0824 32.5736L40.0748 32.5812Z" fill="white"/>
<path d="M29.8019 109.021C24.931 109.021 21.9493 107.882 21.1527 105.697C20.5988 104.157 20.5761 101.115 23.6109 98.8084C20.9327 98.2318 13.9526 95.1742 12.7614 79.0897C11.4261 77.2384 -4.66597 54.5001 1.34295 47.5731C3.02728 45.6309 4.96197 44.7811 7.09392 45.0542C14.3244 45.9647 21.5396 59.4089 22.7004 61.6547L35.4998 57.3528C35.1811 54.9629 33.4133 40.4413 36.6758 34.7966C37.4648 33.4233 38.5801 32.5508 39.9989 32.2094C41.2659 31.9059 42.4571 32.1184 43.5268 32.8391C47.9956 35.836 49.7861 47.1786 51.3642 57.1859L51.4553 57.7701C51.5387 58.2936 51.6146 59.0068 51.6981 59.7807C51.8271 60.9946 51.9788 62.3603 52.1761 63.339H52.1912L52.2368 63.5666C52.305 63.9308 52.3733 64.1508 52.4264 64.2874C52.4416 64.2646 52.4492 64.2418 52.4644 64.2115L52.6996 63.7108C55.3854 58.0812 59.8845 48.6657 66.3866 51.1618C67.3122 51.5184 68.0709 52.353 68.6551 53.6504C70.7567 58.3771 70.0359 67.9367 66.9632 75.8955C66.4852 77.1246 66.0224 78.1716 65.552 79.0973C63.5414 83.2094 60.9087 86.525 57.8815 88.7555C59.7707 88.7024 63.0483 88.93 64.7022 90.9027C65.8175 92.238 65.9996 94.1196 65.2409 96.4943C64.118 99.9768 54.9453 103.945 46.3644 106.327C40.621 107.928 35.0521 108.884 30.682 109.021C30.3937 109.021 30.1054 109.028 29.8247 109.028L29.8019 109.021ZM6.34281 45.7674C4.72677 45.7674 3.23971 46.5413 1.91198 48.0739C-3.82381 54.6898 13.2622 78.4979 13.4367 78.7331L13.4974 78.8241V78.9303C14.8706 97.8372 24.5441 98.1862 24.6427 98.1862L25.9629 98.2014L24.8324 98.8842C20.5761 101.464 21.7141 105.037 21.8583 105.439C22.7611 107.92 27.1237 108.338 30.6289 108.247C34.9383 108.118 40.4465 107.169 46.1292 105.584C56.053 102.829 63.6021 98.9904 64.4898 96.2515C65.1651 94.1423 65.0361 92.5035 64.0953 91.3807C62.0089 88.8845 56.5841 89.5901 56.531 89.5977L54.786 89.8329L56.2806 88.8997C59.6796 86.7753 62.6386 83.2625 64.8464 78.7482C65.3092 77.8378 65.7644 76.8136 66.2348 75.6072C69.6566 66.738 69.6642 57.8308 67.9419 53.9462C67.4488 52.8385 66.8266 52.1329 66.0983 51.8522C60.2411 49.5989 55.9392 58.6274 53.3672 64.0142L53.1244 64.515C53.0637 64.6364 53.0258 64.7047 52.9803 64.7805C52.7223 65.1675 52.4568 65.1978 52.2747 65.1599C51.9257 65.0916 51.6905 64.7122 51.5084 63.908L51.3567 63.8625L51.4249 63.5818C51.2125 62.5575 51.0532 61.116 50.9166 59.8338C50.8332 59.0751 50.7573 58.3771 50.6814 57.8612L50.5904 57.2845C49.1109 47.9221 47.2748 36.2609 43.0792 33.4537C42.1764 32.8467 41.2204 32.6798 40.1506 32.9378C38.9443 33.2336 37.9883 33.9848 37.3055 35.1683C33.952 40.9724 36.2433 57.3832 36.2661 57.5501L36.3116 57.8612L22.2907 62.5727L22.1466 62.2768C22.0707 62.1175 14.294 46.7234 6.97253 45.7978C6.75251 45.7674 6.53248 45.7598 6.32005 45.7598L6.34281 45.7674Z" fill="#060606"/>
<path d="M52.654 64.5984C52.654 64.5984 37.5027 70.357 42.753 87.701L52.654 64.5984Z" fill="white"/>
<path d="M42.3889 87.8148C37.1007 70.3342 52.3658 64.3101 52.5175 64.2495L52.7907 64.955C52.1837 65.1826 38.0339 70.7971 43.1172 87.5947L42.3889 87.8148Z" fill="#060606"/>
<path d="M23.5577 66.0096C26.2359 73.7408 30.2722 82.777 36.1066 80.5464C42.1762 78.2171 40.3022 68.8775 37.6164 61.1387C34.9382 53.4076 30.1735 53.0889 26.9187 54.3408C23.937 55.494 20.8794 58.2708 23.5577 66.0096Z" fill="white"/>
<path d="M34.3238 81.2671C33.5878 81.2671 32.8671 81.1002 32.1615 80.774C28.0114 78.8469 25.06 71.495 23.2012 66.131C21.0161 59.8338 22.2225 55.7444 26.7823 53.9842C28.2238 53.4303 30.4089 52.9827 32.6622 54.0297C34.9535 55.0919 36.7364 57.4439 37.9731 61.0098C41.8729 72.2613 41.2887 78.9531 36.2357 80.8954C35.5908 81.1457 34.9535 81.2671 34.3162 81.2671H34.3238ZM23.9144 65.8806C25.7277 71.1081 28.588 78.2703 32.4725 80.0836C33.6182 80.6147 34.7638 80.6526 35.9626 80.1898C40.5603 78.4296 40.9928 72.0565 37.2524 61.2601C36.084 57.8915 34.43 55.6913 32.336 54.7201C30.3254 53.7869 28.3528 54.189 27.0478 54.6974C22.8825 56.3058 21.8583 59.9628 23.9144 65.8882V65.8806Z" fill="#060606"/>
<path d="M29.9394 97.7412L24.6174 98.1946L24.6818 98.9506L30.0038 98.4972L29.9394 97.7412Z" fill="#060606"/>
<path d="M56.324 88.8869L49.666 91.9507L49.9832 92.6399L56.6412 89.5762L56.324 88.8869Z" fill="#060606"/>
<path d="M52.654 64.5984C52.654 64.5984 37.5027 70.357 42.753 87.701L52.654 64.5984Z" fill="white"/>
<path d="M42.3889 87.8148C37.1007 70.3342 52.3658 64.3101 52.5175 64.2495L52.7907 64.955C52.1837 65.1826 38.0339 70.7971 43.1172 87.5947L42.3889 87.8148Z" fill="#060606"/>
<path d="M248.46 145.507C249.629 150.142 250.372 154.914 250.706 159.785C250.759 160.536 250.797 161.288 250.812 162.016C264.006 156.652 274.977 145.552 281.122 131.888C287.64 117.404 287.655 100.652 287.313 85.091C287.184 80.6905 287.344 76.1914 287.42 71.6771C287.556 62.641 287.42 53.5593 284.362 45.1149C284.294 44.9935 284.241 44.8266 284.21 44.6901C282.124 39.7205 276.889 39.8343 273.346 42.5277C273.057 42.7478 272.769 42.9906 272.511 43.2485C271.236 44.4776 270.303 46.1012 270.015 47.9069C269.78 49.2195 269.886 50.6307 270.417 52.1178C272.595 58.1267 272.321 65.4785 271.98 72.4813C271.798 75.8727 271.616 79.1959 271.692 82.2686C271.988 94.423 272.375 106.995 269.211 118.853C266.388 129.407 258.452 139.702 248.46 145.522V145.507Z" fill="#060606"/>
<path d="M262.223 4.43326C263.566 4.36497 264.712 4.8733 265.668 5.78375C270.417 10.2677 272.761 25.988 272.761 25.988L286.122 26.4508C286.122 26.4508 290.561 1.09496 301.175 7.86259C308.481 12.5059 299.164 39.1743 299.164 39.1743C303.17 57.2466 294.035 60.0462 294.035 60.0462C298.231 61.1387 298.838 64.2873 298.77 65.5468C298.633 67.876 295.652 69.6134 291.319 70.7894C287.154 71.8971 281.76 72.4813 276.471 72.58C267.473 72.7545 258.779 71.495 257.018 68.9306C252.155 61.8291 262.671 60.1979 262.671 60.1979C258.634 59.0826 255.015 56.4879 251.996 53.2103C251.245 52.4212 250.547 51.5791 249.871 50.7141C243.324 42.247 240.433 31.1244 243.642 28.6586C248.741 24.721 255.38 32.3459 259.302 36.6706C259.378 36.754 259.431 36.7995 259.484 36.8526C259.947 37.232 260.053 36.6705 259.962 35.7525C259.962 35.7525 259.977 35.7449 259.962 35.7298C259.848 34.182 259.272 31.6176 259.09 30.2899C257.565 18.9321 255.562 4.82778 262.223 4.44843V4.43326Z" fill="white"/>
<path d="M274.886 72.9593C266.904 72.9593 258.551 71.8137 256.707 69.1355C255.372 67.178 255.023 65.4254 255.676 63.908C256.631 61.6926 259.484 60.6001 261.222 60.1221C257.899 58.9081 254.636 56.632 251.715 53.4607C251.04 52.7551 250.334 51.9281 249.568 50.9418C244.636 44.5611 241.389 36.0864 242.019 31.2382C242.193 29.8953 242.656 28.9318 243.407 28.3552C248.642 24.3189 255.266 31.6479 259.226 36.0257L259.575 36.4126C259.575 36.4126 259.59 36.4278 259.598 36.4354C259.606 36.2988 259.598 36.0939 259.575 35.7829L259.552 35.5553H259.56C259.469 34.6069 259.234 33.3399 259.029 32.217C258.892 31.4962 258.771 30.8285 258.703 30.3354L258.627 29.7891C257.352 20.2902 255.903 9.52416 259.15 5.59408C259.932 4.6457 260.956 4.13737 262.193 4.06909C263.566 4.00081 264.825 4.48638 265.918 5.5258C270.394 9.75177 272.716 23.3326 273.08 25.6314L285.804 26.0715C286.259 23.674 289.165 9.60003 295.462 6.82318C297.328 6.00378 299.316 6.24657 301.372 7.55154C308.694 12.2024 300.272 37.1258 299.551 39.2046C302.799 54.0145 297.374 58.7109 295.083 59.9931C298.428 61.2753 299.225 64.037 299.142 65.5771C299.005 67.8988 296.334 69.8335 291.41 71.1612C287.412 72.2234 282.109 72.8607 276.464 72.9593C275.933 72.9669 275.402 72.9745 274.871 72.9745L274.886 72.9593ZM246.753 27.9455C245.752 27.9455 244.788 28.249 243.878 28.947C243.293 29.3946 242.929 30.1912 242.778 31.3293C242.262 35.3049 244.674 43.3699 250.167 50.4714C250.918 51.4349 251.601 52.2391 252.269 52.9371C255.493 56.4348 259.12 58.8095 262.769 59.8186L264.469 60.289L262.731 60.5621C262.678 60.5697 257.587 61.3967 256.374 64.2115C255.827 65.4709 256.154 66.9883 257.329 68.7106C258.87 70.9488 266.745 72.3903 276.464 72.193C282.04 72.0944 287.283 71.4647 291.228 70.4177C294.415 69.5527 298.246 68.005 298.398 65.524C298.421 65.1295 298.482 61.594 293.952 60.4104L292.67 60.0765L293.929 59.682C294.02 59.6517 302.67 56.7231 298.8 39.2501L298.777 39.1439L298.815 39.0453C298.906 38.7798 307.95 12.6121 300.978 8.18126C299.149 7.01286 297.404 6.79283 295.781 7.50601C289.407 10.3132 286.532 26.3522 286.502 26.5191L286.449 26.8454L272.443 26.3674L272.397 26.0563C272.375 25.897 270.015 10.4194 265.417 6.07206C264.484 5.18438 263.437 4.7671 262.253 4.82779C261.222 4.88849 260.402 5.29819 259.757 6.07965C256.723 9.75177 258.21 20.8061 259.401 29.6905L259.477 30.2368C259.545 30.7223 259.666 31.3748 259.795 32.088C260.015 33.2792 260.258 34.6145 260.342 35.6008L260.493 35.836L260.364 35.9346C260.425 36.7313 260.311 37.1258 260 37.2927C259.871 37.361 259.606 37.4368 259.257 37.1485C259.181 37.0803 259.12 37.0196 259.037 36.9285L258.68 36.534C255.63 33.1654 250.926 27.9606 246.761 27.9606L246.753 27.9455Z" fill="#060606"/>
<path d="M259.484 36.8375C259.484 36.8375 274.764 37.9604 274.696 55.0843L259.484 36.8375Z" fill="white"/>
<path d="M275.083 55.0919H274.324C274.347 48.1346 271.866 43.0209 266.942 39.8799C263.255 37.5279 259.499 37.2244 259.461 37.2168L259.515 36.4581C259.674 36.4733 275.144 37.801 275.083 55.0843V55.0919Z" fill="#060606"/>
<path d="M286.229 30.2519C285.895 37.9831 284.673 47.2621 278.793 46.8068C272.671 46.3365 271.844 37.3686 272.177 29.6374C272.511 21.9062 276.745 20.3281 280.038 20.5937C283.05 20.8289 286.57 22.5208 286.236 30.2519H286.229Z" fill="white"/>
<path d="M279.195 47.2014C279.051 47.2014 278.907 47.2014 278.763 47.1862C273.649 46.7917 271.305 40.889 271.798 29.6222C271.957 26.0487 272.944 23.4312 274.734 21.8455C276.494 20.2826 278.611 20.0929 280.068 20.2067C284.688 20.5709 286.889 23.9547 286.615 30.2595C286.38 35.6236 285.697 43.0816 282.45 45.9571C281.525 46.7765 280.432 47.1938 279.203 47.1938L279.195 47.2014ZM279.37 20.9427C278.126 20.9427 276.555 21.2386 275.227 22.4145C273.596 23.8561 272.693 26.2915 272.549 29.6526C272.079 40.4262 274.188 46.0709 278.816 46.4275C280.03 46.5185 281.047 46.1847 281.934 45.3957C284.961 42.7099 285.614 35.4566 285.842 30.2368C286.1 24.3341 284.188 21.2992 279.992 20.973C279.795 20.9578 279.582 20.9502 279.362 20.9502L279.37 20.9427Z" fill="#060606"/>
<path d="M293.961 59.6935L289.021 60.7175L289.174 61.4604L294.115 60.4364L293.961 59.6935Z" fill="#060606"/>
<path d="M262.723 59.7963L262.615 60.5474L269.481 61.5269L269.588 60.7758L262.723 59.7963Z" fill="#060606"/>
<path d="M259.484 36.8375C259.484 36.8375 274.764 37.9604 274.696 55.0843L259.484 36.8375Z" fill="white"/>
<path d="M275.083 55.0919H274.324C274.347 48.1346 271.866 43.0209 266.942 39.8799C263.255 37.5279 259.499 37.2244 259.461 37.2168L259.515 36.4581C259.674 36.4733 275.144 37.801 275.083 55.0843V55.0919Z" fill="#060606"/>
</g>
<defs>
<clipPath id="clip0_197_2947">
<rect width="311" height="386.4" fill="white" transform="translate(0 0.966003)"/>
</clipPath>
</defs>
</svg>
