<svg width="361" height="548" viewBox="0 0 361 548" fill="none" xmlns="http://www.w3.org/2000/svg">
<g clip-path="url(#clip0_197_283)">
<rect width="361" height="548" rx="8" fill="#E5F4D0"/>
<path d="M340.765 286.015L474 425.301L283.516 408.305L256.371 591L154.869 438.507L-0.95253 530.595L51.6786 353.881L-137 293.743L51.6786 218.148L-7.61281 31.7519L154.869 133.493L256.371 -19L283.516 163.695L462.722 150.252L340.765 286.015Z" fill="#B6CCC6"/>
<g clip-path="url(#clip1_197_283)">
<path d="M218.328 310.736C214.562 309.153 211.189 311.191 209.337 314.426C196.268 337.286 174.065 354.071 148.971 361.491C145.409 362.545 143.834 367.179 145.11 370.414C146.576 374.131 150.457 375.334 154.02 374.28C182.886 365.745 207.118 345.773 222.013 319.733C223.858 316.505 221.443 312.041 218.328 310.729V310.736Z" fill="#060606"/>
<path d="M283.797 279.729C291.648 285.002 299.519 290.289 307.859 294.774C311.923 296.962 316.103 299.068 320.467 300.611C322.59 301.365 326.01 303.03 326.743 300.101C327.693 296.33 326.784 291.641 325.99 287.89C324.986 283.133 323.554 278.471 322.224 273.803C319.354 263.746 316.477 253.682 313.606 243.624C311.17 235.096 324.423 231.461 326.852 239.968C330.218 251.759 333.617 263.542 336.956 275.345C339.752 285.226 344.04 299.53 337.784 308.963C330.17 320.433 315.533 313.869 305.972 309.241C295.746 304.287 286.287 297.934 276.875 291.614C269.574 286.707 276.441 274.788 283.81 279.735L283.797 279.729Z" fill="#060606"/>
<path d="M312.052 223.238C312.052 223.238 297.015 202.315 290.032 208.091C284.536 212.637 303.109 230.448 303.109 230.448L312.052 223.238Z" fill="white"/>
<path d="M303.088 230.91L302.871 230.699C302.281 230.135 288.438 216.776 288.675 210.272C288.716 209.239 289.096 208.417 289.815 207.826C290.881 206.949 292.177 206.596 293.676 206.793C301.283 207.778 311.883 222.416 312.33 223.041L312.52 223.306L303.088 230.91ZM292.876 207.432C291.865 207.432 291.003 207.738 290.25 208.363C289.68 208.832 289.388 209.471 289.361 210.306C289.15 216.082 301.338 228.246 303.129 230L311.584 223.184C310.098 221.179 300.36 208.356 293.588 207.479C293.344 207.445 293.106 207.432 292.883 207.432H292.876Z" fill="#060606"/>
<path d="M319.917 219.195C319.917 219.195 318.553 193.889 309.996 196.872C301.446 199.855 310.858 222.932 310.858 222.932L319.917 219.195Z" fill="white"/>
<path d="M310.668 223.381L310.539 223.061C310.261 222.382 303.78 206.317 306.915 199.373C307.553 197.959 308.551 197.008 309.888 196.546C311.218 196.084 312.473 196.233 313.613 196.994C319.211 200.752 320.222 218.427 320.263 219.174L320.277 219.419L310.675 223.381H310.668ZM311.36 196.967C310.96 196.967 310.539 197.042 310.112 197.191C308.965 197.592 308.096 198.421 307.54 199.651C304.764 205.808 310.139 220.146 311.048 222.477L319.557 218.964C319.415 216.796 318.2 200.901 313.226 197.558C312.636 197.157 312.018 196.96 311.367 196.96L311.36 196.967Z" fill="#060606"/>
<path d="M301.147 233.044C301.147 233.044 299.302 246.478 311.177 247.634C311.177 247.634 308.625 253.539 315.397 253.158C322.17 252.778 334.506 246.961 328.725 241.728C328.725 241.728 338.096 230.217 325.875 220.296L301.147 233.044Z" fill="white"/>
<path d="M314.793 253.519C312.941 253.519 311.645 253.009 310.946 252.003C309.989 250.63 310.43 248.762 310.708 247.926C307.573 247.532 305.124 246.241 303.421 244.08C299.94 239.669 300.774 233.268 300.808 233.003L300.835 232.826L300.991 232.745L325.922 219.888L326.098 220.031C329.898 223.116 332.036 226.677 332.436 230.604C333.006 236.129 330.007 240.594 329.193 241.694C330.787 243.271 330.72 244.786 330.36 245.799C328.928 249.863 320.439 253.226 315.418 253.505C315.201 253.519 314.997 253.525 314.793 253.525V253.519ZM301.466 233.268C301.358 234.321 300.964 239.867 303.957 243.658C305.619 245.765 308.062 246.988 311.211 247.294L311.679 247.342L311.496 247.776C311.496 247.776 310.491 250.155 311.509 251.616C312.14 252.526 313.45 252.934 315.377 252.819C320.67 252.52 328.48 249.047 329.708 245.568C330.15 244.318 329.742 243.115 328.494 241.987L328.25 241.769L328.453 241.518C328.494 241.47 332.362 236.632 331.744 230.672C331.364 226.996 329.376 223.639 325.827 220.71L301.46 233.275L301.466 233.268Z" fill="#060606"/>
<path d="M311.679 247.98C311.387 247.98 311.204 247.98 311.17 247.98L311.19 247.294C311.224 247.294 314.922 247.403 317.548 246.519L317.766 247.172C315.587 247.906 312.812 247.987 311.679 247.987V247.98Z" fill="#060606"/>
<path d="M323.595 244.746L323.405 244.086C323.405 244.086 325.841 243.366 328.528 241.45L328.928 242.007C326.139 243.998 323.697 244.712 323.595 244.739V244.746Z" fill="#060606"/>
<path d="M324.307 213.942C322.665 214.071 321.003 215.281 320.148 216.735C318.872 218.903 319.001 221.736 319.483 224.128C319.903 226.201 320.935 228.532 323.296 228.81C326.675 229.211 328.202 225.977 328.691 223.163C329.145 220.527 328.989 217.265 327.157 215.145C326.343 214.2 325.332 213.867 324.314 213.942H324.307Z" fill="white"/>
<path d="M323.839 229.184C323.649 229.184 323.452 229.17 323.255 229.15C321.199 228.905 319.74 227.145 319.15 224.196C318.512 221.016 318.75 218.447 319.856 216.565C320.826 214.92 322.604 213.731 324.287 213.602C325.501 213.507 326.587 213.962 327.415 214.92C329.709 217.577 329.308 221.614 329.03 223.224C328.372 227.01 326.458 229.191 323.846 229.191L323.839 229.184ZM324.334 214.282C322.889 214.39 321.287 215.471 320.439 216.912C319.421 218.644 319.211 221.05 319.815 224.06C320.188 225.922 321.104 228.206 323.33 228.471C326.96 228.905 328.039 224.862 328.345 223.102C328.609 221.587 328.989 217.802 326.886 215.369C326.2 214.574 325.345 214.214 324.327 214.288L324.334 214.282Z" fill="#060606"/>
<path d="M301.107 233.214C302.79 226.473 312.846 221.403 316.612 219.664C318.77 218.665 321.118 217.985 322.909 219.548C328.799 224.699 315.479 234.661 315.479 234.661C315.479 234.661 319.286 238.555 315.968 242" fill="white"/>
<path d="M316.212 242.245L315.717 241.769C318.77 238.603 315.377 235.055 315.235 234.906L314.963 234.627L315.275 234.389C315.364 234.328 323.88 227.893 324.07 222.898C324.117 221.675 323.663 220.663 322.685 219.806C320.989 218.325 318.736 219.059 316.755 219.976C311.693 222.314 302.973 227.152 301.439 233.295L300.774 233.125C302.376 226.704 311.299 221.736 316.47 219.351C318.526 218.407 321.138 217.537 323.14 219.29C324.267 220.275 324.809 221.498 324.755 222.926C324.572 227.757 317.542 233.499 315.981 234.716C316.802 235.721 319.191 239.16 316.219 242.245H316.212Z" fill="#060606"/>
<path d="M239.445 356.069C239.174 351.984 235.849 349.878 232.13 349.667C205.869 348.186 180.945 335.811 163.092 316.655C160.561 313.937 155.709 314.596 153.395 317.192C150.729 320.168 151.394 324.184 153.932 326.902C174.465 348.94 203.142 361.709 233.06 363.394C236.765 363.605 239.676 359.446 239.452 356.069H239.445Z" fill="#060606"/>
<path d="M75.1968 300.326C67.3458 305.599 59.4743 310.886 51.1347 315.371C47.07 317.559 42.89 319.665 38.5268 321.208C36.4029 321.962 32.9829 323.627 32.25 320.698C31.3 316.927 32.2093 312.238 33.0033 308.487C34.0075 303.73 35.4393 299.068 36.7693 294.4C39.6397 284.343 42.5168 274.279 45.3872 264.221C47.8233 255.693 34.5708 252.058 32.1415 260.565C28.7758 272.356 25.3761 284.139 22.0375 295.942C19.2418 305.823 14.9533 320.127 21.2097 329.559C28.8233 341.03 43.46 334.466 53.0211 329.838C63.2472 324.884 72.7065 318.53 82.1183 312.211C89.4197 307.304 82.5525 295.385 75.1833 300.332L75.1968 300.326Z" fill="#060606"/>
<path d="M47.3076 270.324C47.3076 270.324 52.0643 280.49 38.2554 276.8C24.4465 273.103 18.9026 269.76 27.344 265.465C27.344 265.465 15.3876 260.722 30.0515 230.217C30.8047 228.64 32.0601 226.894 33.804 226.867C36.2468 226.826 38.1536 231.365 35.9822 244.508C35.9822 244.508 40.6847 221.634 46.7647 224.183C47.9183 224.665 48.5154 225.963 48.6579 227.213C48.9565 229.775 47.2601 240.125 45.0004 247.294C45.0004 247.294 49.8047 233.853 53.0686 230.108C56.3326 226.364 60.7433 226.636 58.8568 235.592C58.3683 237.903 57.6897 240.172 56.8822 242.388L53.0618 252.866C53.0618 252.866 62.2565 243.808 66.0565 248.13C68.4451 250.841 60.0579 269.916 47.294 270.33L47.3076 270.324Z" fill="white"/>
<path d="M43.3922 277.948C41.9536 277.948 40.2097 277.676 38.174 277.133C27.819 274.36 23.2861 272.111 23.0283 269.597C22.8858 268.217 24.0597 266.858 26.6315 265.458C25.8376 264.942 24.4261 263.732 23.449 261.238C21.6779 256.692 21.3251 247.593 29.7529 230.067C30.5197 228.471 31.8497 226.554 33.804 226.52C34.4758 226.5 35.134 226.819 35.6497 227.41C37.0815 229.075 37.5701 232.956 37.0951 238.569C38.6083 233.146 41.214 225.698 44.4236 224.006C45.2515 223.564 46.0861 223.517 46.9072 223.863C48.0336 224.339 48.8208 225.569 49.0108 227.173C49.2415 229.123 48.3594 235.266 46.9954 241.192C48.6783 237.08 50.9719 232.004 52.8244 229.884C54.5683 227.886 56.5904 227.044 57.9815 227.737C58.9586 228.226 60.4244 229.904 59.2097 235.667C58.7415 237.882 58.0901 240.118 57.2215 242.51L53.8829 251.657C55.8508 249.924 60.1597 246.506 63.5594 246.621C64.6858 246.662 65.6222 247.09 66.3347 247.899C67.4272 249.142 66.5247 252.581 65.3169 255.38C62.1819 262.652 55.5861 270.093 47.8165 270.643C48.244 271.764 49.1058 274.632 47.5858 276.453C46.7511 277.452 45.3465 277.948 43.3922 277.948ZM33.8379 227.207H33.8108C32.2026 227.234 31.049 228.939 30.3636 230.366C22.0444 247.668 22.3565 256.57 24.0801 260.987C25.3626 264.276 27.4526 265.139 27.4729 265.146L28.1786 265.424L27.5001 265.771C24.8604 267.116 23.5779 268.38 23.7001 269.529C23.9919 272.315 32.1958 274.822 38.3436 276.467C42.7951 277.656 45.8079 277.5 47.0497 276.005C48.6579 274.082 47.009 270.5 46.9954 270.466L46.7715 269.991L47.294 269.977C56.0747 269.692 62.3515 260.491 64.679 255.102C66.2804 251.392 66.389 249 65.8122 248.347C65.2219 247.674 64.4754 247.335 63.5322 247.301C59.4404 247.165 53.374 253.05 53.3129 253.104L52.2272 254.171L56.5701 242.259C57.4319 239.894 58.0765 237.685 58.5311 235.504C59.3454 231.63 59.0333 229.014 57.6694 228.335C56.5904 227.798 54.8465 228.593 53.3401 230.319C50.1508 233.975 45.3804 247.26 45.3329 247.389L44.6815 247.172C46.8869 240.166 48.6308 229.83 48.3254 227.234C48.1694 225.888 47.5383 224.855 46.6426 224.482C46.0115 224.217 45.394 224.257 44.7426 224.604C39.9586 227.139 36.3622 244.392 36.3215 244.562L35.6497 244.44C37.6515 232.337 35.9551 228.81 35.1272 227.852C34.754 227.417 34.3197 227.2 33.8379 227.2V227.207Z" fill="#060606"/>
<path d="M31.4634 243.606L31.2925 244.271L49.2717 248.907L49.4426 248.242L31.4634 243.606Z" fill="#060606"/>
<path d="M38.6082 260.892L37.95 260.688C41.0782 250.698 51.9692 253.987 52.0846 254.021L51.881 254.681C51.881 254.681 49.2414 253.872 46.3032 254.252C42.4217 254.755 39.8296 256.991 38.6082 260.898V260.892Z" fill="#060606"/>
<path d="M46.2491 270.738C45.2584 270.738 44.2744 270.629 43.3041 270.419C41.9198 270.113 40.5898 269.597 39.3616 268.883L39.7076 268.285C40.8748 268.965 42.1369 269.454 43.4534 269.746C44.5798 269.991 45.7334 270.093 46.8869 270.031L46.9209 270.718C46.6969 270.731 46.473 270.731 46.2491 270.731V270.738Z" fill="#060606"/>
<path d="M27.4526 265.125L27.2532 265.781L31.9923 267.225L32.1918 266.569L27.4526 265.125Z" fill="#060606"/>
<path d="M163.954 374.036C161.735 385.975 159.638 396.671 157.983 405.002C156.171 414.102 148.048 420.374 139.044 419.592C118.632 417.832 84.5815 412.573 66.294 408.278C59.5287 406.681 55.2197 399.845 56.4887 392.839C56.4887 392.839 59.3319 376.699 63.193 355.178C66.8572 334.867 71.4376 309.744 75.414 288.889C78.8951 270.602 81.9419 255.598 83.4687 249.985C89.5962 227.56 103.819 225.521 118.028 230.883L123.973 194.283L125.547 184.538L127.433 172.965L130.772 152.423L132.665 140.762L133.988 132.573L134.009 132.417L168.806 138.023L167.625 145.709L166.607 152.362L165.712 158.213L162.61 178.415L162.556 178.782L153.85 235.565C153.85 235.565 180.375 236.346 181.027 260.097C181.366 272.043 177.349 286.871 175.028 304.96C172.131 327.718 167.849 352.834 163.934 374.029L163.954 374.036Z" fill="#125B48"/>
<path d="M140.564 420C140.048 420 139.539 419.98 139.016 419.932C118.347 418.152 84.3303 412.865 66.2193 408.611C59.2639 406.966 54.8396 400.008 56.1561 392.777C56.1832 392.621 59.04 376.394 62.8603 355.117C67.8886 327.256 71.8853 305.572 75.0814 288.821C77.7753 274.686 81.3582 256.454 83.1428 249.89C85.8503 239.975 90.3493 233.35 96.5107 230.203C102.258 227.268 109.404 227.336 117.764 230.414L133.676 132.383L133.717 132.03L169.206 137.751L162.909 178.85L154.257 235.259C157.555 235.483 180.769 237.882 181.386 260.097C181.604 267.646 180.097 276.256 178.36 286.225C177.322 292.164 176.25 298.307 175.395 305.014C172.945 324.286 169.206 347.527 164.293 374.097C161.939 386.77 159.76 397.84 158.322 405.07C156.578 413.816 149.093 420 140.564 420ZM105.916 228.742C102.57 228.742 99.5303 229.436 96.8228 230.815C90.8378 233.873 86.4611 240.349 83.8011 250.073C82.0232 256.617 78.4403 274.822 75.7532 288.95C72.5571 305.694 68.5603 327.378 63.5321 355.239C59.7118 376.516 56.855 392.737 56.8278 392.9C55.5793 399.777 59.7728 406.382 66.3753 407.945C84.4593 412.185 118.429 417.472 139.071 419.246C147.879 420.027 155.865 413.864 157.643 404.935C159.082 397.711 161.26 386.634 163.615 373.968C168.527 347.411 172.26 324.178 174.709 304.919C175.571 298.199 176.643 292.049 177.681 286.103C179.419 276.168 180.911 267.592 180.701 260.11C180.436 250.399 175.842 243.38 167.062 239.241C160.486 236.143 153.918 235.918 153.857 235.912L153.47 235.898L168.426 138.315L134.307 132.818L118.3 231.352L117.906 231.202C113.563 229.565 109.553 228.742 105.909 228.742H105.916Z" fill="#060606"/>
<path d="M168.894 247.906C168.812 247.872 168.731 247.838 168.65 247.81C166.437 247.029 163.336 248.035 163.173 250.76C163.024 253.322 165.582 254.613 166.838 256.454C168.738 259.24 167.944 263.379 167.788 266.559C167.652 269.332 167.903 273.314 171.567 273.572C176.127 273.891 175.639 267.925 175.693 264.765C175.761 260.871 175.544 256.712 173.854 253.145C172.87 251.065 171.058 248.789 168.894 247.906Z" fill="white"/>
<path d="M171.907 273.925C171.785 273.925 171.669 273.925 171.54 273.912C168.588 273.708 167.204 271.227 167.442 266.539C167.469 265.975 167.516 265.377 167.564 264.765C167.788 261.986 168.039 258.839 166.546 256.644C166.166 256.087 165.664 255.584 165.128 255.048C163.94 253.865 162.712 252.642 162.827 250.732C162.895 249.57 163.445 248.619 164.422 247.967C165.63 247.165 167.333 246.968 168.758 247.477C168.846 247.511 168.935 247.545 169.023 247.579C171.377 248.537 173.216 251.004 174.16 252.989C175.924 256.712 176.1 261.034 176.032 264.765C176.032 265.071 176.032 265.404 176.032 265.757C176.032 268.163 176.032 271.465 174.35 273.028C173.718 273.619 172.897 273.918 171.913 273.918L171.907 273.925ZM167.109 247.899C166.275 247.899 165.447 248.123 164.802 248.551C164.252 248.918 163.581 249.598 163.513 250.78C163.418 252.377 164.483 253.437 165.61 254.565C166.146 255.095 166.695 255.646 167.109 256.257C168.738 258.649 168.473 261.925 168.242 264.819C168.195 265.424 168.147 266.015 168.12 266.573C167.91 270.867 169.036 273.042 171.581 273.225C172.551 273.293 173.298 273.069 173.868 272.532C175.327 271.166 175.333 268.047 175.333 265.764C175.333 265.411 175.333 265.071 175.333 264.758C175.401 261.109 175.232 256.889 173.528 253.294C172.64 251.426 170.923 249.108 168.751 248.225C168.677 248.191 168.595 248.164 168.521 248.137C168.073 247.98 167.584 247.899 167.102 247.899H167.109Z" fill="white"/>
<path d="M71.3628 365.684C69.456 365.623 68.0921 367.023 67.7731 369.041C66.701 375.87 65.6221 382.7 64.5499 389.529C64.2513 391.418 65.8596 393.375 67.5424 393.43C69.4492 393.491 70.8131 392.091 71.1321 390.073C72.2042 383.243 73.2831 376.414 74.3553 369.585C74.6538 367.696 73.0456 365.738 71.3628 365.684Z" fill="white"/>
<path d="M162.576 178.796L127.44 172.972L130.785 152.43L165.732 158.226L162.631 178.429L162.576 178.796Z" fill="#FFBF00"/>
<path d="M162.861 179.197L127.046 173.258L130.5 152.035L166.119 157.948L162.861 179.204V179.197ZM127.834 172.687L162.285 178.402V178.381L165.338 158.512L131.064 152.824L127.834 172.687Z" fill="#060606"/>
<path d="M168.107 133.808L135.587 128.399C133.964 128.129 132.43 129.228 132.16 130.853L131.722 133.495C131.453 135.12 132.55 136.656 134.173 136.926L166.692 142.335C168.315 142.605 169.85 141.506 170.119 139.881L170.557 137.24C170.827 135.614 169.73 134.078 168.107 133.808Z" fill="#125B48"/>
<path d="M167.184 142.699C167.001 142.699 166.824 142.685 166.641 142.651L134.117 137.242C133.242 137.099 132.475 136.617 131.959 135.896C131.444 135.176 131.24 134.293 131.382 133.416L131.824 130.773C132.122 128.965 133.839 127.735 135.644 128.034L168.168 133.443C169.043 133.586 169.81 134.068 170.326 134.789C170.841 135.509 171.045 136.392 170.902 137.269L170.461 139.912C170.19 141.537 168.779 142.692 167.191 142.692L167.184 142.699ZM166.75 141.978C168.181 142.216 169.539 141.244 169.776 139.81L170.217 137.167C170.332 136.474 170.17 135.774 169.762 135.203C169.355 134.632 168.745 134.252 168.052 134.136L135.529 128.727C134.097 128.496 132.74 129.461 132.502 130.895L132.061 133.538C131.946 134.231 132.109 134.931 132.516 135.502C132.923 136.073 133.534 136.454 134.226 136.569L166.75 141.978Z" fill="#060606"/>
<path d="M133.16 392.458L87.8522 384.704C78.8136 383.155 72.7404 374.566 74.2808 365.514L87.9472 285.396L165.983 298.749L152.316 378.867C150.769 387.919 142.192 394.001 133.154 392.458H133.16Z" fill="#FFBF00"/>
<path d="M135.99 393.049C135.033 393.049 134.063 392.968 133.099 392.805L87.7911 385.051C83.3329 384.29 79.4311 381.83 76.8186 378.133C74.2061 374.437 73.1814 369.938 73.9414 365.467L87.6689 285.015L88.0082 285.077L166.383 298.484L166.329 298.824L152.663 378.942C151.903 383.413 149.446 387.314 145.755 389.93C142.857 391.982 139.471 393.056 135.997 393.056L135.99 393.049ZM88.2254 285.804L74.62 365.582C73.8872 369.87 74.8711 374.185 77.375 377.732C79.8857 381.28 83.6247 383.638 87.9064 384.371L133.215 392.125C137.496 392.859 141.805 391.874 145.348 389.366C148.89 386.852 151.244 383.108 151.977 378.82L165.589 299.041L88.2322 285.81L88.2254 285.804Z" fill="#060606"/>
<path d="M147.614 331.816C148.116 332.074 148.516 332.475 148.917 332.889C149.27 333.331 149.609 333.813 149.819 334.357C150.294 335.431 150.403 336.654 150.247 337.809C150.098 338.978 149.589 340.031 149.025 341.003C148.706 341.465 148.367 341.914 148.014 342.335C147.607 342.715 147.227 343.123 146.8 343.47L146.745 343.429L147.716 342.131C148.001 341.676 148.279 341.214 148.55 340.752L148.89 340.018C149.005 339.773 149.114 339.528 149.188 339.27L149.433 338.502L149.575 337.714C149.731 336.654 149.67 335.56 149.317 334.547C148.978 333.535 148.374 332.597 147.58 331.884L147.621 331.829L147.614 331.816Z" fill="#060606"/>
<path d="M150.247 331.829C151.17 332.121 151.991 332.774 152.534 333.623C153.104 334.466 153.368 335.505 153.389 336.518C153.416 337.544 153.124 338.509 152.764 339.406C152.554 339.841 152.317 340.262 152.065 340.67C151.76 341.044 151.489 341.438 151.163 341.778L151.102 341.744L151.74 340.514C151.923 340.092 152.086 339.657 152.255 339.229C152.507 338.346 152.751 337.442 152.703 336.525C152.703 335.614 152.5 334.69 152.065 333.881C151.638 333.073 151 332.366 150.22 331.883L150.254 331.822L150.247 331.829Z" fill="#060606"/>
<path d="M93.6879 322.886C92.7311 323.41 91.944 324.11 91.3197 324.877C90.7022 325.659 90.2611 326.549 90.0033 327.507L89.8133 328.228C89.7793 328.479 89.7522 328.73 89.7115 328.982C89.6097 329.478 89.6572 330.001 89.5961 330.518C89.6165 331.034 89.6165 331.564 89.6233 332.101C89.6436 332.638 89.7047 333.168 89.6979 333.732L89.63 333.752L89.2636 332.169C89.1822 331.632 89.1143 331.095 89.0533 330.558C89.0261 329.478 89.0125 328.377 89.3382 327.324C89.6368 326.277 90.1661 325.292 90.9261 324.504C91.6793 323.715 92.6225 323.117 93.6743 322.818L93.6879 322.886Z" fill="#060606"/>
<path d="M91.2789 321.772C90.4035 322.098 89.6571 322.594 89.0396 323.158C88.4289 323.736 87.9539 324.415 87.6078 325.176C87.221 325.924 87.0649 326.78 86.8478 327.636C86.7935 328.078 86.7053 328.52 86.6306 328.968C86.5628 329.424 86.5289 329.879 86.4271 330.355H86.3592L86.271 328.975C86.271 328.513 86.2981 328.051 86.3117 327.582C86.4339 326.665 86.5764 325.734 86.9903 324.891C87.3839 324.048 87.9674 323.287 88.7206 322.73C89.4671 322.173 90.356 321.806 91.2856 321.711V321.779L91.2789 321.772Z" fill="#060606"/>
<path d="M120.485 332.264C127.42 333.48 132.746 330.49 139.132 331.517C142.715 332.094 146.087 333.426 145.693 337.802C144.967 345.814 138.786 350.523 131.654 352.97C122.439 356.13 112.416 354.662 104.212 349.443C97.3045 345.046 90.3967 338.142 93.1177 328.948C94.3663 324.742 97.7795 324.531 101.356 325.17C107.727 326.304 114.14 331.163 120.485 332.271V332.264Z" fill="white"/>
<path d="M121.679 354.968C115.578 354.968 109.465 353.194 104.022 349.728C97.3317 345.468 89.9556 338.394 92.7853 328.846C94.1696 324.164 98.1256 324.239 101.41 324.823C104.633 325.401 107.897 326.923 111.052 328.404C114.174 329.865 117.404 331.381 120.539 331.931C124.061 332.55 127.202 332.06 130.242 331.585C133.092 331.136 136.037 330.681 139.179 331.184C142.328 331.686 146.467 332.93 146.026 337.843C145.212 346.861 137.815 351.223 131.756 353.303C128.478 354.424 125.079 354.981 121.672 354.981L121.679 354.968ZM98.6685 325.231C96.3885 325.231 94.3392 326.039 93.4503 329.043C90.7428 338.176 97.9085 345.019 104.396 349.151C112.701 354.438 122.595 355.715 131.539 352.644C137.408 350.632 144.567 346.419 145.347 337.775C145.646 334.425 143.712 332.604 139.077 331.856C136.037 331.367 133.276 331.802 130.358 332.257C127.264 332.74 124.061 333.243 120.43 332.604C117.207 332.04 113.936 330.504 110.774 329.023C107.66 327.562 104.436 326.053 101.301 325.496C100.426 325.34 99.5371 325.224 98.6753 325.224L98.6685 325.231Z" fill="#060606"/>
<path d="M103.866 349.457C103.615 345.454 103.934 341.438 104.803 337.524C105.576 334.051 106.777 330.688 108.379 327.528L108.99 327.84C107.415 330.953 106.228 334.262 105.468 337.673C104.613 341.526 104.301 345.474 104.552 349.416L103.866 349.457Z" fill="#060606"/>
<path d="M116.881 354.329C116.481 350.34 116.61 346.31 117.255 342.348C117.825 338.842 118.809 335.41 120.166 332.135L120.797 332.4C119.46 335.628 118.49 339.012 117.926 342.464C117.289 346.365 117.166 350.333 117.553 354.268L116.868 354.336L116.881 354.329Z" fill="#060606"/>
<path d="M131.315 353.017C130.792 349.538 130.704 345.998 131.043 342.491C131.416 338.659 132.298 334.887 133.669 331.292L134.314 331.537C132.963 335.077 132.095 338.781 131.728 342.552C131.396 346.004 131.484 349.491 131.993 352.909L131.315 353.011V353.017Z" fill="#060606"/>
<path d="M131.735 305.843C130.724 311.905 130.568 317.735 131.118 322.961C136.526 321.629 143.21 321.391 150.206 322.567C156.653 323.641 162.353 325.74 166.729 328.384C169.199 323.26 171.113 317.267 172.192 310.777C175.598 290.2 170.156 272.933 158.145 271.051C147.024 269.311 135.142 285.28 131.742 305.837L131.735 305.843Z" fill="white"/>
<path d="M166.872 328.873L166.546 328.676C162.013 325.931 156.34 323.94 150.145 322.907C143.481 321.786 136.75 321.921 131.193 323.294L130.813 323.389L130.772 322.995C130.202 317.572 130.419 311.62 131.396 305.782C134.891 284.676 146.915 268.944 158.193 270.711C162.034 271.309 165.284 273.422 167.856 276.99C173.088 284.241 174.831 296.894 172.524 310.831C171.479 317.124 169.579 323.247 167.035 328.533L166.872 328.873ZM141.283 321.466C144.214 321.466 147.248 321.718 150.267 322.227C156.395 323.247 162.027 325.21 166.58 327.895C169.016 322.744 170.835 316.818 171.853 310.723C174.133 296.955 172.429 284.499 167.306 277.391C164.843 273.98 161.749 271.961 158.091 271.391C147.363 269.712 135.447 285.511 132.075 305.898C131.131 311.538 130.908 317.28 131.416 322.533C134.443 321.826 137.788 321.466 141.276 321.466H141.283Z" fill="#060606"/>
<path d="M157.494 277.71C163.085 278.125 166.722 287.971 166.41 299.367L151.712 302.249L165.582 307.97C165.433 308.888 165.277 309.812 165.087 310.743C164.015 316.057 162.414 321.018 160.493 325.299C156.082 323.491 151.631 322.587 149.249 322.411C141.948 321.881 142.911 321.935 137.266 321.969C137.191 317.763 137.734 313.794 138.541 308.793C141.717 289.099 150.165 277.173 157.501 277.71H157.494Z" fill="#060606"/>
<path d="M160.67 325.747L160.364 325.618C156.164 323.899 151.746 322.941 149.222 322.757L148.462 322.703C144.576 322.417 141.321 322.286 138.698 322.309L136.933 322.322V321.983C136.845 317.572 137.462 313.38 138.209 308.745C141.235 289.969 149.371 276.773 157.528 277.371C163.126 277.792 167.096 287.251 166.763 299.381V299.66L152.907 302.378L165.969 307.767L165.929 308.038C165.759 309.105 165.596 309.989 165.426 310.824C164.381 315.982 162.787 321.038 160.805 325.448L160.67 325.754V325.747ZM140.733 321.609C142.905 321.609 143.868 321.677 148.51 322.017L149.27 322.071C151.78 322.254 156.137 323.185 160.31 324.857C162.21 320.562 163.737 315.67 164.748 310.682C164.897 309.927 165.046 309.126 165.196 308.188L150.525 302.133L166.071 299.082C166.322 287.645 162.563 278.431 157.467 278.05C157.311 278.036 157.155 278.036 156.999 278.036C149.466 278.036 141.738 291.104 138.881 308.847C138.161 313.332 137.564 317.396 137.605 321.622H138.691C139.512 321.609 140.163 321.602 140.733 321.602V321.609Z" fill="#060606"/>
<path d="M174.092 314.114C173.271 314.114 172.416 314.012 171.534 313.787L171.703 313.121C177.715 314.684 182.757 309.588 182.805 309.533L183.3 310.016C183.117 310.206 179.256 314.114 174.085 314.114H174.092Z" fill="#060606"/>
<path d="M173.183 297.471C173.183 297.471 173.142 297.471 173.122 297.471V296.785H173.183C179.636 296.785 182.221 289.609 182.248 289.534L182.893 289.759C182.866 289.833 180.118 297.471 173.183 297.471Z" fill="#060606"/>
<path d="M173.664 305.979C173.413 305.979 173.156 305.973 172.891 305.952L172.938 305.266C179.5 305.742 183.999 299.367 184.047 299.299L184.61 299.694C184.427 299.959 180.192 305.979 173.664 305.979Z" fill="#060606"/>
<path d="M118.204 302.33C117.438 308.426 115.918 314.059 113.895 318.911C109.098 316.077 102.76 313.93 95.7233 313.053C89.2362 312.231 83.1766 312.605 78.2298 313.882C77.3341 308.269 77.2119 301.97 78.0398 295.446C80.6726 274.754 90.8308 259.777 102.875 261.422C114.031 262.951 120.837 281.658 118.211 302.33H118.204Z" fill="white"/>
<path d="M114.065 319.4L113.726 319.203C108.793 316.295 102.387 314.229 95.6828 313.386C89.4535 312.598 83.4481 312.884 78.3181 314.209L77.9517 314.304L77.8906 313.93C76.961 308.133 76.8999 301.725 77.7006 295.399C79.4853 281.38 84.7781 269.76 91.8624 264.317C95.3435 261.639 99.0688 260.552 102.916 261.082C114.235 262.631 121.245 281.156 118.544 302.378C117.811 308.249 116.311 314.018 114.208 319.047L114.058 319.414L114.065 319.4ZM88.897 312.265C91.1363 312.265 93.4367 312.415 95.7642 312.707C102.407 313.536 108.766 315.561 113.726 318.415C115.721 313.529 117.153 307.964 117.858 302.289C120.464 281.794 113.577 263.236 102.821 261.761C99.157 261.259 95.6081 262.305 92.2763 264.86C85.3345 270.195 80.1367 281.638 78.3724 295.48C77.5988 301.61 77.6463 307.814 78.5013 313.448C81.6906 312.659 85.2056 312.265 88.8903 312.265H88.897Z" fill="#060606"/>
<path d="M101.587 267.979C96.1105 266.776 89.8065 275.162 86.8412 286.164L100.094 293.143L85.1719 294.645C85.0498 295.562 84.9412 296.493 84.853 297.444C84.3576 302.847 84.473 308.059 85.0837 312.707C89.8337 312.238 94.3462 312.652 96.6805 313.169C103.826 314.759 102.889 314.528 108.284 316.186C109.56 312.177 110.177 308.222 110.835 303.193C113.434 283.418 108.759 269.563 101.58 267.972L101.587 267.979Z" fill="#060606"/>
<path d="M108.515 316.621L106.825 316.105C104.319 315.334 101.164 314.526 97.359 313.679L96.6126 313.516C94.1493 312.965 89.6368 312.612 85.1243 313.06L84.7918 313.094L84.7511 312.768C84.1201 307.97 84.0386 302.67 84.5136 297.431C84.5951 296.574 84.6968 295.677 84.8326 294.617L84.8665 294.346L98.9265 292.932L86.4408 286.354L86.5154 286.089C89.6708 274.374 96.1851 266.457 101.668 267.653C109.668 269.427 113.672 284.404 111.195 303.254C110.584 307.909 109.967 312.102 108.63 316.302L108.528 316.628L108.515 316.621ZM89.3247 312.17C92.3308 312.17 95.0315 312.462 96.7551 312.843L97.5015 313.006C101.324 313.853 104.498 314.666 107.022 315.445L108.06 315.765C109.309 311.728 109.906 307.658 110.496 303.159C111.711 293.931 111.371 285.301 109.546 278.866C107.836 272.831 104.979 269.087 101.505 268.312C96.5176 267.211 90.2747 274.965 87.2347 285.987L101.254 293.374L85.4636 294.957C85.3415 295.895 85.2533 296.704 85.1786 297.471C84.7172 302.541 84.7783 307.671 85.3686 312.326C86.7054 312.204 88.0354 312.156 89.3111 312.156L89.3247 312.17Z" fill="#060606"/>
<path d="M77.8025 298.511C71.1864 298.267 67.7529 291.79 67.6104 291.519L68.2211 291.199C68.255 291.26 71.6207 297.594 77.8296 297.825L77.8025 298.511Z" fill="#060606"/>
<path d="M80.9578 282.42C74.2535 280.456 73.8056 272.308 73.7988 272.226L74.4842 272.192C74.4842 272.267 74.9185 279.932 81.1478 281.76L80.9578 282.42Z" fill="#060606"/>
<path d="M78.7458 290.615C71.933 289.099 69.4155 281.57 69.3069 281.251L69.9583 281.04C69.9855 281.115 72.4622 288.515 78.8883 289.942L78.739 290.615H78.7458Z" fill="#060606"/>
<path d="M128.125 323.308C127.664 326.474 124.726 328.663 121.564 328.2C118.402 327.738 116.217 324.796 116.678 321.629C117.139 318.463 120.078 316.274 123.24 316.737C126.402 317.199 128.587 320.141 128.125 323.308Z" fill="#FF6600"/>
<path d="M122.412 328.601C122.113 328.601 121.815 328.581 121.509 328.533C119.887 328.296 118.462 327.439 117.485 326.128C116.508 324.816 116.101 323.199 116.339 321.575C116.576 319.951 117.431 318.524 118.741 317.545C120.05 316.567 121.665 316.159 123.287 316.397C124.909 316.635 126.334 317.491 127.311 318.802C128.288 320.114 128.695 321.731 128.458 323.355C128.22 324.979 127.365 326.406 126.056 327.385C124.99 328.18 123.721 328.601 122.412 328.601ZM122.391 317.022C121.231 317.022 120.105 317.396 119.155 318.102C117.987 318.972 117.234 320.243 117.024 321.684C116.814 323.124 117.173 324.558 118.042 325.727C118.91 326.896 120.179 327.65 121.618 327.861C123.056 328.071 124.488 327.711 125.655 326.841C126.822 325.972 127.576 324.701 127.786 323.26C127.996 321.82 127.637 320.386 126.768 319.217C125.9 318.048 124.631 317.294 123.192 317.083C122.927 317.042 122.656 317.022 122.391 317.022Z" fill="#060606"/>
<path d="M228.649 381.198C233.996 392.098 238.889 401.836 242.729 409.413C246.923 417.69 256.43 421.543 264.891 418.355C284.075 411.159 315.452 396.902 331.907 387.844C337.987 384.48 340.308 376.733 337.2 370.332C337.2 370.332 330.122 355.559 320.609 335.872C311.618 317.301 300.449 294.339 291.016 275.325C282.745 258.656 275.782 245.024 272.797 240.03C260.867 220.085 246.617 221.961 234.376 230.951L218.81 197.307L214.67 188.35L209.744 177.715L201.004 158.831L196.044 148.108L192.562 140.578L192.501 140.436L160.493 155.223L163.696 162.303L166.465 168.44L168.901 173.835L177.322 192.455L177.471 192.794L201.126 245.126C201.126 245.126 175.788 253.036 181.549 276.079C184.433 287.679 192.291 300.869 199.389 317.667C208.299 338.801 219.176 361.838 228.649 381.191V381.198Z" fill="#AADC66"/>
<path d="M258.798 419.803C252.107 419.803 245.681 415.997 242.424 409.562C239.099 402.998 234.023 392.927 228.344 381.341C216.462 357.074 206.616 335.696 199.077 317.803C196.451 311.579 193.764 305.952 191.165 300.509C186.808 291.376 183.042 283.493 181.224 276.161C175.836 254.599 197.55 246.03 200.665 244.922L160.045 155.046L192.685 139.967L192.881 140.442L234.519 230.414C241.739 225.202 248.599 223.204 254.93 224.482C261.709 225.854 267.823 231.019 273.102 239.839C276.583 245.677 284.936 262.271 291.335 275.155C298.942 290.472 308.619 310.281 320.935 335.703C330.34 355.165 337.451 370.02 337.526 370.169C340.735 376.781 338.347 384.671 332.09 388.129C315.791 397.106 284.455 411.377 265.027 418.661C262.991 419.429 260.888 419.796 258.811 419.796L258.798 419.803ZM228.961 381.042C234.641 392.621 239.716 402.692 243.035 409.25C247.147 417.37 256.491 421.142 264.769 418.023C284.17 410.745 315.465 396.495 331.744 387.531C337.682 384.249 339.941 376.754 336.895 370.475C336.82 370.325 329.709 355.471 320.304 336.008C307.994 310.587 298.311 290.785 290.711 275.468C284.326 262.59 275.979 246.016 272.505 240.199C267.334 231.556 261.37 226.493 254.788 225.168C248.558 223.911 241.766 225.949 234.58 231.23L234.24 231.481L192.325 140.905L160.948 155.399L201.601 245.35L201.228 245.466C201.167 245.486 194.883 247.484 189.387 252.248C182.058 258.602 179.527 266.593 181.882 276.011C183.687 283.276 187.439 291.131 191.782 300.23C194.381 305.68 197.068 311.314 199.708 317.552C207.247 335.431 217.086 356.796 228.961 381.055V381.042Z" fill="#060606"/>
<path d="M189.977 261.055C190.045 261 190.12 260.946 190.188 260.898C192.108 259.546 195.365 259.682 196.254 262.264C197.089 264.69 194.972 266.627 194.259 268.734C193.18 271.927 195.053 275.706 196.064 278.723C196.939 281.353 197.767 285.26 194.307 286.497C189.998 288.033 188.871 282.155 187.969 279.131C186.856 275.4 185.947 271.336 186.612 267.442C186.998 265.18 188.132 262.495 189.977 261.055Z" fill="white"/>
<path d="M192.97 287.088C192.44 287.088 191.945 286.966 191.484 286.728C189.448 285.675 188.559 282.494 187.908 280.177C187.813 279.837 187.724 279.518 187.636 279.219C186.571 275.644 185.573 271.438 186.272 267.374C186.645 265.207 187.758 262.332 189.767 260.776C189.841 260.715 189.916 260.661 189.991 260.606C191.233 259.736 192.922 259.458 194.3 259.906C195.413 260.266 196.2 261.041 196.58 262.135C197.197 263.936 196.349 265.451 195.521 266.912C195.148 267.571 194.802 268.19 194.585 268.829C193.736 271.343 194.829 274.306 195.793 276.922C196.003 277.5 196.213 278.057 196.39 278.594C197.876 283.045 197.211 285.804 194.422 286.796C193.913 286.979 193.431 287.068 192.97 287.068V287.088ZM190.188 261.326C188.335 262.767 187.304 265.458 186.951 267.497C186.272 271.425 187.249 275.529 188.294 279.029C188.383 279.328 188.478 279.654 188.573 279.994C189.19 282.188 190.031 285.199 191.803 286.116C192.495 286.476 193.275 286.49 194.191 286.164C196.593 285.308 197.102 282.909 195.738 278.825C195.562 278.295 195.358 277.744 195.148 277.173C194.144 274.448 193.01 271.363 193.933 268.618C194.171 267.918 194.551 267.239 194.924 266.579C195.704 265.193 196.451 263.875 195.928 262.366C195.541 261.245 194.714 260.769 194.089 260.565C192.929 260.185 191.436 260.429 190.384 261.17C190.316 261.218 190.249 261.265 190.181 261.32L190.188 261.326Z" fill="white"/>
<path d="M315.581 348.179C317.406 347.601 319.089 348.587 319.937 350.449C322.808 356.734 325.678 363.027 328.548 369.313C329.342 371.052 328.324 373.37 326.716 373.879C324.891 374.457 323.208 373.472 322.36 371.61C319.489 365.324 316.619 359.031 313.749 352.746C312.955 351.006 313.973 348.689 315.581 348.179Z" fill="white"/>
<path d="M177.478 192.801L209.744 177.715L201.004 158.831L168.907 173.835L177.322 192.462L177.478 192.801Z" fill="#125B48"/>
<path d="M177.301 193.263L177.01 192.604L168.453 173.672L201.167 158.376L210.199 177.885L177.301 193.27V193.263ZM169.355 174.005L177.648 192.339L209.289 177.546L200.834 159.286L169.355 174.005Z" fill="#060606"/>
<path d="M163.693 158.782L193.558 144.804C195.048 144.107 195.692 142.331 194.995 140.839L193.863 138.413C193.166 136.92 191.393 136.276 189.903 136.974L160.039 150.951C158.548 151.649 157.905 153.424 158.601 154.917L159.733 157.343C160.43 158.835 162.203 159.48 163.693 158.782Z" fill="#AADC66"/>
<path d="M162.441 159.402C161.192 159.402 159.991 158.695 159.428 157.485L158.295 155.059C157.521 153.401 158.24 151.417 159.896 150.642L189.76 136.664C190.561 136.29 191.463 136.25 192.298 136.549C193.133 136.854 193.798 137.459 194.171 138.268L195.304 140.694C196.078 142.352 195.358 144.336 193.703 145.111L163.839 159.089C163.384 159.3 162.909 159.402 162.441 159.402ZM191.172 137.031C190.792 137.031 190.412 137.113 190.059 137.283L160.195 151.261C158.878 151.879 158.308 153.449 158.926 154.767L160.059 157.193C160.677 158.512 162.244 159.082 163.56 158.464L193.424 144.486C194.741 143.867 195.311 142.298 194.693 140.979L193.56 138.553C193.262 137.915 192.732 137.432 192.074 137.194C191.782 137.086 191.477 137.038 191.172 137.038V137.031Z" fill="#060606"/>
<path d="M304.813 370.969L263.263 390.656C254.982 394.579 245.073 391.035 241.152 382.736L206.443 309.271L278.007 275.364L312.715 348.829C316.633 357.122 313.094 367.046 304.807 370.972L304.813 370.969Z" fill="#125B48"/>
<path d="M256.192 392.574C249.841 392.574 243.74 388.986 240.85 382.863L205.998 309.085L278.185 274.89L278.334 275.203L313.043 348.675C314.977 352.773 315.208 357.38 313.681 361.648C312.154 365.915 309.067 369.333 304.975 371.27L263.426 390.956C261.092 392.064 258.628 392.587 256.206 392.587L256.192 392.574ZM206.908 309.411L241.467 382.571C245.301 390.684 255.012 394.164 263.114 390.324L304.663 370.638C308.592 368.776 311.557 365.501 313.016 361.403C314.475 357.305 314.258 352.888 312.405 348.954L277.845 275.794L206.908 309.404V309.411Z" fill="#060606"/>
<path d="M234.77 298.695C239.642 309.832 239.893 321.181 236.147 328.207C234.682 330.946 232.612 333.018 229.966 334.18C220.54 338.298 207.41 329.097 200.638 313.624C193.866 298.151 196.017 282.263 205.442 278.145C207.953 277.051 210.714 276.895 213.544 277.547C221.388 279.355 229.796 287.333 234.77 298.701V298.695Z" fill="white"/>
<path d="M225.175 335.492C216.346 335.492 206.039 326.841 200.312 313.753C195.962 303.818 195.107 293.428 198.025 285.967C199.559 282.046 202.069 279.232 205.293 277.819C207.81 276.718 210.613 276.508 213.612 277.201C221.802 279.083 230.223 287.469 235.075 298.552C239.805 309.357 240.341 321.058 236.439 328.364C234.885 331.265 232.748 333.324 230.088 334.486C228.534 335.166 226.878 335.492 225.168 335.492H225.175ZM210.253 277.493C208.604 277.493 207.036 277.812 205.578 278.451C202.524 279.783 200.135 282.474 198.677 286.218C195.827 293.517 196.675 303.703 200.95 313.482C207.634 328.758 220.588 337.898 229.83 333.861C232.347 332.76 234.369 330.803 235.849 328.044C239.649 320.916 239.106 309.452 234.458 298.837C229.687 287.944 221.449 279.715 213.469 277.88C212.37 277.629 211.298 277.5 210.26 277.5L210.253 277.493Z" fill="#060606"/>
<path d="M213.978 282.95C211.82 282.365 209.73 282.426 207.851 283.249C200.8 286.334 199.525 298.994 205.007 311.524C205.272 312.129 205.55 312.714 205.829 313.291L217.799 303.615L209.466 319.366C215.023 327.025 222.277 331.007 227.699 328.635C229.68 327.766 231.2 326.155 232.252 324.001C234.932 318.463 234.485 309.384 230.542 300.36C226.511 291.152 219.963 284.581 213.978 282.956V282.95Z" fill="#060606"/>
<path d="M224.327 329.661C219.482 329.661 213.877 326.012 209.194 319.563L209.065 319.387L216.713 304.933L205.713 313.828L205.523 313.441C205.238 312.856 204.96 312.265 204.695 311.66C201.079 303.397 200.258 294.624 202.551 288.767C203.65 285.946 205.442 283.928 207.715 282.936C209.622 282.1 211.759 281.998 214.073 282.623C220.337 284.322 226.932 291.226 230.861 300.224C234.749 309.119 235.408 318.286 232.564 324.15C231.445 326.454 229.85 328.071 227.842 328.955C226.735 329.437 225.555 329.675 224.327 329.675V329.661ZM209.873 319.332C215.437 326.909 222.528 330.518 227.563 328.316C229.423 327.501 230.895 325.999 231.947 323.845C234.661 318.245 233.989 309.078 230.23 300.495C226.376 291.689 219.963 284.934 213.89 283.283C211.732 282.698 209.751 282.793 207.987 283.561C205.876 284.485 204.22 286.368 203.182 289.011C200.957 294.706 201.778 303.275 205.32 311.382C205.523 311.844 205.734 312.299 205.951 312.748L218.891 302.283L209.873 319.326V319.332Z" fill="#060606"/>
<path d="M252.765 290.778C257.543 301.956 265.631 309.907 273.313 311.973C276.312 312.775 279.23 312.686 281.89 311.545C291.342 307.481 293.622 291.593 286.993 276.059C280.356 260.525 267.321 251.228 257.868 255.292C255.351 256.373 253.349 258.289 251.89 260.796C247.839 267.762 247.893 279.362 252.772 290.778H252.765Z" fill="white"/>
<path d="M277.153 312.85C275.884 312.85 274.575 312.666 273.224 312.306C265.238 310.152 257.081 301.753 252.453 290.914C247.703 279.783 247.364 267.898 251.592 260.627C253.139 257.963 255.208 256.067 257.733 254.98C260.963 253.586 264.736 253.682 268.637 255.245C276.068 258.221 283.05 265.954 287.305 275.93C294.002 291.614 291.634 307.733 282.026 311.864C280.492 312.523 278.863 312.85 277.153 312.85ZM253.078 290.642C257.631 301.297 265.604 309.54 273.401 311.647C276.421 312.455 279.23 312.319 281.754 311.232C291.017 307.25 293.222 291.532 286.674 276.202C282.487 266.389 275.647 258.799 268.379 255.883C264.647 254.388 261.058 254.293 257.997 255.612C255.609 256.638 253.648 258.445 252.175 260.973C248.049 268.061 248.402 279.708 253.071 290.642H253.078Z" fill="#060606"/>
<path d="M255.527 264.819C256.579 262.842 258.051 261.354 259.938 260.545C267.009 257.507 277.099 265.241 282.473 277.819C282.731 278.424 282.969 279.029 283.193 279.627L267.952 281.747L285.126 286.436C286.898 295.732 284.835 303.757 279.399 306.095C277.411 306.951 275.199 306.958 272.905 306.244C267.036 304.416 260.732 297.872 256.864 288.821C252.915 279.579 252.609 270.296 255.527 264.813V264.819Z" fill="#060606"/>
<path d="M276.101 307.114C275.05 307.114 273.944 306.938 272.804 306.584C266.588 304.647 260.359 297.9 256.545 288.97C252.691 279.946 252.168 270.405 255.222 264.67C256.348 262.556 257.882 261.068 259.795 260.246C262.082 259.261 264.769 259.335 267.579 260.464C273.414 262.801 279.236 269.406 282.779 277.697C283.036 278.308 283.281 278.913 283.505 279.518L283.654 279.919L269.648 281.869L285.411 286.171L285.452 286.381C287.325 296.201 284.998 304.063 279.521 306.421C278.443 306.883 277.296 307.114 276.088 307.114H276.101ZM263.229 260.239C262.109 260.239 261.051 260.45 260.074 260.871C258.309 261.632 256.884 263.019 255.833 264.989C252.874 270.555 253.403 279.858 257.183 288.699C260.868 297.315 267.076 304.077 273.014 305.932C275.301 306.639 277.404 306.591 279.27 305.796C284.319 303.628 286.545 295.976 284.835 286.728L266.255 281.652L282.731 279.362C282.555 278.9 282.365 278.431 282.168 277.969C278.694 269.834 273.014 263.372 267.341 261.102C265.923 260.531 264.539 260.253 263.236 260.253L263.229 260.239Z" fill="#060606"/>
<path d="M285.751 333.956C285.751 333.956 285.717 334.01 285.703 334.044C280.051 343.565 269.757 349.823 258.811 351.665C254.91 352.324 250.417 352.508 246.122 351.889C239.425 350.945 233.236 348.023 230.637 341.825C228.248 336.076 232.096 332.454 237.362 330.096C242.01 328.024 247.778 326.923 251.327 326.25C254.394 325.645 257.4 324.857 260.182 323.396C264.688 321.065 267.965 317.124 272.308 314.616C273.163 314.12 274.161 313.617 275.267 313.189C278.429 311.925 282.276 311.123 285.099 312.054C293.52 314.875 288.926 328.595 285.757 333.956H285.751Z" fill="#060606"/>
<path d="M251.605 352.61C249.698 352.61 247.832 352.481 246.068 352.229C240.517 351.448 233.277 349.028 230.318 341.954C228.208 336.871 230.529 332.774 237.212 329.784C241.915 327.684 247.757 326.576 251.252 325.917C253.763 325.428 257.034 324.66 260.012 323.097C262.381 321.874 264.444 320.161 266.445 318.51C268.223 317.036 270.069 315.513 272.125 314.324C273.116 313.753 274.127 313.264 275.131 312.877C276.97 312.143 281.632 310.559 285.194 311.735C287.318 312.449 288.797 313.876 289.578 315.969C291.6 321.405 288.492 329.974 286.056 334.112L286.022 334.18C280.539 343.415 270.401 350.068 258.872 352.005C256.491 352.406 254.021 352.61 251.612 352.61H251.605ZM282.297 311.993C280.281 311.993 277.893 312.51 275.389 313.509C274.412 313.882 273.428 314.358 272.471 314.909C270.462 316.071 268.644 317.572 266.88 319.033C264.851 320.712 262.754 322.445 260.325 323.702C257.264 325.306 253.932 326.087 251.374 326.59C247.914 327.242 242.119 328.343 237.484 330.409C231.112 333.263 228.968 336.953 230.942 341.689C233.779 348.458 240.782 350.788 246.156 351.543C250.078 352.107 254.543 352.032 258.744 351.318C270.076 349.409 280.044 342.885 285.398 333.861L285.445 333.773C287.997 329.451 290.765 321.14 288.926 316.2C288.221 314.304 286.891 313.019 284.97 312.374C284.19 312.116 283.281 311.986 282.276 311.986L282.297 311.993Z" fill="#060606"/>
<path d="M285.751 333.956C285.751 333.956 285.717 334.011 285.703 334.045C280.051 343.565 269.757 349.824 258.811 351.665C254.91 352.324 250.417 352.508 246.122 351.889C247.703 344.815 253.464 337.918 261.906 334.099C270.374 330.253 279.372 330.457 285.757 333.963L285.751 333.956Z" fill="#FF6600"/>
<path d="M251.605 352.61C249.698 352.61 247.832 352.481 246.068 352.229L245.701 352.175L245.783 351.815C247.445 344.401 253.566 337.49 261.756 333.786C269.981 330.049 279.243 330.001 285.914 333.657L286.185 333.807L286.015 334.18C280.532 343.415 270.395 350.068 258.866 352.005C256.484 352.406 254.014 352.61 251.605 352.61ZM246.543 351.597C250.37 352.107 254.692 352.012 258.757 351.325C270.001 349.436 279.895 343.001 285.276 334.092C278.816 330.701 269.954 330.817 262.041 334.411C254.177 337.972 248.266 344.537 246.536 351.604L246.543 351.597Z" fill="#060606"/>
<path d="M259.015 310.994C260.257 313.828 258.784 317.219 255.724 318.564C252.664 319.91 249.176 318.707 247.927 315.867C246.685 313.033 248.158 309.642 251.218 308.297C254.279 306.951 257.766 308.154 259.015 310.994Z" fill="#AADC66"/>
<path d="M253.132 319.468C252.419 319.468 251.714 319.353 251.035 319.115C249.474 318.571 248.26 317.47 247.615 316.016C246.299 313.013 247.853 309.411 251.083 307.991C252.643 307.304 254.353 307.223 255.914 307.76C257.475 308.303 258.689 309.404 259.334 310.858C260.65 313.862 259.097 317.464 255.867 318.884C254.984 319.271 254.062 319.468 253.139 319.468H253.132ZM253.817 308.093C252.989 308.093 252.155 308.269 251.361 308.616C248.477 309.887 247.079 313.074 248.246 315.731C248.809 317.015 249.882 317.98 251.259 318.463C252.65 318.945 254.19 318.87 255.588 318.252C258.472 316.981 259.87 313.787 258.703 311.137C258.14 309.853 257.068 308.888 255.69 308.405C255.086 308.195 254.455 308.093 253.817 308.093Z" fill="#060606"/>
</g>
</g>
<defs>
<clipPath id="clip0_197_283">
<rect width="361" height="548" rx="8" fill="white"/>
</clipPath>
<clipPath id="clip1_197_283">
<rect width="323" height="292" fill="white" transform="translate(18 128)"/>
</clipPath>
</defs>
</svg>
