<svg width="359" height="548" viewBox="0 0 359 548" fill="none" xmlns="http://www.w3.org/2000/svg">
<rect width="359" height="548" rx="8" fill="#E5F4D0"/>
<path d="M276.038 71.3833C291.048 74.6116 292.687 76.6372 293.902 93.4437C296.996 76.8778 298.85 75.0484 314.132 73.5292C299.122 70.3008 297.483 68.2752 296.268 51.4688C293.174 68.0346 291.32 69.864 276.038 71.3833Z" fill="#125B48"/>
<path d="M293.762 95.9124L293.585 93.469C292.377 76.7385 290.896 74.9028 275.974 71.6934L274 71.2693L276.006 71.0667C291.193 69.5538 292.876 67.9017 295.958 51.4118L296.407 49L296.585 51.4434C297.793 68.1739 299.274 70.0096 314.195 73.219L316.17 73.6431L314.164 73.8457C298.977 75.3586 297.293 77.0107 294.218 93.5006L293.769 95.9124H293.762ZM278.012 71.4972C290.769 74.4027 292.851 76.9031 294.034 91.0762C296.8 77.131 299.154 74.8775 312.158 73.4279C299.401 70.5224 297.319 68.022 296.135 53.8489C293.37 67.7941 291.016 70.0476 278.012 71.4972Z" fill="#060606"/>
<path d="M25.0439 347.846C40.3451 349.093 42.2371 350.884 45.6289 367.393C46.5402 350.561 48.1412 348.51 63.0942 345.016C47.7931 343.769 45.901 341.978 42.5092 325.469C41.598 342.3 39.997 344.351 25.0439 347.846Z" fill="#125B48"/>
<path d="M45.8061 369.855L45.3125 367.456C41.9334 351.023 40.2311 349.403 25.0123 348.162L23 347.998L24.968 347.535C39.8325 344.06 41.2816 342.199 42.1865 325.45L42.3194 323L42.813 325.399C46.1921 341.832 47.8944 343.453 63.1132 344.693L65.1255 344.858L63.1575 345.32C48.293 348.795 46.8439 350.656 45.939 367.406L45.8061 369.855ZM27.012 347.7C40.0413 348.915 42.4333 351.131 45.4517 365.019C46.382 350.833 48.4196 348.289 61.1199 345.155C48.0905 343.94 45.6985 341.724 42.6864 327.836C41.7562 342.022 39.7186 344.567 27.0183 347.7H27.012Z" fill="#060606"/>
<path d="M294.038 245.857C306.39 248.516 307.738 250.181 308.738 264.012C311.281 250.377 312.813 248.877 325.38 247.63C313.028 244.971 311.68 243.306 310.68 229.475C308.13 243.11 306.605 244.61 294.031 245.857H294.038Z" fill="#125B48"/>
<path d="M308.598 266.481L308.421 264.037C307.428 250.307 306.213 248.801 293.974 246.168L292 245.743L294.006 245.541C306.466 244.3 307.845 242.946 310.37 229.412L310.819 227L310.997 229.443C311.99 243.173 313.205 244.68 325.443 247.313L327.418 247.737L325.412 247.94C312.952 249.181 311.573 250.535 309.048 264.069L308.598 266.481ZM295.993 245.971C306.124 248.313 307.896 250.434 308.87 261.664C311.098 250.611 313.098 248.706 323.425 247.522C313.294 245.18 311.522 243.059 310.547 231.83C308.32 242.882 306.32 244.788 295.993 245.971Z" fill="#060606"/>
<path d="M242.038 100.94C254.637 101.908 256.193 103.377 259.047 116.949C259.737 103.099 261.047 101.402 273.336 98.4712C260.737 97.5027 259.18 96.0341 256.326 82.4624C255.636 96.3127 254.327 98.0091 242.038 100.94Z" fill="#125B48"/>
<path d="M259.237 119.418L258.731 117.018C255.902 103.548 254.497 102.219 242.012 101.256L240 101.105L241.962 100.636C254.143 97.7306 255.326 96.1987 256.01 82.4498L256.13 80L256.636 82.3991C259.465 95.8696 260.87 97.1989 273.355 98.1611L275.367 98.313L273.406 98.7814C261.224 101.687 260.041 103.219 259.357 116.968L259.237 119.418ZM243.993 100.788C254.346 101.744 256.39 103.605 258.864 114.607C259.585 103.358 261.313 101.193 271.387 98.6295C261.034 97.6736 258.99 95.8126 256.516 84.8109C255.795 96.0595 254.067 98.2244 243.993 100.788Z" fill="#060606"/>
<path d="M250.159 215.673C250.159 215.673 244.001 265.456 207.678 318.574C171.357 371.686 159.488 431.784 164.376 469.728C155.083 471.293 135.663 473.275 113.243 465.423C93.882 458.645 81.1184 447.63 74.6039 441.129C94.8056 416.608 104.751 394.224 110.52 379.175C132.346 322.243 126.257 226.234 151.576 184.273C166.035 186.393 182.476 191.185 200.86 196.982C219.974 203.009 236.751 208.843 250.151 215.677L250.159 215.673Z" fill="#B6CCC6"/>
<path d="M117.025 466.99C115.742 466.598 114.448 466.175 113.146 465.717C98.6921 460.66 85.2898 452.23 74.3912 441.349L74.1881 441.148L74.3687 440.925C94.7412 416.191 104.598 393.773 110.237 379.062C120.314 352.766 124.455 317.949 128.458 284.274C133.196 244.39 137.675 206.717 151.316 184.107L151.423 183.928L151.632 183.959C165.585 186.004 181.447 190.526 200.96 196.675C218.16 202.103 236.044 208.124 250.306 215.387L250.501 215.486L250.473 215.709C250.413 216.207 243.885 266.182 207.942 318.748C191.152 343.301 178.343 371.368 170.886 399.915C164.333 425.011 162.131 449.79 164.695 469.68L164.735 469.983L164.434 470.036C153.193 471.933 136.122 472.833 117.025 466.99ZM75.0399 441.11C85.8364 451.828 99.0793 460.129 113.353 465.125C133.718 472.256 152.1 471.439 164.032 469.47C161.523 449.551 163.733 424.808 170.276 399.768C177.749 371.147 190.599 343.012 207.425 318.404C242.062 267.749 249.312 219.525 249.824 215.862C235.641 208.663 217.87 202.683 200.779 197.288C181.389 191.17 165.618 186.676 151.755 184.619C138.268 207.137 133.805 244.649 129.088 284.355C125.08 318.068 120.94 352.925 110.833 379.297C105.194 394.009 95.3589 416.399 75.0441 441.118L75.0399 441.11Z" fill="#060606"/>
<path d="M240.514 220.163C240.514 220.163 231.418 265.399 201.059 317.714C170.909 369.669 149.667 422.94 153.031 458.425C142.581 462.43 101.832 452.862 89.8534 438.612C108.037 415.128 114.933 389.905 120.314 375.651C140.679 321.721 132.274 233 155.33 193.028C167.884 194.671 182.104 198.783 197.984 203.787C214.503 208.994 228.985 214.067 240.508 220.161L240.514 220.163Z" fill="#FFBF00"/>
<path d="M119.551 454.927C107.231 451.158 95.1725 445.43 89.6079 438.809L89.4429 438.613L89.598 438.408C104.769 418.822 111.949 398.339 117.192 383.387C118.185 380.553 119.124 377.875 120.012 375.532C129.575 350.205 132.791 317.11 135.903 285.116C139.454 248.595 142.802 214.098 155.054 192.87L155.163 192.685L155.374 192.71C167.494 194.3 181.214 198.167 198.084 203.48C212.955 208.169 228.404 213.393 240.661 219.877L240.872 219.988L240.828 220.219C240.735 220.674 231.368 266.106 201.335 317.871C167.351 376.432 150.313 426.342 153.352 458.391L153.378 458.631L153.154 458.714C147.441 460.905 133.337 459.139 119.565 454.925L119.551 454.927ZM90.2552 438.596C102.05 452.28 141.719 462.067 152.687 458.207C149.745 426.016 166.815 376.083 200.777 317.555C229.656 267.786 239.389 223.903 240.152 220.33C227.971 213.922 212.643 208.736 197.891 204.09C181.148 198.815 167.521 194.97 155.496 193.37C143.402 214.494 140.07 248.83 136.533 285.176C133.421 317.217 130.199 350.349 120.605 375.76C119.724 378.098 118.787 380.771 117.788 383.603C112.547 398.549 105.38 418.989 90.2534 438.602L90.2552 438.596Z" fill="#060606"/>
<path d="M129.68 396.429C127.7 395.89 126.533 393.845 127.072 391.865C127.612 389.885 129.657 388.717 131.636 389.256C133.615 389.796 134.783 391.841 134.243 393.821C133.704 395.8 131.659 396.969 129.68 396.429ZM131.554 389.569C129.746 389.075 127.877 390.145 127.383 391.953C126.889 393.762 127.958 395.631 129.766 396.125C131.574 396.618 133.443 395.549 133.937 393.74C134.431 391.932 133.361 390.062 131.554 389.569Z" fill="white"/>
<path d="M119.221 414.823C117.969 414.48 117.229 413.181 117.566 411.927C117.903 410.673 119.208 409.934 120.462 410.271C121.713 410.614 122.454 411.913 122.117 413.167C121.779 414.421 120.474 415.16 119.221 414.823ZM120.381 410.577C119.295 410.278 118.172 410.921 117.878 412.009C117.579 413.096 118.221 414.219 119.309 414.513C120.398 414.806 121.519 414.169 121.812 413.081C122.112 411.994 121.469 410.871 120.381 410.577Z" fill="white"/>
<path d="M170.603 360.977C169.352 360.634 168.611 359.335 168.948 358.081C169.292 356.829 170.59 356.088 171.844 356.425C173.095 356.768 173.836 358.067 173.499 359.321C173.156 360.573 171.857 361.314 170.603 360.977ZM171.761 356.737C170.675 356.438 169.552 357.081 169.259 358.169C168.959 359.256 169.602 360.379 170.69 360.672C171.776 360.972 172.899 360.329 173.193 359.24C173.492 358.154 172.85 357.03 171.761 356.737Z" fill="white"/>
<path d="M138.493 328.559C137.242 328.216 136.501 326.917 136.838 325.663C137.182 324.411 138.481 323.67 139.734 324.007C140.986 324.35 141.726 325.65 141.389 326.903C141.046 328.155 139.747 328.897 138.493 328.559ZM139.653 324.314C138.567 324.014 137.444 324.657 137.151 325.746C136.857 326.834 137.494 327.956 138.582 328.249C139.668 328.548 140.791 327.905 141.085 326.817C141.378 325.728 140.742 324.607 139.653 324.314Z" fill="white"/>
<path d="M226.014 247.051C224.762 246.708 224.021 245.409 224.359 244.155C224.702 242.903 226.001 242.162 227.254 242.499C228.506 242.842 229.247 244.141 228.909 245.395C228.566 246.647 227.267 247.388 226.014 247.051ZM227.174 242.805C226.087 242.506 224.964 243.149 224.671 244.237C224.372 245.324 225.014 246.447 226.102 246.74C227.188 247.04 228.312 246.397 228.605 245.308C228.904 244.222 228.262 243.098 227.174 242.805Z" fill="white"/>
<path d="M200.843 306.957C199.591 306.614 198.85 305.315 199.187 304.061C199.531 302.809 200.83 302.068 202.083 302.405C203.335 302.748 204.075 304.047 203.738 305.301C203.395 306.553 202.096 307.294 200.843 306.957ZM201.995 302.716C200.908 302.416 199.785 303.059 199.492 304.148C199.199 305.236 199.835 306.358 200.923 306.651C202.009 306.95 203.132 306.307 203.426 305.219C203.719 304.13 203.083 303.009 201.995 302.716Z" fill="white"/>
<path d="M180.502 264.947C179.25 264.604 178.51 263.305 178.847 262.051C179.19 260.799 180.489 260.058 181.743 260.395C182.994 260.738 183.735 262.038 183.398 263.291C183.054 264.543 181.755 265.285 180.502 264.947ZM181.66 260.708C180.574 260.408 179.451 261.051 179.157 262.14C178.864 263.228 179.5 264.35 180.588 264.643C181.675 264.942 182.798 264.299 183.091 263.211C183.385 262.122 182.748 261.001 181.66 260.708Z" fill="white"/>
<path d="M145.67 420.817C143.691 420.278 142.524 418.233 143.063 416.253C143.603 414.273 145.648 413.105 147.627 413.644C149.606 414.183 150.774 416.229 150.234 418.208C149.694 420.188 147.65 421.356 145.67 420.817ZM147.54 413.949C145.733 413.455 143.863 414.525 143.37 416.333C142.876 418.142 143.945 420.011 145.753 420.505C147.561 420.998 149.43 419.928 149.924 418.12C150.417 416.312 149.348 414.442 147.54 413.949Z" fill="white"/>
<path d="M154.637 382.167C152.658 381.628 151.49 379.583 152.03 377.603C152.569 375.623 154.614 374.455 156.593 374.994C158.573 375.533 159.74 377.579 159.201 379.558C158.661 381.538 156.616 382.706 154.637 382.167ZM156.511 375.307C154.703 374.813 152.834 375.883 152.34 377.691C151.847 379.5 152.916 381.369 154.724 381.863C156.531 382.356 158.401 381.286 158.894 379.478C159.388 377.67 158.319 375.8 156.511 375.307Z" fill="white"/>
<path d="M149.595 229.919C147.615 229.38 146.448 227.334 146.987 225.355C147.527 223.375 149.572 222.207 151.551 222.746C153.53 223.285 154.698 225.331 154.158 227.31C153.619 229.29 151.574 230.458 149.595 229.919ZM151.47 223.052C149.663 222.559 147.793 223.629 147.3 225.437C146.806 227.245 147.875 229.115 149.683 229.609C151.491 230.102 153.36 229.032 153.854 227.224C154.347 225.415 153.278 223.546 151.47 223.052Z" fill="white"/>
<path d="M135.576 357.476C133.597 356.936 132.429 354.891 132.969 352.911C133.508 350.931 135.553 349.763 137.532 350.303C139.511 350.842 140.679 352.887 140.139 354.867C139.6 356.847 137.555 358.015 135.576 357.476ZM137.446 350.607C135.638 350.113 133.769 351.183 133.275 352.992C132.781 354.8 133.85 356.67 135.658 357.163C137.466 357.657 139.335 356.587 139.829 354.778C140.323 352.97 139.253 351.101 137.446 350.607Z" fill="white"/>
<path d="M176.641 338.841C174.662 338.302 173.495 336.256 174.034 334.277C174.574 332.297 176.619 331.129 178.598 331.668C180.577 332.207 181.744 334.252 181.205 336.232C180.665 338.212 178.62 339.38 176.641 338.841ZM178.515 331.98C176.707 331.487 174.838 332.557 174.345 334.365C173.851 336.173 174.92 338.043 176.728 338.536C178.536 339.03 180.405 337.96 180.898 336.152C181.392 334.343 180.323 332.474 178.515 331.98Z" fill="white"/>
<path d="M146.094 288.36C144.115 287.82 142.948 285.775 143.487 283.795C144.027 281.816 146.072 280.647 148.051 281.187C150.03 281.726 151.197 283.771 150.658 285.751C150.118 287.731 148.073 288.899 146.094 288.36ZM147.962 281.497C146.155 281.004 144.285 282.074 143.792 283.882C143.298 285.69 144.367 287.56 146.175 288.053C147.983 288.547 149.852 287.477 150.346 285.669C150.839 283.86 149.77 281.991 147.962 281.497Z" fill="white"/>
<path d="M109.048 424.153L102.719 442.928L103.318 443.13L109.648 424.355L109.048 424.153Z" fill="#060606"/>
<path d="M126.176 429.634L119.843 448.408L120.442 448.61L126.776 429.836L126.176 429.634Z" fill="#060606"/>
<path d="M143.678 435.208L137.345 453.982L137.945 454.184L144.278 435.41L143.678 435.208Z" fill="#060606"/>
<path d="M149.303 463.494C133.703 463.07 118.203 459.202 104.233 452.24C100.22 450.237 96.3367 447.984 92.596 445.502C90.8845 444.369 89.2727 447.107 90.9721 448.236C104.366 457.126 119.738 463.054 135.637 465.443C140.166 466.127 144.73 466.543 149.305 466.665C151.346 466.721 151.346 463.543 149.299 463.486L149.303 463.494Z" fill="white"/>
<path d="M166.521 287.089C165.578 290.409 167.506 293.865 170.824 294.807C174.142 295.749 177.597 293.821 178.54 290.502C179.483 287.182 177.556 283.727 174.238 282.784C170.919 281.842 167.464 283.77 166.521 287.089Z" fill="#FF6600"/>
<path d="M170.61 295.073C167.209 294.032 165.243 290.445 166.217 287.003C167.203 283.518 170.841 281.493 174.324 282.48C177.786 283.472 179.831 287.104 178.845 290.588C177.858 294.073 174.221 296.098 170.737 295.112C170.695 295.099 170.652 295.086 170.61 295.073ZM174.266 283.124C174.23 283.113 174.187 283.1 174.151 283.089C171.002 282.198 167.723 284.028 166.826 287.176C165.942 290.281 167.721 293.527 170.795 294.467C170.832 294.478 170.874 294.491 170.91 294.502C174.059 295.393 177.339 293.563 178.236 290.415C179.12 287.31 177.34 284.064 174.266 283.124Z" fill="#060606"/>
<path d="M214.171 243.063C221.253 245.548 223.542 257.813 219.946 271.554L207.794 273.575L215.848 282.547C210.027 294.33 201.206 301.508 194.502 299.152C186.649 296.399 184.682 281.611 190.116 266.121C195.55 250.632 206.318 240.31 214.171 243.063Z" fill="#060606"/>
<path d="M194.704 299.552C194.601 299.52 194.498 299.489 194.391 299.449C190.476 298.079 187.85 293.814 187.004 287.451C186.168 281.165 187.167 273.553 189.805 266.013C192.449 258.474 196.424 251.906 201.001 247.521C205.636 243.08 210.35 241.385 214.263 242.761C221.446 245.283 223.96 257.418 220.24 271.631L220.181 271.825L208.405 273.782L216.219 282.482L216.128 282.672C210.177 294.727 201.419 301.593 194.708 299.539L194.704 299.552ZM213.778 243.267C210.153 242.158 205.792 243.823 201.457 247.978C196.952 252.299 193.031 258.778 190.416 266.22C187.808 273.664 186.821 281.173 187.641 287.361C188.45 293.474 190.927 297.555 194.609 298.847C201.007 301.076 209.57 294.415 215.471 282.591L207.173 273.353L219.689 271.27C223.188 257.692 220.784 245.716 214.062 243.354C213.965 243.325 213.868 243.295 213.772 243.266L213.778 243.267Z" fill="#060606"/>
<path d="M165.668 228.084C158.427 226.121 149.585 234.927 144.769 248.288L153.636 256.833L141.918 259.663C140.037 272.664 143.242 283.581 150.098 285.441C158.133 287.621 168.13 276.553 172.428 260.71C176.731 244.874 173.703 230.265 165.676 228.08L165.668 228.084Z" fill="#060606"/>
<path d="M149.761 285.675C143.021 283.613 139.674 272.964 141.6 259.619L141.631 259.409L152.999 256.665L144.399 248.374L144.47 248.184C149.457 234.372 158.409 225.791 165.752 227.786C169.733 228.858 172.682 232.931 173.98 239.22C175.263 245.431 174.824 253.095 172.731 260.802C168.39 276.785 158.196 287.978 150.01 285.751C149.931 285.727 149.846 285.701 149.761 285.675ZM142.196 259.92C140.356 273.007 143.615 283.358 150.171 285.138C158.022 287.269 167.865 276.273 172.114 260.633C174.18 253.017 174.625 245.461 173.359 239.348C172.111 233.306 169.358 229.432 165.585 228.397C158.711 226.532 149.942 235.036 145.131 248.207L154.269 257.014L142.2 259.928L142.196 259.92Z" fill="#060606"/>
<path d="M140.36 302.757C140.36 302.757 140.358 302.763 140.356 302.769C140.172 304.646 140.265 306.634 140.536 308.604C141.208 313.502 142.987 318.264 144.421 320.887C144.436 320.925 144.457 320.944 144.466 320.98C144.872 321.727 145.309 322.443 145.768 323.126C151.342 331.511 160.242 335.472 169.545 334.763C172.396 334.55 175.59 333.865 178.744 332.639C179.555 332.325 180.365 331.97 181.166 331.58C184.839 329.804 188.321 327.229 191 323.686C192.591 321.578 193.896 319.13 194.785 316.311C194.883 315.99 194.983 315.663 195.071 315.333C197.102 307.805 193.488 304.522 188.607 303.128L188.51 303.098C184.221 301.911 178.971 302.159 175.732 302.319C174.674 302.36 173.625 302.37 172.593 302.306C172.254 302.288 171.919 302.258 171.584 302.229C170.454 302.115 169.342 301.9 168.262 301.557C168.02 301.483 167.782 301.396 167.546 301.304C167.289 301.213 167.036 301.109 166.787 300.993C162.976 299.284 160.005 295.8 156.213 294.09C155.418 293.728 154.487 293.396 153.465 293.19C150.542 292.534 146.995 292.62 144.435 294.498C141.858 296.411 140.669 299.41 140.347 302.754L140.36 302.757Z" fill="#060606"/>
<path d="M159.62 334.023C153.944 332.287 149.045 328.617 145.508 323.305C145.04 322.606 144.596 321.874 144.193 321.135C144.162 321.066 144.143 321.04 144.132 321.01C142.782 318.545 140.931 313.802 140.225 308.647C139.934 306.526 139.871 304.547 140.041 302.759L140.046 302.701C140.418 298.889 141.835 296.053 144.253 294.25C147.497 291.867 151.828 292.504 153.543 292.889C154.479 293.076 155.429 293.387 156.352 293.808C158.278 294.675 160.01 296 161.681 297.286C163.338 298.554 165.048 299.865 166.926 300.711C167.169 300.825 167.418 300.921 167.661 301.015C167.897 301.107 168.131 301.186 168.361 301.256C169.368 301.577 170.432 301.797 171.62 301.915C171.947 301.949 172.278 301.971 172.609 301.993C173.531 302.05 174.522 302.055 175.722 302.005C178.895 301.844 184.209 301.583 188.597 302.793L188.7 302.825C188.809 302.858 188.918 302.892 189.021 302.923C194.987 304.749 197.123 308.95 195.375 315.419C195.285 315.756 195.184 316.089 195.085 316.41C194.224 319.138 192.933 321.649 191.253 323.876C188.739 327.204 185.39 329.887 181.303 331.867C180.486 332.266 179.663 332.622 178.86 332.933C175.854 334.105 172.643 334.844 169.568 335.075C166.086 335.34 162.732 334.969 159.609 334.014L159.62 334.023ZM140.67 302.826C140.504 304.556 140.568 306.488 140.849 308.554C141.503 313.295 143.253 318.087 144.7 320.734C144.738 320.805 144.754 320.837 144.769 320.874C145.146 321.546 145.576 322.26 146.034 322.949C151.377 330.985 159.94 335.181 169.523 334.445C172.53 334.22 175.685 333.491 178.631 332.34C179.42 332.032 180.228 331.683 181.029 331.293C185.029 329.359 188.299 326.739 190.749 323.49C192.392 321.318 193.645 318.868 194.484 316.212C194.58 315.898 194.68 315.571 194.766 315.246C196.459 308.979 194.411 305.095 188.523 303.426L188.42 303.395C184.137 302.21 178.889 302.471 175.744 302.628C174.518 302.676 173.513 302.673 172.571 302.617C172.232 302.599 171.889 302.573 171.556 302.538C170.317 302.41 169.209 302.184 168.166 301.851C167.918 301.776 167.679 301.689 167.431 301.593C167.174 301.502 166.911 301.388 166.654 301.276C164.711 300.404 162.968 299.07 161.285 297.78C159.638 296.522 157.941 295.215 156.078 294.38C155.196 293.977 154.3 293.683 153.402 293.502C151.768 293.134 147.651 292.53 144.621 294.754C142.351 296.442 141.017 299.139 140.668 302.766L140.663 302.824L140.67 302.826Z" fill="#060606"/>
<path d="M145.774 323.128C151.348 331.513 160.248 335.473 169.551 334.765C172.402 334.552 175.596 333.867 178.75 332.641C176.4 326.262 171.483 321.183 164.867 319.252C158.187 317.294 151.235 318.947 145.774 323.128Z" fill="#FF6600"/>
<path d="M159.62 334.023C153.944 332.287 149.045 328.617 145.508 323.305L145.346 323.056L145.58 322.876C151.344 318.464 158.406 317.03 164.954 318.947C171.41 320.816 176.561 325.782 179.05 332.528L179.159 332.819L178.868 332.929C175.862 334.101 172.651 334.84 169.576 335.071C166.094 335.336 162.74 334.965 159.617 334.01L159.62 334.023ZM146.202 323.199C151.556 331.073 160.042 335.172 169.529 334.447C172.442 334.226 175.484 333.542 178.343 332.457C175.889 326.053 170.975 321.372 164.781 319.556C158.52 317.72 151.767 319.05 146.202 323.199Z" fill="#060606"/>
<path d="M171.588 302.237L169.409 309.619C168.48 312.764 169.534 315.894 171.81 316.716L190.939 323.667C192.567 321.57 193.889 319.128 194.785 316.311C194.883 315.99 194.983 315.663 195.071 315.333C197.056 307.957 193.474 304.61 188.559 303.113L188.523 303.102C184.233 301.915 178.983 302.162 175.744 302.323C174.686 302.364 173.637 302.374 172.605 302.309C172.266 302.292 171.931 302.262 171.596 302.232L171.588 302.237Z" fill="white"/>
<path d="M191.042 324.043L171.7 317.013C169.27 316.13 168.125 312.841 169.106 309.527L171.362 301.896L171.618 301.921C171.947 301.949 172.282 301.979 172.615 301.995C173.537 302.052 174.528 302.057 175.728 302.007C178.901 301.846 184.215 301.585 188.603 302.795L188.627 302.803C194.86 304.71 197.111 308.946 195.371 315.411C195.281 315.748 195.187 316.077 195.081 316.402C194.22 319.13 192.905 321.634 191.186 323.855L191.044 324.037L191.042 324.043ZM171.823 302.573L169.713 309.706C168.83 312.699 169.796 315.643 171.915 316.417L190.822 323.294C192.429 321.177 193.659 318.8 194.474 316.223C194.57 315.908 194.669 315.587 194.757 315.256C196.416 309.098 194.364 305.227 188.489 303.429L188.464 303.421C184.145 302.226 178.891 302.485 175.752 302.643C174.526 302.692 173.521 302.689 172.579 302.632C172.324 302.621 172.072 302.603 171.821 302.579L171.823 302.573Z" fill="#060606"/>
<path d="M140.359 302.757C140.359 302.757 140.358 302.763 140.356 302.769C140.172 304.646 140.265 306.634 140.536 308.604L160.444 313.311C162.685 313.838 165.163 311.902 166.06 308.906L168.267 301.565C168.025 301.49 167.786 301.404 167.55 301.312C167.293 301.22 167.04 301.117 166.791 301.001C162.98 299.292 160.009 295.808 156.217 294.098C155.422 293.736 154.491 293.404 153.469 293.198C150.546 292.542 146.999 292.628 144.439 294.506C141.862 296.418 140.673 299.418 140.352 302.761L140.359 302.757Z" fill="white"/>
<path d="M140.258 308.863L140.231 308.649C139.94 306.528 139.877 304.549 140.047 302.761L140.052 302.703C140.424 298.891 141.841 296.055 144.259 294.252C147.503 291.869 151.834 292.506 153.549 292.891C154.485 293.078 155.435 293.389 156.358 293.81C158.284 294.677 160.016 296.002 161.687 297.288C163.344 298.556 165.054 299.867 166.932 300.713C167.175 300.827 167.424 300.923 167.667 301.017C167.903 301.109 168.137 301.187 168.367 301.258L168.664 301.348L166.371 308.994C165.422 312.16 162.79 314.188 160.376 313.621L140.258 308.863ZM140.669 302.826C140.509 304.498 140.563 306.354 140.822 308.34L160.52 312.997C162.606 313.489 164.909 311.652 165.76 308.807L167.875 301.763C167.724 301.716 167.582 301.66 167.435 301.601C167.178 301.51 166.915 301.396 166.658 301.284C164.715 300.412 162.973 299.078 161.289 297.788C159.643 296.53 157.945 295.222 156.082 294.388C155.2 293.985 154.304 293.691 153.406 293.509C151.772 293.142 147.655 292.538 144.626 294.762C142.355 296.45 141.021 299.147 140.672 302.773L140.668 302.832L140.669 302.826Z" fill="#060606"/>
<path d="M257.536 205.299C263.699 195.925 255.704 185.31 245.795 189.428C251.43 168.956 217.362 149.708 200.746 167.721C192.428 147.693 156.536 153.095 160.083 177.687C158.428 176.155 156.448 174.881 154.194 173.986C145.261 170.438 135.464 174.167 132.305 182.309C129.151 190.453 133.829 199.927 142.763 203.475C143.099 203.611 143.44 203.728 143.775 203.844L143.308 205.608C142.592 208.295 144.385 211.173 147.315 212.043C150.241 212.905 153.195 211.426 153.911 208.739L154.389 206.939L158.403 208.267L155.971 217.406C155.255 220.093 157.048 222.971 159.978 223.841C162.904 224.703 165.858 223.224 166.574 220.537L168.198 214.428C168.568 213.045 170.111 212.352 171.396 212.996C171.595 213.686 173.153 218.823 178.437 221.128C182.98 223.107 187.074 221.6 187.887 221.279C187.653 226.132 190.698 230.281 194.973 231.04C198.531 231.672 202.183 229.817 204.254 226.551C205.61 224.411 208.726 225.907 207.996 228.358C207.99 228.376 207.985 228.395 207.977 228.419L206.579 232.837C205.742 235.487 207.404 238.425 210.301 239.404C213.192 240.381 216.221 239.024 217.058 236.374L219.554 228.498C220.406 229.713 223.145 233.284 228.244 235.003C233.462 236.765 237.86 235.476 239.24 235.011L239.336 235.021L232.891 255.675C231.825 259.096 233.473 262.665 236.575 263.641L237.332 263.872C240.433 264.854 243.811 262.876 244.877 259.455L252.034 236.516C253.393 236.336 254.755 236.449 256.101 236.245C258.718 235.847 261.297 235.054 263.585 233.715C266.405 232.069 268.701 229.561 269.676 226.397C271.94 219.04 270.872 208.731 257.542 205.321L257.536 205.299Z" fill="white"/>
<path d="M237.277 264.18C237.277 264.18 237.247 264.171 237.229 264.165L236.473 263.934C233.216 262.898 231.472 259.147 232.588 255.563L238.864 235.439C236.653 236.113 232.699 236.817 228.139 235.282C223.785 233.811 221.057 231.004 219.66 229.167L217.352 236.45C216.947 237.73 216.045 238.778 214.807 239.405C213.427 240.108 211.752 240.198 210.188 239.687C207.136 238.654 205.377 235.534 206.27 232.722L207.668 228.304C208.018 227.14 207.445 226.31 206.724 225.983C206.096 225.698 205.138 225.716 204.512 226.703C202.321 230.164 198.549 231.982 194.908 231.338C190.609 230.572 187.524 226.49 187.546 221.724C185.823 222.316 182.234 223.124 178.294 221.402C173.243 219.202 171.496 214.464 171.113 213.208C170.609 212.994 170.051 213.002 169.56 213.222C169.029 213.464 168.636 213.926 168.484 214.489L166.86 220.598C166.515 221.896 165.66 222.985 164.453 223.662C163.111 224.416 161.437 224.586 159.871 224.126C159.853 224.121 159.828 224.113 159.81 224.108C156.76 223.175 154.904 220.137 155.65 217.308L158.002 208.455L154.595 207.326L154.203 208.802C153.859 210.1 153.003 211.189 151.796 211.865C150.454 212.62 148.781 212.79 147.214 212.33C147.196 212.325 147.172 212.317 147.153 212.312C144.104 211.378 142.241 208.339 142.994 205.511L143.385 204.036C143.135 203.946 142.885 203.856 142.636 203.76C133.561 200.156 128.785 190.48 131.997 182.188C133.45 178.436 136.37 175.444 140.204 173.77C144.536 171.878 149.673 171.848 154.293 173.685C156.264 174.467 158.06 175.539 159.647 176.885C158.306 164.871 166.2 158.257 174.179 156.057C183.645 153.452 196.094 156.474 200.83 167.144C209.692 157.927 223.134 159.047 232.618 164.319C241.255 169.119 248.72 178.526 246.24 188.902C250.562 187.344 254.873 188.392 257.618 191.708C260.651 195.376 260.796 200.591 258.021 205.097C263.269 206.524 266.966 209.125 269.048 212.833C271.917 217.948 270.847 223.565 269.954 226.462C269.026 229.495 266.808 232.159 263.722 233.962C261.547 235.23 258.992 236.097 256.126 236.531C255.411 236.642 254.684 236.659 253.982 236.682C253.414 236.7 252.828 236.713 252.251 236.781L245.159 259.528C244.588 261.353 243.339 262.884 241.732 263.723C240.315 264.461 238.73 264.624 237.265 264.176L237.277 264.18ZM239.749 234.73L233.193 255.748C232.179 258.999 233.74 262.396 236.667 263.318L237.424 263.55C237.424 263.55 237.452 263.565 237.464 263.569C238.771 263.969 240.185 263.825 241.454 263.161C242.918 262.397 244.053 261.004 244.576 259.337L251.793 236.204L251.992 236.179C252.661 236.092 253.335 236.074 253.983 236.053C254.671 236.032 255.371 236.015 256.051 235.912C258.841 235.488 261.321 234.651 263.424 233.421C266.372 231.702 268.485 229.164 269.373 226.285C270.228 223.488 271.267 218.06 268.519 213.155C266.473 209.504 262.751 206.961 257.467 205.609L257.038 205.498L257.283 205.129C260.144 200.775 260.092 195.669 257.153 192.122C254.473 188.879 250.168 187.959 245.928 189.727L245.33 189.974L245.501 189.351C248.327 179.075 240.93 169.662 232.338 164.889C222.949 159.672 209.613 158.597 200.99 167.941L200.655 168.302L200.463 167.846C196.025 157.154 183.709 154.108 174.372 156.679C166.473 158.857 158.654 165.507 160.408 177.641L160.534 178.527L159.879 177.923C158.203 176.371 156.249 175.144 154.089 174.285C149.618 172.506 144.658 172.538 140.487 174.36C136.806 175.967 134.01 178.832 132.612 182.429C129.526 190.395 134.134 199.709 142.892 203.183C143.222 203.317 143.557 203.433 143.888 203.541L144.172 203.628L143.622 205.684C142.956 208.187 144.628 210.877 147.357 211.712C147.375 211.717 147.393 211.723 147.411 211.728C148.819 212.146 150.308 211.993 151.507 211.32C152.561 210.729 153.31 209.773 153.61 208.64L154.174 206.516L158.79 208.041L156.283 217.468C155.611 219.99 157.328 222.726 160.072 223.513C161.479 223.93 162.969 223.777 164.167 223.104C165.222 222.513 165.969 221.563 166.271 220.425L167.895 214.315C168.099 213.563 168.616 212.954 169.323 212.634C170.036 212.315 170.845 212.331 171.544 212.684L171.67 212.749L171.709 212.88C171.977 213.823 173.571 218.627 178.573 220.813C182.79 222.646 186.689 221.389 187.785 220.963L188.243 220.786L188.219 221.275C187.996 225.92 190.931 229.975 195.047 230.712C198.436 231.312 201.949 229.606 204.007 226.363C204.799 225.116 206.083 224.986 207.014 225.403C207.949 225.828 208.756 226.956 208.312 228.428L208.293 228.489L206.895 232.907C206.11 235.387 207.684 238.159 210.413 239.08C211.798 239.55 213.307 239.463 214.545 238.835C215.626 238.286 216.416 237.369 216.771 236.253L219.459 227.768L219.829 228.291C221.036 230.011 223.75 233.125 228.364 234.676C233.096 236.276 237.147 235.364 239.156 234.681L239.293 234.664L239.765 234.722L239.749 234.73Z" fill="#060606"/>
<path d="M191.32 186.656C192.203 182.709 195.645 180.048 198.992 180.722C201.294 181.181 203.038 183.158 203.528 185.75C205.057 183.848 207.284 182.908 209.396 183.335C210.792 183.617 212.018 184.475 212.845 185.754C213.879 187.348 214.209 189.449 213.748 191.498L213.128 191.362C213.553 189.473 213.254 187.554 212.315 186.102C211.582 184.971 210.499 184.209 209.271 183.959C207.189 183.541 204.956 184.632 203.585 186.754L203.084 187.528L203.001 186.609C202.766 183.915 201.099 181.796 198.86 181.35C195.848 180.746 192.738 183.19 191.93 186.803L191.31 186.666L191.32 186.656Z" fill="#060606"/>
<path d="M239.607 220.574C240.204 217.89 239.282 215.278 237.325 214.083C236.215 213.406 234.862 213.223 233.517 213.573C231.793 214.019 230.24 215.265 229.248 216.994L228.702 216.681C229.772 214.804 231.476 213.452 233.36 212.963C234.875 212.572 236.4 212.781 237.654 213.548C239.845 214.887 240.883 217.767 240.226 220.716L239.606 220.58L239.607 220.574Z" fill="#060606"/>
<path d="M157.39 192.784L156.815 192.522C157.987 189.988 160.284 188.407 162.68 188.491C164.127 188.543 165.476 189.194 166.485 190.331C167.731 191.731 168.351 193.728 168.186 195.802L167.552 195.754C167.705 193.848 167.137 192.026 166.011 190.755C165.115 189.746 163.922 189.169 162.652 189.125C160.512 189.046 158.444 190.485 157.384 192.782L157.39 192.784Z" fill="#060606"/>
<path d="M136.218 74.6435L116.095 169.931L116.051 170.886L115.222 191.826C104.806 194.263 89.8721 196.593 71.9639 195.479C54.4606 194.39 40.1973 190.408 30.2687 186.819C30.8192 179.742 31.3571 172.64 31.914 165.563C31.9266 165.36 31.9519 165.177 31.9646 164.974L23.1813 67.9843L21.188 45.9492C46.2469 44.0818 66.4965 44.7591 80.3675 45.715C107.318 47.576 140.8 52.6338 140.781 53.0009L136.218 74.6499V74.6435Z" fill="#B6CCC6"/>
<path d="M81.1521 196.08C78.083 196.08 75.0139 195.985 71.9512 195.795C57.7005 194.909 43.6397 191.991 30.1674 187.117L29.9395 187.035L29.9585 186.794C30.237 183.255 30.5091 179.711 30.7812 176.166C31.0533 172.621 31.3254 169.076 31.6038 165.537C31.6038 165.443 31.6165 165.341 31.6291 165.246C31.6355 165.151 31.6481 165.056 31.6544 164.955L22.8712 68.0159L20.8525 45.658L21.1753 45.6327C41.1021 44.1451 61.029 44.0691 80.4054 45.3984C95.7065 46.4556 112.248 48.4875 120.746 49.6016C126.081 50.3043 131.219 51.0322 135.206 51.6526C141.142 52.5768 141.135 52.6527 141.11 53.0136L136.541 74.7132L116.418 170L115.545 192.086L115.311 192.143C104.072 194.77 92.6247 196.093 81.1647 196.093L81.1521 196.08ZM30.6103 186.598C43.9561 191.402 57.8777 194.283 71.9891 195.162C86.36 196.055 100.807 194.846 114.918 191.567L115.779 169.912L135.908 74.5739L140.414 53.1908C137.376 52.4375 105.8 47.7722 80.3484 46.0188C61.105 44.6958 41.3173 44.7654 21.5296 46.2277L32.2746 164.93C32.2746 165.082 32.2619 165.189 32.2493 165.291C32.2429 165.386 32.2303 165.474 32.224 165.569C31.9455 169.114 31.6734 172.659 31.4013 176.204C31.1355 179.666 30.8698 183.135 30.5977 186.591L30.6103 186.598Z" fill="#060606"/>
<path d="M116.102 169.924L116.057 170.88C103.756 171.842 89.6886 172.171 74.2229 171.222C58.384 170.247 44.1776 168.101 31.9203 165.556C31.9329 165.354 31.9582 165.17 31.9709 164.968L23.0674 62.2302L138.44 65.1421L116.108 169.924H116.102Z" fill="#FF6600"/>
<path d="M92.7069 172.108C86.5308 172.108 80.3484 171.918 74.2039 171.538C60.0292 170.665 45.7848 168.759 31.8569 165.867L31.5911 165.81L31.6101 165.537C31.6101 165.436 31.6228 165.335 31.6354 165.24C31.6417 165.145 31.6544 165.05 31.6607 164.949L22.7256 61.9074L138.832 64.8382L138.756 65.2117L116.424 169.969L116.367 171.178L116.089 171.197C108.343 171.804 100.535 172.102 92.7133 172.102L92.7069 172.108ZM32.2556 165.303C46.0633 168.158 60.1874 170.038 74.2418 170.905C88.0495 171.754 102.015 171.646 115.754 170.589L115.791 169.861L138.047 65.4522L23.409 62.5594L32.2809 164.942C32.2809 165.094 32.2682 165.196 32.2556 165.303Z" fill="#060606"/>
<path d="M36.1917 169.025C35.2805 169.025 34.6793 169.753 34.6097 170.608C34.2933 174.615 33.9769 178.628 33.6542 182.635C33.5846 183.49 34.4325 184.218 35.2362 184.218C36.1474 184.218 36.7486 183.49 36.8182 182.635C37.1346 178.628 37.4573 174.615 37.7737 170.608C37.8433 169.753 36.9953 169.025 36.1917 169.025Z" fill="white"/>
<path d="M113.166 175.096C113.102 174.241 112.482 173.513 111.584 173.513C110.774 173.513 109.938 174.241 110.002 175.096C110.236 178.286 110.299 181.578 109.881 184.762C109.748 185.775 109.432 186.642 108.546 187.186C107.553 187.8 106.369 188.022 105.237 188.206C104.395 188.345 103.92 189.389 104.129 190.155C104.376 191.054 105.23 191.396 106.078 191.263C109.097 190.769 112.128 189.427 112.843 186.142C113.216 184.427 113.254 182.591 113.305 180.844C113.362 178.926 113.305 177.014 113.172 175.102L113.166 175.096Z" fill="white"/>
<path d="M36.7802 105.237C36.4005 100.521 36.0145 95.8051 35.6348 91.0955C35.5652 90.2409 34.9577 89.5129 34.0528 89.5129C33.2492 89.5129 32.4012 90.2409 32.4708 91.0955C33.8123 107.649 35.1539 124.202 36.4891 140.755C36.8688 145.471 37.2548 150.187 37.6345 154.897C37.7041 155.751 38.3116 156.479 39.2165 156.479C40.0201 156.479 40.8681 155.751 40.7985 154.897C39.4569 138.343 38.1154 121.79 36.7802 105.237Z" fill="white"/>
<path d="M64.9081 84.7211C63.2754 84.7211 61.9529 83.3917 61.9529 81.7649C61.9529 80.1381 63.2818 78.8087 64.9081 78.8087C66.5344 78.8087 67.8632 80.1381 67.8632 81.7649C67.8632 83.3917 66.5344 84.7211 64.9081 84.7211ZM64.9081 79.1189C63.4526 79.1189 62.2693 80.3027 62.2693 81.7586C62.2693 83.2145 63.4526 84.3982 64.9081 84.3982C66.3635 84.3982 67.5468 83.2145 67.5468 81.7586C67.5468 80.3027 66.3635 79.1189 64.9081 79.1189Z" fill="white"/>
<path d="M106.173 154.897C104.54 154.897 103.218 153.567 103.218 151.934C103.218 150.301 104.547 148.978 106.173 148.978C107.799 148.978 109.128 150.307 109.128 151.934C109.128 153.561 107.799 154.897 106.173 154.897ZM106.173 149.294C104.718 149.294 103.534 150.478 103.534 151.934C103.534 153.39 104.718 154.58 106.173 154.58C107.628 154.58 108.812 153.396 108.812 151.934C108.812 150.472 107.628 149.294 106.173 149.294Z" fill="white"/>
<path d="M115.013 88.114C113.38 88.114 112.058 86.7847 112.058 85.1515C112.058 83.5183 113.387 82.1953 115.013 82.1953C116.639 82.1953 117.968 83.5247 117.968 85.1515C117.968 86.7783 116.639 88.114 115.013 88.114ZM115.013 82.5118C113.558 82.5118 112.374 83.6956 112.374 85.1515C112.374 86.6074 113.558 87.7975 115.013 87.7975C116.468 87.7975 117.652 86.6138 117.652 85.1515C117.652 83.6893 116.468 82.5118 115.013 82.5118Z" fill="white"/>
<path d="M95.1178 78.8214C94.1496 78.8214 93.3586 78.0302 93.3586 77.0616C93.3586 76.0931 94.1496 75.3019 95.1178 75.3019C96.086 75.3019 96.877 76.0931 96.877 77.0616C96.877 78.0302 96.086 78.8214 95.1178 78.8214ZM95.1178 75.6184C94.3205 75.6184 93.675 76.2641 93.675 77.0616C93.675 77.8592 94.3205 78.5049 95.1178 78.5049C95.9152 78.5049 96.5606 77.8592 96.5606 77.0616C96.5606 76.2641 95.9152 75.6184 95.1178 75.6184Z" fill="white"/>
<path d="M93.9408 102.116C92.9726 102.116 92.1816 101.325 92.1816 100.356C92.1816 99.3879 92.9726 98.5966 93.9408 98.5966C94.909 98.5966 95.7 99.3879 95.7 100.356C95.7 101.325 94.909 102.116 93.9408 102.116ZM93.9408 98.9132C93.1435 98.9132 92.498 99.5588 92.498 100.356C92.498 101.154 93.1435 101.8 93.9408 101.8C94.7382 101.8 95.3836 101.154 95.3836 100.356C95.3836 99.5588 94.7382 98.9132 93.9408 98.9132Z" fill="white"/>
<path d="M52.0876 148.408C51.1194 148.408 50.3284 147.617 50.3284 146.648C50.3284 145.68 51.1194 144.889 52.0876 144.889C53.0557 144.889 53.8467 145.68 53.8467 146.648C53.8467 147.617 53.0557 148.408 52.0876 148.408ZM52.0876 145.205C51.2902 145.205 50.6448 145.851 50.6448 146.648C50.6448 147.446 51.2902 148.092 52.0876 148.092C52.8849 148.092 53.5303 147.446 53.5303 146.648C53.5303 145.851 52.8849 145.205 52.0876 145.205Z" fill="white"/>
<path d="M32.3378 80.2963C31.3696 80.2963 30.5786 79.5051 30.5786 78.5366C30.5786 77.5681 31.3696 76.7768 32.3378 76.7768C33.306 76.7768 34.097 77.5681 34.097 78.5366C34.097 79.5051 33.306 80.2963 32.3378 80.2963ZM32.3378 77.0933C31.5405 77.0933 30.895 77.739 30.895 78.5366C30.895 79.3342 31.5405 79.9798 32.3378 79.9798C33.1351 79.9798 33.7806 79.3342 33.7806 78.5366C33.7806 77.739 33.1351 77.0933 32.3378 77.0933Z" fill="white"/>
<path d="M70.2048 111.054C72.1222 99.5208 65.1171 88.5634 54.2456 85.2465C53.2901 84.9489 52.2903 84.7147 51.2841 84.5501C38.7483 82.4612 26.8897 90.9435 24.8014 103.496C22.7132 116.036 31.1927 127.899 43.7285 129.981C44.7346 130.152 45.7534 130.253 46.7596 130.279C58.1184 130.659 68.2938 122.575 70.2112 111.048L70.2048 111.054Z" fill="white"/>
<path d="M47.5252 130.614C47.2658 130.614 47.0064 130.614 46.7406 130.602C45.7661 130.576 44.7346 130.475 43.6715 130.298C37.527 129.272 32.1419 125.917 28.5223 120.847C24.8963 115.777 23.4662 109.592 24.485 103.446C25.5101 97.2926 28.864 91.9057 33.9327 88.2786C39.0014 84.6514 45.1839 83.2145 51.3284 84.24C52.3915 84.4172 53.404 84.6578 54.3342 84.9489C65.4715 88.3482 72.4259 99.5968 70.5086 111.111C68.6355 122.36 58.8271 130.621 47.5189 130.621L47.5252 130.614ZM47.4556 84.5501C42.7666 84.5501 38.1978 86.0061 34.3061 88.7913C29.3702 92.3235 26.105 97.5648 25.1115 103.553C24.118 109.535 25.5101 115.549 29.0348 120.48C32.5595 125.417 37.7928 128.684 43.7727 129.677C44.8105 129.848 45.8104 129.95 46.7596 129.975C47.0127 129.981 47.2658 129.988 47.5189 129.988C58.5296 129.988 68.0659 121.948 69.8884 111.01C71.7488 99.8057 64.9842 88.8673 54.1507 85.5566C53.2458 85.2718 52.2649 85.0439 51.2271 84.8666C49.9679 84.6578 48.7086 84.5565 47.4556 84.5565V84.5501Z" fill="#060606"/>
<path d="M32.8758 89.2661C30.8066 88.2913 28.8765 87.0569 27.1237 85.601C24.5355 83.4424 23.8331 82.341 22.77 80.6635L22.6877 80.5369L23.2193 80.195L23.3016 80.3216C24.333 81.9422 25.0101 83.0183 27.5287 85.1072C29.2372 86.5315 31.1293 87.7342 33.1479 88.6837L32.8758 89.2534V89.2661Z" fill="#060606"/>
<path d="M39.6531 85.487C38.2483 83.6956 37.0396 81.7522 36.0525 79.7013C35.1476 77.8212 34.4325 75.8399 33.9199 73.8143L34.5337 73.656C35.0336 75.6374 35.7424 77.5807 36.622 79.4228C37.5838 81.4294 38.7735 83.3348 40.1467 85.0882L39.6468 85.4807L39.6531 85.487Z" fill="#060606"/>
<path d="M47.1138 83.8855C46.5696 81.7269 46.2532 79.5114 46.1773 77.2895C46.114 75.3398 46.2342 73.3775 46.5317 71.4532L47.1581 71.5481C46.8607 73.4345 46.7468 75.3588 46.8101 77.2705C46.8797 79.4417 47.1898 81.6193 47.7276 83.7336L47.1138 83.8918V83.8855Z" fill="#060606"/>
<path d="M46.7531 130.285C44.7472 125.689 43.76 119.727 44.0511 113.188L60.314 109.402L46.152 100.553C47.9934 94.2732 50.86 88.9559 54.2392 85.2464C65.1107 88.5634 72.1158 99.5208 70.1984 111.054C68.281 122.588 58.1056 130.665 46.7468 130.285H46.7531Z" fill="#060606"/>
<path d="M47.525 130.614C47.2656 130.614 47.0061 130.614 46.7404 130.602H46.5379L46.4556 130.412C44.4117 125.721 43.4435 119.6 43.7282 113.169L43.7409 112.928L59.4976 109.263L45.7785 100.692L45.8481 100.464C47.6832 94.2099 50.5055 88.8736 54.0049 85.0312L54.1378 84.8856L54.3276 84.9426C65.4649 88.3419 72.4194 99.5905 70.5083 111.105C68.6353 122.354 58.8269 130.614 47.5187 130.614H47.525ZM46.9619 129.975C47.1517 129.975 47.3352 129.981 47.525 129.981C58.5294 129.981 68.0721 121.942 69.8945 111.004C71.7486 99.869 65.0726 88.9875 54.3466 85.6136C51.0624 89.2724 48.2907 94.5137 46.5315 100.413L61.1366 109.535L44.361 113.441C44.1206 119.606 45.0381 125.455 46.9682 129.975H46.9619Z" fill="#060606"/>
<path d="M134.276 112.46C135.13 100.8 127.151 90.5321 116.02 88.2216C115.039 88.0127 114.026 87.8735 113.007 87.7975C100.332 86.867 89.3027 96.4001 88.3725 109.092C87.4423 121.771 96.9723 132.805 109.641 133.735C110.66 133.811 111.685 133.824 112.685 133.754C124.031 133.096 133.422 124.113 134.276 112.453V112.46Z" fill="white"/>
<path d="M111.356 134.115C110.793 134.115 110.21 134.096 109.622 134.052C103.408 133.596 97.7442 130.747 93.669 126.025C89.5938 121.309 87.6004 115.283 88.0561 109.067C88.9989 96.2229 100.206 86.5378 113.033 87.481C114.108 87.5569 115.14 87.7025 116.089 87.9114C127.492 90.2789 135.446 100.837 134.592 112.479C133.738 124.113 124.328 133.393 112.704 134.071C112.267 134.102 111.818 134.115 111.356 134.115ZM111.311 88.0507C99.5414 88.0507 89.5621 97.1787 88.6889 109.111C88.2459 115.156 90.1823 121.018 94.1436 125.607C98.1049 130.197 103.617 132.969 109.666 133.412C110.717 133.488 111.723 133.495 112.666 133.431C123.98 132.773 133.13 123.74 133.959 112.428C134.788 101.103 127.049 90.8233 115.956 88.5254C115.032 88.3229 114.033 88.1836 112.982 88.1077C112.419 88.0697 111.862 88.0444 111.311 88.0444V88.0507Z" fill="#060606"/>
<path d="M131.042 99.1031L130.916 98.4827C133.099 98.0333 135.219 97.3116 137.218 96.3305C140.155 94.8872 141.072 94.0073 142.458 92.6717L142.566 92.5641L143.002 93.0198L142.895 93.1274C141.471 94.5011 140.522 95.4126 137.497 96.9002C135.453 97.9067 133.282 98.6473 131.042 99.1031Z" fill="#060606"/>
<path d="M125.347 93.8364L124.955 93.3363C126.707 91.9564 128.308 90.3865 129.72 88.6647C131.017 87.0822 132.156 85.3604 133.111 83.5563L133.668 83.8538C132.694 85.7022 131.529 87.4557 130.207 89.0698C128.77 90.8296 127.131 92.4311 125.347 93.8427V93.8364Z" fill="#060606"/>
<path d="M118.475 90.5194L117.918 90.2219C118.937 88.2976 119.747 86.2529 120.329 84.1577C120.842 82.3156 121.183 80.4166 121.341 78.5175L121.974 78.5682C121.816 80.5115 121.468 82.4485 120.943 84.3286C120.348 86.4682 119.519 88.5508 118.481 90.5194H118.475Z" fill="#060606"/>
<path d="M112.685 133.754C110.267 129.367 108.736 123.512 108.426 116.973L124.278 111.713L109.363 104.199C110.622 97.7801 112.989 92.2159 116.02 88.2153C127.151 90.5258 135.13 100.793 134.276 112.453C133.422 124.113 124.031 133.089 112.685 133.754Z" fill="#060606"/>
<path d="M112.501 134.083L112.406 133.906C109.938 129.424 108.413 123.417 108.11 116.986L108.097 116.745L123.449 111.649L109.002 104.37L109.046 104.135C110.299 97.7357 112.621 92.1653 115.76 88.0254L115.88 87.8671L116.077 87.9051C127.48 90.2726 135.434 100.831 134.586 112.472C133.732 124.107 124.322 133.387 112.697 134.064L112.495 134.077L112.501 134.083ZM108.755 117.201C109.078 123.36 110.533 129.108 112.862 133.431C124.081 132.678 133.13 123.689 133.953 112.441C134.776 101.179 127.132 90.9625 116.146 88.5824C113.21 92.5261 110.932 98.0016 109.717 104.041L125.094 111.789L108.749 117.213L108.755 117.201Z" fill="#060606"/>
<path d="M84.8413 117.245C84.9172 120.214 82.3797 122.689 79.1714 122.771C75.9631 122.854 73.299 120.518 73.2167 117.549C73.1408 114.58 75.6783 112.105 78.8866 112.023C82.0949 111.94 84.759 114.276 84.8413 117.245Z" fill="#FFBF00"/>
<path d="M79.0069 123.088C77.4376 123.088 75.9568 122.543 74.8178 121.543C73.6281 120.499 72.9447 119.081 72.9067 117.555C72.8688 116.03 73.4699 114.58 74.6026 113.472C75.729 112.371 77.2477 111.744 78.8804 111.7C80.5256 111.668 82.0633 112.206 83.2467 113.245C84.4363 114.289 85.1134 115.707 85.1577 117.232C85.24 120.372 82.5569 122.999 79.1841 123.088C79.1272 123.088 79.0639 123.088 79.0069 123.088ZM79.0639 112.333C79.0069 112.333 78.9563 112.333 78.8993 112.333C77.4249 112.371 76.0581 112.941 75.0456 113.928C74.0394 114.909 73.5016 116.194 73.5395 117.536C73.5775 118.885 74.1787 120.138 75.2354 121.062C76.2985 121.993 77.697 122.493 79.1714 122.448C82.2026 122.366 84.6072 120.037 84.5313 117.245C84.4933 115.897 83.8921 114.643 82.8354 113.719C81.8102 112.82 80.475 112.333 79.0639 112.333Z" fill="#060606"/>
<path d="M70.6097 124.518C67.9519 123.411 64.8385 125.006 64.4019 127.721C62.7123 138.242 61.0987 159.954 76.0897 161.803C91.182 163.664 93.4411 140.242 93.6563 128.899C93.7069 126.095 90.7833 124.183 87.9168 125.101C85.4552 125.892 82.5253 126.531 79.2094 126.436C75.767 126.335 72.9257 125.487 70.6097 124.518Z" fill="#FFBF00"/>
<path d="M77.7414 162.227C77.1909 162.227 76.6277 162.189 76.0519 162.119C72.369 161.663 69.4138 159.992 67.2749 157.137C61.5987 149.586 62.8453 135.432 64.0919 127.671C64.3071 126.341 65.1424 125.177 66.3827 124.487C67.7116 123.746 69.3379 123.651 70.73 124.227C73.5903 125.417 76.3619 126.038 79.2159 126.12C81.9875 126.196 84.8035 125.765 87.8156 124.803C89.3533 124.31 91.0239 124.563 92.2642 125.493C93.3716 126.316 93.9917 127.563 93.9664 128.912C93.8019 137.615 92.4414 153.162 85.1832 159.461C83.057 161.309 80.5574 162.233 77.7351 162.233L77.7414 162.227ZM68.8316 124.487C68.0912 124.487 67.3509 124.67 66.6927 125.044C65.617 125.639 64.9019 126.639 64.7184 127.778C63.4845 135.444 62.2505 149.402 67.7812 156.764C69.8125 159.473 72.6221 161.062 76.1341 161.493C79.469 161.904 82.3799 161.056 84.7782 158.973C91.8465 152.839 93.1818 137.495 93.3463 128.893C93.3653 127.753 92.84 126.696 91.8972 125.993C90.8151 125.189 89.366 124.968 88.0181 125.398C84.9364 126.386 82.0508 126.829 79.2095 126.747C76.2797 126.664 73.4321 126.031 70.4959 124.803C69.9707 124.582 69.4075 124.474 68.8443 124.474L68.8316 124.487Z" fill="#060606"/>
<path d="M68.8634 127.462C68.1547 127.145 67.351 127.645 67.2561 128.449C66.5284 134.919 64.7375 158.169 76.3937 158.979C89.7268 159.91 90.3849 136.362 90.3217 129.969C90.3153 129.184 89.6066 128.627 88.8789 128.836C86.5818 129.5 82.9559 130.222 78.501 129.88C74.3055 129.557 71.0023 128.411 68.8634 127.462Z" fill="white"/>
<path d="M77.153 159.328C76.8999 159.328 76.6404 159.321 76.3747 159.302C74.0966 159.144 72.1665 158.138 70.6541 156.315C65.0602 149.598 66.4017 133.267 66.9459 128.418C67.0029 127.924 67.2876 127.487 67.7053 127.247C68.1103 127.019 68.5786 126.993 68.9962 127.177C71.9957 128.506 75.204 129.31 78.5325 129.564C81.9939 129.836 85.5439 129.475 88.8028 128.532C89.2331 128.411 89.6824 128.487 90.0431 128.76C90.4228 129.044 90.6443 129.481 90.6506 129.969C90.7012 134.666 90.3406 150.466 83.7215 156.707C81.8737 158.448 79.6652 159.334 77.153 159.334V159.328ZM68.4204 127.683C68.2811 127.683 68.1483 127.721 68.0217 127.791C67.7749 127.937 67.6104 128.19 67.5787 128.487C67.0408 133.273 65.712 149.389 71.1414 155.909C72.5462 157.593 74.3244 158.524 76.4253 158.669C79.0767 158.859 81.3801 158.036 83.2848 156.245C89.7141 150.187 90.0621 134.609 90.0115 129.975C90.0115 129.69 89.8786 129.431 89.6635 129.266C89.461 129.114 89.2142 129.07 88.9737 129.139C85.6452 130.102 82.0129 130.469 78.4819 130.197C75.0774 129.931 71.7995 129.114 68.7368 127.753C68.6355 127.709 68.5279 127.683 68.4204 127.683Z" fill="#060606"/>
<path d="M74.0045 129.239L72.1487 157.562L72.7801 157.604L74.6359 129.28L74.0045 129.239Z" fill="#060606"/>
<path d="M82.4527 129.873L80.3088 158.328L80.9398 158.376L83.0837 129.92L82.4527 129.873Z" fill="#060606"/>
<path d="M89.0371 144.756L66.7878 143.186L66.8891 142.863L66.9081 142.566L89.0814 144.123L89.0371 144.756Z" fill="#060606"/>
<path d="M144.862 54.3112C144.843 47.3924 141.262 38.7961 129.207 39.2899C135.813 22.2682 101.579 -12.1485 71.8498 21.5593C59.6684 6.45565 31.0089 20.3502 40.3933 40.6066C38.6088 39.714 36.6155 39.1253 34.4956 38.9354C26.0921 38.1821 18.8592 43.9172 18.3339 51.7349C17.815 59.5589 24.2063 66.5093 32.6099 67.2626C32.9263 67.2879 33.2427 67.3069 33.5528 67.3196L33.6224 68.9528C33.7236 71.4532 35.9764 73.4725 38.6531 73.4598C41.3299 73.4471 43.4181 71.4152 43.3106 68.9148L43.2409 67.2436L46.9492 67.3512L47.2972 75.8462C47.3984 78.3466 49.6512 80.3659 52.328 80.3533C55.0047 80.3406 57.0929 78.3086 56.9854 75.8083L56.7512 70.1302C56.7006 68.8451 57.808 67.8513 59.0546 68.0792C59.3963 68.6236 62.0414 72.6432 67.0722 73.2699C71.3942 73.8016 74.4317 71.4531 75.0265 70.9657C75.2353 70.9784 76.3301 71.048 77.197 71.9975C77.7475 72.5989 78.0766 73.4028 78.0513 74.2764L77.6083 91.5259C77.545 94.0263 79.1017 96.3684 81.4684 97.0711C84.4805 97.9636 87.1889 95.8747 87.2648 92.8679L87.8154 71.3962C87.8534 69.9149 89.2772 67.7817 90.4415 68.6489C97.8896 74.2194 103.433 69.0287 103.433 69.0287C104.464 69.8516 107.685 72.2254 112.406 72.39C117.234 72.5609 120.582 70.3201 121.613 69.5668V70.6429C121.594 73.1433 122.702 82.4739 127.435 81.7839C131.637 81.1699 131.295 73.4914 131.308 70.9911C131.308 70.3327 132.13 67.8513 132.466 67.6804C133.624 67.0917 134.902 66.8512 136.054 66.2878C138.142 65.275 140.097 63.9203 141.66 62.1859C143.59 60.0463 144.862 57.2927 144.85 54.3176L144.862 54.3112Z" fill="white"/>
<path d="M82.8733 97.5838C82.386 97.5838 81.8861 97.5142 81.3926 97.3686C78.9183 96.6343 77.2351 94.2289 77.3047 91.5132L77.7476 74.2637C77.7666 73.5041 77.4945 72.7698 76.9756 72.2064C76.3175 71.4848 75.5075 71.3266 75.1405 71.2886C73.9761 72.2064 71.0463 74.0738 67.047 73.5801C62.244 72.985 59.542 69.3769 58.8775 68.3704C58.4282 68.3261 57.9916 68.4653 57.6499 68.7629C57.2639 69.0983 57.0551 69.5921 57.074 70.1175L57.3082 75.7956C57.3588 77.0363 56.9095 78.2137 56.0426 79.1189C55.106 80.1001 53.7582 80.6634 52.3344 80.6698H52.3154C49.4868 80.6698 47.0948 78.5176 46.9872 75.8589L46.6518 67.6614L43.5827 67.5728L43.6397 68.9085C43.6903 70.1492 43.241 71.3266 42.3741 72.2318C41.4376 73.2129 40.0897 73.7763 38.6659 73.7826H38.6469C35.8183 73.7826 33.4326 71.6304 33.3187 68.9718L33.2618 67.6298C33.0403 67.6171 32.8188 67.6045 32.591 67.5855C24.0292 66.8195 17.4987 59.7045 18.0303 51.7222C18.2771 48.0508 19.9856 44.6768 22.8459 42.2271C25.9719 39.5494 30.2307 38.2391 34.5337 38.6252C36.3562 38.7898 38.1154 39.2393 39.7733 39.9609C35.5082 29.7947 40.8554 21.8884 46.867 18.1474C50.8157 15.6913 55.4541 14.5519 59.928 14.9443C64.7246 15.3621 68.8441 17.4827 71.8689 21.0782C84.8413 6.55061 101.009 3.01841 115.171 11.64C125.992 18.2233 132.516 30.6177 129.669 38.9671C134.32 38.8658 138.053 40.1128 140.749 42.6955C144.59 46.367 145.172 51.5576 145.179 54.3176C145.185 57.1788 144.027 60.0463 141.907 62.4011C140.414 64.0596 138.496 65.4649 136.206 66.579C135.63 66.8575 135.022 67.0601 134.44 67.2563C133.833 67.4588 133.2 67.6741 132.618 67.9653C132.403 68.1805 131.637 70.3707 131.631 70.9974V71.5798C131.643 74.5486 131.675 81.4927 127.492 82.1004C126.442 82.2523 125.486 81.9611 124.651 81.2395C121.835 78.7897 121.291 72.2634 121.303 70.6492V70.1808C119.588 71.3266 116.488 72.8584 112.406 72.7129C108.16 72.5609 105.04 70.6682 103.452 69.4402C102.351 70.3201 97.029 73.9599 90.2644 68.9085C90.0429 68.7439 89.8151 68.7249 89.5493 68.8515C88.8533 69.187 88.1698 70.4277 88.1445 71.4089L87.594 92.8805C87.556 94.4441 86.841 95.8367 85.6386 96.7166C84.835 97.299 83.8731 97.6028 82.8733 97.6028V97.5838ZM74.938 70.6366H75.0582C75.3873 70.6556 76.539 70.7885 77.4439 71.776C78.0704 72.466 78.4057 73.3522 78.3804 74.2764L77.9375 91.5259C77.8742 93.9187 79.4056 96.1152 81.5697 96.7609C82.8796 97.147 84.2275 96.9381 85.2653 96.1912C86.3094 95.4316 86.9296 94.2162 86.9612 92.8552L87.5117 71.3835C87.537 70.3011 88.2711 68.7629 89.2709 68.2754C89.7455 68.0476 90.2328 68.0855 90.6441 68.3957C97.8011 73.7447 103.174 68.8451 103.23 68.8008L103.433 68.6109L103.648 68.7818C105.104 69.9466 108.179 71.9216 112.438 72.0735C116.779 72.2318 119.943 70.4087 121.449 69.3073L121.955 68.9401V70.6492C121.936 72.9534 122.708 78.7011 125.081 80.7584C125.777 81.3661 126.543 81.6003 127.41 81.4737C131.048 80.942 131.023 74.384 131.01 71.5798V70.9911C131.01 70.396 131.795 67.6804 132.339 67.4019C132.959 67.0854 133.611 66.8638 134.244 66.6549C134.839 66.4587 135.396 66.2688 135.934 66.0093C138.155 64.9331 140.009 63.5722 141.445 61.977C143.458 59.7425 144.565 57.0205 144.559 54.3239C144.552 51.6589 143.989 46.6645 140.319 43.1513C137.667 40.6129 133.934 39.4228 129.232 39.6127L128.751 39.6317L128.928 39.1823C132.067 31.0987 125.619 18.7297 114.855 12.1781C110.501 9.52576 103.496 6.63922 94.8902 7.94955C86.7777 9.17759 79.1081 13.8302 72.103 21.7745L71.8563 22.053L71.6221 21.7618C66.7432 15.7166 56.7956 12.7225 47.2087 18.6854C41.2667 22.3822 35.9891 30.3138 40.7035 40.4736L41.0832 41.2965L40.2732 40.8914C38.4697 39.9862 36.5207 39.4355 34.4894 39.2519C30.3572 38.8848 26.2693 40.1381 23.2699 42.7081C20.5362 45.044 18.9035 48.2597 18.6757 51.7602C18.1695 59.4006 24.4405 66.2118 32.6606 66.9524C32.9707 66.9778 33.2808 66.9968 33.5845 67.0094H33.8756L33.9515 68.9464C34.0465 71.2696 36.1473 73.1496 38.6469 73.1496H38.6659C39.9188 73.1496 41.1022 72.6495 41.9185 71.795C42.6652 71.0164 43.0512 69.9972 43.0069 68.9338L42.9246 66.9208L47.2656 67.0474L47.6263 75.8336C47.7213 78.1567 49.8222 80.0368 52.3217 80.0368H52.3407C53.5936 80.0368 54.777 79.5367 55.5933 78.6821C56.34 77.9035 56.726 76.8844 56.6817 75.8209L56.4476 70.1428C56.4159 69.4212 56.707 68.7439 57.2386 68.2818C57.7575 67.8323 58.4472 67.6424 59.1243 67.7627L59.2635 67.788L59.3395 67.9083C59.8077 68.6489 62.3832 72.3647 67.1292 72.9534C71.0083 73.4345 73.8179 71.5544 74.8494 70.7188L74.9443 70.6429L74.938 70.6366Z" fill="#060606"/>
<path d="M49.4236 54.7291C49.664 50.5385 53.3153 47.3861 57.5804 47.69C61.8455 47.9875 65.1044 51.6273 64.8576 55.8178" fill="white"/>
<path d="M65.174 55.8368L64.5412 55.7988C64.7753 51.7919 61.6366 48.2913 57.555 48.0065C55.5491 47.8672 53.6317 48.5065 52.1446 49.8105C50.7018 51.0829 49.8475 52.8363 49.7336 54.748L49.1008 54.7101C49.2211 52.6274 50.1513 50.7157 51.7269 49.3358C53.3406 47.9178 55.4288 47.2215 57.5993 47.3735C62.0289 47.6836 65.4271 51.4817 65.174 55.8368Z" fill="#060606"/>
<path d="M93.3525 40.1698C93.5424 35.9792 97.1557 32.7825 101.421 33.0294C105.686 33.2763 108.989 36.8781 108.799 41.0686" fill="white"/>
<path d="M109.116 41.0876L108.483 41.0623C108.666 37.049 105.49 33.5865 101.402 33.3523C99.3958 33.2383 97.4847 33.8966 96.0166 35.2196C94.5865 36.5046 93.7512 38.2707 93.6689 40.1888L93.0361 40.1634C93.1311 38.0745 94.036 36.1565 95.5926 34.7512C97.1873 33.3143 99.2629 32.5926 101.44 32.7192C105.869 32.9788 109.312 36.7325 109.116 41.094V41.0876Z" fill="#060606"/>
<path d="M108.805 41.3535C108.932 38.5619 111.337 36.435 114.172 36.6059C117.007 36.7768 119.209 39.1696 119.082 41.9549" fill="white"/>
<path d="M119.398 41.9675L118.766 41.9422C118.886 39.3279 116.817 37.0807 114.153 36.9224C112.849 36.8465 111.602 37.2769 110.647 38.1378C109.717 38.9734 109.172 40.1255 109.115 41.3662L108.483 41.3409C108.546 39.9229 109.166 38.6189 110.217 37.6694C111.299 36.6946 112.71 36.2071 114.184 36.2894C117.19 36.4667 119.525 39.0114 119.392 41.9675H119.398Z" fill="#060606"/>
<path d="M335.634 504.308C335.894 509.461 314.34 514.74 287.491 516.101C260.628 517.462 238.645 514.392 238.385 509.246C238.214 505.853 247.542 502.403 261.609 500.048C261.767 497.225 261.824 494.218 261.66 491.021C261.584 489.527 261.318 487.856 260.932 486.153C259.299 478.906 255.566 472.354 250.478 466.954C250.326 466.777 250.162 466.606 249.997 466.429C219.389 434.848 216.541 396.728 219.174 371.256C220.933 354.24 225.141 342.865 225.141 342.865L329.945 337.548C329.945 337.548 335.267 348.442 338.754 365.192C343.93 390.164 344.974 428.176 318.049 462.605C317.789 462.928 317.549 463.257 317.302 463.593C312.777 469.746 310.113 477.139 309.835 484.786C309.809 485.596 309.797 486.381 309.835 487.109C309.999 490.819 310.366 494.269 310.879 497.478C325.497 498.352 335.457 500.871 335.628 504.321L335.634 504.308Z" fill="#B6CCC6"/>
<path d="M274.841 516.747C253.661 516.747 238.297 513.803 238.069 509.258C237.987 507.6 240.088 503.359 261.305 499.776C261.47 496.661 261.483 493.8 261.343 491.034C261.274 489.641 261.033 488.027 260.622 486.223C259.065 479.317 255.477 472.727 250.25 467.169C250.098 466.992 249.94 466.828 249.782 466.657C219.325 435.228 216.155 397.412 218.864 371.224C220.604 354.361 224.805 342.865 224.843 342.751L224.913 342.555L225.122 342.542L330.135 337.212L330.224 337.402C330.274 337.51 335.602 348.524 339.058 365.122C344.373 390.765 345.088 428.531 318.295 462.795C318.042 463.118 317.795 463.441 317.561 463.777C312.993 469.993 310.43 477.26 310.158 484.792C310.132 485.539 310.12 486.337 310.158 487.084C310.309 490.49 310.645 493.883 311.164 497.168C317.251 497.541 335.697 499.117 335.957 504.296C336.229 509.701 314.948 515.031 287.51 516.424C283.118 516.646 278.878 516.753 274.847 516.753L274.841 516.747ZM225.362 343.163C224.805 344.739 221.091 355.709 219.484 371.281C216.794 397.336 219.939 434.956 250.219 466.201C250.396 466.391 250.56 466.562 250.712 466.739C256.015 472.366 259.654 479.057 261.236 486.077C261.653 487.913 261.9 489.572 261.97 490.996C262.115 493.857 262.096 496.82 261.919 500.054L261.907 500.308L261.66 500.352C239.569 504.055 238.657 508.391 238.702 509.22C238.949 514.107 261.286 517.108 287.478 515.778C313.663 514.449 335.571 509.201 335.324 504.314C335.166 501.219 325.566 498.649 310.866 497.769L310.613 497.757L310.575 497.503C310.031 494.117 309.677 490.616 309.525 487.103C309.487 486.331 309.499 485.52 309.525 484.761C309.803 477.095 312.404 469.708 317.049 463.39C317.296 463.049 317.542 462.719 317.802 462.39C344.443 428.322 343.734 390.752 338.444 365.242C335.254 349.911 330.464 339.377 329.749 337.858L225.362 343.156V343.163Z" fill="#060606"/>
<path d="M256.56 474.677C263.001 476.639 273.31 478.918 286.01 478.089C297.514 477.342 306.658 474.322 312.6 471.828" fill="#B6CCC6"/>
<path d="M280.612 478.583C272.443 478.583 264.343 477.374 256.465 474.981L256.648 474.373C266.191 477.279 276.062 478.418 285.985 477.772C295.11 477.177 304.02 475.082 312.474 471.537L312.721 472.12C304.203 475.69 295.224 477.804 286.029 478.405C284.219 478.526 282.416 478.583 280.612 478.583Z" fill="#060606"/>
<path d="M261.856 500.099C265.539 502.124 275.037 506.714 287.769 505.783C299.451 504.929 307.658 499.89 311.126 497.459" fill="#B6CCC6"/>
<path d="M284.447 506.226C273.987 506.226 265.836 502.656 261.698 500.384L262.002 499.826C266.507 502.308 275.847 506.34 287.737 505.473C298.242 504.707 306.152 500.554 310.936 497.206L311.297 497.725C306.443 501.118 298.432 505.327 287.782 506.106C286.643 506.188 285.529 506.226 284.441 506.226H284.447Z" fill="#060606"/>
<path d="M219.173 371.249C220.933 354.234 225.141 342.859 225.141 342.859L329.945 337.542C329.945 337.542 335.267 348.436 338.754 365.185L219.173 371.256V371.249Z" fill="white"/>
<path d="M218.819 371.585L218.857 371.218C220.597 354.354 224.799 342.859 224.837 342.745L224.907 342.549L225.115 342.536L330.129 337.206L330.217 337.396C330.268 337.504 335.596 348.518 339.051 365.116L339.127 365.476L338.76 365.495L218.813 371.585H218.819ZM225.362 343.163C224.812 344.726 221.154 355.532 219.521 370.914L338.361 364.881C335.172 349.746 330.451 339.365 329.743 337.864L225.356 343.163H225.362Z" fill="#060606"/>
<path d="M318.049 462.593C318.049 462.593 317.884 462.802 317.669 463.08C317.542 463.245 317.422 463.409 317.302 463.58C308.525 467.625 297.628 470.278 284.187 470.961C270.69 471.645 259.597 470.094 250.478 466.948C250.326 466.771 250.162 466.6 249.997 466.423C219.389 434.842 216.541 396.722 219.174 371.249C223.679 370.857 230.811 370.142 239.505 368.793C261.9 365.324 264.754 366.584 276.182 366.533C292.85 366.458 292.92 368.274 305.728 365.432C311.834 364.077 315.916 361.761 323.744 361.919C330.129 362.045 335.33 363.748 338.754 365.179C341.057 375.699 343.848 395.025 338.627 417.883C338.627 417.883 332.654 444.065 318.049 462.593Z" fill="#060606"/>
<path d="M278.068 471.436C267.728 471.436 258.432 470.031 250.371 467.245L250.288 467.22L250.231 467.157C250.086 466.986 249.928 466.821 249.769 466.657C219.313 435.228 216.142 397.412 218.851 371.224L218.876 370.965L219.136 370.939C225.856 370.357 232.69 369.534 239.448 368.483C256.787 365.799 262.356 365.938 269.399 366.122C271.455 366.173 273.588 366.236 276.176 366.217C281.859 366.192 285.618 366.382 288.623 366.54C294.369 366.837 297.255 366.989 305.652 365.122C307.493 364.71 309.17 364.21 310.79 363.723C314.619 362.577 318.232 361.482 323.737 361.602C328.812 361.704 333.907 362.811 338.868 364.888L339.02 364.951L339.058 365.109C342.88 382.58 342.835 400.855 338.931 417.953C338.615 419.459 332.464 444.812 318.302 462.783L318.283 462.808C318.238 462.865 318.099 463.042 317.922 463.276C317.802 463.441 317.682 463.606 317.561 463.77L317.511 463.84L317.435 463.878C308.177 468.144 296.995 470.638 284.2 471.284C282.118 471.392 280.074 471.442 278.068 471.442V471.436ZM250.655 466.676C260.185 469.955 271.462 471.29 284.162 470.645C296.837 469.999 307.917 467.543 317.087 463.327C317.194 463.181 317.302 463.036 317.409 462.89C317.587 462.65 317.732 462.473 317.776 462.416L318.042 462.593L317.795 462.397C332.211 444.109 338.254 418.08 338.311 417.814C342.184 400.862 342.234 382.739 338.469 365.407C333.628 363.4 328.667 362.33 323.725 362.235C318.302 362.121 314.752 363.198 310.968 364.331C309.335 364.818 307.645 365.324 305.785 365.742C297.305 367.629 294.388 367.477 288.585 367.173C285.586 367.015 281.865 366.825 276.176 366.85C273.575 366.863 271.443 366.806 269.38 366.755C262.368 366.571 256.831 366.432 239.543 369.11C232.861 370.148 226.103 370.965 219.452 371.547C216.807 397.595 220.034 435.063 250.212 466.207C250.371 466.372 250.516 466.524 250.649 466.682L250.655 466.676Z" fill="#060606"/>
<path d="M249.168 448.331C247.877 448.331 246.821 447.28 246.821 445.983C246.821 444.685 247.871 443.634 249.168 443.634C250.465 443.634 251.516 444.685 251.516 445.983C251.516 447.28 250.465 448.331 249.168 448.331ZM249.168 443.957C248.048 443.957 247.137 444.869 247.137 445.989C247.137 447.109 248.048 448.021 249.168 448.021C250.288 448.021 251.2 447.109 251.2 445.989C251.2 444.869 250.288 443.957 249.168 443.957Z" fill="white"/>
<path d="M320.105 377.453C318.814 377.453 317.757 376.402 317.757 375.104C317.757 373.807 318.808 372.756 320.105 372.756C321.402 372.756 322.453 373.807 322.453 375.104C322.453 376.402 321.402 377.453 320.105 377.453ZM320.105 373.079C318.985 373.079 318.074 373.99 318.074 375.111C318.074 376.231 318.985 377.143 320.105 377.143C321.225 377.143 322.136 376.231 322.136 375.111C322.136 373.99 321.225 373.079 320.105 373.079Z" fill="white"/>
<path d="M283.979 461.27C282.688 461.27 281.631 460.219 281.631 458.921C281.631 457.624 282.681 456.573 283.979 456.573C285.276 456.573 286.326 457.624 286.326 458.921C286.326 460.219 285.276 461.27 283.979 461.27ZM283.979 456.889C282.859 456.889 281.947 457.801 281.947 458.921C281.947 460.042 282.859 460.953 283.979 460.953C285.099 460.953 286.01 460.042 286.01 458.921C286.01 457.801 285.099 456.889 283.979 456.889Z" fill="white"/>
<path d="M223.293 388.562C222.002 388.562 220.945 387.511 220.945 386.214C220.945 384.916 221.996 383.865 223.293 383.865C224.59 383.865 225.641 384.916 225.641 386.214C225.641 387.511 224.59 388.562 223.293 388.562ZM223.293 384.182C222.173 384.182 221.262 385.093 221.262 386.214C221.262 387.334 222.173 388.246 223.293 388.246C224.413 388.246 225.324 387.334 225.324 386.214C225.324 385.093 224.413 384.182 223.293 384.182Z" fill="white"/>
<path d="M273.658 401.09C272.367 401.09 271.31 400.039 271.31 398.741C271.31 397.443 272.36 396.393 273.658 396.393C274.955 396.393 276.005 397.443 276.005 398.741C276.005 400.039 274.955 401.09 273.658 401.09ZM273.658 396.715C272.537 396.715 271.626 397.627 271.626 398.747C271.626 399.868 272.537 400.779 273.658 400.779C274.778 400.779 275.689 399.868 275.689 398.747C275.689 397.627 274.778 396.715 273.658 396.715Z" fill="white"/>
<path d="M265.627 379.922C263.59 379.922 261.932 378.263 261.932 376.225C261.932 374.187 263.59 372.528 265.627 372.528C267.665 372.528 269.323 374.187 269.323 376.225C269.323 378.263 267.665 379.922 265.627 379.922ZM265.627 372.838C263.761 372.838 262.248 374.357 262.248 376.219C262.248 378.08 263.767 379.599 265.627 379.599C267.488 379.599 269.007 378.08 269.007 376.219C269.007 374.357 267.488 372.838 265.627 372.838Z" fill="white"/>
<path d="M316.505 438.665C314.467 438.665 312.809 437.006 312.809 434.968C312.809 432.93 314.467 431.271 316.505 431.271C318.542 431.271 320.2 432.93 320.2 434.968C320.2 437.006 318.542 438.665 316.505 438.665ZM316.505 431.582C314.638 431.582 313.125 433.101 313.125 434.962C313.125 436.823 314.644 438.342 316.505 438.342C318.365 438.342 319.884 436.823 319.884 434.962C319.884 433.101 318.365 431.582 316.505 431.582Z" fill="white"/>
<path d="M331.881 503.536C331.483 502.852 330.413 502.466 329.717 502.966C324.56 506.676 318.112 507.511 311.961 508.233C311.113 508.334 310.379 508.891 310.379 509.815C310.379 510.594 311.107 511.499 311.961 511.398C318.643 510.619 325.699 509.739 331.312 505.701C332.002 505.201 332.337 504.321 331.881 503.536Z" fill="white"/>
<path d="M265.741 478.994C265.286 477.013 262.236 477.848 262.691 479.836C264.096 485.951 264.64 492.205 264.337 498.472C264.242 500.51 267.406 500.504 267.501 498.472C267.811 491.933 267.209 485.375 265.741 478.994Z" fill="white"/>
<path d="M335.64 394.177C335.615 388.233 335.09 382.295 334.096 376.434C333.951 375.592 332.964 375.085 332.179 375.275C331.299 375.491 330.882 376.345 331.021 377.193C332.723 387.214 332.913 397.469 331.692 407.553C330.47 417.636 327.787 427.549 323.794 436.886C321.548 442.134 318.852 447.192 315.77 451.996C314.669 453.718 317.359 455.383 318.46 453.667C324.104 444.843 328.445 435.171 331.337 425.1C334.21 415.073 335.685 404.609 335.64 394.171V394.177Z" fill="white"/>
<path d="M340.981 339.548C340.519 333.294 336.393 325.78 324.37 327.103C326.477 318.171 316.561 312.462 309.721 318.494C307.892 301.289 273.835 296.681 265.868 315.247C252.718 302.479 224.932 317.127 235.607 334.763C233.766 334.085 231.735 333.699 229.602 333.687C221.148 333.617 214.269 339.327 214.25 346.442C214.225 353.557 221.059 359.374 229.52 359.444C229.836 359.444 230.153 359.444 230.469 359.425L230.64 360.9C230.899 363.153 233.285 364.812 235.962 364.609C238.638 364.407 240.594 362.413 240.334 360.159L240.157 358.652L243.872 358.482L244.758 366.135C245.017 368.388 247.403 370.047 250.079 369.844C252.756 369.642 254.712 367.648 254.452 365.394L253.857 360.273C253.724 359.115 254.775 358.133 256.034 358.247C256.414 358.716 259.312 362.159 264.387 362.356C268.747 362.527 271.633 360.178 272.202 359.697C272.411 359.697 273.512 359.678 274.436 360.469C275.024 360.969 275.404 361.678 275.436 362.47L276.088 378.099C276.182 380.365 277.891 382.371 280.302 382.833C283.371 383.422 285.947 381.333 285.833 378.605L285.023 359.146C284.966 357.804 286.023 356.608 287.472 356.475C289.275 356.31 290.851 357.564 290.958 359.21L291.205 362.976C291.351 365.236 293.648 366.977 296.331 366.869C299.014 366.761 301.077 364.843 300.925 362.583L300.488 355.867C301.57 356.538 304.95 358.444 309.683 358.254C314.524 358.057 317.732 355.785 318.713 355.025L318.776 356C318.922 358.26 321.219 360.001 323.902 359.893C326.585 359.786 328.648 357.868 328.496 355.608C328.458 355.013 329.116 352.709 329.445 352.531C330.565 351.911 331.825 351.601 332.951 351.012C334.976 349.942 336.843 348.581 338.298 346.891C340.095 344.815 341.19 342.232 340.994 339.542L340.981 339.548Z" fill="white"/>
<path d="M281.314 383.245C280.954 383.245 280.587 383.213 280.22 383.137C277.733 382.663 275.853 380.548 275.752 378.105L275.1 362.476C275.075 361.799 274.759 361.172 274.214 360.703C273.506 360.096 272.664 360.013 272.303 360.007C271.202 360.919 268.412 362.837 264.362 362.666C259.533 362.482 256.597 359.412 255.87 358.551C255.351 358.545 254.908 358.722 254.572 359.064C254.256 359.387 254.11 359.798 254.161 360.229L254.756 365.35C254.876 366.401 254.553 367.445 253.851 368.306C252.978 369.363 251.611 370.034 250.092 370.154C247.251 370.376 244.713 368.584 244.435 366.166L243.581 358.804L240.499 358.944L240.632 360.115C240.752 361.166 240.429 362.21 239.727 363.071C238.854 364.128 237.487 364.799 235.968 364.919C233.139 365.141 230.589 363.349 230.311 360.931L230.172 359.748C229.95 359.754 229.722 359.76 229.501 359.754C220.882 359.684 213.896 353.709 213.921 346.435C213.934 343.321 215.25 340.314 217.629 337.959C220.616 335.003 224.97 333.345 229.596 333.37C231.424 333.383 233.209 333.661 234.905 334.193C230.475 326.116 234.12 319.039 239.132 315.044C242.828 312.101 247.713 310.303 252.528 310.113C257.641 309.917 262.311 311.544 265.748 314.703C270.266 304.828 281.966 301.865 291.686 303.334C301.754 304.853 308.848 310.531 309.955 317.874C313.17 315.329 317.308 314.956 320.649 316.962C324.003 318.975 325.56 322.691 324.769 326.736C329.711 326.268 333.691 327.255 336.596 329.68C340.285 332.75 341.127 337.162 341.298 339.517C341.487 342.118 340.507 344.809 338.526 347.094C337.134 348.702 335.305 350.113 333.084 351.284C332.527 351.582 331.932 351.803 331.363 352.025C330.768 352.253 330.148 352.493 329.584 352.803C329.357 353.038 328.768 355.076 328.8 355.582C328.869 356.633 328.496 357.665 327.749 358.494C326.825 359.52 325.421 360.146 323.902 360.203C321.035 360.317 318.605 358.437 318.447 356.013L318.422 355.614C316.783 356.772 313.783 358.393 309.683 358.558C305.671 358.716 302.57 357.412 300.83 356.431L301.229 362.552C301.298 363.603 300.925 364.634 300.178 365.464C299.254 366.489 297.85 367.116 296.331 367.173C293.477 367.293 291.034 365.407 290.876 362.982L290.629 359.216C290.585 358.545 290.269 357.925 289.731 357.462C289.13 356.95 288.313 356.696 287.491 356.772C286.225 356.886 285.276 357.918 285.326 359.115L286.136 378.573C286.193 379.903 285.636 381.162 284.624 382.042C283.725 382.815 282.561 383.226 281.321 383.226L281.314 383.245ZM272.265 359.374C272.74 359.374 273.746 359.475 274.626 360.222C275.303 360.805 275.702 361.596 275.733 362.451L276.385 378.08C276.474 380.232 278.138 382.093 280.34 382.517C281.783 382.796 283.194 382.454 284.2 381.58C285.086 380.821 285.542 379.763 285.497 378.618L284.687 359.159C284.624 357.621 285.826 356.304 287.427 356.158C288.421 356.07 289.402 356.374 290.136 357C290.806 357.57 291.205 358.349 291.256 359.191L291.503 362.957C291.635 365.04 293.819 366.66 296.299 366.559C297.653 366.502 298.894 365.957 299.704 365.059C300.336 364.356 300.653 363.489 300.596 362.609L300.121 355.279L300.646 355.601C302.178 356.551 305.405 358.114 309.658 357.944C314.018 357.766 317.074 355.886 318.51 354.785L318.979 354.424L319.08 355.994C319.213 358.076 321.364 359.697 323.877 359.596C325.231 359.539 326.471 358.994 327.281 358.095C327.914 357.393 328.23 356.526 328.173 355.646C328.135 355.101 328.755 352.563 329.287 352.272C329.888 351.943 330.527 351.696 331.141 351.461C331.723 351.24 332.268 351.025 332.793 350.753C334.944 349.613 336.716 348.252 338.051 346.708C339.918 344.549 340.848 342.017 340.671 339.593C340.507 337.333 339.703 333.111 336.197 330.192C333.343 327.819 329.376 326.888 324.408 327.439L323.965 327.489L324.066 327.053C325.174 322.349 322.864 319.051 320.333 317.532C317.074 315.576 312.992 316.057 309.93 318.754L309.468 319.159L309.404 318.551C308.626 311.221 301.634 305.505 291.597 303.986C281.992 302.536 270.399 305.499 266.153 315.393L265.969 315.817L265.64 315.494C259.875 309.898 248.535 308.391 239.531 315.557C233.108 320.672 231.741 327.793 235.873 334.617L236.341 335.389L235.493 335.079C233.627 334.389 231.64 334.035 229.596 334.022C225.147 333.984 220.952 335.592 218.079 338.434C215.82 340.669 214.567 343.524 214.56 346.461C214.535 353.386 221.243 359.077 229.513 359.146C229.83 359.146 230.134 359.146 230.444 359.127L230.735 359.115L230.937 360.881C231.178 362.963 233.405 364.502 235.917 364.312C237.259 364.21 238.474 363.622 239.233 362.697C239.828 361.976 240.1 361.096 239.999 360.216L239.784 358.374L244.131 358.171L245.055 366.122C245.295 368.205 247.536 369.743 250.035 369.553C251.383 369.452 252.592 368.863 253.351 367.932C253.946 367.211 254.218 366.331 254.117 365.451L253.522 360.33C253.452 359.716 253.667 359.102 254.11 358.646C254.604 358.14 255.306 357.887 256.04 357.95L256.173 357.963L256.256 358.064C256.774 358.697 259.584 361.868 264.374 362.052C268.298 362.197 270.993 360.292 271.968 359.463L272.05 359.393H272.164C272.164 359.393 272.221 359.393 272.253 359.393L272.265 359.374Z" fill="#060606"/>
<path d="M323.035 345.758L322.415 345.631C322.75 343.986 322.485 342.321 321.675 340.947C320.871 339.58 319.618 338.668 318.15 338.371C315.973 337.928 313.708 338.96 312.372 340.998L311.904 341.713L311.797 340.865C311.461 338.232 309.658 336.149 307.316 335.674C305.798 335.364 304.241 335.738 302.931 336.706C301.608 337.687 300.691 339.162 300.349 340.859L299.729 340.732C300.102 338.877 301.109 337.269 302.558 336.2C304.019 335.117 305.753 334.712 307.443 335.054C309.828 335.535 311.708 337.497 312.296 340.042C313.809 338.194 316.093 337.301 318.283 337.751C319.928 338.086 321.326 339.105 322.225 340.631C323.117 342.144 323.408 343.967 323.041 345.764L323.035 345.758Z" fill="#060606"/>
<path d="M245.928 331.699C245.675 330.11 245.998 328.528 246.833 327.243C247.675 325.945 248.94 325.103 250.396 324.869C252.421 324.546 254.465 325.514 255.699 327.318C256.37 325.438 257.907 324.09 259.761 323.793C262.672 323.33 265.444 325.559 265.95 328.762L265.324 328.863C264.874 326.008 262.419 324.014 259.856 324.419C258.028 324.71 256.553 326.179 256.104 328.167L255.914 329.002L255.515 328.243C254.484 326.28 252.465 325.173 250.491 325.489C249.219 325.692 248.105 326.439 247.359 327.584C246.605 328.743 246.321 330.167 246.549 331.598L245.922 331.699H245.928Z" fill="#060606"/>
<path d="M283.706 405.071C283.833 408.198 284.25 411.186 284.909 413.99C285.32 415.731 285.807 417.39 286.396 418.959C288.484 424.631 291.629 429.107 295.337 431.67C297.837 433.386 300.577 434.253 303.437 434.031C313.612 433.246 321.288 419.016 320.573 402.248C319.858 385.473 311.024 372.509 300.842 373.294C300.115 373.351 299.393 373.478 298.691 373.661C296.793 374.18 295.008 375.168 293.375 376.554C292.211 377.542 291.129 378.725 290.142 380.08C290.123 380.086 290.116 380.105 290.11 380.118C285.839 385.999 283.289 395.089 283.713 405.071H283.706Z" fill="white"/>
<path d="M302.545 434.38C300.007 434.38 297.52 433.557 295.154 431.93C291.414 429.341 288.193 424.777 286.098 419.067C285.522 417.522 285.023 415.839 284.605 414.06C283.928 411.173 283.523 408.154 283.39 405.084C282.979 395.468 285.396 386.068 289.851 379.934L289.901 379.871C290.908 378.497 292.009 377.301 293.173 376.313C294.875 374.87 296.704 373.876 298.615 373.357C299.343 373.161 300.089 373.035 300.824 372.978C304.304 372.712 307.753 374.009 310.815 376.725C316.669 381.916 320.434 391.455 320.896 402.235C321.617 419.149 313.802 433.557 303.469 434.348C303.165 434.373 302.861 434.386 302.551 434.386L302.545 434.38ZM290.338 380.327C285.972 386.397 283.624 395.614 284.023 405.052C284.149 408.084 284.548 411.066 285.219 413.914C285.63 415.668 286.13 417.326 286.693 418.845C288.75 424.435 291.882 428.891 295.514 431.404C298.046 433.145 300.697 433.917 303.412 433.709C313.41 432.943 320.959 418.826 320.25 402.254C319.795 391.645 316.106 382.276 310.379 377.193C307.449 374.592 304.158 373.345 300.861 373.604C300.165 373.661 299.463 373.781 298.767 373.965C296.951 374.459 295.204 375.408 293.572 376.788C292.439 377.744 291.37 378.915 290.389 380.257L290.332 380.32L290.338 380.327Z" fill="#060606"/>
<path d="M283.706 405.071C283.833 408.198 284.25 411.186 284.909 413.99C285.32 415.731 285.807 417.39 286.396 418.959C294.616 424.84 307.405 417.352 307.867 404.071L297.09 396.76L309.904 397.678C309.942 397.424 309.999 397.165 310.031 396.912C311.575 386.828 306.962 377.763 299.128 373.674C296.995 374.256 294.995 375.37 293.16 376.915C292.091 377.826 291.078 378.89 290.135 380.086C290.116 380.093 290.11 380.112 290.104 380.124C285.832 386.005 283.282 395.095 283.706 405.078V405.071Z" fill="#AADC66"/>
<path d="M292.768 421.295C290.408 421.295 288.142 420.599 286.206 419.219L286.13 419.162L286.098 419.073C285.522 417.529 285.023 415.845 284.605 414.066C283.928 411.18 283.523 408.16 283.39 405.09C282.979 395.475 285.396 386.075 289.851 379.941L289.901 379.871C290.863 378.649 291.895 377.573 292.958 376.668C294.875 375.054 296.919 373.946 299.045 373.364L299.166 373.332L299.273 373.389C307.531 377.706 311.872 386.954 310.341 396.956C310.322 397.108 310.29 397.272 310.265 397.431C310.246 397.526 310.227 397.627 310.214 397.722L310.17 398.007L298.242 397.152L308.189 403.9V404.077C307.943 411.034 304.272 417.092 298.602 419.884C296.691 420.827 294.698 421.295 292.768 421.295ZM286.655 418.757C290.009 421.112 294.255 421.321 298.324 419.314C303.734 416.649 307.253 410.882 307.544 404.229L295.938 396.355L309.645 397.336C309.645 397.336 309.645 397.323 309.645 397.317C309.67 397.165 309.702 397.019 309.721 396.867C311.208 387.17 307.038 378.219 299.096 374.003C297.103 374.566 295.179 375.624 293.369 377.149C292.331 378.029 291.325 379.086 290.389 380.276L290.338 380.333C285.972 386.404 283.624 395.62 284.023 405.059C284.149 408.091 284.548 411.072 285.219 413.921C285.624 415.636 286.111 417.269 286.655 418.763V418.757Z" fill="#060606"/>
<path d="M226.805 407.344C227.058 410.458 227.596 413.427 228.362 416.206C228.843 417.928 229.399 419.573 230.045 421.124C232.361 426.72 235.683 431.094 239.505 433.544C242.074 435.183 244.852 435.968 247.713 435.665C257.869 434.595 265.001 420.181 263.615 403.476C262.235 386.771 252.876 374.092 242.707 375.161C241.979 375.237 241.264 375.389 240.568 375.592C238.683 376.162 236.936 377.2 235.354 378.624C234.228 379.643 233.19 380.852 232.253 382.232C232.234 382.238 232.228 382.257 232.222 382.276C228.178 388.265 225.982 397.399 226.799 407.344H226.805Z" fill="white"/>
<path d="M246.491 436.051C244.061 436.051 241.657 435.304 239.328 433.816C235.481 431.341 232.076 426.878 229.747 421.251C229.108 419.725 228.539 418.061 228.052 416.301C227.261 413.446 226.729 410.445 226.482 407.382C225.691 397.804 227.741 388.36 231.956 382.112L232 382.049C232.956 380.65 234.013 379.422 235.139 378.409C236.791 376.921 238.581 375.877 240.473 375.307C241.195 375.092 241.935 374.946 242.669 374.864C246.143 374.497 249.655 375.699 252.838 378.333C258.894 383.346 263.039 392.746 263.925 403.47C265.317 420.32 258.059 434.911 247.738 436C247.32 436.044 246.903 436.063 246.485 436.063L246.491 436.051ZM232.462 382.485C228.33 388.664 226.343 397.918 227.115 407.325C227.362 410.344 227.881 413.307 228.665 416.124C229.146 417.858 229.709 419.497 230.336 421.004C232.614 426.518 235.93 430.879 239.67 433.278C242.271 434.943 244.966 435.639 247.675 435.354C257.654 434.304 264.659 420.017 263.299 403.508C262.425 392.949 258.369 383.72 252.44 378.808C249.396 376.282 246.036 375.136 242.739 375.484C242.043 375.56 241.34 375.699 240.657 375.902C238.86 376.446 237.145 377.447 235.569 378.871C234.474 379.858 233.449 381.055 232.519 382.422L232.469 382.485H232.462Z" fill="#060606"/>
<path d="M226.805 407.344C227.058 410.458 227.596 413.427 228.362 416.206C228.843 417.928 229.399 419.573 230.045 421.124C237.24 426.138 249.896 422.979 250.965 405.66L239.885 398.671L252.756 399.216C252.788 398.963 252.832 398.703 252.851 398.45C254.003 388.347 249.016 379.441 241.011 375.586C238.898 376.225 236.942 377.396 235.164 378.985C234.126 379.922 233.158 381.017 232.26 382.232C232.241 382.238 232.234 382.257 232.228 382.276C228.184 388.265 225.989 397.399 226.805 407.344Z" fill="#AADC66"/>
<path d="M236.942 423.599C234.449 423.599 231.975 422.852 229.868 421.384L229.792 421.333L229.754 421.251C229.115 419.725 228.545 418.054 228.058 416.294C227.267 413.44 226.735 410.439 226.489 407.375C225.698 397.798 227.748 388.353 231.962 382.105L232.013 382.042C232.93 380.795 233.918 379.694 234.949 378.757C236.803 377.092 238.809 375.927 240.916 375.288L241.037 375.25L241.151 375.301C249.592 379.365 254.306 388.467 253.167 398.488C253.155 398.64 253.129 398.804 253.11 398.963C253.098 399.058 253.085 399.159 253.073 399.254L253.041 399.545L241.068 399.039L251.301 405.489L251.288 405.679C250.605 416.756 245.397 420.89 242.347 422.359C240.638 423.188 238.79 423.593 236.949 423.593L236.942 423.599ZM230.304 420.915C233.772 423.289 238.271 423.631 242.068 421.795C244.973 420.39 249.934 416.446 250.636 405.831L238.708 398.311L252.478 398.893C252.478 398.893 252.478 398.88 252.478 398.874C252.497 398.722 252.522 398.576 252.535 398.424C253.642 388.714 249.111 379.896 240.986 375.921C239.012 376.541 237.126 377.649 235.373 379.219C234.373 380.124 233.405 381.207 232.507 382.422L232.462 382.479C228.33 388.657 226.343 397.912 227.115 407.318C227.362 410.338 227.881 413.3 228.665 416.117C229.14 417.82 229.691 419.428 230.298 420.909L230.304 420.915Z" fill="#060606"/>
<path d="M280.525 421.596C282.364 417.896 280.857 413.405 277.158 411.565C273.459 409.725 268.97 411.233 267.13 414.933C265.291 418.633 266.798 423.124 270.497 424.964C274.196 426.804 278.686 425.296 280.525 421.596Z" fill="#FFBF00"/>
<path d="M273.841 426.081C270.582 426.081 267.538 424.024 266.444 420.764C265.779 418.789 265.925 416.674 266.855 414.813C267.785 412.946 269.38 411.56 271.354 410.895C273.329 410.23 275.442 410.376 277.309 411.306C279.176 412.237 280.568 413.832 281.226 415.807C282.593 419.884 280.391 424.315 276.315 425.682C275.493 425.954 274.664 426.087 273.841 426.087V426.081ZM273.841 411.11C273.075 411.11 272.303 411.237 271.557 411.484C269.741 412.091 268.273 413.37 267.425 415.085C266.57 416.801 266.437 418.744 267.045 420.555C268.304 424.302 272.367 426.328 276.113 425.068C279.859 423.808 281.878 419.744 280.625 415.997C280.017 414.18 278.739 412.712 277.024 411.863C276.018 411.363 274.936 411.11 273.841 411.11Z" fill="#060606"/>
<path d="M289.585 442.843C282.877 451.097 268.348 451.718 261.299 445.66C255.654 440.811 255.635 432.943 259.635 430.569C267.513 425.885 274.284 434 274.284 434C274.284 434 283.371 423.454 290.667 429.923C293.085 432.069 293.793 437.665 289.585 442.843Z" fill="white"/>
<path d="M273.632 450.015C268.734 450.015 264.166 448.534 261.096 445.9C257.97 443.21 256.224 439.26 256.547 435.576C256.755 433.202 257.819 431.278 259.476 430.297C262.799 428.322 266.463 428.303 270.07 430.246C272.215 431.404 273.727 432.911 274.29 433.519C275.366 432.348 279.815 427.853 284.801 427.518C287.054 427.366 289.092 428.094 290.876 429.676C293.616 432.107 293.996 437.905 289.826 443.033C286.7 446.882 281.593 449.388 275.815 449.907C275.081 449.971 274.347 450.009 273.626 450.009L273.632 450.015ZM264.71 429.417C263.033 429.417 261.394 429.892 259.799 430.835C258.318 431.715 257.363 433.462 257.173 435.627C256.869 439.108 258.527 442.856 261.508 445.413C264.9 448.331 270.234 449.774 275.765 449.281C281.371 448.781 286.32 446.356 289.338 442.64C292.002 439.355 293.876 433.189 290.458 430.157C288.807 428.689 286.921 428.018 284.845 428.157C279.492 428.518 274.575 434.145 274.531 434.202L274.29 434.487L274.05 434.202C274.05 434.202 272.354 432.196 269.759 430.797C268.051 429.879 266.368 429.423 264.716 429.423L264.71 429.417Z" fill="#060606"/>
<path d="M274.638 433.725L274.006 433.762L274.921 449.592L275.553 449.556L274.638 433.725Z" fill="#060606"/>
<path d="M284.673 427.823L284.043 427.882L285.721 446.117L286.351 446.059L284.673 427.823Z" fill="#060606"/>
<path d="M265.039 429.26L264.406 429.29L265.316 448.1L265.948 448.07L265.039 429.26Z" fill="#060606"/>
</svg>
