<svg width="359" height="548" viewBox="0 0 359 548" fill="none" xmlns="http://www.w3.org/2000/svg">
<g clip-path="url(#clip0_197_252)">
<rect width="359" height="548" rx="8" fill="#E5F4D0"/>
<g clip-path="url(#clip1_197_252)">
<path d="M157.78 275.225C103.82 275.225 58.8599 265.765 50.8699 252.735C50.0499 251.365 49.6399 249.975 49.6399 248.605C49.6399 245.205 52.1099 241.905 56.9899 238.815C73.1599 228.575 112.73 221.955 157.78 221.955C202.83 221.955 239.87 228.195 256.94 237.845C262.9 241.185 265.92 244.805 265.92 248.605C265.92 250.375 265.24 252.145 263.89 253.845C254.13 266.235 209.5 275.235 157.77 275.235L157.78 275.225ZM157.78 222.945C113.59 222.945 73.2999 229.655 57.5199 239.645C52.9499 242.545 50.6399 245.555 50.6399 248.595C50.6399 249.785 51.0099 251.005 51.7299 252.215C59.4199 264.765 105.01 274.225 157.78 274.225C210.55 274.225 253.53 265.395 263.11 253.225C264.31 251.705 264.92 250.145 264.92 248.605C264.92 245.235 261.99 241.815 256.44 238.715C239.51 229.135 200.78 222.955 157.77 222.955L157.78 222.945Z" fill="#060606"/>
<path d="M159.71 529.585C158.94 529.585 158.18 529.585 157.42 529.585C131.01 529.455 104.38 526.865 78.26 521.885L77.76 521.785L97.55 427.545C64.42 404.595 43.03 364.175 40.3 319.365C40.1 316.115 40 312.795 40 309.495C40 290.935 41.56 265.105 49.01 247.415C49.25 246.835 49.42 246.555 50.14 245.355L50.34 245.015L51.21 245.515C50.6 246.625 50.29 247.785 50.29 248.945C50.29 250.105 50.65 251.325 51.4 252.555C59.08 265.125 104.75 274.605 157.61 274.605C210.47 274.605 253.48 265.755 263.09 253.565C264.29 252.025 264.91 250.475 264.91 248.945C264.91 248.335 264.81 247.755 264.62 247.155L265.56 246.815C265.6 246.905 265.63 246.995 265.67 247.045L265.74 247.165C271.92 263.405 273.63 286.325 273.98 302.685C274.03 304.985 274.05 307.285 274.05 309.505C274.05 333.775 268.56 357.615 258.18 378.465C248.16 398.585 233.83 415.505 216.73 427.405L223.76 454.095C226.9 466.005 230.03 477.925 233.16 489.845L241.58 521.795L241.05 521.895C214.34 527.015 186.99 529.605 159.71 529.605V529.585ZM78.94 520.995C104.84 525.905 131.24 528.455 157.42 528.585C185.2 528.715 213.11 526.185 240.33 521.005L232.18 490.085C229.05 478.165 225.91 466.255 222.77 454.345L215.57 426.975L215.86 426.775C251.13 402.395 273.04 357.455 273.04 309.505C273.04 307.295 273.02 305.005 272.97 302.715C272.64 287.335 271.11 266.155 265.78 250.285C265.52 251.595 264.89 252.905 263.88 254.195C254.1 266.605 209.4 275.615 157.61 275.615C105.82 275.615 58.53 266.145 50.55 253.085C49.79 251.835 49.38 250.605 49.31 249.365C42.46 266.845 41 291.585 41 309.515C41 312.795 41.1 316.095 41.29 319.325C44.01 363.965 65.35 404.195 98.38 426.935L98.65 427.125L78.94 521.015V520.995Z" fill="#060606"/>
<path d="M260.24 310.435C244.79 315.195 220.87 321.245 210.97 323.235C197.39 325.945 183.52 324.915 170.36 320.395C164.92 278.385 171.63 226.825 174.02 210.915C174.19 209.755 174.34 208.795 174.46 208.035C174.11 204.235 172.24 197.035 169.43 189.005C165.36 177.415 160.85 168.465 159.35 169.005C159.28 169.025 159.23 169.075 159.18 169.125C159.16 169.175 159.13 169.245 159.11 169.325C159.09 169.345 159.06 169.395 159.04 169.425C133.64 199.785 128.91 251.815 132.07 307.295C106.71 302.715 77.8602 305.715 56.7102 320.155C58.9102 363.785 91.2302 408.015 116.36 429.005C113.83 450.955 106.66 475.345 104.13 497.295C117.25 501.165 137.68 507.605 162.39 506.875C185.22 506.195 204.29 500.175 215.83 495.105C211.54 475.275 204.28 448.145 199.98 428.345C226.81 405.855 270.77 356.575 260.24 310.435Z" fill="#FFBF00"/>
<path d="M158.49 507.435C136.59 507.435 118.25 502.005 105.88 498.345L103.58 497.665L103.63 497.245C104.9 486.245 107.36 474.455 109.75 463.055C112.11 451.765 114.55 440.105 115.82 429.225C102.03 417.655 88.0702 400.945 77.4902 383.335C64.5502 361.805 57.1902 339.965 56.1902 320.185V319.905L56.4102 319.745C75.5702 306.665 103.6 301.795 131.52 306.695C127.81 240.365 136.68 195.345 158.64 169.105C158.64 169.105 158.64 169.105 158.64 169.085C158.66 169.015 158.69 168.955 158.71 168.905L158.8 168.775C158.87 168.705 158.98 168.595 159.17 168.535C159.33 168.475 159.61 168.435 159.96 168.605C162.29 169.715 166.74 179.865 169.88 188.835C172.64 196.735 174.58 204.075 174.94 207.985V208.045V208.105C174.82 208.865 174.67 209.825 174.5 210.985C172.26 225.895 165.4 277.755 170.8 320.025C183.83 324.435 197.67 325.375 210.86 322.745C221.14 320.685 244.89 314.645 260.08 309.965L260.59 309.805L260.71 310.335C265.39 330.845 259.95 353.795 244.53 378.535C229.22 403.095 208.82 421.555 200.52 428.545C202.65 438.355 205.55 450.135 208.36 461.525C211.21 473.105 214.16 485.065 216.31 495.015L216.4 495.415L216.03 495.575C206.71 499.665 187.36 506.645 162.41 507.385C161.09 507.425 159.79 507.445 158.5 507.445L158.49 507.435ZM104.67 496.935L106.17 497.375C119.21 501.235 138.92 507.075 162.38 506.365C186.83 505.635 205.87 498.885 215.26 494.805C213.12 484.955 210.21 473.155 207.4 461.745C204.57 450.235 201.64 438.335 199.49 428.445L199.43 428.145L199.66 427.955C207.78 421.155 228.32 402.655 243.7 377.985C258.85 353.695 264.29 331.185 259.88 311.065C244.64 315.735 221.27 321.675 211.07 323.715C197.61 326.405 183.48 325.415 170.2 320.865L169.91 320.765L169.87 320.455C164.38 278.005 171.28 225.815 173.53 210.835C173.7 209.705 173.84 208.765 173.96 208.005C173.6 204.155 171.69 196.935 168.96 189.155C164.67 176.945 160.76 169.925 159.57 169.495L159.54 169.595L159.45 169.675C159.45 169.675 159.41 169.735 159.38 169.775C137.55 195.865 128.77 240.855 132.56 307.265L132.6 307.895L131.98 307.785C104.23 302.775 76.3102 307.495 57.2202 320.415C58.2602 339.955 65.5702 361.525 78.3602 382.815C88.9402 400.425 102.91 417.125 116.68 428.625L116.89 428.795L116.86 429.065C115.59 440.065 113.13 451.855 110.74 463.255C108.39 474.495 105.96 486.105 104.68 496.935H104.67Z" fill="#060606"/>
<path d="M255.73 301.735C253.75 300.955 251.52 300.665 249.35 300.865C242.99 301.455 238.66 306.615 232.92 308.825C228.45 310.545 224.63 307.805 220.33 307.105C215.25 306.275 212.57 308.875 208.58 311.505C202.99 315.185 197.56 311.415 191.6 311.985C185.8 312.535 179.21 316.325 173.65 312.875C169.57 310.335 168.12 305.595 163.21 304.125C158.1 302.605 152.26 304.615 147.84 300.855C143.4 297.075 139.01 294.925 133.05 295.605C129.73 295.985 124.21 299.535 121.21 298.985C122.97 299.305 116.06 293.635 114.56 293.065C110.67 291.585 106.81 292.175 103.04 293.555C101.48 294.125 100.1 295.185 98.5601 295.725C93.9901 297.325 94.9601 296.425 90.0401 295.505C86.3501 294.815 82.8601 295.175 79.3601 296.495C77.6901 297.125 70.0801 302.825 68.6901 302.265C57.3501 297.645 47.2601 324.565 63.3201 325.315C70.5101 325.655 75.7901 317.785 82.2901 315.365C87.3601 313.475 92.2201 315.735 97.3401 315.455C101.38 315.245 104.25 311.905 108.15 311.715C110.71 311.595 113.17 314.125 115.33 315.155C118 316.435 120.76 317.095 123.77 316.915C126.77 316.745 129.51 314.735 132.51 314.745C136.35 314.745 136.69 317.325 139.42 319.415C142.61 321.855 146.7 323.485 150.77 323.555C158.18 323.685 160.66 329.555 167.67 331.665C176.46 334.305 183.8 329.895 192.33 330.255C200.3 330.585 206.03 335.445 213.77 330.445C215.74 329.165 216.47 326.855 218.96 326.255C223.45 325.175 228.47 328.935 233.45 328.105C238.61 327.235 242.99 323.935 247.33 321.265C252.61 318.015 258.78 322.015 261.28 314.325C262.88 309.405 260.73 303.695 255.75 301.725L255.73 301.735Z" fill="white"/>
<path d="M206.47 333.215C204.11 333.215 201.83 332.635 199.48 332.045C197.21 331.475 194.86 330.875 192.29 330.775C188.89 330.635 185.62 331.275 182.45 331.895C177.73 332.815 172.85 333.765 167.51 332.165C164.41 331.235 162.2 329.605 160.06 328.025C157.35 326.035 154.8 324.145 150.74 324.075C146.78 324.005 142.53 322.455 139.1 319.835C138.16 319.115 137.49 318.345 136.9 317.655C135.71 316.275 134.84 315.275 132.5 315.275H132.49C131.02 315.275 129.6 315.785 128.11 316.335C126.73 316.835 125.29 317.355 123.79 317.445C120.84 317.615 118.01 317.025 115.11 315.635C114.38 315.285 113.65 314.795 112.87 314.275C111.33 313.245 109.76 312.175 108.17 312.245C106.34 312.335 104.75 313.155 103.05 314.035C101.3 314.935 99.5001 315.875 97.3601 315.985C95.3601 316.085 93.4101 315.825 91.5101 315.565C88.4101 315.135 85.4801 314.735 82.4601 315.865C79.9501 316.805 77.5501 318.635 75.2301 320.405C71.5801 323.185 67.8201 326.055 63.3001 325.845C58.1401 325.605 56.0201 322.825 55.1501 320.535C53.3301 315.745 55.3601 308.415 59.6701 304.195C62.5201 301.415 65.7901 300.575 68.8801 301.835C69.6401 302.045 73.5201 299.545 75.6101 298.195C77.2501 297.135 78.5401 296.305 79.1901 296.065C82.8401 294.685 86.4201 294.355 90.1301 295.055C91.5701 295.325 92.5301 295.595 93.2401 295.795C94.9401 296.275 95.3001 296.375 98.4001 295.295C99.1401 295.035 99.8401 294.645 100.59 294.235C101.32 293.835 102.07 293.415 102.88 293.125C107.45 291.455 111.23 291.295 114.75 292.635C115.42 292.885 121 296.815 121.88 298.575C123.49 298.545 125.66 297.685 127.8 296.815C129.71 296.035 131.52 295.305 133 295.135C138.48 294.515 143.02 296.115 148.17 300.505C150.78 302.725 153.91 302.835 157.22 302.945C159.26 303.015 161.36 303.085 163.36 303.675C166.36 304.565 168.14 306.635 169.85 308.635C171.04 310.025 172.28 311.455 173.92 312.485C177.61 314.785 181.9 313.695 186.04 312.645C187.87 312.185 189.76 311.705 191.55 311.525C193.84 311.305 196.03 311.705 198.16 312.095C201.66 312.735 204.96 313.335 208.31 311.135C208.9 310.745 209.46 310.365 210 309.985C213.16 307.805 215.88 305.915 220.41 306.655C221.82 306.885 223.18 307.325 224.5 307.755C227.26 308.655 229.87 309.505 232.74 308.395C234.96 307.535 237.02 306.195 239.02 304.895C242.13 302.865 245.35 300.775 249.31 300.405C251.61 300.195 253.89 300.505 255.92 301.305C260.95 303.295 263.51 309.105 261.74 314.525C260.08 319.615 256.73 319.915 253.49 320.205C251.51 320.385 249.47 320.565 247.57 321.735C246.84 322.185 246.1 322.655 245.36 323.135C241.69 325.485 237.9 327.905 233.51 328.645C230.93 329.075 228.39 328.345 225.94 327.645C223.5 326.945 221.2 326.285 219.05 326.795C217.71 327.115 216.91 328.025 216.07 328.985C215.47 329.665 214.86 330.375 214.01 330.925C211.31 332.675 208.84 333.255 206.46 333.255L206.47 333.215ZM191.31 329.755C191.65 329.755 191.99 329.755 192.33 329.775C195 329.885 197.4 330.495 199.72 331.075C204.41 332.255 208.46 333.285 213.47 330.045C214.2 329.575 214.74 328.955 215.32 328.295C216.22 327.255 217.16 326.185 218.81 325.785C221.21 325.205 223.75 325.935 226.21 326.645C228.56 327.325 230.99 328.015 233.34 327.625C237.53 326.925 241.23 324.555 244.82 322.255C245.57 321.775 246.31 321.305 247.05 320.845C249.15 319.555 251.41 319.345 253.4 319.175C256.71 318.875 259.33 318.645 260.79 314.185C262.39 309.265 260.09 303.995 255.55 302.205C253.66 301.455 251.53 301.165 249.4 301.365C245.68 301.715 242.71 303.645 239.57 305.695C237.53 307.025 235.43 308.395 233.11 309.295C229.9 310.535 227 309.585 224.2 308.675C222.92 308.255 221.6 307.825 220.26 307.605C216.13 306.935 213.68 308.625 210.58 310.775C210.03 311.155 209.46 311.545 208.87 311.935C205.2 314.355 201.54 313.685 198 313.045C195.94 312.675 193.81 312.285 191.66 312.485C189.94 312.645 188.17 313.095 186.3 313.575C181.95 314.675 177.46 315.825 173.4 313.295C171.63 312.195 170.34 310.695 169.1 309.255C167.4 307.275 165.8 305.415 163.08 304.605C161.2 304.045 159.16 303.975 157.19 303.915C153.85 303.805 150.4 303.685 147.53 301.245C142.61 297.055 138.3 295.525 133.12 296.105C131.78 296.255 130.03 296.965 128.18 297.715C125.63 298.745 123 299.815 121.13 299.475L121.31 298.495C121.31 298.495 121.17 298.535 121.08 298.655C120.99 298.775 121 298.915 121.02 298.955C120.72 298.165 115.65 294.005 114.4 293.535C111.11 292.285 107.56 292.445 103.22 294.035C102.49 294.305 101.77 294.695 101.07 295.085C100.32 295.495 99.5501 295.925 98.7301 296.205C95.4501 297.355 94.8801 297.265 92.9701 296.725C92.2501 296.515 91.3501 296.265 89.9501 296.005C86.4201 295.345 83.0201 295.655 79.5401 296.975C78.9901 297.185 77.6101 298.075 76.1501 299.015C71.5601 301.965 69.4801 303.145 68.5001 302.735C65.8001 301.635 62.9101 302.405 60.3601 304.885C56.3001 308.855 54.3801 315.705 56.0701 320.155C57.1701 323.035 59.6801 324.655 63.3301 324.825C67.4701 325.015 70.9401 322.385 74.6101 319.585C76.9901 317.775 79.4501 315.895 82.1001 314.905C85.3601 313.685 88.5501 314.125 91.6301 314.555C93.4801 314.805 95.3901 315.075 97.2901 314.975C99.2101 314.875 100.85 314.025 102.57 313.135C104.28 312.255 106.05 311.335 108.1 311.235C109.99 311.145 111.81 312.365 113.41 313.435C114.16 313.935 114.86 314.405 115.52 314.725C118.26 316.035 120.95 316.595 123.71 316.445C125.07 316.365 126.37 315.895 127.75 315.395C129.26 314.845 130.82 314.275 132.47 314.275H132.48C135.28 314.275 136.43 315.605 137.64 317.005C138.23 317.685 138.84 318.385 139.69 319.045C142.96 321.545 146.99 323.015 150.74 323.085C155.12 323.165 157.8 325.135 160.63 327.225C162.7 328.745 164.84 330.325 167.78 331.205C172.89 332.735 177.43 331.855 182.24 330.915C185.15 330.345 188.16 329.755 191.3 329.755H191.31Z" fill="#060606"/>
<path d="M180.26 305.275C178.69 305.275 177.42 304.005 177.42 302.435C177.42 300.865 178.69 299.595 180.26 299.595C181.83 299.595 183.1 300.865 183.1 302.435C183.1 304.005 181.83 305.275 180.26 305.275ZM180.26 300.215C179.03 300.215 178.04 301.215 178.04 302.435C178.04 303.655 179.04 304.655 180.26 304.655C181.48 304.655 182.48 303.655 182.48 302.435C182.48 301.215 181.48 300.215 180.26 300.215Z" fill="white"/>
<path d="M252.95 280.505C251.38 280.505 250.11 279.235 250.11 277.665C250.11 276.095 251.38 274.825 252.95 274.825C254.52 274.825 255.79 276.095 255.79 277.665C255.79 279.235 254.52 280.505 252.95 280.505ZM252.95 275.445C251.72 275.445 250.73 276.445 250.73 277.665C250.73 278.885 251.73 279.885 252.95 279.885C254.17 279.885 255.17 278.885 255.17 277.665C255.17 276.445 254.17 275.445 252.95 275.445Z" fill="white"/>
<path d="M89.8303 335.595C87.4803 335.595 85.5603 333.685 85.5603 331.325C85.5603 328.965 87.4703 327.055 89.8303 327.055C92.1903 327.055 94.1003 328.965 94.1003 331.325C94.1003 333.685 92.1903 335.595 89.8303 335.595ZM89.8303 327.685C87.8203 327.685 86.1803 329.325 86.1803 331.335C86.1803 333.345 87.8203 334.985 89.8303 334.985C91.8403 334.985 93.4803 333.345 93.4803 331.335C93.4803 329.325 91.8403 327.685 89.8303 327.685Z" fill="white"/>
<path d="M220.05 353.825C217.7 353.825 215.78 351.915 215.78 349.555C215.78 347.195 217.69 345.285 220.05 345.285C222.41 345.285 224.32 347.195 224.32 349.555C224.32 351.915 222.41 353.825 220.05 353.825ZM220.05 345.905C218.04 345.905 216.4 347.545 216.4 349.555C216.4 351.565 218.04 353.205 220.05 353.205C222.06 353.205 223.7 351.565 223.7 349.555C223.7 347.545 222.06 345.905 220.05 345.905Z" fill="white"/>
<path d="M129.18 426.735C126.83 426.735 124.91 424.825 124.91 422.465C124.91 420.105 126.82 418.195 129.18 418.195C131.54 418.195 133.45 420.105 133.45 422.465C133.45 424.825 131.54 426.735 129.18 426.735ZM129.18 418.825C127.17 418.825 125.53 420.465 125.53 422.475C125.53 424.485 127.17 426.125 129.18 426.125C131.19 426.125 132.83 424.485 132.83 422.475C132.83 420.465 131.19 418.825 129.18 418.825Z" fill="white"/>
<path d="M159.01 342.945C156.66 342.945 154.74 341.035 154.74 338.675C154.74 336.315 156.65 334.405 159.01 334.405C161.37 334.405 163.28 336.315 163.28 338.675C163.28 341.035 161.37 342.945 159.01 342.945ZM159.01 335.025C157 335.025 155.36 336.665 155.36 338.675C155.36 340.685 157 342.325 159.01 342.325C161.02 342.325 162.66 340.685 162.66 338.675C162.66 336.665 161.02 335.025 159.01 335.025Z" fill="white"/>
<path d="M123.51 472.805C121.16 472.805 119.24 470.895 119.24 468.535C119.24 466.175 121.15 464.265 123.51 464.265C125.87 464.265 127.78 466.175 127.78 468.535C127.78 470.895 125.87 472.805 123.51 472.805ZM123.51 464.895C121.5 464.895 119.86 466.535 119.86 468.545C119.86 470.555 121.5 472.195 123.51 472.195C125.52 472.195 127.16 470.555 127.16 468.545C127.16 466.535 125.52 464.895 123.51 464.895Z" fill="white"/>
<path d="M115.59 377.005C113.24 377.005 111.32 375.095 111.32 372.735C111.32 370.375 113.23 368.465 115.59 368.465C117.95 368.465 119.86 370.375 119.86 372.735C119.86 375.095 117.95 377.005 115.59 377.005ZM115.59 369.085C113.58 369.085 111.94 370.725 111.94 372.735C111.94 374.745 113.58 376.385 115.59 376.385C117.6 376.385 119.24 374.745 119.24 372.735C119.24 370.725 117.6 369.085 115.59 369.085Z" fill="white"/>
<path d="M129.08 331.885C127.33 331.885 125.91 330.465 125.91 328.705C125.91 326.945 127.33 325.535 129.08 325.535C130.83 325.535 132.26 326.955 132.26 328.705C132.26 330.455 130.84 331.885 129.08 331.885ZM129.08 326.155C127.67 326.155 126.52 327.305 126.52 328.715C126.52 330.125 127.67 331.275 129.08 331.275C130.49 331.275 131.64 330.125 131.64 328.715C131.64 327.305 130.49 326.155 129.08 326.155Z" fill="white"/>
<path d="M203.69 413.415C201.94 413.415 200.52 411.995 200.52 410.245C200.52 408.495 201.94 407.065 203.69 407.065C205.44 407.065 206.87 408.485 206.87 410.245C206.87 412.005 205.45 413.415 203.69 413.415ZM203.69 407.685C202.28 407.685 201.13 408.835 201.13 410.245C201.13 411.655 202.28 412.805 203.69 412.805C205.1 412.805 206.25 411.655 206.25 410.245C206.25 408.835 205.1 407.685 203.69 407.685Z" fill="white"/>
<path d="M188.1 475.005C186.35 475.005 184.93 473.585 184.93 471.825C184.93 470.065 186.35 468.655 188.1 468.655C189.85 468.655 191.28 470.075 191.28 471.825C191.28 473.575 189.86 475.005 188.1 475.005ZM188.1 469.275C186.69 469.275 185.54 470.425 185.54 471.835C185.54 473.245 186.69 474.395 188.1 474.395C189.51 474.395 190.66 473.245 190.66 471.835C190.66 470.425 189.51 469.275 188.1 469.275Z" fill="white"/>
<path d="M246.18 338.925C244.43 338.925 243 337.505 243 335.755C243 334.005 244.42 332.575 246.18 332.575C247.94 332.575 249.35 333.995 249.35 335.755C249.35 337.515 247.93 338.925 246.18 338.925ZM246.18 333.185C244.77 333.185 243.62 334.335 243.62 335.745C243.62 337.155 244.77 338.305 246.18 338.305C247.59 338.305 248.74 337.155 248.74 335.745C248.74 334.335 247.59 333.185 246.18 333.185Z" fill="white"/>
<path d="M196.86 340.495C195.61 340.495 194.59 339.475 194.59 338.225C194.59 336.975 195.61 335.955 196.86 335.955C198.11 335.955 199.13 336.975 199.13 338.225C199.13 339.475 198.11 340.495 196.86 340.495ZM196.86 336.565C195.95 336.565 195.2 337.305 195.2 338.225C195.2 339.145 195.94 339.885 196.86 339.885C197.78 339.885 198.52 339.145 198.52 338.225C198.52 337.305 197.78 336.565 196.86 336.565Z" fill="white"/>
<path d="M154.9 369.245C153.65 369.245 152.63 368.225 152.63 366.975C152.63 365.725 153.65 364.705 154.9 364.705C156.15 364.705 157.17 365.725 157.17 366.975C157.17 368.225 156.15 369.245 154.9 369.245ZM154.9 365.315C153.99 365.315 153.24 366.055 153.24 366.975C153.24 367.895 153.98 368.635 154.9 368.635C155.82 368.635 156.56 367.895 156.56 366.975C156.56 366.055 155.82 365.315 154.9 365.315Z" fill="white"/>
<path d="M239.93 357.665C238.68 357.665 237.66 356.645 237.66 355.395C237.66 354.145 238.68 353.125 239.93 353.125C241.18 353.125 242.2 354.145 242.2 355.395C242.2 356.645 241.18 357.665 239.93 357.665ZM239.93 353.735C239.02 353.735 238.27 354.475 238.27 355.395C238.27 356.315 239.01 357.055 239.93 357.055C240.85 357.055 241.59 356.315 241.59 355.395C241.59 354.475 240.85 353.735 239.93 353.735Z" fill="white"/>
<path d="M210.34 391.325C209.09 391.325 208.07 390.305 208.07 389.055C208.07 387.805 209.09 386.785 210.34 386.785C211.59 386.785 212.61 387.805 212.61 389.055C212.61 390.305 211.59 391.325 210.34 391.325ZM210.34 387.395C209.43 387.395 208.68 388.135 208.68 389.055C208.68 389.975 209.42 390.715 210.34 390.715C211.26 390.715 212 389.975 212 389.055C212 388.135 211.26 387.395 210.34 387.395Z" fill="white"/>
<path d="M189.74 443.655C188.49 443.655 187.47 442.635 187.47 441.385C187.47 440.135 188.49 439.115 189.74 439.115C190.99 439.115 192.01 440.135 192.01 441.385C192.01 442.635 190.99 443.655 189.74 443.655ZM189.74 439.725C188.83 439.725 188.08 440.465 188.08 441.385C188.08 442.305 188.82 443.045 189.74 443.045C190.66 443.045 191.4 442.305 191.4 441.385C191.4 440.465 190.66 439.725 189.74 439.725Z" fill="white"/>
<path d="M160.91 496.185C159.66 496.185 158.64 495.165 158.64 493.915C158.64 492.665 159.66 491.645 160.91 491.645C162.16 491.645 163.18 492.665 163.18 493.915C163.18 495.165 162.16 496.185 160.91 496.185ZM160.91 492.255C160 492.255 159.25 492.995 159.25 493.915C159.25 494.835 159.99 495.575 160.91 495.575C161.83 495.575 162.57 494.835 162.57 493.915C162.57 492.995 161.83 492.255 160.91 492.255Z" fill="white"/>
<path d="M107.48 399.965C106.23 399.965 105.21 398.945 105.21 397.695C105.21 396.445 106.23 395.425 107.48 395.425C108.73 395.425 109.75 396.445 109.75 397.695C109.75 398.945 108.73 399.965 107.48 399.965ZM107.48 396.035C106.57 396.035 105.82 396.775 105.82 397.695C105.82 398.615 106.56 399.355 107.48 399.355C108.4 399.355 109.14 398.615 109.14 397.695C109.14 396.775 108.4 396.035 107.48 396.035Z" fill="white"/>
<path d="M71.4201 343.655C70.1701 343.655 69.1501 342.635 69.1501 341.385C69.1501 340.135 70.1701 339.115 71.4201 339.115C72.6701 339.115 73.6901 340.135 73.6901 341.385C73.6901 342.635 72.6701 343.655 71.4201 343.655ZM71.4201 339.725C70.5101 339.725 69.7601 340.465 69.7601 341.385C69.7601 342.305 70.5001 343.045 71.4201 343.045C72.3401 343.045 73.0801 342.305 73.0801 341.385C73.0801 340.465 72.3401 339.725 71.4201 339.725Z" fill="white"/>
<path d="M56.4702 290.555C55.5002 290.555 54.7102 289.765 54.7102 288.795C54.7102 287.825 55.5002 287.035 56.4702 287.035C57.4402 287.035 58.2302 287.825 58.2302 288.795C58.2302 289.765 57.4402 290.555 56.4702 290.555ZM56.4702 287.655C55.8402 287.655 55.3302 288.165 55.3302 288.795C55.3302 289.425 55.8402 289.935 56.4702 289.935C57.1002 289.935 57.6102 289.425 57.6102 288.795C57.6102 288.165 57.1002 287.655 56.4702 287.655Z" fill="white"/>
<path d="M185.59 283.865C184.62 283.865 183.83 283.075 183.83 282.105C183.83 281.135 184.62 280.345 185.59 280.345C186.56 280.345 187.35 281.135 187.35 282.105C187.35 283.075 186.56 283.865 185.59 283.865ZM185.59 280.965C184.96 280.965 184.45 281.475 184.45 282.105C184.45 282.735 184.96 283.245 185.59 283.245C186.22 283.245 186.73 282.735 186.73 282.105C186.73 281.475 186.22 280.965 185.59 280.965Z" fill="white"/>
<path d="M225.7 284.485C224.73 284.485 223.94 283.695 223.94 282.725C223.94 281.755 224.73 280.965 225.7 280.965C226.67 280.965 227.46 281.755 227.46 282.725C227.46 283.695 226.67 284.485 225.7 284.485ZM225.7 281.585C225.07 281.585 224.56 282.095 224.56 282.725C224.56 283.355 225.07 283.865 225.7 283.865C226.33 283.865 226.84 283.355 226.84 282.725C226.84 282.095 226.33 281.585 225.7 281.585Z" fill="white"/>
<path d="M104.65 284.565C103.68 284.565 102.89 283.775 102.89 282.805C102.89 281.835 103.68 281.045 104.65 281.045C105.62 281.045 106.41 281.835 106.41 282.805C106.41 283.775 105.62 284.565 104.65 284.565ZM104.65 281.665C104.02 281.665 103.51 282.175 103.51 282.805C103.51 283.435 104.02 283.945 104.65 283.945C105.28 283.945 105.79 283.435 105.79 282.805C105.79 282.175 105.28 281.665 104.65 281.665Z" fill="white"/>
<path d="M76.0602 279.975C74.4902 279.975 73.2202 278.705 73.2202 277.135C73.2202 275.565 74.4902 274.295 76.0602 274.295C77.6302 274.295 78.9002 275.565 78.9002 277.135C78.9002 278.705 77.6302 279.975 76.0602 279.975ZM76.0602 274.915C74.8302 274.915 73.8402 275.915 73.8402 277.135C73.8402 278.355 74.8402 279.355 76.0602 279.355C77.2802 279.355 78.2802 278.355 78.2802 277.135C78.2802 275.915 77.2802 274.915 76.0602 274.915Z" fill="white"/>
<path d="M160.29 297.255C158.72 297.255 157.45 295.985 157.45 294.415C157.45 292.845 158.72 291.575 160.29 291.575C161.86 291.575 163.13 292.845 163.13 294.415C163.13 295.985 161.86 297.255 160.29 297.255ZM160.29 292.195C159.06 292.195 158.07 293.195 158.07 294.415C158.07 295.635 159.07 296.635 160.29 296.635C161.51 296.635 162.51 295.635 162.51 294.415C162.51 293.195 161.51 292.195 160.29 292.195Z" fill="white"/>
<path d="M149.74 216.675C148.17 216.675 146.9 215.405 146.9 213.835C146.9 212.265 148.17 210.995 149.74 210.995C151.31 210.995 152.58 212.265 152.58 213.835C152.58 215.405 151.31 216.675 149.74 216.675ZM149.74 211.615C148.51 211.615 147.52 212.615 147.52 213.835C147.52 215.055 148.52 216.055 149.74 216.055C150.96 216.055 151.96 215.055 151.96 213.835C151.96 212.615 150.96 211.615 149.74 211.615Z" fill="white"/>
<path d="M159.96 259.025C158.39 259.025 157.12 257.755 157.12 256.185C157.12 254.615 158.39 253.345 159.96 253.345C161.53 253.345 162.8 254.615 162.8 256.185C162.8 257.755 161.53 259.025 159.96 259.025ZM159.96 253.965C158.73 253.965 157.74 254.965 157.74 256.185C157.74 257.405 158.74 258.405 159.96 258.405C161.18 258.405 162.18 257.405 162.18 256.185C162.18 254.965 161.18 253.965 159.96 253.965Z" fill="white"/>
<path d="M140.03 277.805C139.06 277.805 138.27 277.015 138.27 276.045C138.27 275.075 139.06 274.285 140.03 274.285C141 274.285 141.79 275.075 141.79 276.045C141.79 277.015 141 277.805 140.03 277.805ZM140.03 274.905C139.4 274.905 138.89 275.415 138.89 276.045C138.89 276.675 139.4 277.185 140.03 277.185C140.66 277.185 141.17 276.675 141.17 276.045C141.17 275.415 140.66 274.905 140.03 274.905Z" fill="white"/>
<path d="M143.63 245.505C142.66 245.505 141.87 244.715 141.87 243.745C141.87 242.775 142.66 241.985 143.63 241.985C144.6 241.985 145.39 242.775 145.39 243.745C145.39 244.715 144.6 245.505 143.63 245.505ZM143.63 242.605C143 242.605 142.49 243.115 142.49 243.745C142.49 244.375 143 244.885 143.63 244.885C144.26 244.885 144.77 244.375 144.77 243.745C144.77 243.115 144.26 242.605 143.63 242.605Z" fill="white"/>
<path d="M157.32 190.615C156.35 190.615 155.56 189.825 155.56 188.855C155.56 187.885 156.35 187.095 157.32 187.095C158.29 187.095 159.08 187.885 159.08 188.855C159.08 189.825 158.29 190.615 157.32 190.615ZM157.32 187.715C156.69 187.715 156.18 188.225 156.18 188.855C156.18 189.485 156.69 189.995 157.32 189.995C157.95 189.995 158.46 189.485 158.46 188.855C158.46 188.225 157.95 187.715 157.32 187.715Z" fill="white"/>
<path d="M165.56 224.235C164.59 224.235 163.8 223.445 163.8 222.475C163.8 221.505 164.59 220.715 165.56 220.715C166.53 220.715 167.32 221.505 167.32 222.475C167.32 223.445 166.53 224.235 165.56 224.235ZM165.56 221.335C164.93 221.335 164.42 221.845 164.42 222.475C164.42 223.105 164.93 223.615 165.56 223.615C166.19 223.615 166.7 223.105 166.7 222.475C166.7 221.845 166.19 221.335 165.56 221.335Z" fill="white"/>
<path d="M101.41 441.835C96.2199 464.835 91.7299 487.995 87.9399 511.265C87.1799 515.915 94.2799 518.025 95.0399 513.335C98.8299 490.055 103.32 466.905 108.51 443.905C109.55 439.275 102.46 437.185 101.41 441.835Z" fill="white"/>
<path d="M227.24 489.775C226.9 487.805 224.48 486.695 222.69 487.195C220.61 487.765 219.77 489.765 220.11 491.745C220.52 494.105 221.23 496.395 221.9 498.695C222.24 499.845 222.56 500.995 222.82 502.165C222.94 502.695 223.04 503.235 223.13 503.775C223.13 503.875 223.2 504.465 223.21 504.555C223.27 505.415 223.23 506.255 223.18 507.105C223.18 507.155 223.18 507.175 223.17 507.215C223.14 507.415 223.1 507.605 223.06 507.805C222.97 508.245 222.85 508.675 222.71 509.105C222.66 509.255 222.61 509.395 222.55 509.545C222.53 509.595 222.5 509.655 222.45 509.745C222.27 510.055 222.09 510.355 221.91 510.665C221.91 510.615 221.44 511.245 221.33 511.355C221.22 511.455 221.11 511.555 221 511.655C220.96 511.675 220.93 511.705 220.8 511.795C219.13 512.895 218.43 515.065 219.47 516.855C220.44 518.515 222.85 519.285 224.53 518.185C228.76 515.395 230.66 510.555 230.64 505.605C230.62 500.135 228.16 495.125 227.24 489.815V489.775Z" fill="white"/>
<path d="M258 337.985C251.76 363.605 237.82 386.755 218.13 404.285C214.57 407.455 219.81 412.675 223.36 409.515C243.93 391.205 258.62 366.705 265.14 339.955C266.27 335.335 259.14 333.355 258.01 337.985H258Z" fill="white"/>
<path d="M142.49 335.105C142.68 355.795 135.49 373.725 124.91 382.215C120.78 385.515 116.16 387.375 111.23 387.415C93.7002 387.555 79.2702 364.345 79.0102 335.595C78.7402 306.845 92.7402 283.415 110.27 283.285C114.94 283.245 119.38 284.855 123.37 287.775C134.46 295.855 142.3 313.975 142.49 335.105Z" fill="white"/>
<path d="M111.07 387.915C93.3601 387.915 78.7701 364.505 78.5001 335.605C78.3301 317.165 83.9301 300.355 93.4801 290.645C98.4901 285.555 104.29 282.835 110.26 282.795C114.93 282.725 119.44 284.305 123.66 287.375C135.21 295.795 142.8 314.525 142.99 335.105C143.18 355.155 136.2 373.795 125.23 382.605C120.87 386.095 116.16 387.875 111.24 387.915C111.19 387.915 111.13 387.915 111.08 387.915H111.07ZM110.42 283.785C110.37 283.785 110.32 283.785 110.27 283.785C104.57 283.825 99.0101 286.445 94.1901 291.345C84.8201 300.875 79.3301 317.415 79.5001 335.595C79.7601 364.025 94.0001 387.095 111.22 386.915C115.92 386.875 120.42 385.165 124.6 381.825C135.35 373.205 142.17 354.865 141.99 335.115C141.8 314.845 134.38 296.425 123.07 288.185C119.07 285.265 114.82 283.795 110.42 283.795V283.785Z" fill="#060606"/>
<path d="M120.43 296.545C117.44 294.185 114.12 292.875 110.63 292.905C97.5202 293.005 87.0503 311.975 87.2703 335.255C87.2703 336.375 87.3203 337.475 87.3803 338.575L112.62 331.445L89.0203 350.515C92.6102 366.225 101.32 377.315 111.4 377.235C115.09 377.205 118.55 375.705 121.63 373.025C129.54 366.155 134.91 351.645 134.76 334.885C134.61 317.775 128.73 303.105 120.43 296.555V296.545Z" fill="#060606"/>
<path d="M111.28 377.725C101.21 377.725 92.2902 367.105 88.5202 350.615L88.4502 350.315L110.39 332.585L86.9002 339.225L86.8702 338.605C86.8002 337.365 86.7702 336.275 86.7602 335.265C86.6202 319.935 91.1902 305.675 98.6802 298.055C102.28 294.395 106.4 292.445 110.62 292.415C114.12 292.395 117.55 293.645 120.74 296.165C129.41 303.005 135.1 318.205 135.26 334.885C135.41 351.395 130.31 366.155 121.96 373.405C118.67 376.245 115.12 377.705 111.4 377.735C111.36 377.735 111.32 377.735 111.29 377.735L111.28 377.725ZM89.5702 350.705C93.2102 366.305 101.91 376.735 111.29 376.735C111.32 376.735 111.36 376.735 111.39 376.735C114.87 376.705 118.2 375.335 121.3 372.645C129.32 365.685 134.4 350.865 134.26 334.885C134.11 318.495 128.56 303.595 120.12 296.935C117.12 294.565 113.94 293.355 110.63 293.405C106.69 293.435 102.8 295.285 99.4002 298.745C92.0902 306.185 87.6302 320.165 87.7702 335.245C87.7702 336.065 87.8002 336.945 87.8502 337.915L114.83 330.295L89.5802 350.695L89.5702 350.705Z" fill="#060606"/>
<path d="M175.99 334.775C175.99 355.465 183.36 373.325 194.02 381.715C198.18 384.975 202.82 386.795 207.75 386.785C225.28 386.755 239.49 363.415 239.48 334.665C239.48 305.915 225.25 282.625 207.72 282.655C203.05 282.655 198.63 284.315 194.66 287.265C183.65 295.455 175.98 313.645 175.99 334.775Z" fill="white"/>
<path d="M207.71 387.285C202.8 387.285 198.09 385.545 193.7 382.105C182.64 373.405 175.49 354.825 175.48 334.775C175.48 314.205 182.88 295.395 194.35 286.865C198.54 283.745 203.03 282.165 207.7 282.155H207.74C213.7 282.155 219.51 284.815 224.56 289.845C234.2 299.465 239.96 316.215 239.96 334.665C239.96 363.645 225.51 387.255 207.74 387.285H207.7H207.71ZM176.49 334.775C176.49 354.525 183.5 372.795 194.33 381.325C198.54 384.625 203.05 386.325 207.75 386.285C224.98 386.255 238.99 363.095 238.98 334.665C238.98 316.485 233.33 299.995 223.87 290.555C219.01 285.705 213.44 283.145 207.72 283.155C203.27 283.155 198.98 284.685 194.96 287.665C183.74 296.015 176.49 314.505 176.49 334.775Z" fill="#060606"/>
<path d="M197.68 296.005C200.65 293.615 203.96 292.275 207.45 292.275C220.56 292.255 231.21 311.115 231.22 334.395C231.22 335.515 231.19 336.615 231.14 337.715L205.84 330.825L229.62 349.665C226.18 365.405 217.58 376.585 207.5 376.595C203.81 376.595 200.34 375.125 197.23 372.485C189.26 365.695 183.74 351.225 183.74 334.475C183.74 317.365 189.46 302.635 197.7 296.005H197.68Z" fill="#060606"/>
<path d="M207.46 377.095C203.75 377.095 200.19 375.675 196.89 372.865C188.47 365.685 183.23 350.975 183.22 334.465C183.22 317.785 188.76 302.525 197.37 295.605C200.53 293.065 203.92 291.765 207.45 291.765H207.47C211.68 291.765 215.82 293.675 219.44 297.295C227 304.845 231.71 319.055 231.72 334.395C231.72 335.415 231.7 336.475 231.64 337.735L231.61 338.365L208.06 331.955L230.17 349.475L230.1 349.785C226.48 366.365 217.6 377.095 207.49 377.105H207.46V377.095ZM207.47 292.765H207.45C204.15 292.765 200.97 293.985 198 296.385C189.63 303.125 184.22 318.075 184.23 334.465C184.23 350.445 189.47 365.215 197.55 372.095C200.67 374.745 204.01 376.085 207.48 376.085H207.5C216.92 376.065 225.56 365.545 229.07 349.855L203.62 329.695L230.67 337.065C230.71 336.085 230.72 335.225 230.72 334.395C230.72 319.315 226.12 305.375 218.74 298.005C215.31 294.585 211.41 292.775 207.48 292.775L207.47 292.765Z" fill="#060606"/>
<path d="M171.42 368.735C171.47 374.045 166.86 378.405 161.11 378.455C155.36 378.515 150.66 374.255 150.61 368.945C150.56 363.635 155.17 359.275 160.92 359.225C166.67 359.175 171.37 363.425 171.42 368.735Z" fill="#FF6600"/>
<path d="M161 378.965C158.14 378.965 155.44 377.945 153.4 376.095C151.31 374.205 150.15 371.665 150.12 368.955C150.06 363.375 154.91 358.785 160.92 358.725C163.79 358.695 166.57 359.715 168.64 361.595C170.73 363.485 171.89 366.025 171.92 368.735C171.98 374.315 167.13 378.905 161.12 378.965C161.08 378.965 161.04 378.965 161 378.965ZM161.04 359.725C161.04 359.725 160.97 359.725 160.93 359.725C155.47 359.775 151.07 363.915 151.12 368.945C151.14 371.375 152.19 373.645 154.07 375.355C155.93 377.045 158.39 377.965 161 377.965C161.04 377.965 161.07 377.965 161.11 377.965C166.57 377.915 170.97 373.775 170.92 368.745C170.9 366.315 169.85 364.045 167.97 362.335C166.11 360.645 163.65 359.725 161.04 359.725Z" fill="#060606"/>
<path d="M182.39 383.795C182.39 383.795 188.15 455.815 162.35 456.085C132.99 456.395 138.93 384.255 138.93 384.255C142.72 386.165 150.64 389.505 161.15 389.295C171.17 389.095 178.67 385.765 182.39 383.785V383.795Z" fill="white"/>
<path d="M162.16 456.595C157.44 456.595 153.33 454.745 149.94 451.105C143.44 444.115 139.52 430.725 138.31 411.305C137.41 396.885 138.42 384.345 138.43 384.225L138.49 383.485L139.15 383.815C143.89 386.195 151.54 389.015 161.13 388.805C168.42 388.665 175.69 386.775 182.15 383.355L182.82 382.995L182.88 383.755C182.89 383.885 183.91 396.925 183.14 411.735C182.1 431.695 178.49 445.195 172.39 451.865C169.56 454.965 166.18 456.555 162.34 456.595C162.28 456.595 162.21 456.595 162.15 456.595H162.16ZM139.38 385.035C138.96 391.275 136.54 435.225 150.68 450.425C153.92 453.905 157.81 455.635 162.35 455.595C165.9 455.555 169.03 454.075 171.67 451.195C184.92 436.695 182.38 391.035 181.95 384.595C175.53 387.865 168.36 389.665 161.16 389.805C151.81 389.995 144.25 387.395 139.38 385.035Z" fill="#060606"/>
<path d="M170 453.425L169.5 453.395L168.64 388.445L169.64 388.435L170.5 453.385L170 453.425Z" fill="#060606"/>
<path d="M153.567 388.783L152.567 388.804L153.923 454.06L154.923 454.039L153.567 388.783Z" fill="#060606"/>
<path d="M181.962 420.158L139.724 420.571L139.734 421.571L181.972 421.158L181.962 420.158Z" fill="#060606"/>
<path d="M48.57 237.505C48.75 236.265 49.22 235.005 50.03 233.755C52.16 230.485 55.8 228.085 59.48 226.905C66.21 224.755 73.84 224.865 80.7 226.315C92.35 228.775 102.6 235.515 111.25 243.475C113.93 245.945 116.54 248.485 119.08 251.105C119.87 251.915 121.04 253.285 122.15 254.355C114.48 251.015 106.68 247.755 98.44 246.095C88.58 244.105 79.71 246.305 70.1 248.205C62.41 249.725 46.82 249.455 48.57 237.505Z" fill="#FFBF00"/>
<path d="M124.51 255.945L121.95 254.835C114.14 251.435 106.46 248.245 98.34 246.605C89.49 244.815 81.41 246.455 72.86 248.175C71.98 248.355 71.09 248.535 70.2 248.705C65.14 249.705 55.31 250.175 50.53 245.625C48.41 243.605 47.58 240.855 48.08 237.445C48.28 236.095 48.8 234.765 49.62 233.495C51.68 230.335 55.22 227.765 59.34 226.445C65.57 224.455 73.2 224.235 80.81 225.845C91.15 228.025 101.51 233.845 111.6 243.125C114.23 245.545 116.87 248.125 119.45 250.775C119.74 251.075 120.09 251.455 120.46 251.865C121.09 252.555 121.81 253.345 122.51 254.015L124.52 255.945H124.51ZM90.37 244.815C93.04 244.815 95.75 245.045 98.55 245.615C105.97 247.115 112.99 249.875 120.07 252.925C119.95 252.795 119.83 252.665 119.72 252.535C119.35 252.135 119.01 251.765 118.73 251.465C116.17 248.825 113.54 246.265 110.92 243.855C100.97 234.695 90.77 228.955 80.61 226.815C73.16 225.245 65.72 225.445 59.65 227.385C55.8 228.615 52.37 231.105 50.46 234.025C49.72 235.165 49.25 236.365 49.07 237.575C48.62 240.645 49.35 243.105 51.22 244.885C55.72 249.165 65.48 248.605 70.01 247.705C70.9 247.525 71.79 247.355 72.67 247.175C78.65 245.965 84.4 244.805 90.37 244.805V244.815Z" fill="#060606"/>
<path d="M50.9199 239.705C50.6399 238.385 50.8999 237.135 51.4799 235.945C51.8499 235.205 53.0199 235.015 53.6699 235.465C54.4399 236.005 54.5399 236.855 54.1499 237.655C54.3299 237.285 54.1799 237.595 54.1499 237.685C54.1099 237.805 54.0699 237.915 54.0299 238.035C54.0199 238.085 54.0099 238.125 53.9899 238.175C53.9899 238.175 53.9899 238.175 53.9899 238.195C53.9899 238.245 53.9799 238.295 53.9799 238.345C53.9799 238.465 53.9799 238.575 53.9699 238.695C53.9999 238.885 54.0299 239.075 54.0799 239.255C54.0799 239.275 54.0899 239.305 54.0999 239.325C54.1299 239.405 54.1699 239.505 54.1799 239.525C54.2599 239.715 54.3499 239.895 54.4499 240.075C54.4599 240.095 54.5999 240.285 54.6099 240.325C54.7499 240.505 54.8899 240.685 55.0499 240.855C55.1899 241.015 55.3499 241.165 55.4999 241.315C55.5399 241.355 55.8099 241.625 55.6199 241.435C55.4299 241.245 55.7499 241.535 55.7999 241.575C56.1399 241.835 56.5099 242.075 56.8799 242.295C56.9699 242.345 57.0699 242.395 57.1599 242.445C57.2099 242.465 57.2499 242.495 57.2999 242.515C57.4099 242.565 57.3599 242.545 57.1699 242.455C57.1999 242.535 57.6599 242.655 57.7399 242.685C57.9299 242.755 58.1199 242.815 58.3099 242.865C58.3999 242.885 58.4999 242.905 58.5899 242.935C58.6099 242.935 58.6399 242.935 58.6599 242.945C59.4799 243.055 60.2399 243.715 60.1499 244.615C60.0699 245.405 59.3599 246.235 58.4799 246.105C56.2099 245.785 54.0299 244.565 52.5399 242.815C51.7699 241.915 51.1699 240.855 50.9199 239.695V239.705Z" fill="white"/>
<path d="M246.76 226.895C246.37 225.705 245.7 224.545 244.69 223.445C242.04 220.575 238.05 218.825 234.22 218.275C227.22 217.285 219.72 218.675 213.2 221.255C202.13 225.635 193.16 233.995 185.96 243.295C183.73 246.175 181.59 249.125 179.52 252.125C178.88 253.055 177.96 254.595 177.04 255.845C184.04 251.265 191.19 246.745 199.03 243.725C208.42 240.105 217.53 240.785 227.32 241.045C235.16 241.255 250.48 238.365 246.75 226.885L246.76 226.895Z" fill="#FFBF00"/>
<path d="M174.99 257.805L176.65 255.565C177.22 254.795 177.8 253.895 178.31 253.105C178.61 252.635 178.89 252.205 179.13 251.855C181.23 248.805 183.4 245.825 185.58 242.995C193.97 232.145 203.2 224.675 213.03 220.795C220.27 217.935 227.82 216.865 234.3 217.785C238.58 218.395 242.51 220.335 245.06 223.105C246.08 224.215 246.82 225.435 247.24 226.735C248.3 230.015 247.95 232.865 246.2 235.215C242.24 240.505 232.46 241.675 227.32 241.555C226.41 241.535 225.51 241.505 224.61 241.475C215.88 241.205 207.64 240.955 199.22 244.195C191.49 247.175 184.45 251.605 177.33 256.275L175 257.805H174.99ZM229.58 218.465C224.42 218.465 218.82 219.585 213.39 221.725C203.73 225.545 194.64 232.905 186.36 243.605C184.19 246.415 182.02 249.385 179.94 252.415C179.71 252.755 179.43 253.175 179.14 253.635C179.05 253.775 178.95 253.925 178.86 254.075C185.33 249.885 191.79 245.985 198.85 243.265C207.46 239.945 215.8 240.205 224.63 240.475C225.53 240.505 226.43 240.535 227.34 240.555C231.96 240.675 241.67 239.595 245.39 234.625C246.94 232.555 247.24 230.005 246.28 227.055C245.9 225.895 245.24 224.795 244.32 223.785C241.95 221.215 238.15 219.345 234.15 218.775C232.68 218.565 231.15 218.465 229.58 218.465Z" fill="#060606"/>
<path d="M244.81 229.455C244.87 228.105 244.4 226.915 243.62 225.845C243.13 225.175 241.94 225.185 241.38 225.745C240.72 226.405 240.75 227.265 241.28 227.985C241.04 227.655 241.24 227.925 241.29 228.015C241.35 228.125 241.41 228.235 241.46 228.345C241.48 228.385 241.5 228.435 241.52 228.475C241.52 228.475 241.52 228.475 241.52 228.495C241.53 228.545 241.55 228.595 241.56 228.645C241.59 228.755 241.61 228.875 241.63 228.985C241.63 229.175 241.63 229.365 241.62 229.555C241.62 229.575 241.62 229.605 241.62 229.625C241.6 229.705 241.59 229.815 241.58 229.835C241.53 230.035 241.47 230.225 241.4 230.425C241.4 230.445 241.29 230.655 241.29 230.695C241.19 230.905 241.07 231.105 240.95 231.295C240.83 231.475 240.71 231.655 240.58 231.825C240.55 231.865 240.32 232.175 240.48 231.955C240.64 231.735 240.37 232.085 240.33 232.125C240.04 232.445 239.72 232.745 239.38 233.015C239.3 233.085 239.21 233.145 239.13 233.215C239.09 233.245 239.04 233.275 239 233.305C238.9 233.375 238.94 233.345 239.12 233.225C239.1 233.315 238.67 233.505 238.59 233.555C238.42 233.655 238.24 233.745 238.06 233.825C237.97 233.865 237.88 233.895 237.8 233.935C237.78 233.935 237.76 233.945 237.73 233.955C236.94 234.205 236.3 234.975 236.54 235.845C236.75 236.615 237.59 237.305 238.43 237.035C240.62 236.345 242.56 234.775 243.74 232.795C244.34 231.785 244.76 230.635 244.81 229.445V229.455Z" fill="white"/>
<path d="M84.8401 192.225C85.4801 191.545 86.3101 190.975 87.3401 190.555C90.0501 189.465 93.3101 189.555 96.0601 190.405C101.11 191.965 105.73 195.305 109.31 199.125C115.4 205.625 118.79 214.135 120.68 222.725C121.27 225.385 121.77 228.065 122.21 230.755C122.35 231.585 122.48 232.925 122.7 234.065C119.43 228.735 116.04 223.395 111.71 218.845C106.52 213.405 100.15 210.955 93.4401 208.005C88.0701 205.645 78.6401 198.805 84.8301 192.225H84.8401Z" fill="#FFBF00"/>
<path d="M123.74 236.705L122.28 234.325C118.96 228.905 115.62 223.665 111.36 219.195C106.72 214.335 101.08 211.875 95.11 209.275L93.25 208.465C89.7 206.905 83.43 202.955 82.44 198.065C82 195.875 82.68 193.795 84.47 191.885C85.18 191.125 86.09 190.525 87.15 190.095C89.79 189.025 93.09 188.965 96.21 189.935C100.9 191.385 105.69 194.535 109.68 198.795C115.1 204.575 118.96 212.595 121.17 222.625C121.75 225.235 122.26 227.945 122.71 230.675C122.76 230.985 122.81 231.365 122.86 231.785C122.95 232.475 123.05 233.265 123.19 233.965L123.73 236.695L123.74 236.705ZM84.84 192.225L85.2 192.565C83.64 194.225 83.04 196.005 83.42 197.855C84.33 202.355 90.51 206.155 93.65 207.545L95.5 208.355C101.57 210.995 107.3 213.495 112.07 218.505C115.85 222.465 118.9 226.995 121.84 231.725C121.8 231.395 121.76 231.095 121.71 230.845C121.27 228.135 120.76 225.445 120.19 222.845C118.02 212.995 114.23 205.125 108.94 199.485C105.06 195.345 100.43 192.295 95.9 190.895C93.04 190.015 89.91 190.065 87.51 191.025C86.58 191.405 85.8 191.925 85.19 192.575L84.83 192.235L84.84 192.225Z" fill="#060606"/>
<path d="M85.34 194.585C85.73 193.655 86.43 192.995 87.3 192.525C87.84 192.225 88.64 192.615 88.84 193.165C89.08 193.825 88.78 194.395 88.2 194.705C88.47 194.555 88.24 194.685 88.18 194.725C88.1 194.775 88.03 194.835 87.96 194.895C87.93 194.915 87.91 194.945 87.88 194.965C87.85 194.995 87.83 195.025 87.81 195.055C87.75 195.125 87.71 195.195 87.65 195.265C87.59 195.395 87.52 195.525 87.47 195.655C87.47 195.675 87.46 195.685 87.45 195.705C87.44 195.765 87.41 195.845 87.41 195.865C87.38 196.015 87.36 196.165 87.34 196.315C87.34 196.335 87.34 196.505 87.33 196.535C87.33 196.705 87.35 196.875 87.37 197.055C87.39 197.215 87.42 197.375 87.45 197.535C87.45 197.575 87.51 197.855 87.48 197.655C87.44 197.455 87.52 197.775 87.53 197.815C87.63 198.125 87.75 198.425 87.89 198.715C87.92 198.785 87.96 198.855 88 198.925C88.02 198.965 88.04 198.995 88.06 199.025C88.1 199.105 88.09 199.075 88 198.925C87.98 198.985 88.21 199.265 88.25 199.315C88.34 199.435 88.43 199.555 88.52 199.665C88.57 199.715 88.62 199.765 88.66 199.825C88.67 199.835 88.68 199.845 88.7 199.865C89.15 200.285 89.34 201.015 88.9 201.525C88.51 201.975 87.72 202.175 87.24 201.725C85.98 200.555 85.17 198.875 85.01 197.165C84.92 196.285 85.01 195.375 85.35 194.555L85.34 194.585Z" fill="white"/>
<path d="M420.85 32.145C435.31 27.375 448.34 23.215 458.49 20.005C469.58 16.505 481.39 21.645 485.98 32.035C496.4 55.565 511.22 96.215 517.57 118.925C519.9 127.335 515.01 136.205 506.54 139.045C506.54 139.045 487.09 145.665 461.1 154.425C436.56 162.665 406.18 172.805 380.86 181.035C358.66 188.255 340.33 193.965 333.24 195.675C304.9 202.485 294.04 188.055 291.34 169.185L247.53 184.755L235.87 188.905L222.01 193.825L197.41 202.565L183.45 207.525L174.35 210.765C173.96 210.905 173.54 210.705 173.4 210.315L159.08 170.805C158.8 170.025 159.2 169.165 159.98 168.885L167.73 166.055L175.66 163.155L182.63 160.605L206.71 151.805L207.15 151.645L274.81 126.925C274.81 126.925 259.62 97.265 285.32 82.195C298.24 74.605 316.97 70.065 338.24 61.685C365 51.125 395.19 40.655 420.85 32.165V32.145Z" fill="#AADC66"/>
<path d="M174.1 211.295C173.59 211.295 173.11 210.975 172.92 210.475L158.6 170.965C158.23 169.925 158.77 168.785 159.8 168.405L274.12 126.625C272.27 122.595 261.11 95.785 285.06 81.745C293.23 76.945 303.6 73.395 315.62 69.285C322.78 66.835 330.18 64.305 338.06 61.205C360.71 52.265 388.51 42.325 420.69 31.675C436.08 26.595 449.55 22.315 458.34 19.535C469.68 15.955 481.76 21.245 486.44 31.835C496.99 55.655 511.76 96.285 518.05 118.795C520.46 127.485 515.47 136.585 506.7 139.515C506.51 139.585 486.95 146.235 461.26 154.885C427.66 166.165 401.42 174.865 381.02 181.495C363.86 187.075 341.65 194.145 333.36 196.145C320.81 199.165 310.78 198.215 303.58 193.315C296.88 188.765 292.62 180.865 290.93 169.845L174.52 211.215C174.38 211.265 174.24 211.285 174.1 211.285V211.295ZM421 32.625C388.83 43.275 361.05 53.195 338.42 62.135C330.52 65.245 323.11 67.785 315.94 70.235C303.98 74.325 293.65 77.855 285.57 82.605C275.09 88.755 270.16 98.025 270.93 110.155C271.5 119.245 275.22 126.595 275.26 126.675L275.52 127.175L160.15 169.345C159.63 169.535 159.36 170.105 159.55 170.625L173.87 210.125C173.92 210.255 174.06 210.315 174.19 210.275L291.75 168.495L291.84 169.095C293.42 180.145 297.57 188.015 304.15 192.485C311.11 197.215 320.86 198.115 333.13 195.165C341.39 193.175 363.57 186.105 380.71 180.535C401.1 173.915 427.35 165.205 460.94 153.935C486.64 145.285 506.19 138.625 506.38 138.565C514.66 135.795 519.36 127.225 517.09 119.055C510.81 96.595 496.06 56.025 485.53 32.235C481.06 22.105 469.51 17.055 458.65 20.475C449.86 23.255 436.4 27.535 421.01 32.615L421 32.625Z" fill="#060606"/>
<path d="M279.26 102.925C279.27 103.035 279.29 103.145 279.31 103.255C279.79 106.165 282.77 108.965 285.87 107.495C288.78 106.115 288.65 102.515 289.91 100.025C291.82 96.255 296.85 94.615 300.44 92.875C303.57 91.355 307.79 88.665 305.85 84.475C303.44 79.265 297.18 83.405 293.68 85.255C289.36 87.535 284.92 90.285 282.02 94.295C280.33 96.635 278.92 100.005 279.26 102.915V102.925Z" fill="#FF6600"/>
<path d="M351.13 88.125C336.3 95.825 329.01 113.455 334.72 129.665C340.43 145.875 357.15 155.055 373.54 151.765L379.42 168.475L456.44 141.355L422.26 44.285L345.24 71.405L351.12 88.115L351.13 88.125Z" fill="#FFBF00"/>
<path d="M379.12 169.125L373.21 152.345C356.58 155.465 339.89 145.855 334.25 129.835C328.61 113.825 335.6 95.865 350.51 87.885L344.6 71.105L422.56 43.655L457.07 141.665L379.11 169.115L379.12 169.125ZM373.87 151.195L379.73 167.845L455.81 141.055L421.96 44.935L345.88 71.725L351.74 88.375L351.35 88.575C336.61 96.225 329.66 113.825 335.19 129.505C340.71 145.185 357.16 154.545 373.43 151.285L373.86 151.195H373.87Z" fill="#060606"/>
<path d="M207.15 151.625L222 193.815L197.4 202.545L182.63 160.585L206.71 151.795L207.15 151.625Z" fill="#FFBF00"/>
<path d="M197.1 203.185L182 160.285L207.45 150.975L222.64 194.105L197.1 203.175V203.185ZM183.27 160.885L197.71 201.905L221.36 193.505L206.84 152.275L183.26 160.885H183.27Z" fill="#060606"/>
<path d="M160.92 167.405C165.83 164.575 169.94 168.835 175.58 185.745C181.02 202.055 182.61 209.235 176.36 211.365C172.35 212.735 168.67 203.015 164.41 190.875C160.15 178.735 157.13 169.595 160.93 167.405H160.92Z" fill="#AADC66"/>
<path d="M175.59 211.995C171.62 211.995 168.21 203.215 163.93 191.035C159.21 177.605 156.64 169.285 160.67 166.965C162.29 166.035 163.78 165.845 165.23 166.405C168.78 167.755 172.01 173.485 176.05 185.585C181.55 202.065 183.26 209.535 176.51 211.835C176.2 211.945 175.89 211.995 175.58 211.995H175.59ZM161.17 167.835C157.57 169.905 161.28 180.475 164.87 190.705C168.23 200.275 172.41 212.165 176.19 210.885C181.76 208.985 180.8 202.975 175.1 185.895C171.22 174.275 168.07 168.545 164.87 167.335C163.72 166.895 162.5 167.055 161.16 167.835H161.17Z" fill="#060606"/>
<path d="M159.33 168.995C160.84 168.465 165.36 177.415 169.43 188.995C173.49 200.565 175.56 210.385 174.05 210.915C172.54 211.445 168.02 202.495 163.95 190.915C159.89 179.345 157.82 169.525 159.33 168.995Z" fill="#FFBF00"/>
<path d="M173.96 211.425C170.67 211.425 163.79 191.935 163.49 191.075C163.18 190.195 156 169.635 159.17 168.515C162.34 167.395 169.59 187.945 169.9 188.815C170.21 189.695 177.39 210.255 174.22 211.375C174.14 211.405 174.05 211.415 173.96 211.415V211.425ZM159.5 169.475C158.76 170.375 160.07 178.345 164.43 190.745C168.83 203.275 172.84 210.345 173.92 210.435C174.65 209.705 173.36 201.695 168.96 189.155C164.61 176.755 160.64 169.715 159.51 169.475H159.5Z" fill="#060606"/>
<path d="M404.63 136.225C405.69 142.935 401.21 147.325 395.86 149.805C391.11 151.995 386.92 150.835 382.16 151.845C377.34 152.865 375.12 158.705 370.96 161.125C366.18 163.895 361.58 163.695 356.22 163.675C350.84 163.655 348.05 167.015 343.07 167.795C336.14 168.885 326.99 163.065 329.85 155.405C333.08 146.745 341.37 147.865 348.29 144.825C355.01 141.875 357.57 134.555 366.12 134.695C369.47 134.755 372.41 135.375 375.85 134.795C381.18 133.885 385 129.775 390.26 128.325C395.86 126.785 403.26 127.415 404.64 136.225H404.63Z" fill="#060606"/>
<path d="M341.34 168.435C337.41 168.435 333.2 166.575 330.81 163.645C328.78 161.165 328.27 158.185 329.36 155.245C331.75 148.855 336.7 147.605 341.94 146.295C343.98 145.785 346.1 145.255 348.07 144.385C350.59 143.275 352.55 141.495 354.45 139.775C357.51 136.995 360.65 134.095 366.11 134.215C367.21 134.235 368.28 134.315 369.31 134.385C371.46 134.545 373.49 134.695 375.75 134.315C378.53 133.845 380.87 132.485 383.34 131.045C385.45 129.815 387.63 128.545 390.12 127.865C392.56 127.195 397.18 126.425 400.83 128.775C403.15 130.275 404.6 132.755 405.13 136.165C406.4 144.215 400 148.455 396.07 150.275C393.09 151.655 390.29 151.745 387.58 151.845C385.86 151.905 384.09 151.965 382.26 152.355C379.63 152.915 377.81 155.005 375.88 157.225C374.47 158.845 373.02 160.515 371.2 161.575C366.59 164.245 362.22 164.225 357.16 164.195H356.21C356.21 164.195 356.18 164.195 356.17 164.195C353.29 164.195 351.2 165.195 348.99 166.245C347.23 167.085 345.4 167.955 343.14 168.315C342.56 168.405 341.95 168.455 341.35 168.455L341.34 168.435ZM365.87 135.205C360.97 135.205 358.13 137.785 355.13 140.505C353.17 142.285 351.15 144.115 348.48 145.295C346.43 146.195 344.28 146.735 342.19 147.255C337.21 148.505 332.51 149.685 330.3 155.585C329.06 158.895 330.32 161.445 331.58 162.995C334.13 166.125 338.92 167.925 342.97 167.295C345.09 166.965 346.85 166.125 348.55 165.315C350.77 164.255 353.06 163.165 356.17 163.165H357.16C362.08 163.195 366.32 163.215 370.7 160.675C372.38 159.705 373.77 158.095 375.13 156.535C377.08 154.295 379.09 151.965 382.05 151.345C383.96 150.945 385.78 150.875 387.54 150.815C390.27 150.715 392.85 150.625 395.65 149.335C399.32 147.635 405.3 143.685 404.14 136.285C403.65 133.175 402.35 130.915 400.28 129.575C397.86 128.015 394.25 127.725 390.38 128.785C388.01 129.435 385.89 130.675 383.84 131.865C381.4 133.285 378.88 134.755 375.92 135.265C373.54 135.665 371.45 135.515 369.24 135.345C368.22 135.265 367.17 135.195 366.1 135.175C366.02 135.175 365.94 135.175 365.86 135.175L365.87 135.205Z" fill="#060606"/>
<path d="M348.28 144.825C341.36 147.865 333.07 146.745 329.84 155.405C328.92 157.875 329.24 160.155 330.34 162.085C330.31 161.125 330.49 160.125 330.87 159.085C334.1 150.425 342.39 151.545 349.31 148.505C356.02 145.555 358.59 138.235 367.15 138.385C370.49 138.445 373.44 139.065 376.87 138.475C382.2 137.575 386.02 133.445 391.29 132.005C396.05 130.705 402.11 130.955 404.67 136.485C404.67 136.395 404.65 136.305 404.65 136.225C403.27 127.415 395.86 126.785 390.27 128.325C385 129.765 381.19 133.895 375.85 134.795C372.42 135.385 369.48 134.765 366.13 134.705C357.57 134.555 355 141.885 348.29 144.825H348.28Z" fill="white"/>
<path d="M330.9 164.095L329.9 162.345C328.64 160.135 328.46 157.675 329.37 155.235C331.75 148.835 336.94 147.535 341.95 146.275C343.99 145.765 346.11 145.235 348.07 144.365C350.59 143.255 352.55 141.475 354.44 139.755C357.5 136.975 360.67 134.105 366.11 134.195C367.19 134.215 368.24 134.295 369.25 134.375C371.41 134.535 373.46 134.695 375.73 134.305C378.51 133.835 380.85 132.475 383.32 131.035C385.43 129.805 387.61 128.535 390.1 127.855C392.54 127.185 397.17 126.415 400.81 128.775C403.13 130.275 404.58 132.765 405.11 136.165C405.13 136.335 405.15 136.435 405.14 136.555L404.96 138.375L404.19 136.715C401.26 130.365 393.66 131.885 391.4 132.505C389.03 133.155 386.91 134.395 384.86 135.585C382.42 137.005 379.9 138.485 376.94 138.975C374.55 139.385 372.44 139.225 370.22 139.065C369.22 138.985 368.19 138.915 367.13 138.895C362.09 138.795 359.2 141.425 356.15 144.195C354.19 145.975 352.17 147.805 349.51 148.975C347.47 149.875 345.31 150.415 343.23 150.935C338.25 152.185 333.54 153.365 331.34 159.275C330.98 160.255 330.81 161.195 330.84 162.085L330.91 164.105L330.9 164.095ZM348.48 145.285C346.44 146.185 344.28 146.725 342.2 147.245C337.22 148.495 332.51 149.675 330.31 155.585C329.74 157.115 329.65 158.645 330.05 160.105C330.14 159.715 330.26 159.325 330.41 158.925C332.79 152.525 337.98 151.225 342.99 149.965C345.03 149.455 347.15 148.925 349.11 148.055C351.63 146.945 353.59 145.165 355.48 143.445C358.54 140.665 361.74 137.805 367.15 137.885C368.23 137.905 369.28 137.985 370.29 138.065C372.45 138.225 374.5 138.385 376.77 137.995C379.55 137.525 381.89 136.165 384.36 134.725C386.47 133.495 388.65 132.225 391.14 131.545C393.26 130.965 399.71 129.665 403.52 133.875C402.85 132.005 401.76 130.575 400.27 129.615C397.85 128.055 394.24 127.765 390.37 128.825C388 129.475 385.88 130.715 383.83 131.905C381.39 133.325 378.87 134.795 375.91 135.295C373.52 135.705 371.41 135.545 369.18 135.385C368.18 135.305 367.15 135.235 366.1 135.215C361.06 135.125 358.17 137.745 355.12 140.515C353.17 142.285 351.14 144.125 348.48 145.295V145.285Z" fill="#060606"/>
<path d="M384.78 83.445C385.83 90.155 381.36 94.545 376.01 97.025C371.26 99.215 367.07 98.055 362.31 99.065C357.49 100.085 355.27 105.925 351.11 108.345C346.33 111.115 341.73 110.915 336.37 110.895C330.99 110.875 328.2 114.235 323.22 115.015C316.29 116.105 307.14 110.285 310 102.625C313.23 93.965 321.52 95.085 328.44 92.045C335.16 89.095 337.72 81.775 346.27 81.915C349.62 81.975 352.56 82.595 356 82.015C361.33 81.105 365.15 76.995 370.41 75.545C376.01 74.005 383.41 74.635 384.79 83.445H384.78Z" fill="#060606"/>
<path d="M321.49 115.645C317.56 115.645 313.35 113.785 310.96 110.845C308.93 108.365 308.42 105.385 309.51 102.445C311.9 96.055 316.85 94.805 322.09 93.495C324.13 92.985 326.25 92.455 328.22 91.585C330.74 90.475 332.7 88.695 334.6 86.975C337.61 84.245 340.72 81.415 346.01 81.415C346.09 81.415 346.18 81.415 346.26 81.415C347.36 81.435 348.43 81.515 349.46 81.585C351.61 81.745 353.64 81.895 355.89 81.515C358.67 81.045 361.01 79.685 363.48 78.245C365.59 77.015 367.76 75.745 370.26 75.065C372.7 74.395 377.32 73.625 380.97 75.975C383.29 77.475 384.74 79.955 385.27 83.365C386.53 91.415 380.14 95.665 376.21 97.475C373.23 98.855 370.43 98.945 367.72 99.045C366 99.105 364.23 99.165 362.4 99.555C359.77 100.115 357.95 102.205 356.02 104.425C354.61 106.045 353.16 107.715 351.34 108.775C346.73 111.445 342.36 111.425 337.29 111.395H336.34C336.34 111.395 336.31 111.395 336.3 111.395C333.42 111.395 331.33 112.395 329.12 113.445C327.36 114.285 325.53 115.155 323.27 115.505C322.69 115.595 322.08 115.645 321.48 115.645H321.49ZM346.01 82.425C341.11 82.425 338.27 85.005 335.27 87.725C333.31 89.505 331.29 91.335 328.62 92.515C326.58 93.415 324.42 93.955 322.33 94.475C317.35 95.725 312.64 96.905 310.44 102.805C309.2 106.115 310.46 108.665 311.72 110.215C314.27 113.345 319.06 115.155 323.11 114.515C325.23 114.185 326.99 113.345 328.69 112.535C330.91 111.475 333.2 110.385 336.31 110.385H337.3C342.21 110.415 346.47 110.435 350.84 107.895C352.51 106.925 353.91 105.315 355.27 103.755C357.22 101.515 359.23 99.185 362.19 98.565C364.1 98.165 365.92 98.095 367.68 98.035C370.41 97.935 372.99 97.845 375.79 96.555C379.46 94.855 385.44 90.905 384.28 83.505C383.79 80.395 382.49 78.135 380.42 76.795C378 75.235 374.39 74.945 370.52 76.005C368.15 76.655 366.03 77.895 363.98 79.085C361.54 80.505 359.02 81.975 356.06 82.485C353.68 82.885 351.59 82.735 349.38 82.565C348.36 82.485 347.31 82.415 346.24 82.395C346.16 82.395 346.08 82.395 346 82.395L346.01 82.425Z" fill="#060606"/>
<path d="M328.42 92.045C321.5 95.085 313.21 93.965 309.98 102.625C309.06 105.095 309.38 107.375 310.48 109.305C310.45 108.345 310.63 107.345 311.01 106.305C314.24 97.645 322.53 98.765 329.45 95.725C336.16 92.775 338.73 85.455 347.29 85.605C350.64 85.665 353.58 86.285 357.01 85.695C362.34 84.795 366.16 80.665 371.43 79.225C376.19 77.925 382.25 78.175 384.81 83.705C384.81 83.615 384.79 83.525 384.79 83.435C383.41 74.625 376 73.995 370.4 75.535C365.13 76.975 361.32 81.105 355.98 82.005C352.55 82.595 349.61 81.975 346.26 81.915C337.7 81.765 335.13 89.095 328.42 92.035V92.045Z" fill="white"/>
<path d="M311.04 111.315L310.04 109.565C308.78 107.355 308.6 104.895 309.51 102.455C311.89 96.055 317.08 94.755 322.09 93.495C324.13 92.985 326.25 92.455 328.22 91.585C330.74 90.475 332.7 88.695 334.59 86.975C337.65 84.195 340.83 81.325 346.26 81.415C347.34 81.435 348.39 81.515 349.4 81.595C351.57 81.755 353.61 81.915 355.88 81.525C358.66 81.055 360.99 79.695 363.46 78.255C365.57 77.025 367.75 75.755 370.24 75.075C372.68 74.405 377.31 73.635 380.95 75.995C383.27 77.495 384.72 79.985 385.25 83.385C385.27 83.555 385.29 83.655 385.28 83.785L385.08 85.565L384.33 83.935C381.4 77.585 373.8 79.105 371.54 79.725C369.17 80.375 367.05 81.615 365 82.805C362.56 84.225 360.04 85.705 357.08 86.195C354.69 86.605 352.58 86.445 350.35 86.285C349.35 86.205 348.32 86.135 347.26 86.115C342.22 86.035 339.33 88.645 336.28 91.415C334.32 93.185 332.3 95.025 329.64 96.195C327.6 97.095 325.44 97.635 323.36 98.155C318.38 99.405 313.67 100.585 311.47 106.495C311.11 107.465 310.94 108.415 310.97 109.305L311.03 111.315H311.04ZM328.62 92.505C326.58 93.405 324.42 93.945 322.34 94.465C317.36 95.715 312.65 96.895 310.45 102.805C309.88 104.335 309.79 105.865 310.19 107.325C310.28 106.935 310.4 106.545 310.55 106.145C312.93 99.745 318.12 98.445 323.13 97.185C325.17 96.675 327.29 96.145 329.25 95.275C331.77 94.165 333.73 92.385 335.62 90.665C338.68 87.885 341.84 85.005 347.29 85.105C348.37 85.125 349.42 85.205 350.43 85.285C352.59 85.445 354.64 85.605 356.91 85.215C359.69 84.745 362.02 83.385 364.5 81.945C366.61 80.715 368.79 79.445 371.28 78.765C373.4 78.185 379.85 76.885 383.66 81.095C382.99 79.225 381.9 77.795 380.41 76.835C377.99 75.265 374.38 74.985 370.51 76.045C368.14 76.695 366.02 77.935 363.97 79.125C361.53 80.545 359.01 82.025 356.05 82.515C353.66 82.925 351.55 82.765 349.32 82.595C348.32 82.515 347.29 82.445 346.23 82.425C341.19 82.325 338.3 84.955 335.25 87.725C333.3 89.505 331.27 91.335 328.61 92.505H328.62Z" fill="#060606"/>
</g>
</g>
<defs>
<clipPath id="clip0_197_252">
<rect width="359" height="548" rx="8" fill="white"/>
</clipPath>
<clipPath id="clip1_197_252">
<rect width="478.65" height="511.17" fill="white" transform="translate(40 18.415)"/>
</clipPath>
</defs>
</svg>
