<svg width="359" height="219" viewBox="0 0 359 219" fill="none" xmlns="http://www.w3.org/2000/svg">
<g clip-path="url(#clip0_197_2139)">
<rect width="359" height="219" rx="8" fill="#E5F4D0"/>
<g clip-path="url(#clip1_197_2139)">
<path d="M156.447 40.2603C149.857 37.84 142.447 38.0619 135.195 40.4189C125.965 43.4205 116.149 44.4933 106.623 43.0665C98.652 41.8774 90.8504 43.04 84.4558 46.9137C68.6411 56.4947 66.2504 79.7575 81.7001 97.2178C114.435 134.21 156.722 111.571 167.771 89.1747C178.09 68.2635 173.642 46.5807 156.452 40.2603H156.447ZM147.09 90.1629C139.273 92.467 136.417 86.9816 121.163 89.7137C113.784 91.0349 106.512 97.6565 98.853 95.1621C92.6064 93.1276 88.1952 87.6686 85.7887 82.4315C82.8056 75.9473 82.1391 66.324 89.0415 61.0288C93.8018 57.3772 100.424 58.7406 105.978 59.1845C115.376 59.9349 125.304 58.8833 134.079 55.3426C137.977 53.7678 142.341 50.856 147.249 51.3052C167.967 53.1971 162.355 85.671 147.09 90.1629Z" fill="#FFBF00"/>
<path d="M121.343 117.109C109.955 117.109 95.3568 113.061 81.4991 97.3923C73.4542 88.308 69.7623 77.0571 71.365 66.5249C72.6608 58.0061 77.2571 50.9564 84.3076 46.6865C90.5648 42.8974 98.287 41.5551 106.649 42.8023C115.768 44.1657 125.606 43.2568 135.105 40.1653C142.69 37.6974 150.1 37.6445 156.532 40.012C163.365 42.5222 168.443 47.5214 171.22 54.4548C175.192 64.3899 174.018 77.0835 167.999 89.2857C162.397 100.637 147.434 114.049 127.811 116.671C125.807 116.94 123.638 117.104 121.337 117.104L121.343 117.109ZM100.694 42.8816C94.7274 42.8816 89.2425 44.3243 84.588 47.1409C77.675 51.3316 73.1633 58.2439 71.8939 66.6094C70.3177 76.9884 73.962 88.0808 81.8958 97.0435C98.4034 115.698 115.942 117.733 127.748 116.153C147.18 113.553 161.99 100.288 167.528 89.0585C173.484 76.9884 174.652 64.448 170.733 54.6557C168.015 47.8597 163.043 42.9714 156.357 40.5088C150.037 38.1835 142.748 38.2417 135.274 40.6726C125.701 43.7852 115.778 44.7047 106.58 43.3307C104.576 43.0295 102.614 42.8816 100.699 42.8816H100.694ZM102.402 95.976C101.201 95.976 99.9901 95.8069 98.7736 95.4106C91.0196 92.8845 86.9417 85.5653 85.5506 82.5373C83.9162 78.9754 83.1493 74.864 83.4455 71.2599C83.8105 66.8737 85.6881 63.2643 88.8775 60.8175C93.0348 57.6256 98.6149 58.1911 103.539 58.6878C104.375 58.7724 105.195 58.8569 105.993 58.9203C116.101 59.7236 125.775 58.4024 133.973 55.0996C134.888 54.7296 135.824 54.291 136.814 53.826C139.924 52.3569 143.451 50.6975 147.27 51.0463C155.114 51.7597 160.081 56.965 160.901 65.32C161.853 75.0014 156.442 87.695 147.164 90.4219C143.589 91.4735 140.971 90.9133 137.935 90.2686C134.206 89.4759 129.562 88.4824 121.21 89.978C118.545 90.4536 115.826 91.6585 113.197 92.8264C109.685 94.3853 106.083 95.9813 102.402 95.9813V95.976ZM97.8004 58.8305C94.7009 58.8305 91.6702 59.3431 89.2001 61.235C84.4663 64.8655 81.6525 72.7924 86.0266 82.3153C87.3912 85.28 91.3793 92.4459 98.9323 94.9085C103.698 96.4569 108.416 94.3642 112.98 92.3349C115.636 91.1564 118.386 89.9357 121.11 89.4495C129.567 87.9381 134.264 88.9369 138.041 89.7455C141.13 90.406 143.568 90.9239 147.011 89.9093C156.045 87.2511 161.303 74.8376 160.372 65.3623C159.578 57.2821 154.786 52.2564 147.223 51.5642C143.547 51.226 140.241 52.7902 137.041 54.2963C136.047 54.7666 135.105 55.2105 134.174 55.5858C125.902 58.9203 116.138 60.2521 105.951 59.4435C105.147 59.3801 104.322 59.2955 103.486 59.211C101.646 59.026 99.7098 58.8305 97.7951 58.8305H97.8004Z" fill="#060606"/>
<path d="M116.895 114.264L139.505 111.198C141.051 110.988 142.48 112.074 142.69 113.619L144.504 126.973L116.286 130.8L114.471 117.446C114.262 115.901 115.349 114.474 116.895 114.264Z" fill="#FFBF00"/>
<path d="M116.064 131.098L114.213 117.484C114.102 116.665 114.319 115.851 114.816 115.196C115.318 114.541 116.043 114.118 116.863 114.007L139.474 110.942C140.294 110.831 141.103 111.042 141.764 111.544C142.42 112.047 142.843 112.77 142.954 113.59L144.806 127.203L116.064 131.103V131.098ZM139.892 111.439C139.775 111.439 139.659 111.444 139.543 111.46L116.931 114.525C116.254 114.615 115.651 114.969 115.234 115.513C114.821 116.058 114.641 116.734 114.731 117.41L116.508 130.5L144.203 126.743L142.425 113.653C142.335 112.977 141.981 112.374 141.436 111.957C140.987 111.613 140.447 111.433 139.887 111.433L139.892 111.439Z" fill="#060606"/>
<path d="M164.053 245.488C158.409 246.968 151.925 248.305 144.705 249.187C139.014 249.885 133.719 250.191 128.912 250.255C128.436 250.318 125.659 250.651 123.178 248.685C121.618 247.454 120.539 245.61 120.333 243.469L110.69 143.754C109.934 135.922 115.503 128.894 123.305 127.837L137.073 125.971C144.89 124.909 152.147 130.226 153.485 137.994L170.511 236.684C171.241 240.917 168.311 244.912 164.048 245.488H164.053Z" fill="#FF6600"/>
<path d="M127.97 250.577C126.769 250.577 124.812 250.313 123.019 248.891C121.327 247.554 120.285 245.636 120.079 243.491L110.436 143.775C109.664 135.769 115.302 128.651 123.279 127.573L137.046 125.707C145.044 124.624 152.385 129.998 153.755 137.946L170.781 236.636C171.146 238.756 170.649 240.88 169.374 242.613C168.105 244.341 166.237 245.456 164.111 245.747C157.764 247.406 151.248 248.654 144.742 249.446C139.511 250.086 134.19 250.445 128.922 250.514C128.726 250.54 128.399 250.572 127.97 250.572V250.577ZM139.088 126.098C138.437 126.098 137.776 126.141 137.11 126.23L123.342 128.096C115.646 129.137 110.209 136.007 110.955 143.728L120.597 243.443C120.793 245.441 121.766 247.232 123.342 248.479C125.611 250.276 128.15 250.096 128.88 249.996C134.158 249.922 139.464 249.563 144.673 248.928C151.163 248.136 157.658 246.894 163.984 245.24H164.016C166.005 244.965 167.755 243.924 168.94 242.307C170.125 240.69 170.59 238.708 170.252 236.731L153.226 138.041C152.02 131.034 146.001 126.104 139.088 126.104V126.098Z" fill="#060606"/>
<path d="M119.635 140.935L119.109 140.994L130.739 244.753L131.265 244.694L119.635 140.935Z" fill="#060606"/>
<path d="M112.536 81.9507C115.382 84.0698 119.544 85.4226 125.251 84.8889C131.016 84.3552 135.131 81.7498 137.607 78.5791C141.754 73.2522 141.304 66.3294 136.3 64.8814C128.314 62.5667 124.109 70.7684 124.109 70.7684C124.109 70.7684 114.006 63.0212 108.611 70.0286C106.702 72.5071 107.675 78.3518 112.536 81.9559V81.9507Z" fill="#FF6600"/>
<path d="M122.855 85.2641C118.719 85.2641 115.133 84.2072 112.377 82.1568C109.701 80.175 107.929 77.3372 107.517 74.3672C107.263 72.5599 107.585 70.9164 108.4 69.8542C113.414 63.3436 122.422 69.2359 124.024 70.3668C124.855 68.9505 129.102 62.5033 136.375 64.6119C138.279 65.1615 139.67 66.5355 140.299 68.4802C141.283 71.5083 140.304 75.5299 137.813 78.727C134.962 82.3787 130.509 84.6564 125.273 85.1426C124.447 85.2218 123.638 85.2588 122.85 85.2588L122.855 85.2641ZM114.567 67.3757C112.489 67.3757 110.431 68.0944 108.823 70.1818C108.093 71.1278 107.808 72.6286 108.04 74.2985C108.437 77.1258 110.13 79.8368 112.695 81.734C115.863 84.0962 120.195 85.095 125.225 84.6247C130.313 84.1543 134.634 81.9507 137.395 78.4153C139.781 75.3502 140.722 71.5188 139.797 68.6546C139.215 66.8578 137.977 65.6371 136.226 65.1298C133.005 64.1944 130.027 64.8761 127.378 67.1538C125.389 68.8607 124.352 70.8636 124.342 70.8847L124.199 71.1648L123.945 70.9745C123.876 70.9217 119.174 67.3757 114.562 67.3757H114.567Z" fill="#060606"/>
<path d="M123.12 77.5485C118.756 77.5485 115.218 74.568 113.43 72.692L113.811 72.3273C115.673 74.2774 119.491 77.4745 124.098 76.9672C128.626 76.4705 131.672 72.6497 133.09 70.4143L133.534 70.6944C132.069 73.009 128.901 76.9725 124.156 77.4904C123.807 77.5274 123.458 77.5485 123.114 77.5485H123.12Z" fill="#060606"/>
<path d="M123.109 55.2264C116.191 54.5658 115.149 65.3094 122.078 65.97C128.996 66.6306 130.038 55.887 123.109 55.2264Z" fill="#AADC66"/>
<path d="M122.681 66.2606C122.474 66.2606 122.268 66.25 122.051 66.2289C120.004 66.0334 118.434 64.9606 117.635 63.2114C116.752 61.2772 116.99 58.8146 118.222 57.0812C119.338 55.5117 121.083 54.756 123.13 54.9568C125.177 55.1524 126.748 56.2251 127.547 57.9743C128.43 59.9085 128.192 62.3711 126.96 64.1045C125.96 65.5102 124.453 66.2606 122.681 66.2606ZM122.512 55.4589C120.909 55.4589 119.555 56.1353 118.656 57.393C117.524 58.9784 117.312 61.2297 118.116 62.9947C118.83 64.5643 120.248 65.526 122.099 65.7057C123.95 65.8801 125.521 65.2037 126.526 63.798C127.658 62.2126 127.869 59.9614 127.066 58.1963C126.351 56.6268 124.934 55.665 123.083 55.4853C122.887 55.4694 122.697 55.4589 122.512 55.4589Z" fill="#060606"/>
<path d="M112.757 66.3302C119.77 59.3237 119.77 47.9639 112.757 40.9574C105.745 33.9509 94.3753 33.9509 87.3627 40.9574C80.3501 47.9639 80.3501 59.3237 87.3627 66.3302C94.3753 73.3367 105.745 73.3367 112.757 66.3302Z" fill="white"/>
<path d="M100.07 71.8464C99.9692 71.8464 99.8634 71.8464 99.7629 71.8464C94.8968 71.7672 90.3534 69.796 86.9683 66.3029C83.5832 62.8098 81.7637 58.2069 81.8431 53.345C81.9224 48.4832 83.8953 43.9437 87.3914 40.5616C90.8876 37.1794 95.4892 35.3668 100.361 35.4408C105.227 35.52 109.77 37.4912 113.155 40.9843C116.54 44.4775 118.36 49.0804 118.28 53.9422C118.201 58.804 116.228 63.3435 112.732 66.7257C109.31 70.0338 104.819 71.8464 100.07 71.8464ZM100.054 35.9587C95.4363 35.9587 91.0833 37.7184 87.7564 40.9315C84.3607 44.2132 82.446 48.6259 82.372 53.345C82.2926 58.0642 84.0592 62.535 87.3491 65.9277C90.639 69.3204 95.0502 71.2334 99.7735 71.3127C104.497 71.3814 108.971 69.6269 112.367 66.3399C115.763 63.0581 117.677 58.6455 117.757 53.9263C117.836 49.2072 116.069 44.7364 112.78 41.3437C109.495 37.951 105.079 36.0379 100.355 35.9587C100.255 35.9587 100.154 35.9587 100.059 35.9587H100.054Z" fill="#060606"/>
<path d="M100.297 39.4571C92.7547 39.3356 86.5399 45.3442 86.4182 52.88C86.4182 53.065 86.4341 53.2447 86.4394 53.4244L96.0604 53.6252L87.6242 58.6773C89.7293 63.3541 94.3785 66.657 99.8528 66.7468C107.395 66.8684 113.61 60.8598 113.732 53.3239C113.853 45.7881 107.839 39.5787 100.297 39.4571Z" fill="#060606"/>
<path d="M100.075 67.0111C99.9956 67.0111 99.9215 67.0111 99.8422 67.0111C94.4789 66.9212 89.5811 63.6976 87.3755 58.7882L87.2803 58.5715L95.1295 53.8682L86.1749 53.6833V53.4296C86.1696 53.3609 86.1643 53.2922 86.159 53.2235C86.1537 53.1073 86.1484 52.991 86.1484 52.8747C86.2754 45.2068 92.6277 39.0608 100.297 39.1929C107.972 39.3197 114.118 45.6612 113.991 53.3292C113.864 60.9232 107.644 67.0111 100.075 67.0111ZM87.9573 58.7829C90.1259 63.3858 94.7645 66.398 99.8528 66.4826C107.247 66.6094 113.346 60.7012 113.467 53.3239C113.589 45.9466 107.681 39.8429 100.297 39.7213C92.9239 39.5839 86.8043 45.5027 86.6826 52.88C86.6826 52.9751 86.6826 53.0703 86.6879 53.1654L96.9807 53.3821L87.9626 58.7882L87.9573 58.7829Z" fill="#060606"/>
<path d="M125.331 51.6962C127.219 61.4252 136.65 67.7773 146.382 65.8907C156.119 64.0041 162.477 54.5816 160.589 44.858C158.7 35.129 149.27 28.7769 139.538 30.6635C129.8 32.5554 123.443 41.9726 125.331 51.6962Z" fill="white"/>
<path d="M142.923 66.4879C139.326 66.4879 135.814 65.4204 132.767 63.37C128.732 60.6484 125.997 56.5211 125.072 51.7491C124.146 46.9771 125.13 42.1259 127.854 38.0937C130.578 34.0615 134.709 31.3294 139.485 30.4046C144.261 29.4798 149.116 30.4627 153.152 33.1843C157.188 35.9059 159.922 40.0332 160.848 44.8052C161.773 49.5772 160.79 54.4284 158.066 58.4606C155.342 62.4927 151.211 65.2249 146.435 66.1497C145.266 66.3769 144.086 66.4879 142.923 66.4879ZM142.997 30.5896C141.865 30.5896 140.722 30.7005 139.585 30.9172C134.947 31.8156 130.932 34.4685 128.293 38.3844C125.648 42.3003 124.691 47.0088 125.59 51.6434C126.489 56.278 129.144 60.2891 133.064 62.9261C136.983 65.5684 141.696 66.5249 146.334 65.6265C150.973 64.7281 154.982 62.0753 157.627 58.1594C160.271 54.2435 161.229 49.5349 160.329 44.9003C159.43 40.2657 156.775 36.2547 152.856 33.6176C149.899 31.6253 146.488 30.5896 142.997 30.5896Z" fill="#060606"/>
<path d="M140.252 34.3522C147.656 32.9148 154.823 37.7502 156.262 45.1486C156.299 45.3283 156.31 45.508 156.341 45.6876L146.9 47.5637L156.087 51.0674C154.834 56.0402 150.83 60.0988 145.456 61.1451C138.051 62.5825 130.884 57.7471 129.446 50.3487C128.007 42.9502 132.847 35.7896 140.252 34.3522Z" fill="#060606"/>
<path d="M142.849 61.6578C136.317 61.6578 130.477 57.0337 129.187 50.3963C128.478 46.7499 129.234 43.0454 131.313 39.9644C133.392 36.8835 136.549 34.7961 140.199 34.088C143.848 33.3798 147.556 34.1355 150.64 36.2124C153.723 38.2892 155.813 41.4441 156.521 45.0905C156.542 45.2068 156.558 45.323 156.574 45.434C156.585 45.5027 156.59 45.5714 156.601 45.6401L156.638 45.8885L147.852 47.6324L156.405 50.893L156.347 51.1203C155.03 56.3362 150.777 60.3683 145.509 61.3935C144.615 61.5679 143.727 61.6525 142.849 61.6525V61.6578ZM140.305 34.6111C136.793 35.2929 133.757 37.301 131.757 40.2604C129.758 43.225 129.028 46.7869 129.71 50.2959C131.117 57.541 138.162 62.2919 145.414 60.8809C150.407 59.9138 154.448 56.1353 155.781 51.2259L145.953 47.4792L156.051 45.471C156.04 45.3759 156.029 45.286 156.008 45.1909C155.326 41.6819 153.316 38.6486 150.354 36.651C147.387 34.6534 143.822 33.9294 140.31 34.6059L140.305 34.6111Z" fill="#060606"/>
<path d="M287.661 56.5369C287.555 55.7178 287.259 54.8776 286.736 54.0373C285.36 51.8442 282.975 50.2165 280.553 49.3974C276.115 47.8966 271.064 47.8913 266.504 48.7686C258.756 50.2641 251.896 54.608 246.072 59.787C244.269 61.3882 242.513 63.0476 240.799 64.7492C240.27 65.2777 239.477 66.1655 238.726 66.8683C243.846 64.7439 249.05 62.6724 254.524 61.663C261.078 60.4581 266.928 62.0118 273.275 63.3752C278.352 64.4691 288.682 64.4638 287.661 56.5369Z" fill="#FFBF00"/>
<path d="M237.467 67.6769L238.546 66.6729C239.017 66.2342 239.503 65.7216 239.932 65.2672C240.185 65.0029 240.418 64.7545 240.614 64.559C242.343 62.8362 244.121 61.161 245.898 59.5862C252.679 53.5618 259.592 49.8308 266.457 48.5097C271.508 47.532 276.543 47.7593 280.643 49.1438C283.345 50.0581 285.646 51.7861 286.968 53.8947C287.492 54.7349 287.82 55.6122 287.931 56.5C288.222 58.7407 287.651 60.5321 286.239 61.8322C283.039 64.7704 276.554 64.3476 273.227 63.6342C272.64 63.5074 272.053 63.3806 271.471 63.2537C265.817 62.0118 260.475 60.8387 254.583 61.9273C249.182 62.9208 244.052 64.9501 238.837 67.1168L237.472 67.6822L237.467 67.6769ZM272.576 48.441C270.614 48.441 268.583 48.6365 266.552 49.0276C259.787 50.3329 252.954 54.0215 246.247 59.9826C244.48 61.5521 242.714 63.2167 240.989 64.9342C240.794 65.1245 240.566 65.3676 240.318 65.6318C240.17 65.785 240.016 65.9489 239.863 66.1127C244.681 64.131 249.452 62.3289 254.482 61.4041C260.48 60.2996 265.875 61.4834 271.582 62.7358C272.164 62.8627 272.751 62.9895 273.338 63.1163C276.342 63.761 282.832 64.2419 285.879 61.4411C287.159 60.2679 287.672 58.6244 287.407 56.5687C287.302 55.7549 287.005 54.9516 286.519 54.1801C285.281 52.2089 283.023 50.5125 280.473 49.6511C278.104 48.8479 275.412 48.4463 272.582 48.4463L272.576 48.441Z" fill="#060606"/>
<path d="M278.976 60.6748C279.003 61.2561 279.569 61.6525 280.119 61.6208C281.552 61.5415 282.938 60.9866 283.879 59.8769C284.768 58.8358 285.186 57.4618 285.339 56.1195C285.408 55.5382 285.059 55.0361 284.482 54.9093C283.948 54.7931 283.335 55.2211 283.271 55.7654C283.234 56.0666 283.192 56.3626 283.128 56.6585C283.097 56.8065 283.06 56.9545 283.017 57.1024C283.017 57.113 283.017 57.113 283.017 57.1236C282.996 57.1817 282.98 57.2398 282.959 57.298C282.869 57.5411 282.763 57.7789 282.642 58.0061C282.61 58.0589 282.573 58.1118 282.547 58.1699C282.478 58.265 282.409 58.3602 282.335 58.4553C282.256 58.5504 282.176 58.6403 282.086 58.7301C282.06 58.7565 282.033 58.7829 282.007 58.8094C281.986 58.8252 281.991 58.8252 281.991 58.8252C281.97 58.8411 281.944 58.8569 281.933 58.8675C281.832 58.9415 281.732 59.0155 281.626 59.0789C281.573 59.1106 281.52 59.1423 281.462 59.174C281.198 59.2586 280.954 59.3748 280.685 59.4435C280.674 59.4435 280.685 59.4435 280.664 59.4435C280.574 59.4594 280.489 59.4752 280.399 59.4858C280.246 59.5069 280.087 59.5175 279.934 59.5281C279.347 59.5598 278.96 60.1199 278.987 60.6695L278.976 60.6748Z" fill="white"/>
<path d="M191.128 37.3117C191.525 36.5877 192.107 35.9113 192.9 35.3194C194.973 33.7763 197.792 33.121 200.347 33.232C205.023 33.4381 209.741 35.2613 213.671 37.7345C220.351 41.9357 225.169 48.4675 228.718 55.4009C229.819 57.5465 230.855 59.729 231.834 61.9327C232.135 62.6197 232.548 63.7347 232.997 64.6543C228.999 60.8176 224.894 57.0074 220.161 54.085C214.49 50.5866 208.471 49.9208 202.061 48.8956C196.93 48.0764 187.304 44.3297 191.133 37.3117H191.128Z" fill="#FFBF00"/>
<path d="M233.875 65.8697L232.812 64.8498C228.734 60.9444 224.693 57.1977 220.018 54.3123C214.919 51.1679 209.513 50.3277 203.796 49.4346C203.209 49.3447 202.616 49.2496 202.019 49.1545C198.66 48.6155 192.461 46.6654 190.546 42.7654C189.7 41.0426 189.816 39.1666 190.901 37.1848C191.329 36.3974 191.948 35.6999 192.747 35.108C194.741 33.623 197.507 32.8462 200.363 32.973C204.684 33.1633 209.46 34.7751 213.813 37.5125C219.727 41.2329 224.826 47.2097 228.956 55.2793C230.035 57.3879 231.088 59.5916 232.077 61.827C232.188 62.0806 232.315 62.3924 232.458 62.7359C232.696 63.3119 232.96 63.9672 233.241 64.5433L233.881 65.8697H233.875ZM199.781 33.4856C197.274 33.4856 194.794 34.236 193.053 35.5308C192.318 36.0751 191.752 36.7198 191.356 37.4385C190.361 39.2617 190.245 40.9739 191.012 42.5382C192.837 46.2532 199.057 48.1504 202.093 48.6366C202.685 48.7317 203.277 48.8216 203.865 48.9167C209.64 49.8151 215.093 50.6659 220.287 53.8684C224.635 56.5476 228.433 59.9562 232.204 63.5498C232.119 63.3384 232.035 63.1376 231.955 62.9367C231.818 62.6038 231.691 62.292 231.585 62.0436C230.601 59.8188 229.554 57.6257 228.48 55.5277C224.392 47.5427 219.357 41.6345 213.528 37.967C209.249 35.2771 204.563 33.6917 200.337 33.5068C200.151 33.4962 199.972 33.4962 199.787 33.4962L199.781 33.4856Z" fill="#060606"/>
<path d="M194.778 39.2938C194.778 39.2195 194.793 39.0868 194.778 39.2938V39.2938Z" fill="white"/>
<path d="M194.048 37.132C194.587 37.2482 195.026 37.7661 194.905 38.3421C194.852 38.6064 194.809 38.8706 194.783 39.1401C194.778 39.2141 194.778 39.2828 194.767 39.3568C194.767 39.3251 194.767 39.3198 194.767 39.2987C194.767 39.4149 194.767 39.5365 194.778 39.6527C194.788 39.769 194.799 39.88 194.815 39.9962C194.82 40.0438 194.83 40.0861 194.836 40.1283C194.894 40.3397 194.957 40.5458 195.047 40.7466C195.063 40.7836 195.084 40.8259 195.1 40.8629C195.153 40.9527 195.201 41.0426 195.259 41.1271C195.381 41.3174 195.518 41.5023 195.666 41.6767C195.698 41.7137 195.724 41.7454 195.756 41.7824C195.841 41.8723 195.925 41.9621 196.015 42.0467C196.211 42.2369 196.412 42.4113 196.618 42.5857C197.036 42.9398 197.121 43.6479 196.735 44.0601C196.343 44.4776 195.708 44.5568 195.259 44.1763C194.36 43.4207 193.556 42.5487 193.08 41.4601C192.604 40.3767 192.588 39.1348 192.826 37.9934C192.937 37.4596 193.466 37.0104 194.037 37.1373L194.048 37.132Z" fill="white"/>
<path d="M227.243 15.4492C228.041 15.2378 228.935 15.1956 229.909 15.37C232.458 15.8191 234.865 17.4151 236.536 19.3493C239.598 22.8899 241.502 27.5668 242.402 32.1222C243.925 39.8588 242.476 47.8439 239.868 55.1789C239.059 57.4513 238.186 59.7025 237.25 61.9221C236.959 62.6143 236.43 63.6765 236.065 64.6383C236.113 59.1001 236.076 53.4984 234.949 48.0552C233.606 41.534 229.961 36.7039 226.312 31.34C223.387 27.0489 219.51 17.4838 227.248 15.4492H227.243Z" fill="#FFBF00"/>
<path d="M235.785 66.1127L235.795 64.6383C235.843 58.9944 235.795 53.4878 234.685 48.1134C233.473 42.2475 230.379 37.745 227.1 32.973C226.761 32.4815 226.423 31.99 226.084 31.488C224.17 28.6766 221.34 22.8371 222.863 18.7679C223.535 16.9712 224.984 15.7663 227.169 15.1956C228.036 14.9683 228.972 14.9366 229.945 15.111C232.394 15.5391 234.864 17.024 236.726 19.1801C239.551 22.4513 241.656 27.0278 242.65 32.0746C243.999 38.9234 243.147 46.7288 240.106 55.274C239.313 57.5041 238.429 59.7818 237.483 62.033C237.377 62.292 237.234 62.5985 237.081 62.9314C236.821 63.4969 236.531 64.1416 236.303 64.7387L235.779 66.118L235.785 66.1127ZM227.306 15.7082C225.296 16.2366 223.969 17.3305 223.36 18.9582C221.911 22.8318 224.794 28.6607 226.523 31.1973C226.862 31.6941 227.2 32.1856 227.539 32.677C230.85 37.4913 233.971 42.0361 235.203 48.0077C236.234 53.0069 236.356 58.1066 236.335 63.3119C236.425 63.1058 236.52 62.905 236.605 62.7147C236.758 62.3871 236.895 62.0806 237.001 61.8269C237.943 59.581 238.826 57.3192 239.614 55.0943C242.624 46.6443 243.47 38.934 242.137 32.175C241.159 27.218 239.096 22.7261 236.33 19.5236C234.547 17.4574 232.183 16.0358 229.856 15.6289C228.956 15.4704 228.1 15.4968 227.306 15.7029V15.7082Z" fill="#060606"/>
<path d="M226.513 17.4521C227.243 16.9395 228.078 16.7704 228.951 16.818C229.501 16.8497 229.919 17.5155 229.808 18.0281C229.676 18.6359 229.189 18.9212 228.597 18.8843C228.872 18.9001 228.644 18.8843 228.576 18.8843C228.491 18.8843 228.412 18.8948 228.332 18.9054C228.3 18.9054 228.269 18.916 228.237 18.9212C228.232 18.9212 228.237 18.9212 228.226 18.9212C228.195 18.9318 228.163 18.9424 228.131 18.953C228.057 18.9794 227.988 19.0111 227.914 19.0375C227.909 19.0375 227.914 19.0375 227.909 19.0375C227.803 19.1062 227.692 19.1696 227.592 19.2489C227.581 19.2595 227.565 19.27 227.555 19.2806C227.518 19.3176 227.459 19.3652 227.449 19.381C227.354 19.4761 227.269 19.5818 227.184 19.6875C227.174 19.6981 227.095 19.8302 227.073 19.8461C226.994 19.9782 226.925 20.1156 226.862 20.253C226.804 20.3851 226.745 20.5172 226.698 20.6493C226.687 20.681 226.592 20.9188 226.661 20.755C226.73 20.5859 226.629 20.866 226.624 20.8977C226.55 21.1778 226.497 21.4579 226.47 21.7432C226.465 21.8119 226.455 21.8859 226.449 21.9546C226.449 21.9916 226.449 22.0233 226.444 22.0603C226.444 22.1396 226.444 22.1079 226.444 21.9652C226.402 22.0022 226.444 22.3192 226.449 22.3721C226.455 22.5042 226.47 22.6363 226.486 22.7684C226.497 22.8319 226.507 22.89 226.518 22.9534C226.518 22.9693 226.523 22.9851 226.529 22.9957C226.671 23.5241 226.47 24.1583 225.899 24.338C225.397 24.4965 224.709 24.2746 224.556 23.7091C224.159 22.24 224.339 20.6018 225.016 19.2383C225.365 18.5408 225.857 17.896 226.497 17.4416L226.513 17.4521Z" fill="white"/>
<path d="M278.469 136.017L271.291 244.246C271.09 247.29 268.689 249.742 265.648 249.975C254.704 250.804 242.243 251.069 228.56 250.207C213.39 249.251 199.839 247.11 188.224 244.579C185.257 243.929 183.215 241.192 183.416 238.164L190.599 129.903C191.081 122.632 193.942 115.719 198.734 110.229L219.796 86.1043C221.79 83.8214 223.017 80.973 223.308 77.9555L224.514 65.2988L253.393 67.5078L252.922 80.212C252.811 83.2401 253.652 86.2312 255.323 88.7572L273.016 115.439C277.041 121.516 278.966 128.746 278.479 136.012L278.469 136.017Z" fill="#125B48"/>
<path d="M245.401 251C239.768 251 234.14 250.826 228.539 250.472C214.977 249.621 201.389 247.724 188.161 244.838C185.093 244.167 182.94 241.292 183.147 238.148L190.329 129.887C190.811 122.6 193.725 115.556 198.528 110.06L219.589 85.9353C221.557 83.684 222.752 80.9149 223.038 77.9344L224.265 65.0188L253.652 67.2648L253.17 80.2226C253.059 83.219 253.874 86.1202 255.524 88.6146L273.216 115.297C277.252 121.384 279.209 128.751 278.728 136.033L271.55 244.262C271.339 247.433 268.811 250.001 265.658 250.239C258.941 250.746 252.165 251 245.395 251H245.401ZM224.746 65.5843L223.567 77.9819C223.271 81.0734 222.033 83.943 219.991 86.2788L198.93 110.403C194.201 115.814 191.334 122.748 190.858 129.919L183.676 238.18C183.485 241.065 185.463 243.702 188.277 244.32C201.479 247.2 215.035 249.092 228.576 249.943C240.873 250.715 253.34 250.641 265.626 249.711C268.514 249.494 270.836 247.137 271.027 244.23L278.204 136.002C278.68 128.836 276.755 121.585 272.783 115.592L255.09 88.9105C253.377 86.3211 252.536 83.3141 252.647 80.2068L253.112 67.7562L224.746 65.5843Z" fill="#060606"/>
<path d="M253.763 62.9462L224.446 61.0057C223.163 60.9209 222.055 61.8908 221.97 63.1722L221.771 66.1673C221.686 67.4487 222.657 68.5562 223.939 68.6411L253.257 70.5816C254.539 70.6664 255.648 69.6965 255.733 68.4151L255.931 65.42C256.016 64.1386 255.045 63.0311 253.763 62.9462Z" fill="#125B48"/>
<path d="M253.408 70.8531C253.35 70.8531 253.292 70.8531 253.234 70.8478L223.921 68.9083C222.493 68.8132 221.409 67.5766 221.504 66.1498L221.7 63.1587C221.795 61.7318 223.022 60.6485 224.461 60.7436L253.773 62.6831C254.466 62.7306 255.096 63.0424 255.55 63.5603C256.005 64.0835 256.233 64.7493 256.185 65.4416L255.989 68.4327C255.942 69.125 255.63 69.7539 255.111 70.2083C254.635 70.6258 254.032 70.8478 253.408 70.8478V70.8531ZM224.291 61.2668C223.212 61.2668 222.303 62.107 222.234 63.1957L222.038 66.1868C221.964 67.3229 222.826 68.3059 223.963 68.3799L253.276 70.3193C253.831 70.3563 254.36 70.1766 254.773 69.812C255.191 69.4474 255.434 68.9453 255.471 68.3957L255.667 65.4046C255.704 64.855 255.524 64.3213 255.159 63.9091C254.794 63.4969 254.292 63.2485 253.742 63.2115L224.429 61.2721C224.381 61.2721 224.339 61.2721 224.291 61.2721V61.2668Z" fill="#060606"/>
<path d="M265.574 212.549C265.505 218.161 265.436 223.784 264.77 229.36C264.463 231.944 264.035 234.549 263.331 237.059C262.723 239.242 261.824 241.408 260.21 243.047C258.491 244.796 256.127 245.842 253.673 245.937C251.88 246.011 251.869 248.807 253.673 248.733C256.222 248.633 258.719 247.792 260.76 246.249C262.929 244.611 264.368 242.397 265.341 239.886C266.335 237.323 266.827 234.565 267.229 231.859C267.679 228.852 267.954 225.824 268.107 222.785C268.282 219.377 268.329 215.958 268.366 212.544C268.388 210.742 265.59 210.742 265.568 212.544L265.574 212.549Z" fill="#AADC66"/>
<path d="M254.006 65.8168C254.006 65.6636 253.99 65.5209 253.948 65.3888C253.922 65.2514 253.874 65.1351 253.805 65.0347C253.689 64.8445 253.493 64.6965 253.324 64.7123C253.149 64.7229 252.964 64.818 252.843 65.0347C252.726 65.2408 252.626 65.5262 252.642 65.8168C252.663 66.2132 252.657 66.6095 252.631 67.0059C252.61 67.2014 252.589 67.4022 252.562 67.5925C252.52 67.8725 252.541 68.1949 252.631 68.4433C252.716 68.6705 252.874 68.8925 253.038 68.9506C253.213 69.014 253.409 69.0034 253.562 68.8396C253.71 68.6864 253.826 68.4591 253.874 68.179C253.996 67.4128 254.048 66.6042 254.001 65.8115L254.006 65.8168Z" fill="#AADC66"/>
<path d="M216.934 97.5985C216.363 97.0278 215.532 97.1123 214.956 97.5985C207.44 103.935 200.992 111.502 195.904 119.91C194.968 121.453 197.39 122.859 198.321 121.321C203.293 113.109 209.593 105.769 216.934 99.575C217.511 99.0888 217.437 98.1006 216.934 97.5985Z" fill="#AADC66"/>
<path d="M189.486 146.534L186.281 194.867L274.175 200.684L277.379 152.351L189.486 146.534Z" fill="white"/>
<path d="M274.428 200.965L274.163 200.949L186.003 195.11L189.245 146.254L189.51 146.27L277.67 152.109L274.428 200.965ZM186.564 194.619L273.931 200.405L277.099 152.601L189.732 146.814L186.564 194.619Z" fill="#060606"/>
<path d="M278.426 166.251C278.157 166.251 277.882 166.24 277.596 166.219C275.993 166.087 274.417 165.574 273.037 164.729C272.91 164.655 272.873 164.491 272.947 164.364C273.021 164.237 273.19 164.2 273.312 164.274C274.623 165.078 276.12 165.564 277.638 165.685C279.844 165.865 281.626 165.262 282.732 164.723C282.859 164.66 283.023 164.713 283.086 164.845C283.15 164.977 283.097 165.136 282.965 165.199C281.938 165.696 280.368 166.245 278.426 166.245V166.251Z" fill="#060606"/>
<path d="M277.337 157.066C276.046 157.066 274.75 156.823 273.539 156.347C273.401 156.295 273.338 156.141 273.391 156.004C273.444 155.867 273.597 155.803 273.735 155.856C275.163 156.416 276.723 156.638 278.241 156.495C280.441 156.289 282.092 155.386 283.086 154.662C283.202 154.577 283.372 154.603 283.456 154.72C283.541 154.836 283.514 155.005 283.398 155.09C282.351 155.851 280.611 156.802 278.289 157.024C277.971 157.056 277.654 157.066 277.337 157.066Z" fill="#060606"/>
<path d="M273.142 147.792C272.873 147.792 272.603 147.781 272.333 147.76C272.185 147.749 272.079 147.622 272.09 147.474C272.1 147.327 272.233 147.221 272.375 147.231C273.909 147.353 275.464 147.11 276.871 146.529C278.918 145.688 280.23 144.341 280.97 143.363C281.055 143.247 281.224 143.226 281.341 143.31C281.457 143.4 281.478 143.564 281.394 143.68C280.611 144.716 279.225 146.132 277.072 147.015C275.835 147.522 274.486 147.786 273.137 147.786L273.142 147.792Z" fill="#060606"/>
<path d="M239.032 157.801C238.398 169.036 241.852 178.955 247.379 183.833C249.537 185.73 252.007 186.861 254.683 187.009C264.209 187.532 272.645 175.298 273.523 159.692C274.401 144.082 267.393 131.008 257.873 130.484C255.339 130.347 252.885 131.108 250.637 132.588C244.401 136.694 239.678 146.333 239.032 157.801Z" fill="white"/>
<path d="M255.265 187.289C255.064 187.289 254.868 187.283 254.667 187.273C251.991 187.125 249.484 186.036 247.204 184.033C241.465 178.971 238.154 168.666 238.768 157.785C239.397 146.618 243.999 136.641 250.494 132.366C252.864 130.802 255.36 130.083 257.888 130.22C261.131 130.4 264.214 132.022 266.801 134.913C271.741 140.43 274.354 149.699 273.788 159.708C272.92 175.113 264.674 187.294 255.265 187.294V187.289ZM239.297 157.816C238.694 168.544 241.936 178.675 247.559 183.637C249.743 185.561 252.15 186.607 254.704 186.75C254.895 186.76 255.085 186.766 255.276 186.766C264.405 186.766 272.413 174.807 273.264 159.682C273.82 149.81 271.26 140.684 266.409 135.267C263.918 132.482 260.961 130.918 257.862 130.749C255.44 130.617 253.059 131.309 250.785 132.81C244.427 136.995 239.921 146.814 239.297 157.816Z" fill="#060606"/>
<path d="M252.007 137.423C253.694 136.218 255.529 135.595 257.428 135.695C264.553 136.086 269.757 146.65 269.043 159.291C269.012 159.899 268.959 160.496 268.901 161.088L255.365 156.569L267.705 167.53C265.351 175.969 260.337 181.772 254.858 181.47C252.853 181.359 251.012 180.456 249.405 178.923C245.284 174.992 242.735 166.969 243.243 157.875C243.766 148.59 247.331 140.768 252.012 137.423H252.007Z" fill="#060606"/>
<path d="M255.27 181.751C255.127 181.751 254.985 181.751 254.842 181.74C252.821 181.629 250.928 180.746 249.219 179.119C244.866 174.965 242.476 166.822 242.978 157.864C243.486 148.812 246.972 140.705 251.853 137.212C253.646 135.928 255.524 135.331 257.444 135.436C259.734 135.563 261.924 136.726 263.786 138.803C267.663 143.131 269.779 150.989 269.313 159.312C269.281 159.856 269.234 160.448 269.165 161.119L269.133 161.447L256.508 157.235L268.007 167.445L267.964 167.604C265.552 176.26 260.602 181.745 255.276 181.745L255.27 181.751ZM257.016 135.949C255.36 135.949 253.731 136.514 252.166 137.635C247.405 141.038 244.01 148.986 243.507 157.885C243.02 166.557 245.406 174.743 249.59 178.728C251.208 180.266 252.985 181.101 254.879 181.201C259.983 181.47 265.024 176.027 267.414 167.614L254.234 155.909L268.678 160.728C268.726 160.2 268.763 159.719 268.789 159.27C269.25 151.084 267.182 143.368 263.4 139.141C261.633 137.17 259.57 136.065 257.423 135.949C257.291 135.944 257.159 135.938 257.021 135.938L257.016 135.949Z" fill="#060606"/>
<path d="M252.52 147.802C253.007 151.1 256.08 153.383 259.38 152.891C262.681 152.4 264.965 149.335 264.474 146.037C263.987 142.74 260.914 140.457 257.614 140.948C254.313 141.434 252.028 144.505 252.52 147.802Z" fill="white"/>
<path d="M258.497 153.219C255.424 153.219 252.721 150.962 252.261 147.834C251.753 144.394 254.138 141.186 257.582 140.679C261.025 140.171 264.235 142.555 264.743 145.995C264.987 147.66 264.569 149.324 263.569 150.672C262.564 152.025 261.094 152.902 259.428 153.15C259.116 153.198 258.809 153.219 258.502 153.219H258.497ZM252.784 147.76C253.25 150.91 256.196 153.092 259.343 152.627C260.872 152.4 262.22 151.597 263.141 150.36C264.061 149.123 264.442 147.601 264.22 146.074C263.754 142.924 260.808 140.742 257.661 141.207C254.509 141.672 252.324 144.61 252.79 147.765L252.784 147.76Z" fill="#060606"/>
<path d="M246.855 154.683C247.136 156.564 248.886 157.864 250.769 157.589C252.652 157.309 253.953 155.56 253.678 153.679C253.398 151.797 251.647 150.497 249.764 150.772C247.881 151.052 246.58 152.801 246.855 154.683Z" fill="white"/>
<path d="M250.261 157.891C249.468 157.891 248.701 157.637 248.056 157.156C247.257 156.564 246.739 155.697 246.596 154.72C246.453 153.742 246.696 152.759 247.289 151.966C247.881 151.169 248.749 150.651 249.727 150.508C250.711 150.365 251.69 150.608 252.483 151.2C253.282 151.792 253.8 152.659 253.943 153.636C254.086 154.614 253.842 155.597 253.25 156.39C252.657 157.188 251.79 157.706 250.811 157.848C250.626 157.875 250.441 157.891 250.261 157.891ZM250.272 150.999C250.113 150.999 249.96 151.01 249.801 151.036C248.96 151.158 248.215 151.607 247.712 152.289C247.21 152.971 246.993 153.811 247.12 154.651C247.241 155.491 247.686 156.236 248.373 156.738C249.055 157.246 249.896 157.457 250.737 157.33C251.578 157.209 252.324 156.76 252.827 156.078C253.334 155.396 253.546 154.556 253.419 153.716C253.297 152.875 252.853 152.13 252.166 151.628C251.61 151.216 250.954 150.999 250.272 150.999Z" fill="#060606"/>
<path d="M187.061 159.132C186.934 159.132 186.802 159.132 186.675 159.127C184.347 159.037 182.56 158.181 181.47 157.484C181.348 157.404 181.311 157.241 181.391 157.119C181.47 156.997 181.634 156.96 181.756 157.04C182.792 157.706 184.49 158.514 186.696 158.599C188.214 158.657 189.764 158.35 191.16 157.711C191.292 157.647 191.451 157.711 191.509 157.843C191.573 157.975 191.509 158.134 191.377 158.192C190.023 158.81 188.537 159.138 187.056 159.138L187.061 159.132Z" fill="#060606"/>
<path d="M189.251 150.143C188.521 150.143 187.791 150.064 187.077 149.911C184.797 149.419 183.184 148.267 182.237 147.385C182.131 147.284 182.126 147.121 182.221 147.01C182.322 146.904 182.486 146.899 182.597 146.994C183.501 147.829 185.03 148.923 187.193 149.388C188.685 149.71 190.256 149.673 191.747 149.287C191.89 149.25 192.033 149.335 192.07 149.477C192.107 149.62 192.022 149.763 191.879 149.8C191.022 150.022 190.139 150.133 189.256 150.133L189.251 150.143Z" fill="#060606"/>
<path d="M194.106 141.418C194.106 141.418 194.101 141.418 194.095 141.418C192.477 141.355 190.88 140.906 189.478 140.118C187.447 138.982 186.241 137.413 185.585 136.292C185.511 136.166 185.553 136.007 185.68 135.933C185.807 135.859 185.966 135.901 186.04 136.028C186.659 137.09 187.806 138.586 189.737 139.659C191.07 140.404 192.583 140.827 194.122 140.89C194.27 140.895 194.381 141.017 194.376 141.165C194.37 141.307 194.254 141.418 194.111 141.418H194.106Z" fill="#060606"/>
<path d="M225.968 155.343C225.26 166.573 220.653 176.011 214.586 180.202C212.216 181.83 209.63 182.659 206.954 182.49C197.433 181.877 190.515 168.729 191.493 153.129C192.477 137.529 200.987 125.374 210.508 125.987C213.042 126.151 215.39 127.197 217.442 128.936C223.144 133.756 226.688 143.886 225.968 155.349V155.343Z" fill="white"/>
<path d="M207.652 182.776C207.414 182.776 207.17 182.77 206.932 182.755C197.28 182.136 190.234 168.835 191.229 153.113C191.858 143.109 195.555 134.215 201.114 129.322C204.029 126.759 207.287 125.512 210.524 125.723C213.057 125.887 215.443 126.896 217.611 128.73C223.551 133.745 226.931 144.198 226.227 155.364C225.545 166.24 221.028 176.08 214.729 180.424C212.454 181.988 210.074 182.781 207.652 182.781V182.776ZM209.826 126.225C206.948 126.225 204.071 127.425 201.463 129.718C196.005 134.517 192.377 143.279 191.758 153.145C190.785 168.576 197.608 181.624 206.969 182.226C209.519 182.39 212.031 181.634 214.433 179.985C220.605 175.726 225.027 166.05 225.704 155.327C226.397 144.325 223.086 134.046 217.273 129.132C215.194 127.372 212.909 126.4 210.492 126.246C210.27 126.23 210.048 126.225 209.831 126.225H209.826Z" fill="#060606"/>
<path d="M215.506 133.571C213.978 132.176 212.222 131.335 210.328 131.214C203.209 130.759 196.788 140.631 195.989 153.266C195.952 153.874 195.931 154.471 195.92 155.069L209.9 152.188L196.344 161.606C197.676 170.262 201.966 176.619 207.44 176.973C209.445 177.1 211.381 176.418 213.158 175.092C217.717 171.678 221.203 164.015 221.779 154.921C222.366 145.635 219.754 137.45 215.506 133.571Z" fill="#060606"/>
<path d="M207.922 177.248C207.752 177.248 207.588 177.248 207.419 177.232C201.934 176.878 197.481 170.759 196.074 161.643L196.047 161.479L208.678 152.706L195.64 155.391V155.058C195.661 154.392 195.682 153.795 195.719 153.245C196.243 144.927 199.279 137.376 203.643 133.539C205.737 131.7 208.049 130.802 210.339 130.95C212.254 131.071 214.052 131.89 215.676 133.375C220.108 137.423 222.604 145.884 222.033 154.936C221.467 163.889 218.125 171.694 213.306 175.303C211.571 176.598 209.757 177.253 207.911 177.253L207.922 177.248ZM196.629 161.727C197.999 170.367 202.342 176.376 207.456 176.704C209.344 176.825 211.212 176.212 212.999 174.875C217.622 171.414 220.965 163.571 221.515 154.899C222.076 146 219.648 137.709 215.327 133.761C213.787 132.355 212.1 131.589 210.307 131.473C208.165 131.341 205.981 132.186 203.997 133.93C199.734 137.677 196.767 145.091 196.248 153.277C196.222 153.732 196.201 154.212 196.185 154.736L211.1 151.665L196.624 161.722L196.629 161.727Z" fill="#060606"/>
<path d="M213.761 143.812C212.883 147.031 209.561 148.928 206.34 148.056C203.119 147.179 201.22 143.86 202.093 140.642C202.971 137.423 206.292 135.526 209.514 136.398C212.735 137.275 214.633 140.594 213.761 143.812Z" fill="white"/>
<path d="M207.937 148.531C207.382 148.531 206.821 148.457 206.271 148.31C202.912 147.395 200.929 143.929 201.839 140.573C202.754 137.222 206.224 135.235 209.582 136.144C211.206 136.588 212.565 137.635 213.401 139.093C214.237 140.557 214.454 142.253 214.015 143.876C213.57 145.498 212.523 146.856 211.063 147.691C210.095 148.246 209.027 148.526 207.937 148.526V148.531ZM207.927 136.451C205.383 136.451 203.05 138.142 202.347 140.71C201.511 143.781 203.33 146.962 206.403 147.797C207.895 148.204 209.45 148.003 210.793 147.237C212.132 146.47 213.094 145.229 213.501 143.744C213.909 142.253 213.708 140.7 212.941 139.357C212.174 138.02 210.931 137.059 209.445 136.652C208.937 136.514 208.429 136.451 207.927 136.451Z" fill="#060606"/>
<path d="M218.568 151.322C218.066 153.156 216.172 154.244 214.337 153.742C212.496 153.24 211.412 151.348 211.915 149.514C212.417 147.675 214.311 146.592 216.146 147.094C217.981 147.596 219.071 149.488 218.568 151.322Z" fill="white"/>
<path d="M215.236 154.128C214.914 154.128 214.586 154.086 214.263 153.996C212.285 153.457 211.116 151.417 211.655 149.44C212.195 147.464 214.237 146.296 216.215 146.835C218.193 147.374 219.362 149.414 218.822 151.39C218.373 153.039 216.871 154.128 215.236 154.128ZM215.242 147.231C213.84 147.231 212.555 148.161 212.169 149.578C211.708 151.269 212.713 153.023 214.406 153.483C216.104 153.943 217.854 152.939 218.315 151.248C218.775 149.557 217.77 147.802 216.077 147.342C215.797 147.268 215.517 147.231 215.242 147.231Z" fill="#060606"/>
<path d="M237.356 174.516C237.112 176.582 234.283 177.946 231.04 177.565C227.793 177.185 225.36 175.203 225.603 173.137C225.846 171.07 228.676 169.707 231.918 170.087C235.166 170.468 237.599 172.45 237.356 174.516Z" fill="#FF6600"/>
<path d="M232.109 177.893C231.749 177.893 231.384 177.872 231.009 177.829C227.624 177.433 225.08 175.314 225.339 173.11C225.598 170.906 228.56 169.432 231.95 169.828C235.335 170.225 237.879 172.344 237.62 174.548C237.388 176.513 235.013 177.893 232.109 177.893ZM230.834 170.288C228.2 170.288 226.063 171.472 225.862 173.168C225.635 175.087 227.973 176.936 231.072 177.301C234.172 177.666 236.869 176.397 237.097 174.484C237.324 172.566 234.986 170.716 231.887 170.352C231.527 170.309 231.178 170.288 230.834 170.288Z" fill="#060606"/>
<path d="M236.018 184.361C230.475 183.806 224.91 183.373 219.346 183.098C214.549 182.86 202.288 180.318 201.331 189.276C200.871 193.588 204.05 197.277 206.636 199.671C213.512 206.033 222.62 209.093 231.919 208.607C239.593 208.205 248.564 205.822 254.414 199.169C257.402 195.771 258.941 190.65 255.186 188.045C252.483 186.168 248.913 185.841 245.729 185.45C242.502 185.053 239.265 184.689 236.023 184.366L236.018 184.361Z" fill="#FFBF00"/>
<path d="M229.967 208.919C221.092 208.919 212.809 205.743 206.456 199.861C202.463 196.162 200.696 192.69 201.067 189.244C201.923 181.217 211.428 182.11 217.109 182.644C217.981 182.728 218.733 182.797 219.362 182.829C224.672 183.093 230.284 183.521 236.049 184.097C239.181 184.409 242.449 184.773 245.76 185.18L246.374 185.254C249.362 185.614 252.753 186.026 255.339 187.817C256.667 188.737 257.434 189.995 257.624 191.559C257.91 193.921 256.762 196.901 254.614 199.338C247.924 206.942 237.53 208.57 231.934 208.866C231.279 208.898 230.623 208.919 229.972 208.919H229.967ZM211.714 182.85C206.996 182.85 202.161 183.944 201.59 189.302C201.241 192.573 202.95 195.897 206.811 199.475C213.523 205.69 222.435 208.834 231.903 208.337C237.419 208.047 247.649 206.451 254.212 198.989C256.259 196.664 257.365 193.842 257.095 191.622C256.926 190.216 256.233 189.086 255.032 188.251C252.557 186.533 249.378 186.147 246.305 185.777L245.692 185.703C242.381 185.296 239.117 184.932 235.991 184.62C230.237 184.044 224.63 183.621 219.33 183.357C218.685 183.325 217.929 183.251 217.056 183.172C215.485 183.024 213.613 182.85 211.714 182.85Z" fill="#060606"/>
<path d="M233.548 187.209C229.168 186.808 224.778 186.491 220.388 186.285C216.612 186.105 206.837 184.303 206.636 190.539C206.541 193.54 209.26 196.114 211.439 197.789C217.225 202.239 224.556 204.39 231.823 204.078C237.816 203.819 244.708 202.181 248.892 197.567C251.028 195.21 251.922 191.649 248.812 189.825C246.575 188.509 243.756 188.277 241.233 187.997C238.678 187.711 236.118 187.453 233.553 187.215L233.548 187.209Z" fill="white"/>
<path d="M230.406 204.374C223.398 204.374 216.654 202.139 211.28 198.001C207.9 195.406 206.298 192.959 206.377 190.534C206.419 189.197 206.895 188.118 207.784 187.326C210.222 185.164 215.284 185.598 218.627 185.888C219.299 185.946 219.907 185.999 220.404 186.02C224.583 186.221 229.015 186.528 233.574 186.945C236.049 187.173 238.636 187.431 241.259 187.727L241.746 187.78C244.116 188.039 246.802 188.335 248.945 189.593C250.129 190.29 250.859 191.3 251.044 192.521C251.293 194.159 250.563 196.114 249.087 197.742C244.285 203.042 236.219 204.152 231.834 204.342C231.358 204.363 230.882 204.374 230.406 204.374ZM214.258 186.174C211.883 186.174 209.514 186.496 208.133 187.722C207.345 188.42 206.943 189.344 206.906 190.549C206.832 192.795 208.371 195.094 211.603 197.583C217.246 201.922 224.424 204.136 231.813 203.819C236.113 203.634 244.026 202.551 248.696 197.393C250.066 195.882 250.748 194.09 250.521 192.605C250.357 191.538 249.738 190.676 248.675 190.053C246.633 188.853 244.116 188.578 241.688 188.309L241.201 188.256C238.583 187.965 236.002 187.701 233.527 187.474C228.973 187.056 224.551 186.75 220.383 186.549C219.875 186.522 219.267 186.47 218.585 186.412C217.31 186.301 215.787 186.168 214.263 186.168L214.258 186.174Z" fill="#060606"/>
<path d="M213.655 199.539C213.253 196.875 213.38 194.217 214.025 191.627C214.538 189.593 215.363 187.653 216.479 185.862L216.929 186.142C215.839 187.886 215.035 189.773 214.538 191.754C213.904 194.275 213.782 196.87 214.173 199.459L213.65 199.539H213.655Z" fill="#060606"/>
<path d="M223.636 203.444C223.572 200.204 223.81 196.949 224.334 193.757C224.731 191.368 225.297 188.98 226.016 186.665L226.518 186.824C225.804 189.117 225.244 191.479 224.858 193.847C224.334 197.002 224.101 200.231 224.165 203.433L223.636 203.444Z" fill="#060606"/>
<path d="M234.981 203.925L234.478 203.756C235.441 200.87 235.859 197.869 235.716 194.846C235.595 192.293 235.076 189.783 234.177 187.379L234.674 187.194C235.595 189.646 236.123 192.214 236.245 194.819C236.388 197.905 235.965 200.971 234.981 203.919V203.925Z" fill="#060606"/>
<path d="M244.11 201.372L243.613 201.198C244.412 198.915 244.681 196.452 244.396 194.069C244.152 192.034 243.518 190.09 242.518 188.288L242.978 188.034C244.01 189.894 244.665 191.908 244.914 194.006C245.21 196.463 244.93 199.01 244.11 201.372Z" fill="#060606"/>
<path d="M206.504 249.684C209.561 248.099 212.385 244.653 210.931 241.657C209.614 238.946 205.309 238.417 202.532 238.983C203.203 237.064 202.669 234.01 200.532 232.826C198.676 231.801 195.709 231.299 193.392 233.46C193.276 231.156 192.641 228.715 190.092 227.383C188.103 226.347 185.432 226.775 184.067 228.086C183.707 225.127 182.475 223.499 180.153 222.294C178.64 221.512 175.721 221.142 173.378 223.34C173.039 219.657 169.146 218.109 166.999 221.205C165.809 222.923 165.782 225.618 166.243 227.716L206.509 249.689L206.504 249.684Z" fill="#FF6600"/>
</g>
</g>
<defs>
<clipPath id="clip0_197_2139">
<rect width="359" height="219" rx="8" fill="white"/>
</clipPath>
<clipPath id="clip1_197_2139">
<rect width="217" height="236" fill="white" transform="translate(71 15)"/>
</clipPath>
</defs>
</svg>
