<svg width="359" height="219" viewBox="0 0 359 219" fill="none" xmlns="http://www.w3.org/2000/svg">
<rect width="359" height="219" rx="8" fill="#125B48"/>
<path d="M159.498 71.0489C161.409 71.9487 163.207 73.0686 164.853 74.364C165.6 69.7088 167.488 65.3599 170.298 61.6491C167.839 56.6429 163.469 52.8204 158.158 51.0209L158.136 51.0432C157.367 51.8792 156.729 52.8236 156.226 53.8542L153.658 59.2337C153.132 60.3313 152.781 61.4959 152.624 62.7052C152.36 64.7473 152.404 66.834 152.755 68.876C155.084 69.3164 157.345 70.0406 159.495 71.0489H159.498Z" fill="#AADC66"/>
<path d="M151.99 115.125C159.39 122.349 169.156 126.325 179.497 126.325H180.31C189.356 126.149 197.983 122.591 204.745 116.574L206.018 115.432C212.911 109.283 217.433 100.895 218.553 91.7119C218.684 90.6366 218.773 89.5582 218.818 88.4606C214.515 88.2628 202.506 88.7031 195.789 98.674C195.151 99.6185 193.99 100.036 192.912 99.7046C191.837 99.3983 191.091 98.4092 191.068 97.2892C190.96 91.7566 189.289 81.6963 179.5 76.2944C169.708 81.6963 168.062 91.7342 167.931 97.2892C167.909 98.4315 167.163 99.3983 166.088 99.7046C164.991 100.033 163.849 99.6153 163.211 98.674C156.494 88.7031 144.485 88.2851 140.182 88.4829C140.555 98.5847 144.75 108.029 151.993 115.122L151.99 115.125Z" fill="#AADC66"/>
<path d="M179.497 57.6289C172.735 61.8885 168.41 69.1154 167.839 77.0635C168.694 77.9632 169.507 78.93 170.253 79.9415C172.186 77.4368 174.754 75.1108 178.179 73.2857C178.597 73.0655 179.034 72.957 179.474 72.957C179.915 72.957 180.374 73.0655 180.769 73.2857C183.93 74.9767 186.345 77.0635 188.211 79.348C189.065 78.2281 190.01 77.1751 191.043 76.2084C190.274 68.6113 185.994 61.7353 179.497 57.6289Z" fill="#AADC66"/>
<path d="M190.255 82.1622C192.976 86.6643 193.965 91.5173 194.252 95.2505C199.849 88.2022 207.82 85.9815 213.549 85.3912C214.295 80.7583 213.746 76.0361 211.903 71.6648C203.297 71.2245 195.24 75.1363 190.255 82.1622Z" fill="#AADC66"/>
<path d="M194.031 73.7291C195.457 72.6985 196.972 71.7955 198.577 71.0489C200.969 69.929 203.517 69.1377 206.107 68.7197C207.137 62.3064 205.163 55.7846 200.685 51.0177C195.416 52.7981 191.046 56.595 188.59 61.5374C191.333 65.0951 193.199 69.2685 194.035 73.7259L194.031 73.7291Z" fill="#AADC66"/>
<path d="M178.071 54.6647C178.511 54.3998 179.015 54.2467 179.497 54.2467C179.978 54.2467 180.485 54.3775 180.922 54.6647C182.878 55.8739 184.677 57.3002 186.259 58.9019C187.289 57.08 188.542 55.4113 189.99 53.9372C189.375 46.8219 185.445 40.3416 179.388 36.5C173.328 40.3448 169.399 46.8219 168.786 53.9372C170.257 55.4304 171.529 57.1438 172.585 58.9881C174.231 57.3417 176.055 55.8931 178.074 54.6615L178.071 54.6647Z" fill="#AADC66"/>
<path d="M164.745 95.2503C165.01 91.715 165.909 87.1906 168.323 82.8863C168.193 82.6885 168.059 82.4907 167.928 82.3152C162.946 75.1999 154.844 71.2466 146.172 71.6646C144.351 75.9912 143.78 80.6911 144.504 85.3017C150.299 85.7643 158.841 87.8064 164.745 95.2503Z" fill="#AADC66"/>
<path d="M42 182.497V149.325H67.8174C71.3227 149.325 73.9919 150.083 75.8231 151.598C77.5922 153.052 78.4759 155.138 78.4759 157.854C78.4759 161.645 76.7543 164.188 73.3127 165.484C77.7018 166.591 79.898 169.34 79.898 173.73C79.898 176.51 78.9815 178.659 77.1503 180.175C75.2552 181.724 72.5239 182.497 68.9547 182.497H42ZM54.3163 161.645H63.9323C65.4166 161.645 66.158 161.094 66.158 159.987C66.158 158.88 65.415 158.329 63.9323 158.329H54.3163V161.645ZM54.3163 173.493H65.3544C66.8387 173.493 67.5817 172.941 67.5817 171.834C67.5817 170.728 66.8387 170.176 65.3544 170.176H54.3163V173.493Z" fill="#AADC66"/>
<path d="M98.6097 182.497H86.2935V149.325H108.227C113.438 149.325 117.418 150.462 120.166 152.736C122.85 154.917 124.193 158.044 124.193 162.12C124.193 167.27 122.077 170.903 117.845 173.02L124.193 182.498H111.402L106.334 174.915H98.613V182.498L98.6097 182.497ZM98.6097 164.489H108.653C110.8 164.489 111.874 163.7 111.874 162.12C111.874 160.54 110.8 159.751 108.653 159.751H98.6097V164.49V164.489Z" fill="#AADC66"/>
<path d="M165.642 149.325V158.803H142.903V161.647H165.167V170.178H142.903V173.021H165.642V182.5H130.587V149.325H165.642Z" fill="#AADC66"/>
<path d="M238.833 149.325L227.464 182.497H210.883L204.25 163.161L197.618 182.497H181.037L169.668 149.325H182.459L189.802 170.744L197.145 149.325H211.356L218.699 170.744L226.042 149.325H238.833Z" fill="#AADC66"/>
<path d="M256.36 149.325V172.072H275.309V182.497H244.043V149.325H256.36Z" fill="#AADC66"/>
<path d="M316.997 149.325L300.18 171.739V182.497H287.864V171.739L271.047 149.325H284.785L294.024 161.645L303.262 149.325H317H316.997Z" fill="#AADC66"/>
</svg>
