<svg width="937" height="114" viewBox="0 0 937 114" fill="none" xmlns="http://www.w3.org/2000/svg">
<path d="M0 113.008V0H87.9525C99.8944 0 108.987 2.58218 115.226 7.74655C121.253 12.699 124.263 19.8042 124.263 29.0565C124.263 41.973 118.398 50.6342 106.674 55.0512C121.626 58.8213 129.108 68.1852 129.108 83.1429C129.108 92.6128 125.986 99.9354 119.747 105.1C113.291 110.376 103.986 113.008 91.8272 113.008H0ZM41.9581 41.973H74.7173C79.7739 41.973 82.2994 40.0935 82.2994 36.3234C82.2994 32.5533 79.7683 30.6739 74.7173 30.6739H41.9581V41.973ZM41.9581 82.3342H79.562C84.6186 82.3342 87.1497 80.4548 87.1497 76.6847C87.1497 72.9146 84.6186 71.0351 79.562 71.0351H41.9581V82.3342Z" fill="#003527"/>
<path d="M192.853 113.008H150.895V0H225.618C243.369 0 256.928 3.87606 266.288 11.6226C275.431 19.0513 280.009 29.7035 280.009 43.5904C280.009 61.1358 272.8 73.5113 258.383 80.7225L280.009 113.014H236.434L219.168 87.1807H192.865V113.014L192.853 113.008ZM192.853 51.6604H227.068C234.382 51.6604 238.039 48.9722 238.039 43.5904C238.039 38.2085 234.382 35.5203 227.068 35.5203H192.853V51.6659V51.6604Z" fill="#003527"/>
<path d="M421.214 0V32.2912H343.749V41.9786H419.598V71.0407H343.749V80.728H421.214V113.019H301.791V0H421.214Z" fill="#003527"/>
<path d="M670.554 0L631.824 113.008H575.338L552.742 47.1374L530.146 113.008H473.659L434.929 0H478.504L503.519 72.9703L528.535 0H576.949L601.964 72.9703L626.98 0H670.554Z" fill="#003527"/>
<path d="M730.264 0V77.4933H794.817V113.008H688.305V0H730.264Z" fill="#003527"/>
<path d="M936.837 0L879.547 76.3612V113.008H837.589V76.3612L780.3 0H827.103L858.574 41.973L890.045 0H936.848H936.837Z" fill="#003527"/>
</svg>
